<svg xmlns="http://www.w3.org/2000/svg" fill="none" viewBox="0 0 2000 2000">
  <g fill="#00bfcb" style="mix-blend-mode:screen" opacity=".75">
    <path d="M999.134 332.18c-367.853 0-667.123 299.417-667.123 667.451 0 368.039 299.27 667.459 667.123 667.459 367.856 0 667.126-299.42 667.126-667.459 0-368.034-299.27-667.451-667.126-667.451m0 1349.59c-375.949 0-681.8-306-681.8-682.139 0-376.133 305.851-682.15 681.8-682.15 375.946 0 681.806 306.004 681.806 682.139 0 376.14-305.86 682.14-681.806 682.14z"/>
    <path d="M999.136 299.215c-386.017 0-700.052 314.212-700.052 700.408s314.048 700.397 700.052 700.397 700.044-314.2 700.044-700.397c0-386.196-314.04-700.408-700.044-700.408m0 1414.295c-393.45 0-713.539-320.24-713.539-713.887 0-393.644 320.089-713.88 713.539-713.88 393.444 0 713.534 320.248 713.534 713.892s-320.09 713.895-713.534 713.895z" opacity=".91"/>
    <path d="M999.139 266.261c-404.18 0-732.995 328.984-732.995 733.363 0 404.376 328.815 733.366 732.995 733.366 404.171 0 732.991-328.99 732.991-733.366 0-404.379-328.82-733.363-732.991-733.363m0 1479.019c-410.946 0-745.277-334.51-745.277-745.656 0-411.151 334.331-745.639 745.277-745.639 410.941 0 745.271 334.501 745.271 745.65 0 411.155-334.33 745.645-745.271 745.645" opacity=".82"/>
    <path d="M999.139 233.3C576.804 233.3 233.2 577.071 233.2 999.624c0 422.546 343.604 766.316 765.939 766.316 422.341 0 765.941-343.77 765.941-766.316 0-422.553-343.6-766.324-765.941-766.324m0 1543.72c-428.443 0-777.001-348.73-777.001-777.385 0-428.657 348.558-777.4 777.001-777.4 428.441 0 777.001 348.726 777.001 777.389 0 428.656-348.56 777.386-777.001 777.386z" opacity=".73"/>
    <path d="M999.132 200.339c-440.509 0-798.882 358.55-798.882 799.281s358.373 799.28 798.882 799.28 798.878-358.55 798.878-799.28c0-440.731-358.38-799.281-798.878-799.281m0 1608.421c-445.942 0-808.735-362.97-808.735-809.14 0-446.165 362.793-809.128 808.735-809.128 445.938 0 808.738 362.974 808.738 809.143 0 446.165-362.8 809.135-808.738 809.135z" opacity=".64"/>
    <path d="M999.139 167.382c-458.672 0-831.826 373.337-831.826 832.242 0 458.896 373.154 832.236 831.826 832.236 458.671 0 831.821-373.34 831.821-832.236 0-458.905-373.16-832.242-831.821-832.242m0 1673.128c-463.44 0-840.476-377.22-840.476-840.886 0-463.675 377.036-840.881 840.476-840.881s840.481 377.223 840.481 840.892c0 463.675-377.04 840.895-840.481 840.895z" opacity=".55"/>
    <path d="M999.136 134.436c-476.829 0-864.767 388.13-864.767 865.201 0 477.073 387.938 865.193 864.767 865.193 476.834 0 864.774-388.12 864.774-865.193 0-477.071-387.94-865.201-864.774-865.201m0 1737.834c-480.937 0-872.196-391.47-872.196-872.633 0-481.166 391.259-872.652 872.196-872.652 480.934 0 872.204 391.469 872.204 872.64 0 481.165-391.27 872.635-872.204 872.635z" opacity=".45"/>
    <path d="M999.133 101.473c-495.004 0-897.709 402.913-897.709 898.16 0 495.257 402.705 898.157 897.709 898.157 495.007 0 897.707-402.9 897.707-898.157 0-495.247-402.72-898.16-897.707-898.16m0 1802.537c-498.435 0-903.938-405.71-903.938-904.388 0-498.687 405.503-904.377 903.938-904.377 498.437 0 903.937 405.705 903.937 904.388 0 498.687-405.5 904.377-903.937 904.377" opacity=".36"/>
    <path d="M999.135 68.515c-513.165 0-930.654 417.695-930.654 931.122 0 513.413 417.489 931.113 930.654 931.113s930.645-417.7 930.645-931.113c0-513.427-417.49-931.122-930.645-931.122m0 1867.245c-515.933 0-935.674-419.95-935.674-936.14S483.202 63.492 999.135 63.492c515.935 0 935.685 419.948 935.685 936.145 0 516.193-419.75 936.143-935.685 936.143z" opacity=".27"/>
    <path d="M999.133 35.555c-531.334 0-963.594 432.475-963.594 964.08s432.276 964.075 963.594 964.075c531.327 0 963.587-432.49 963.587-964.075 0-531.593-432.26-964.08-963.587-964.08m0 1931.955c-533.43 0-967.395-434.19-967.395-967.875 0-533.686 433.965-967.896 967.395-967.896 533.437 0 967.397 434.199 967.397 967.881 0 533.68-433.98 967.87-967.397 967.87z" opacity=".18"/>
    <path d="M999.135 2.597C449.637 2.597 2.597 449.862 2.597 999.635c0 549.775 447.04 997.035 996.538 997.035 549.505 0 996.535-447.26 996.535-997.035 0-549.773-447.05-997.038-996.535-997.038m0 1996.663C448.204 1999.26 0 1550.83 0 999.625 0 448.418 448.204 0 999.135 0c550.925 0 999.145 448.429 999.145 999.635s-448.22 999.645-999.145 999.645z" opacity=".09"/>
  </g>
</svg>
