<?xml version="1.0" encoding="UTF-8" standalone="no"?>
<svg
   xml:space="preserve"
   id="svg4819"
   x="0"
   y="0"
   version="1.1"
   viewBox="-0.04 32.75 512.00001 512"
   sodipodi:docname="cyberchef.svg"
   width="512"
   height="512"
   inkscape:version="1.4.2 (ebf0e940d0, 2025-05-08)"
   xmlns:inkscape="http://www.inkscape.org/namespaces/inkscape"
   xmlns:sodipodi="http://sodipodi.sourceforge.net/DTD/sodipodi-0.dtd"
   xmlns="http://www.w3.org/2000/svg"
   xmlns:svg="http://www.w3.org/2000/svg"><defs
     id="defs1"><filter
       style="color-interpolation-filters:sRGB;"
       inkscape:label="Drop Shadow"
       id="filter35"
       x="0"
       y="-0.019260918"
       width="1"
       height="1.0192609"><feFlood
         result="flood"
         in="SourceGraphic"
         flood-opacity="0.262745"
         flood-color="rgb(0,0,0)"
         id="feFlood34" /><feGaussianBlur
         result="blur"
         in="SourceGraphic"
         stdDeviation="0.000000"
         id="feGaussianBlur34" /><feOffset
         result="offset"
         in="blur"
         dx="0.000000"
         dy="-8.600000"
         id="feOffset34" /><feComposite
         result="comp1"
         operator="out"
         in="flood"
         in2="offset"
         id="feComposite34" /><feComposite
         result="comp2"
         operator="atop"
         in="comp1"
         in2="SourceGraphic"
         id="feComposite35" /></filter></defs><sodipodi:namedview
     id="namedview1"
     pagecolor="#ffffff"
     bordercolor="#000000"
     borderopacity="0.25"
     inkscape:showpageshadow="2"
     inkscape:pageopacity="0.0"
     inkscape:pagecheckerboard="0"
     inkscape:deskcolor="#d1d1d1"
     showguides="true"
     inkscape:zoom="1.300497"
     inkscape:cx="208.38188"
     inkscape:cy="232.98786"
     inkscape:window-width="1920"
     inkscape:window-height="1017"
     inkscape:window-x="0"
     inkscape:window-y="32"
     inkscape:window-maximized="1"
     inkscape:current-layer="svg4819" /><style
     id="style1">.st3{fill:#ccc}.st4{fill:#e6e6e6}</style><filter
     id="filter4682"
     style="color-interpolation-filters:sRGB"
     x="-0.023438154"
     y="-0.026875701"
     width="1.0468763"
     height="1.0553191"><feFlood
       id="feFlood4684"
       flood-color="#000"
       flood-opacity=".498"
       result="flood" /><feComposite
       id="feComposite4686"
       in="flood"
       in2="SourceGraphic"
       operator="in"
       result="composite1" /><feGaussianBlur
       id="feGaussianBlur4688"
       in="composite1"
       result="blur"
       stdDeviation="5" /><feOffset
       id="feOffset4690"
       dx="0"
       dy=".7"
       result="offset" /><feComposite
       id="feComposite4692"
       in="SourceGraphic"
       in2="offset"
       operator="over"
       result="composite2" /></filter><g
     id="layer1"
     transform="matrix(0.95752066,0,0,0.95752066,-48.311217,-511.13403)"
     style="filter:url(#filter35)"><g
       id="g4673"
       transform="translate(5.177,2.02)"><path
         id="rect5513_00000009577296160720408050000012299069017901198774_"
         d="m 287.7,989 v 49.9 H 440.5 V 989 Z"
         style="fill:#808080" /><path
         id="path5516_00000023993831347713664670000016381420833678626202_"
         d="M 287.7,989 H 134.9 v 49.9 h 152.8 z"
         style="fill:#b3b3b3" /><path
         id="path5432_00000111875906202437826970000014422903456263522711_"
         d="m 301.3,610.1 c -4.6,0 -9.1,0.4 -13.7,0.9 V 996.1 H 448 v -80.5 c 0.5,-3.4 1,-6.9 1.3,-9.6 l 1.2,-11 10,-4 10,-4 14.6,11.8 c 8,6.5 16.1,11.8 18,11.8 4.8,0 38.8,-35.1 38.8,-40 0,-2.1 -5.2,-10.4 -11.5,-18.6 l -11.5,-14.8 3.6,-8.5 c 2,-4.7 4.2,-9.1 4.8,-9.8 0.6,-0.7 10.1,-2.8 20.9,-4.6 l 19.8,-3.3 0.5,-27.2 c 0.3,-16.3 -0.2,-28 -1.3,-29 -1,-1 -10.4,-3.1 -20.8,-4.7 l -19.1,-2.9 -4.2,-10.5 -4.2,-10.5 11.5,-14.9 c 6.3,-8.2 11.5,-16.1 11.5,-17.6 0,-3.2 -35.7,-40.5 -38.8,-40.5 -1.1,0 -9.1,5.4 -17.8,12 l -15.7,12 -9.6,-4 -9.3,-3.9 c -0.1,0 -0.2,-0.1 -0.3,-0.1 l -3,-19.2 c -1.6,-10.6 -3.8,-20.3 -4.9,-21.6 -1.5,-1.8 -14.2,-2.7 -26.8,-2.6 -12.7,0.1 -25.3,1.1 -26.9,2.9 -1.1,1.3 -3,9.2 -4.4,18.2 -21.3,-23.3 -51.5,-36.7 -83.1,-36.8"
         class="st3" /><path
         id="path5490_00000018199263273366371360000013499692473267959976_"
         d="m 287.7,1030.2 v 26.4 H 448 v -26.4 z"
         class="st3" /><path
         id="path5488_00000023255143700853136200000008369493140482104482_"
         d="m 287.7,611.1 c -31.4,3.9 -59.7,20.7 -78.4,46.6 -12.4,-4.6 -25.5,-7 -38.7,-7 -63,0 -114,51.7 -114,115.6 0,46.6 27.6,88.6 70,106.6 v 123.3 h 161 z"
         class="st4" /><path
         id="path5492_00000107564739733608024550000002597578398940449720_"
         d="m 287.7,1030.2 h -161 v 26.4 h 161 z"
         class="st4" /></g></g></svg>
