<?xml version="1.0" encoding="UTF-8" standalone="no"?>
<!-- Created with Inkscape (http://www.inkscape.org/) -->

<svg
   width="512"
   height="512"
   viewBox="0 0 135.46666 135.46667"
   version="1.1"
   id="svg5"
   inkscape:export-filename="wazuh-logo.svg"
   inkscape:export-xdpi="96"
   inkscape:export-ydpi="96"
   sodipodi:docname="wazuh-logo.svg"
   inkscape:version="1.2.2 (b0a8486541, 2022-12-01)"
   xmlns:inkscape="http://www.inkscape.org/namespaces/inkscape"
   xmlns:sodipodi="http://sodipodi.sourceforge.net/DTD/sodipodi-0.dtd"
   xmlns="http://www.w3.org/2000/svg"
   xmlns:svg="http://www.w3.org/2000/svg">
  <sodipodi:namedview
     id="namedview7"
     pagecolor="#ffffff"
     bordercolor="#000000"
     borderopacity="0.25"
     inkscape:showpageshadow="2"
     inkscape:pageopacity="0.0"
     inkscape:pagecheckerboard="0"
     inkscape:deskcolor="#d1d1d1"
     inkscape:document-units="px"
     showgrid="false"
     inkscape:zoom="0.96061615"
     inkscape:cx="119.71483"
     inkscape:cy="279.50811"
     inkscape:window-width="1854"
     inkscape:window-height="1011"
     inkscape:window-x="0"
     inkscape:window-y="0"
     inkscape:window-maximized="1"
     inkscape:current-layer="layer1" />
  <defs
     id="defs2">
    <filter
       style="color-interpolation-filters:sRGB"
       inkscape:label="Drop Shadow"
       id="filter10220"
       x="0"
       y="-0.010644429"
       width="1"
       height="1.0106444">
      <feFlood
         flood-opacity="0.286275"
         flood-color="rgb(0,113,229)"
         result="flood"
         id="feFlood10210" />
      <feComposite
         in="flood"
         in2="SourceGraphic"
         operator="out"
         result="composite1"
         id="feComposite10212" />
      <feGaussianBlur
         in="composite1"
         stdDeviation="0"
         result="blur"
         id="feGaussianBlur10214" />
      <feOffset
         dx="0"
         dy="-1.4"
         result="offset"
         id="feOffset10216" />
      <feComposite
         in="offset"
         in2="SourceGraphic"
         operator="atop"
         result="composite2"
         id="feComposite10218" />
    </filter>
    <filter
       style="color-interpolation-filters:sRGB;"
       inkscape:label="Drop Shadow"
       id="filter4731"
       x="0"
       y="0"
       width="1"
       height="1.0334539">
      <feFlood
         flood-opacity="1"
         flood-color="rgb(0,158,215)"
         result="flood"
         id="feFlood4721" />
      <feComposite
         in="flood"
         in2="SourceGraphic"
         operator="out"
         result="composite1"
         id="feComposite4723" />
      <feGaussianBlur
         in="composite1"
         stdDeviation="0"
         result="blur"
         id="feGaussianBlur4725" />
      <feOffset
         dx="0"
         dy="4.4"
         result="offset"
         id="feOffset4727" />
      <feComposite
         in="offset"
         in2="SourceGraphic"
         operator="atop"
         result="composite2"
         id="feComposite4729" />
    </filter>
    <filter
       style="color-interpolation-filters:sRGB;"
       inkscape:label="Drop Shadow"
       id="filter5297"
       x="0"
       y="-0.038776135"
       width="1"
       height="1.0387761">
      <feFlood
         flood-opacity="1"
         flood-color="rgb(0,162,220)"
         result="flood"
         id="feFlood5287" />
      <feComposite
         in="flood"
         in2="SourceGraphic"
         operator="out"
         result="composite1"
         id="feComposite5289" />
      <feGaussianBlur
         in="composite1"
         stdDeviation="0"
         result="blur"
         id="feGaussianBlur5291" />
      <feOffset
         dx="0"
         dy="-5.1"
         result="offset"
         id="feOffset5293" />
      <feComposite
         in="offset"
         in2="SourceGraphic"
         operator="atop"
         result="composite2"
         id="feComposite5295" />
    </filter>
    <filter
       style="color-interpolation-filters:sRGB;"
       inkscape:label="Drop Shadow"
       id="filter5621"
       x="0"
       y="-0.035734869"
       width="1"
       height="1.0357349">
      <feFlood
         flood-opacity="1"
         flood-color="rgb(0,150,204)"
         result="flood"
         id="feFlood5611" />
      <feComposite
         in="flood"
         in2="SourceGraphic"
         operator="out"
         result="composite1"
         id="feComposite5613" />
      <feGaussianBlur
         in="composite1"
         stdDeviation="0"
         result="blur"
         id="feGaussianBlur5615" />
      <feOffset
         dx="0"
         dy="-4.7"
         result="offset"
         id="feOffset5617" />
      <feComposite
         in="offset"
         in2="SourceGraphic"
         operator="atop"
         result="composite2"
         id="feComposite5619" />
    </filter>
  </defs>
  <g
     inkscape:label="Layer 1"
     inkscape:groupmode="layer"
     id="layer1">
    <g
       id="g5225"
       style="filter:url(#filter5621)">
      <g
         id="g5220">
        <path
           style="fill:#00a9e5;fill-opacity:1;stroke:none;stroke-width:0.104115"
           d="m 35.304713,1.9712355 c -0.702361,3.0010048 -1.692079,5.8986955 -2.530102,8.8497865 -1.948098,6.85973 -3.80114,13.763501 -5.817538,20.614798 -0.978057,3.323355 -1.73435,6.723131 -2.878887,9.995054 -0.367839,1.051354 -0.383665,2.378822 -0.997215,3.331684 -1.221999,1.897603 -3.074624,3.509617 -4.553059,5.208568 -2.551238,2.931883 -5.024493,5.983393 -7.698836,8.801998 -1.1622793,1.224915 -2.247461,2.535412 -3.368198,3.799266 -0.362123,0.408444 -1.045305,0.943491 -0.969239,1.553814 0.114537,0.919129 1.809063,1.958406 2.47186,2.529478 2.374117,2.04555 4.645181,4.259871 6.955391,6.379447 9.276347,8.510788 18.543532,17.033757 27.815922,25.549233 0.759312,0.69726 1.026783,1.601078 1.448866,2.504488 0.816679,1.74768 1.548921,3.53419 2.301882,5.30988 2.601525,6.13446 5.366302,12.19709 7.990837,18.32426 0.927666,2.1656 1.724667,4.47071 2.805278,6.55926 0.310992,0.60074 0.490799,1.71894 1.187121,2.00734 0.999089,0.41437 2.764049,0.075 3.84289,0.075 h 9.058017 c 0.955777,0 3.292746,0.42375 3.973242,-0.34358 0.565449,-0.63719 0.824696,-1.7887 1.146204,-2.57165 0.598037,-1.45552 1.193367,-2.92147 1.810874,-4.37283 2.480127,-5.82733 4.926937,-11.65569 7.365938,-17.49134 0.794711,-1.90115 1.628569,-3.80833 2.377469,-5.72634 0.41823,-1.07113 0.78014,-2.39434 1.51508,-3.299828 0.82585,-1.01752 2.04295,-1.82805 3.02163,-2.6995 1.92384,-1.712903 3.83665,-3.460263 5.734979,-5.201799 6.364141,-5.838985 12.727661,-11.688902 19.198411,-17.411695 2.53417,-2.241287 5.0069,-4.557953 7.52128,-6.823811 0.78919,-0.711731 2.57893,-1.861474 2.91523,-2.877846 0.17699,-0.532029 -0.45186,-1.014915 -0.76317,-1.353393 -1.02345,-1.111117 -2.00317,-2.264088 -3.04224,-3.360941 -4.26039,-4.497462 -8.31568,-9.192013 -12.52714,-13.734349 -1.19212,-1.285822 -1.46177,-3.333246 -1.88656,-4.97712 -0.70382,-2.721361 -1.59088,-5.408885 -2.33322,-8.120981 C 105.55432,22.605543 102.23524,12.36686 99.439639,1.9712755 98.51666,2.2818291 98.16079,3.4373523 97.80441,4.2618083 97.0199,6.07691 96.15345,7.911211 95.26535,9.675796 92.12159,15.9226 89.31278,22.349628 86.22014,28.624751 c -0.799187,1.621594 -1.525391,3.277233 -2.337176,4.893412 -0.302455,0.602098 -0.505063,1.485098 -1.117572,1.864702 -0.540983,0.335251 -1.356308,0.217601 -1.962362,0.217601 H 76.430194 60.084117 55.398935 c -0.689034,0 -1.513938,0.141596 -2.074702,-0.343372 C 52.098902,34.19737 51.573641,31.984507 50.771434,30.602899 48.176156,26.133444 46.110719,21.364763 43.581971,16.8597 41.517055,13.181208 39.758446,9.322514 37.732886,5.6152653 37.171498,4.5878263 36.585225,2.2191701 35.304713,1.9712355 M 109.12235,64.752665 c -0.27487,0.847706 -1.24938,1.48489 -1.87512,2.088446 -1.57942,1.523308 -3.17374,3.033186 -4.744,4.566386 -5.80171,5.664592 -11.7066,11.218094 -17.506547,16.883727 -1.298315,1.268227 -2.611207,2.521149 -3.913063,3.785731 -1.310185,1.272704 -2.483042,2.501994 -4.445196,2.449724 -3.306905,-0.0881 -5.113615,-4.584293 -6.703453,-6.972798 -0.404279,-0.607408 -1.42138,-2.866915 -2.235457,-2.870038 -0.300164,-0.0011 -0.508706,0.413962 -0.656446,0.624587 -0.510268,0.727765 -0.990655,1.496655 -1.473853,2.245451 -1.516542,2.350399 -3.412478,6.876288 -6.630365,6.972898 -2.029516,0.0609 -2.981233,-1.0324 -4.378979,-2.319472 -1.192014,-1.097686 -2.413076,-2.164345 -3.577708,-3.291392 -5.736224,-5.551003 -11.621332,-11.013091 -17.553292,-16.354614 -1.69208,-1.523621 -3.308363,-3.134699 -4.995757,-4.664775 -0.767121,-0.695593 -1.836279,-1.357661 -2.082303,-2.415055 1.63138,-0.153882 3.355319,0 4.997527,0 0.805122,0 1.836487,-0.168771 2.602878,0.107135 1.094771,0.39418 2.113434,1.599104 2.946979,2.383091 1.338296,1.258752 2.802988,2.380697 4.153257,3.626955 3.636951,3.356464 7.440381,6.558525 11.164996,9.818578 1.931648,1.690726 3.961997,4.09537 6.201722,5.349228 0.749109,0.419376 1.265416,-0.917879 1.593274,-1.398995 1.187017,-1.741846 2.093131,-3.969806 3.541997,-5.50186 0.517036,-0.546813 1.258232,-0.432703 1.944663,-0.432703 1.719253,0 4.195215,-0.457274 5.829302,0.076 0.643744,0.210104 1.026055,0.968479 1.399308,1.485723 0.964523,1.336734 1.854603,2.729795 2.810692,4.072464 0.328588,0.461438 0.865822,1.779432 1.529452,1.791405 0.700903,0.0127 1.590983,-1.140998 2.070329,-1.563081 1.719462,-1.513834 3.387386,-3.084827 5.100601,-4.606991 4.250292,-3.776568 8.454882,-7.604361 12.691112,-11.398005 1.19587,-1.070928 2.33937,-2.203597 3.54918,-3.258387 0.5035,-0.439054 1.02981,-1.058435 1.66855,-1.29665 0.63375,-0.236341 1.51831,-0.08683 2.18642,-0.08683 1.53466,0 3.29004,-0.234155 4.7893,0.104115 z"
           id="path9452" />
        <path
           style="fill:#00a9e5;stroke-width:1.49225;stroke-linecap:round;stroke-linejoin:round;paint-order:markers fill stroke;fill-opacity:1"
           d="m 21.662293,61.957698 c 8.807531,17.628087 24.735976,37.116445 34.976156,38.219152 10.240179,1.1027 -9.091891,10.83928 10.240179,1.1027 19.332069,-9.736581 19.332069,-9.736581 19.332069,-9.736581 0,0 17.350243,4.505246 22.194113,-14.875663 4.84387,-19.380911 4.84387,-19.380911 4.84387,-19.380911 L 83.424629,52.962402 Z"
           id="path750" />
      </g>
    </g>
    <g
       id="g5753"
       transform="matrix(0.92561674,0,0,0.92561674,138.15719,-9.8238728)">
      <path
         style="fill:#ffffff;fill-opacity:1;stroke-width:1.49225;stroke-linecap:round;stroke-linejoin:round;paint-order:markers fill stroke"
         d="m -120.03984,80.07674 c 2.74645,-1.988616 5.89209,-4.645602 9.45657,-4.968769 1.24147,-0.112556 2.56699,0 3.81347,0 4.62643,0 6.978951,0.462666 10.925171,2.782999 6.355313,3.736853 8.13543,8.288657 16.489953,7.317308 2.012082,-0.233936 3.186834,-0.561337 5.153567,-1.133268 2.688579,-0.781849 5.132776,-1.897812 7.729741,-2.885805 2.502778,-0.952159 5.096902,-1.704004 7.62694,-2.577397 1.930667,-0.666482 3.811048,-1.626745 5.668804,-2.47337 4.132064,-1.883079 12.60906,-3.961886 17.109209,-3.401036 2.369503,0.29531 2.483951,0.02855 4.394793,2.153949 0.178612,0.198671 1.026808,0.800426 1.117362,1.117362 0.237233,0.830324 0.02437,2.065401 0.102801,2.931083 0.166894,1.84181 -0.974651,3.347194 -1.855335,4.843939 -0.585978,0.995889 -1.017106,2.142689 -1.648505,3.092633 -1.607664,2.418738 -4.508579,4.008461 -6.706616,5.767932 -2.723187,2.179844 -5.306658,4.603954 -7.936568,6.906101 -1.448663,1.268119 -3.127002,2.724669 -4.328703,4.225899 -1.001183,1.25074 -1.653426,2.7889 -2.678975,4.01908 -0.557662,0.66893 -1.28828,1.19405 -1.855335,1.85533 -1.727195,2.01421 -3.06347,4.50047 -5.360395,5.97721 -3.686561,2.37015 -8.247877,3.71213 -12.573679,4.3287 -2.068693,0.29486 -4.398862,0 -6.492447,0 -0.859829,0 -1.718196,0.13698 -2.577396,0.10403 -1.770274,-0.0679 -7.398985,-1.14779 -8.965814,-2.06216 -2.323509,-1.35596 -4.868219,-2.99912 -6.573213,-5.12909 -1.06088,-1.32531 -1.97604,-2.8146 -3.02043,-4.07905 -1.04245,-1.26209 -1.95265,-2.65349 -3.06081,-3.88445 -1.70882,-1.89819 -3.64905,-3.70273 -5.15357,-5.772826 -2.62453,-3.611171 -4.79034,-7.517768 -7.42011,-11.13078 -0.76276,-1.047943 -1.65923,-1.882188 -2.37057,-2.988604 -0.51116,-0.795067 -1.3401,-2.215372 -1.3401,-3.202775 0,-1.801231 0.0816,-1.171578 2.33019,-1.734175 z"
         id="path5686" />
      <path
         style="fill:#00a9e5;fill-opacity:1;stroke:none;stroke-width:0.104115"
         d="m -108.51179,18.027658 c -0.70237,3.00101 -1.69208,5.8987 -2.53011,8.84979 -1.94809,6.85973 -3.80114,13.7635 -5.81753,20.6148 -0.97806,3.32335 -1.73435,6.72313 -2.87889,9.99505 -0.36784,1.05136 -0.38367,2.37882 -0.99722,3.33169 -1.222,1.8976 -3.07462,3.50961 -4.55306,5.20856 -2.55123,2.93189 -5.02449,5.9834 -7.69883,8.802 -1.16228,1.22492 -2.24746,2.53541 -3.3682,3.79927 -0.36212,0.40844 -1.0453,0.94349 -0.96924,1.55381 0.11454,0.91913 1.80906,1.95841 2.47186,2.52948 2.37412,2.04555 4.64518,4.25987 6.95539,6.37945 9.27635,8.51078 18.54353,17.033752 27.81592,25.549232 0.759319,0.69726 1.026789,1.60108 1.448869,2.50449 0.81668,1.74768 1.54892,3.53419 2.301883,5.30988 2.601525,6.13446 5.366302,12.19709 7.990837,18.32426 0.927666,2.1656 1.724667,4.47071 2.805278,6.55926 0.310992,0.60074 0.490799,1.71894 1.187121,2.00734 0.999089,0.41437 2.764049,0.075 3.84289,0.075 h 9.058017 c 0.955777,0 3.292746,0.42375 3.973242,-0.34358 0.565449,-0.63719 0.824696,-1.7887 1.146204,-2.57165 0.598037,-1.45552 1.193367,-2.92147 1.810874,-4.37283 2.480127,-5.82733 4.926937,-11.65569 7.365938,-17.49134 0.794711,-1.90115 1.628569,-3.80833 2.377469,-5.72634 0.41823,-1.07113 0.78014,-2.39434 1.51508,-3.29983 0.82585,-1.01752 2.04295,-1.82805 3.02163,-2.6995 1.92384,-1.7129 3.83665,-3.46026 5.734979,-5.2018 6.364141,-5.83898 12.727661,-11.688902 19.198411,-17.411692 2.53417,-2.24129 5.0069,-4.55796 7.52128,-6.82382 0.78919,-0.71173 2.57893,-1.86147 2.91523,-2.87784 0.17699,-0.53203 -0.45186,-1.01492 -0.76317,-1.35339 -1.02345,-1.11112 -2.00317,-2.26409 -3.04224,-3.36095 -4.26039,-4.49746 -8.31568,-9.19201 -12.52714,-13.73434 -1.19212,-1.28583 -1.46177,-3.33325 -1.88656,-4.97712 -0.70382,-2.72137 -1.59088,-5.40889 -2.33322,-8.12099 -2.84339,-10.39204 -6.16247,-20.63072 -8.958071,-31.02631 -0.922979,0.31056 -1.278849,1.46608 -1.635229,2.29054 -0.78451,1.8151 -1.65096,3.6494 -2.53906,5.41398 -3.14376,6.24681 -5.95257,12.67384 -9.04521,18.94896 -0.799187,1.62159 -1.525391,3.27723 -2.337176,4.89341 -0.302455,0.6021 -0.505063,1.4851 -1.117572,1.8647 -0.540983,0.33525 -1.356308,0.2176 -1.962362,0.2176 h -4.372836 -16.346077 -4.685182 c -0.689034,0 -1.513938,0.1416 -2.074702,-0.34337 -1.225331,-1.05972 -1.750592,-3.27259 -2.552799,-4.65419 -2.595278,-4.46946 -4.660717,-9.23814 -7.189466,-13.7432 -2.06491,-3.67849 -3.82352,-7.53719 -5.84908,-11.24444 -0.56139,-1.02744 -1.14766,-3.39609 -2.42817,-3.64403 m 73.817632,62.78143 c -0.27487,0.84771 -1.24938,1.48489 -1.87512,2.08845 -1.57942,1.52331 -3.17374,3.03318 -4.744,4.56638 -5.80171,5.6646 -11.7066,11.2181 -17.506547,16.883732 -1.298315,1.26823 -2.611207,2.52115 -3.913063,3.78573 -1.310185,1.27271 -2.483042,2.502 -4.445196,2.44973 -3.306905,-0.0881 -5.113615,-4.5843 -6.703453,-6.9728 -0.404279,-0.60741 -1.42138,-2.86692 -2.235457,-2.87004 -0.300164,-10e-4 -0.508706,0.41396 -0.656446,0.62459 -0.510268,0.72776 -0.990655,1.49665 -1.473853,2.24545 -1.516542,2.3504 -3.412478,6.87629 -6.630365,6.9729 -2.029516,0.0609 -2.981233,-1.0324 -4.378979,-2.31948 -1.192014,-1.09768 -2.413076,-2.16434 -3.577708,-3.29139 -5.736226,-5.551002 -11.621335,-11.013092 -17.553295,-16.354612 -1.69208,-1.52362 -3.30836,-3.1347 -4.99575,-4.66478 -0.76712,-0.69559 -1.83628,-1.35766 -2.08231,-2.41505 1.63138,-0.15388 3.35532,0 4.99753,0 0.80512,0 1.83649,-0.16877 2.60288,0.10713 1.09477,0.39418 2.11343,1.59911 2.94698,2.38309 1.33829,1.25876 2.80299,2.3807 4.15325,3.62696 3.636959,3.35646 7.440385,6.55852 11.165,9.81858 1.931648,1.69072 3.961997,4.095372 6.201722,5.349232 0.749109,0.41937 1.265416,-0.91788 1.593274,-1.399 1.187017,-1.741852 2.093131,-3.969812 3.541997,-5.501862 0.517036,-0.54681 1.258232,-0.4327 1.944663,-0.4327 1.719253,0 4.195215,-0.45728 5.829302,0.076 0.643744,0.2101 1.026055,0.96848 1.399308,1.48572 0.964523,1.33673 1.854603,2.7298 2.810692,4.072462 0.328588,0.46144 0.865822,1.77944 1.529452,1.79141 0.700903,0.0127 1.590983,-1.141 2.070329,-1.56308 1.719462,-1.513842 3.387386,-3.084832 5.100601,-4.606992 4.250292,-3.77657 8.454882,-7.60436 12.691112,-11.39801 1.19587,-1.07093 2.33937,-2.20359 3.54918,-3.25838 0.5035,-0.43906 1.02981,-1.05844 1.66855,-1.29665 0.63375,-0.23635 1.51831,-0.0868 2.18642,-0.0868 1.53466,0 3.29004,-0.23416 4.7893,0.10411 z"
         id="path584" />
    </g>
  </g>
</svg>
