<?xml version="1.0" encoding="UTF-8" standalone="no"?>
<!-- Created with Inkscape (http://www.inkscape.org/) -->

<svg
   version="1.1"
   id="svg2"
   width="3264"
   height="1836"
   viewBox="0 0 3264 1836"
   sodipodi:docname="nethydra-text-logo-white.svg"
   inkscape:version="1.2.2 (b0a8486541, 2022-12-01)"
   xmlns:inkscape="http://www.inkscape.org/namespaces/inkscape"
   xmlns:sodipodi="http://sodipodi.sourceforge.net/DTD/sodipodi-0.dtd"
   xmlns="http://www.w3.org/2000/svg"
   xmlns:svg="http://www.w3.org/2000/svg">
  <sodipodi:namedview
     id="namedview6"
     pagecolor="#ffffff"
     bordercolor="#000000"
     borderopacity="0.25"
     inkscape:showpageshadow="2"
     inkscape:pageopacity="0.0"
     inkscape:pagecheckerboard="0"
     inkscape:deskcolor="#d1d1d1"
     showgrid="false"
     inkscape:zoom="0.39613971"
     inkscape:cx="1534.8121"
     inkscape:cy="920.12993"
     inkscape:window-width="1920"
     inkscape:window-height="1034"
     inkscape:window-x="0"
     inkscape:window-y="0"
     inkscape:window-maximized="1"
     inkscape:current-layer="svg2" />
  <defs
     id="defs6" />
  <g
     id="g8"
     style="fill:#ffffff">
    <path
       style="fill:#ffffff"
       d="m 567.24737,985.75815 0.25265,-185.2535 137.89327,-0.2535 c 102.01599,-0.1876 138.25038,0.043 139.26582,0.8855 1.11402,0.9246 1.32249,6.2465 1.10674,28.2536 l -0.26583,27.1144 -106.5,0.5159 c -58.575,0.2837 -106.61674,0.6212 -106.75942,0.75 -0.14269,0.1287 -0.14269,22.3966 0,49.4841 l 0.25942,49.25 69.76606,0.2568 69.76606,0.2568 -0.26606,27.2432 -0.26606,27.24315 -69.75908,0.2568 -69.75908,0.2569 0.25908,51.2432 0.25908,51.2431 107.5,0.5 107.5,0.5 v 27.5 27.5 l -140.25265,0.2535 -140.25264,0.2535 z M 1004,1015.1116 c 0,-141.23155 -0.1488,-155.95005 -1.5818,-156.49995 -0.87,-0.3339 -29.67682,-0.607 -64.0153,-0.607 h -62.43355 l 0.26533,-28.75 0.26534,-28.75 H 1036.5 h 160 v 28.5 28.5 l -63.5,0.5187 c -34.925,0.2852 -63.6125,0.6227 -63.75,0.75 -0.1375,0.1272 -0.25,70.4313 -0.25,156.23125 v 156 h -32.5 -32.5 z m 240.4624,154.643 c -0.2611,-0.6875 -0.3595,-113.9749 -0.2186,-251.74995 l 0.2562,-250.5 h 61.5 61.5 l 0.5,96.5 0.5,96.5 h 103 103 l 0.5,-96.5 0.5,-96.5 h 61.5 61.5 v 251.5 251.49995 h -61.5 -61.5 l -0.5,-98 -0.5,-97.99995 -103.25,-0.2547 -103.25,-0.2546 v 98.50465 98.5046 h -61.5314 c -48.3052,0 -61.6334,-0.2687 -62.0062,-1.25 z M 3.000019,917.01275 v -252.0081 h 57.932132 57.932139 l 12.77533,16.25 c 22.9599,29.2046 33.06261,42.0801 41.52781,52.9255 9.7802,12.5302 28.1859,36.0552 38.88185,49.6965 4.1521,5.2954 13.349,17.053 20.43756,26.128 13.23116,16.9389 22.50617,28.7865 40.31735,51.5 15.59947,19.893 27.1505,34.6426 30.06215,38.3865 1.44852,1.8626 6.03083,7.7126 10.1829,13 4.15208,5.2874 12.58838,16.0302 18.74734,23.8728 6.15897,7.8426 11.75756,15.1551 12.44133,16.25 3.77295,6.0415 3.74665,6.9783 4.00874,-142.7593 l 0.25337,-144.75 57.75,-0.2581 57.75,-0.2581 v 252.0081 252.00815 h -54.45737 -54.45737 l -2.79263,-3.5938 c -1.53595,-1.9765 -5.71763,-7.3335 -9.29263,-11.9043 -8.2915,-10.6011 -15.76931,-20.2271 -43.50434,-56.0019 -12.3655,-15.95 -25.63749,-33.05 -29.49329,-38 -23.77611,-30.5232 -80.74467,-103.88095 -88.39999,-113.83155 -5.00631,-6.5074 -12.02738,-15.5836 -15.60238,-20.1693 -3.575,-4.5858 -9.22754,-11.8616 -12.5612,-16.1685 -18.8428,-24.3437 -31.96243,-40.9169 -32.88706,-41.5443 -0.73345,-0.4976 -1.20306,44.8974 -1.55174,150.00005 l -0.5,150.7136 -57.749999,0.2581 -57.750002,0.2581 z M 1918,1091.4528 c 0,-47.4846 -0.3489,-72.2316 -1.0364,-73.5163 -0.5701,-1.0651 -34.0951,-51.68865 -74.5,-112.49685 C 1802.0586,844.63145 1769,794.23245 1769,793.44195 c 0,-1.2238 5.4597,-1.4365 36.75,-1.4316 l 36.75,0.01 13.1445,20.2443 c 7.2294,11.1344 18.6587,28.7943 25.3983,39.2443 6.7397,10.45 16.6872,25.8625 22.1056,34.25 5.4184,8.3875 14.2791,22.1125 19.6906,30.5 26.8999,41.6938 28.3771,43.8155 29.7267,42.6955 0.7199,-0.5974 4.5552,-6.1171 8.5228,-12.2659 3.9677,-6.1487 11.5826,-17.9296 16.9221,-26.1796 20.947,-32.3647 32.3214,-49.9757 47.4716,-73.5 8.6782,-13.475 20.2746,-31.3625 25.7698,-39.75 l 9.9912,-15.25 h 35.3784 c 21.3674,0 35.3784,0.3716 35.3784,0.9383 0,0.5161 -33.522,51.3864 -74.4934,113.0452 l -74.4935,112.10685 -0.2565,72.2048 -0.2566,72.2049 -32.25,0.2639 -32.25,0.2638 v -71.5796 z m 251,-114.03475 v -185.5866 l 79.75,0.4521 c 55.3555,0.3138 81.8912,0.8179 86.75,1.6479 10.0076,1.7094 24.0946,4.9547 30.5,7.0264 3.025,0.9784 7.525,2.3737 10,3.1006 4.1006,1.2043 9.488,3.4064 19,7.7663 3.0648,1.4047 18.4775,9.9002 21.6582,11.9379 15.4618,9.9059 34.9187,28.2284 46.9833,44.2441 17.5961,23.3588 28.8625,49.7452 34.0297,79.6991 2.3681,13.7283 2.3779,47.0868 0.018,60.61095 -6.9877,40.0405 -23.7663,72.0144 -52.3529,99.7656 -18.3851,17.8479 -31.3519,26.4743 -57.5497,38.2858 -7.0352,3.1719 -25.6713,9.4574 -31.7746,10.7168 -27.4562,5.6656 -31.9822,5.9029 -112.7617,5.9116 l -74.25,0.01 V 977.42005 Z m 164.5,124.84275 c 23.6683,-5.5299 43.3429,-16.1346 61.4922,-33.1443 17.2479,-16.165 30.0592,-39.8261 35.6541,-65.8491 2.0496,-9.53345 2.35,-39.86495 0.4779,-48.26275 -2.6789,-12.017 -3.3935,-14.7092 -5.3084,-20 -8.8523,-24.4584 -26.1508,-47.4258 -45.971,-61.0364 -15.9797,-10.9733 -29.3016,-16.6202 -49.7095,-21.0706 -8.6989,-1.897 -13.8384,-2.151 -52.8853,-2.6134 l -43.25,-0.5123 v 127.6723 127.67235 l 45.25,-0.3765 c 41.6841,-0.3468 45.9592,-0.5422 54.25,-2.4793 z m 223.7474,-124.50615 0.2526,-185.25 86.5,-0.2696 c 102.3268,-0.319 113.8191,0.2464 133.5,6.5672 4.6552,1.495 16.783,6.233 18.9212,7.3919 12.6169,6.8384 19.3037,11.5653 27.8909,19.7165 15.0117,14.2494 25.8849,34.7429 29.8097,56.1849 2.0001,10.9269 1.7163,35.4844 -0.5249,45.4091 -7.4862,33.1521 -28.6568,58.432 -62.3469,74.44855 -4.5375,2.1572 -8.25,4.5204 -8.25,5.2516 0,0.7312 0.8288,2.8978 1.8417,4.8146 1.0129,1.9169 5.3504,10.2352 9.6389,18.4852 4.2885,8.25 9.9297,19.05 12.5359,24 2.6062,4.9501 7.55,14.4001 10.9861,21 3.4362,6.6 8.7257,16.725 11.7545,22.5 3.0288,5.7751 7.6309,14.55 10.2268,19.5 13.9135,26.531 23.0161,44.2674 23.0161,44.847 0,0.3591 -15.9199,0.653 -35.3776,0.653 -27.0953,0 -35.6146,-0.2926 -36.3901,-1.25 -0.557,-0.6875 -12.627,-24.2 -26.8222,-52.25 -14.1953,-28.0499 -30.6116,-60.45 -36.4808,-72 l -10.6712,-21 -47.629,-0.2597 -47.6291,-0.2597 v 73.5097 73.5097 h -32.5026 -32.5027 z M 2743.5,960.23055 c 1.65,-0.6183 6.4031,-2.2869 10.5624,-3.7081 17.2931,-5.9086 28.4287,-16.9749 33.9232,-33.712 2.8365,-8.6405 2.8331,-25.9817 -0.01,-34.6329 -6.2083,-18.9114 -18.7683,-30.0465 -41.4786,-36.7729 -5.3859,-1.5952 -12.0643,-1.8142 -65.25,-2.1397 l -59.25,-0.3626 v 56.6332 56.6333 l 59.25,-0.4071 c 40.4685,-0.2781 60.201,-0.7634 62.25,-1.5312 z m 139.1334,201.03735 c 0.3194,-0.9698 1.1707,-3.1133 1.8917,-4.7633 0.7211,-1.65 3.1848,-7.725 5.4749,-13.5 2.2901,-5.775 4.8479,-12.075 5.6839,-14 0.836,-1.925 1.8783,-4.4 2.3161,-5.5 0.4378,-1.1 1.4801,-3.575 2.3161,-5.5 0.836,-1.925 3.3938,-8.225 5.6839,-14 2.2901,-5.775 4.8554,-12.075 5.7006,-14 3.1905,-7.2668 4.2911,-9.9142 10.6006,-25.5 3.5624,-8.8 11.3036,-27.7 17.2026,-42 5.899,-14.3 13.1886,-32.07495 16.1992,-39.49995 3.0105,-7.425 6.1548,-15.075 6.9873,-17 0.8325,-1.925 1.8719,-4.4 2.3097,-5.5 0.4378,-1.1 1.4801,-3.575 2.3161,-5.5 0.836,-1.925 3.3938,-8.225 5.6839,-14 2.2901,-5.775 4.802,-11.9625 5.5819,-13.75 0.78,-1.7875 2.0559,-4.7125 2.8353,-6.5 0.7795,-1.7875 3.7418,-9.1 6.5828,-16.25 2.841,-7.15 5.8492,-14.575 6.6847,-16.5 0.8356,-1.925 1.8775,-4.4 2.3153,-5.5 0.4378,-1.1 1.4772,-3.575 2.3097,-5.5 0.8325,-1.925 3.9734,-9.575 6.9798,-17 14.8521,-36.6806 26.9204,-65.548 27.8928,-66.7196 0.8619,-1.0386 8.7401,-1.2509 38.6878,-1.0423 l 37.6054,0.2619 9.8166,24 c 5.3992,13.2 15.0167,36.825 21.3724,52.5 6.3556,15.675 12.3646,30.3 13.3532,32.5 0.9887,2.2 5.477,13.225 9.974,24.5 4.497,11.275 8.8594,22.075 9.6943,24 0.8349,1.925 1.8762,4.4 2.314,5.5 0.4378,1.1 1.4793,3.575 2.3143,5.5 0.835,1.925 4.7436,11.6 8.6857,21.5 3.9421,9.9 7.8048,19.46245 8.5837,21.24995 0.779,1.7875 2.0479,4.7125 2.8199,6.5 0.772,1.7875 5.2237,12.7 9.8926,24.25 13.3342,32.9863 35.6293,87.7951 36.6102,90 4.3488,9.7759 15.0936,36.6331 15.0936,37.7272 0,0.4391 -15.7956,0.6801 -35.1013,0.5356 l -35.1014,-0.2628 -8.4883,-21.5 c -4.6686,-11.825 -8.8378,-22.4 -9.2649,-23.5 -0.4271,-1.1 -1.2867,-3.2375 -1.9103,-4.75 -1.9244,-4.6675 -2.6825,-6.5713 -11.8478,-29.75 l -8.8969,-22.5 -80.1225,-0.2559 -80.1225,-0.256 -20.3817,51.256 -20.3817,51.2559 -33.6641,0.2633 c -31.7762,0.2485 -33.6314,0.1644 -33.0832,-1.5 z M 3129,1005.1918 c 0,-0.9971 -3.1811,-9.88455 -7.0691,-19.74995 -3.888,-9.8655 -12.0222,-30.5372 -18.0761,-45.9372 -13.4397,-34.1879 -12.3722,-31.4869 -13.6347,-34.5 -0.576,-1.375 -4.9951,-12.5125 -9.8201,-24.75 -4.825,-12.2375 -9.2513,-22.2455 -9.8364,-22.24 -0.585,0.01 -4.294,8.218 -8.2423,18.25 -3.9484,10.032 -15.5659,39.615 -25.8169,65.74 -19.6845,50.1665 -19.6552,50.0922 -21.2697,54 -2.6962,6.52595 -3.3758,8.96265 -2.772,9.93955 0.4496,0.7274 18.849,1.0604 58.5963,1.0604 55.2802,0 57.941,-0.083 57.941,-1.8128 z"
       id="path293" />
  </g>
</svg>
