<?xml version="1.0" encoding="UTF-8" standalone="no"?>
<!-- Created with Inkscape (http://www.inkscape.org/) -->

<svg
   width="908"
   height="323"
   viewBox="0 0 240.24166 85.460416"
   version="1.1"
   id="svg5"
   inkscape:export-filename="bitmap.png"
   inkscape:export-xdpi="96"
   inkscape:export-ydpi="96"
   sodipodi:docname="nh-sonar-text-white.svg"
   inkscape:version="1.2.2 (b0a8486541, 2022-12-01)"
   xmlns:inkscape="http://www.inkscape.org/namespaces/inkscape"
   xmlns:sodipodi="http://sodipodi.sourceforge.net/DTD/sodipodi-0.dtd"
   xmlns="http://www.w3.org/2000/svg"
   xmlns:svg="http://www.w3.org/2000/svg">
  <sodipodi:namedview
     id="namedview7"
     pagecolor="#ffffff"
     bordercolor="#000000"
     borderopacity="0.25"
     inkscape:showpageshadow="2"
     inkscape:pageopacity="0.0"
     inkscape:pagecheckerboard="0"
     inkscape:deskcolor="#d1d1d1"
     inkscape:document-units="px"
     showgrid="false"
     inkscape:zoom="0.88480004"
     inkscape:cx="485.98551"
     inkscape:cy="237.90686"
     inkscape:window-width="1920"
     inkscape:window-height="1011"
     inkscape:window-x="0"
     inkscape:window-y="0"
     inkscape:window-maximized="1"
     inkscape:current-layer="layer1" />
  <defs
     id="defs2" />
  <g
     inkscape:label="Layer 1"
     inkscape:groupmode="layer"
     id="layer1">
    <path
       d="m 67.343682,67.081391 c -0.06556,-0.02138 -0.265123,-0.04133 -0.443665,-0.04382 -0.178173,-0.0025 -0.467888,-0.02495 -0.643218,-0.04954 -0.175676,-0.02495 -0.501391,-0.06914 -0.724108,-0.09907 -0.223077,-0.02958 -0.512438,-0.07269 -0.643579,-0.09586 -0.131133,-0.02316 -0.377734,-0.06664 -0.548078,-0.09657 -0.170336,-0.02993 -0.374169,-0.07126 -0.452922,-0.09194 -0.07875,-0.02067 -0.271546,-0.0645 -0.429046,-0.09764 -0.274042,-0.05773 -0.498541,-0.113325 -1.072286,-0.264409 -0.609,-0.160365 -1.870499,-0.580506 -2.383292,-0.793604 -0.06557,-0.02709 -0.162147,-0.06593 -0.214526,-0.08589 -0.05239,-0.02031 -0.191725,-0.07839 -0.309674,-0.129712 -0.117957,-0.05131 -0.311096,-0.133629 -0.429053,-0.183519 -0.276886,-0.116529 -1.817767,-0.886248 -2.097149,-1.046966 -0.996014,-0.573737 -1.813134,-1.111121 -2.737163,-1.799597 -0.181024,-0.135059 -0.902288,-0.71021 -0.932934,-0.74442 -0.01318,-0.01462 -0.163215,-0.143617 -0.333905,-0.286512 -0.682776,-0.573023 -1.897595,-1.788196 -2.479515,-2.48059 -0.143263,-0.17069 -0.272614,-0.320722 -0.287226,-0.333905 -0.03386,-0.03029 -0.607587,-0.748699 -0.744781,-0.932934 -0.688484,-0.924029 -1.22586,-1.741156 -1.79959,-2.737163 -0.160718,-0.279382 -0.930091,-1.820263 -1.046973,-2.097149 -0.04989,-0.117957 -0.132208,-0.311096 -0.183527,-0.429053 -0.05131,-0.11795 -0.112249,-0.262634 -0.135773,-0.321789 -0.02387,-0.05879 -0.06236,-0.155371 -0.08624,-0.214166 -0.234839,-0.584424 -0.625042,-1.76004 -0.794311,-2.395415 -0.149317,-0.559476 -0.16535,-0.622203 -0.216669,-0.857749 -0.0285,-0.131138 -0.06877,-0.313591 -0.0898,-0.405176 -0.0841,-0.368111 -0.151446,-0.704871 -0.193853,-0.965367 -0.02459,-0.15074 -0.06628,-0.408028 -0.09337,-0.571951 -0.188159,-1.148172 -0.253369,-2.104991 -0.253369,-3.705733 0,-1.605379 0.06486,-2.548653 0.255152,-3.717852 0.0278,-0.17034 0.06984,-0.427628 0.09337,-0.571951 0.04062,-0.250161 0.109753,-0.591552 0.192071,-0.953253 0.02103,-0.09158 0.0613,-0.274037 0.0898,-0.40517 0.05132,-0.235553 0.06735,-0.298269 0.216669,-0.857747 0.169269,-0.635383 0.559472,-1.810998 0.794311,-2.395424 0.02388,-0.05879 0.06237,-0.155364 0.08624,-0.214165 0.02352,-0.05916 0.08446,-0.203834 0.135773,-0.321791 0.05132,-0.11795 0.133637,-0.311097 0.183527,-0.429047 0.116882,-0.276888 0.886255,-1.817771 1.046973,-2.097149 0.57373,-0.996013 1.111106,-1.813139 1.79959,-2.737162 0.137194,-0.18424 0.710924,-0.902649 0.744781,-0.932943 0.01461,-0.01318 0.143963,-0.163207 0.287226,-0.333902 0.58192,-0.692398 1.796739,-1.907569 2.479515,-2.480585 0.17069,-0.142904 0.320722,-0.271902 0.333905,-0.286511 0.03065,-0.03421 0.75191,-0.609366 0.932934,-0.744427 0.924743,-0.688831 1.758257,-1.236906 2.737163,-1.799234 0.563043,-0.323216 2.140978,-1.086173 2.740728,-1.324931 0.13078,-0.05238 0.281165,-0.112249 0.333544,-0.13292 0.597615,-0.238403 1.755761,-0.621839 2.383307,-0.789322 0.559471,-0.149315 0.622199,-0.165349 0.857745,-0.216669 0.13114,-0.02851 0.313592,-0.06877 0.405175,-0.0898 0.368116,-0.0841 0.704871,-0.15145 0.965362,-0.193855 0.150738,-0.02459 0.408033,-0.06628 0.571955,-0.09337 1.148174,-0.188154 2.104992,-0.253366 3.705729,-0.253366 1.60075,0 2.557561,0.06521 3.705743,0.253366 0.163922,0.02709 0.421563,0.06878 0.572308,0.09337 0.260138,0.0424 0.596885,0.109753 0.965008,0.193855 0.09194,0.02103 0.274035,0.06129 0.405175,0.0898 0.235546,0.05132 0.298266,0.06735 0.858099,0.216669 0.627184,0.167483 1.785346,0.550919 2.382946,0.789322 0.05239,0.02067 0.202764,0.08054 0.333912,0.13292 0.599389,0.238758 2.177684,1.001715 2.740367,1.324931 0.978898,0.562328 1.81242,1.110403 2.737156,1.799234 0.181392,0.135061 0.902295,0.710219 0.932941,0.744427 0.01318,0.01461 0.163561,0.143607 0.333905,0.286511 0.295062,0.247665 1.003851,0.91191 1.29892,1.217661 0.383435,0.396979 0.499241,1.073344 0.270471,1.577226 -0.08696,0.192076 -1.199494,1.328851 -6.223741,6.35916 -3.364709,3.368979 -6.117906,6.152463 -6.117906,6.185963 0,0.03314 0.06878,0.193862 0.152521,0.35707 0.143256,0.278313 0.239464,0.512795 0.395557,0.963584 0.23056,0.66745 0.343877,2.088951 0.213451,2.684063 -0.02708,0.122942 -0.07198,0.330697 -0.09978,0.461837 -0.274382,1.290006 -1.076189,2.542952 -2.163072,3.379675 -0.20954,0.161428 -0.488562,0.358135 -0.619702,0.436536 -0.491405,0.295056 -1.177391,0.567666 -1.71585,0.682412 -0.131133,0.0278 -0.338891,0.0727 -0.461835,0.09943 -0.289361,0.06343 -1.503459,0.06343 -1.792821,0 -0.123297,-0.02673 -0.331055,-0.07162 -0.462195,-0.09943 -0.539874,-0.1151 -1.222649,-0.386285 -1.715851,-0.682412 -0.81997,-0.49177 -1.603593,-1.275755 -2.099999,-2.100363 -0.295415,-0.4907 -0.567668,-1.174545 -0.682768,-1.715848 -0.0278,-0.13114 -0.07271,-0.338895 -0.09943,-0.461837 -0.02708,-0.123297 -0.04917,-0.526695 -0.04917,-0.896586 0,-0.369898 0.02209,-0.773289 0.04917,-0.896592 0.02673,-0.122943 0.07163,-0.330698 0.09943,-0.461832 0.1151,-0.539883 0.386285,-1.222658 0.682415,-1.715854 0.838861,-1.398694 2.281736,-2.450297 3.816203,-2.781703 0.13114,-0.02851 0.338898,-0.07377 0.462195,-0.100491 0.59511,-0.130431 2.016259,-0.01747 2.683708,0.213094 0.450795,0.156088 0.685273,0.252303 0.963948,0.395555 0.162846,0.08375 0.323918,0.15252 0.357421,0.15252 0.03386,0 1.06906,-1.009196 2.301334,-2.242897 l 2.240051,-2.242897 -0.143255,-0.117956 c -0.188867,-0.156081 -1.104339,-0.782196 -1.14355,-0.782196 -0.01709,0 -0.120439,-0.06058 -0.229845,-0.134345 -0.42976,-0.289717 -1.709081,-0.845989 -2.511228,-1.091874 -0.503527,-0.1543 -0.699524,-0.201699 -1.417938,-0.34388 -1.536249,-0.304332 -3.701818,-0.220584 -5.318241,0.205968 -0.48963,0.129005 -0.605451,0.166419 -1.271118,0.409098 -0.750842,0.273683 -2.320226,1.105057 -2.703668,1.432188 -0.04669,0.03956 -0.160003,0.124368 -0.251587,0.188516 -0.09194,0.06379 -0.177465,0.127927 -0.190649,0.142181 -0.01318,0.01425 -0.120446,0.100137 -0.238403,0.191012 -0.522411,0.401256 -1.411877,1.290715 -1.813134,1.813133 -0.09087,0.117951 -0.176752,0.225214 -0.191003,0.238397 -0.01426,0.01319 -0.0784,0.09871 -0.142188,0.190651 -0.06414,0.09158 -0.148956,0.204904 -0.188513,0.251586 -0.327137,0.383443 -1.158508,1.952826 -1.43219,2.703663 -0.242675,0.665678 -0.280096,0.781494 -0.409093,1.270767 -0.203126,0.769368 -0.290791,1.34702 -0.356,2.339474 -0.08553,1.302472 0.04241,2.700451 0.356,3.888895 0.128997,0.489281 0.166418,0.605089 0.409093,1.270766 0.273682,0.750841 1.105053,2.320229 1.43219,2.703664 0.03956,0.04669 0.124372,0.160003 0.188513,0.251586 0.06379,0.09194 0.127929,0.177466 0.142188,0.19065 0.01425,0.01318 0.100134,0.120446 0.191003,0.238396 0.401257,0.522418 1.290723,1.411884 1.813134,1.813141 0.117957,0.09087 0.22522,0.176752 0.238403,0.191003 0.01318,0.01425 0.09871,0.0784 0.190649,0.14218 0.09158,0.06415 0.204901,0.148964 0.251587,0.188521 0.383442,0.327129 1.952826,1.158508 2.703668,1.432182 0.665667,0.242683 0.781488,0.280104 1.271118,0.409101 0.769011,0.203126 1.346659,0.290791 2.339463,0.356 1.302124,0.08552 2.700103,-0.04241 3.888549,-0.356 1.371259,-0.3617 3.099224,-1.166704 4.019688,-1.872643 0.07412,-0.05702 0.265131,-0.200628 0.42406,-0.318939 0.621484,-0.46397 1.572241,-1.39549 2.024456,-1.984546 0.09087,-0.11795 0.176752,-0.225213 0.191003,-0.238396 0.01426,-0.01318 0.0784,-0.09871 0.142181,-0.19065 0.06415,-0.09158 0.148963,-0.2049 0.18852,-0.251586 0.177105,-0.207751 0.652476,-1.020246 0.954668,-1.631032 0.291505,-0.590127 0.45008,-0.972853 0.694184,-1.676302 0.10227,-0.295412 0.309674,-1.098994 0.360986,-1.397979 0.10263,-0.603664 0.137194,-0.852038 0.161071,-1.167772 0.115461,-1.51344 0.128997,-1.621774 0.223799,-1.823472 0.220573,-0.469674 0.767937,-0.822107 1.276457,-0.822107 0.685273,0 1.323858,0.554841 1.405462,1.220512 0.03278,0.270477 -0.04739,1.814204 -0.116167,2.235415 -0.02601,0.157151 -0.06664,0.425133 -0.09052,0.595466 -0.07519,0.536679 -0.401257,1.797462 -0.603307,2.335555 -0.04454,0.117957 -0.123658,0.332484 -0.176045,0.476807 -0.141827,0.389141 -0.144677,0.396616 -0.506377,1.14996 -0.183881,0.383434 -0.424421,0.844554 -0.534895,1.02487 -0.110467,0.179955 -0.243382,0.402326 -0.295762,0.494262 -0.895527,1.567962 -3.186889,3.859325 -4.754852,4.754845 -0.09158,0.05239 -0.314306,0.185309 -0.494262,0.295776 -0.180316,0.110467 -0.641436,0.351007 -1.024885,0.534895 -0.753332,0.361693 -0.760814,0.364543 -1.149949,0.506377 -0.144324,0.05237 -0.358497,0.131494 -0.476446,0.176038 -0.538459,0.20205 -1.799243,0.528118 -2.335552,0.603307 -0.170698,0.02388 -0.438679,0.0645 -0.595825,0.09051 -0.886254,0.145039 -3.165502,0.145039 -4.051403,0 -0.157514,-0.02601 -0.425488,-0.06664 -0.595825,-0.09051 -0.536316,-0.07519 -1.797454,-0.401257 -2.335545,-0.603307 -0.117957,-0.04454 -0.332483,-0.123665 -0.476807,-0.176038 -0.385931,-0.140413 -0.395557,-0.144684 -1.120025,-0.491419 -0.674218,-0.322497 -0.862378,-0.426195 -1.596833,-0.87984 -1.744706,-1.078332 -3.808713,-3.148032 -4.707083,-4.720634 -0.05239,-0.09194 -0.185309,-0.314307 -0.295776,-0.494262 -0.110475,-0.180316 -0.351014,-0.641436 -0.534888,-1.02487 -0.361346,-0.753344 -0.36455,-0.760819 -0.506384,-1.14996 -0.05238,-0.144323 -0.131494,-0.35885 -0.175684,-0.476807 -0.202411,-0.538093 -0.528472,-1.798876 -0.603661,-2.335555 -0.02388,-0.170333 -0.0645,-0.438315 -0.09052,-0.595466 -0.145038,-0.886254 -0.145038,-3.165501 0,-4.051755 0.02601,-0.157151 0.06664,-0.425132 0.09052,-0.595466 0.07519,-0.536672 0.40125,-1.797461 0.603661,-2.335552 0.04419,-0.117957 0.123304,-0.332484 0.175684,-0.476807 0.141834,-0.389137 0.145038,-0.396619 0.506384,-1.149952 0.183874,-0.383442 0.424413,-0.844564 0.534888,-1.024882 0.110467,-0.179957 0.243389,-0.40232 0.295776,-0.494259 0.89837,-1.572596 2.962377,-3.642308 4.707083,-4.720637 0.734455,-0.45364 0.922615,-0.557337 1.596833,-0.879843 0.724468,-0.346731 0.734094,-0.351007 1.120025,-0.491409 0.144324,-0.05238 0.35885,-0.131495 0.476807,-0.176042 0.538091,-0.202053 1.799229,-0.52812 2.335545,-0.603309 0.170337,-0.02388 0.438311,-0.06486 0.595825,-0.09051 0.83744,-0.137196 2.843005,-0.159292 3.765252,-0.04098 0.599029,0.07662 1.034143,0.143968 1.215527,0.187445 0.09158,0.02209 0.295416,0.06557 0.452923,0.09692 0.503527,0.09943 1.86267,0.522418 2.274968,0.707367 0.111903,0.05024 0.299341,0.13114 0.416584,0.179602 0.895519,0.369537 2.154521,1.116105 3.146971,1.866234 l 0.45293,0.342099 2.204412,-2.204057 c 1.212669,-1.21232 2.204405,-2.23755 2.204405,-2.27853 0,-0.161073 -2.367973,-1.907569 -3.255656,-2.401126 -0.720904,-0.401256 -1.670954,-0.893026 -1.891888,-0.979263 -0.09194,-0.03599 -0.301477,-0.126148 -0.466113,-0.200267 -0.164276,-0.07377 -0.308607,-0.134345 -0.320008,-0.134345 -0.01176,0 -0.135772,-0.05238 -0.275464,-0.116177 -0.518492,-0.237333 -2.062224,-0.720905 -2.823038,-0.884468 -0.157154,-0.03385 -0.436182,-0.09907 -0.619709,-0.144683 -0.370958,-0.09265 -0.741931,-0.156081 -1.382299,-0.236979 -0.235907,-0.02993 -0.557696,-0.07341 -0.71485,-0.09657 -1.448223,-0.214881 -4.256303,-0.146464 -5.850632,0.142189 -0.150738,0.02744 -0.390924,0.06984 -0.533105,0.09444 -0.234132,0.04026 -0.468963,0.09229 -1.123236,0.24909 -1.056945,0.253367 -2.597465,0.781131 -3.622704,1.240828 -0.651776,0.292921 -1.844133,0.912265 -2.104631,1.094008 -0.06949,0.04846 -0.138624,0.08802 -0.153236,0.08802 -0.0923,0 -1.578295,1.02096 -2.244676,1.541953 -2.026953,1.585418 -4.082763,3.916693 -5.228087,5.92939 -0.04846,0.08517 -0.134344,0.235547 -0.190649,0.333903 -1.33847,2.332341 -2.247173,4.949411 -2.61137,7.518736 -0.192078,1.354857 -0.217377,1.725471 -0.217377,3.169777 0,1.444306 0.0253,1.814914 0.217377,3.169777 0.364911,2.57538 1.269696,5.177482 2.618138,7.530843 0.06022,0.104774 0.145753,0.254798 0.190649,0.333552 1.577942,2.770305 4.707098,5.894468 7.483811,7.473477 0.09159,0.05203 0.241968,0.137909 0.333552,0.190649 0.912621,0.524201 1.735448,0.921172 2.737517,1.31994 5.638602,2.244323 11.979946,1.994879 17.424341,-0.685272 0.584777,-0.287933 1.209819,-0.625756 1.389781,-0.751196 0.06949,-0.04846 0.138616,-0.08802 0.153589,-0.08802 0.03671,0 0.81427,-0.504957 1.339892,-0.870221 1.955675,-1.358776 3.882126,-3.285242 5.255168,-5.256597 0.360632,-0.517779 0.870221,-1.301402 0.870221,-1.338463 0,-0.01497 0.03956,-0.08411 0.08802,-0.153596 0.181745,-0.260491 0.801086,-1.452502 1.094005,-2.104624 0.459699,-1.024878 0.987464,-2.565752 1.240833,-3.622705 0.156793,-0.653907 0.208819,-0.889107 0.24909,-1.123228 0.02459,-0.142189 0.067,-0.382372 0.09444,-0.533112 0.129704,-0.716275 0.229846,-1.801376 0.265124,-2.871508 0.01746,-0.532751 0.05273,-0.911556 0.09728,-1.048752 0.308245,-0.945764 1.435753,-1.296062 2.227574,-0.692043 0.18816,0.143259 0.458631,0.522773 0.458631,0.643219 0,0.04241 0.0228,0.100137 0.0506,0.127935 0.127215,0.127218 -0.02922,2.76745 -0.240185,4.055676 -0.02673,0.163923 -0.06878,0.421211 -0.09337,0.571951 -0.04205,0.260496 -0.10976,0.597256 -0.19386,0.965367 -0.02103,0.09158 -0.06129,0.274038 -0.0898,0.405176 -0.05131,0.235546 -0.06735,0.298273 -0.216662,0.857749 -0.167487,0.627539 -0.550921,1.785685 -0.789325,2.383292 -0.02067,0.05239 -0.08054,0.202772 -0.132922,0.333552 -0.238758,0.599743 -1.001715,2.177684 -1.324926,2.740728 -0.562329,0.978906 -1.110046,1.81242 -1.799237,2.737163 -0.135066,0.181024 -0.710217,0.902288 -0.744427,0.932934 -0.01461,0.01318 -0.14361,0.163215 -0.286512,0.333905 -0.571948,0.682061 -1.798522,1.908635 -2.480583,2.48059 -0.170344,0.142895 -0.320722,0.271892 -0.333905,0.286512 -0.03065,0.03421 -0.751549,0.609361 -0.932941,0.74442 -0.924736,0.688837 -1.758258,1.236907 -2.737156,1.799236 -0.562683,0.323211 -2.140978,1.086169 -2.740367,1.324926 -0.131148,0.05239 -0.281526,0.112257 -0.333912,0.132923 -0.627539,0.250519 -1.739006,0.62077 -2.311676,0.770441 -0.196703,0.05167 -0.43261,0.114031 -0.524193,0.138615 -0.09194,0.02459 -0.274043,0.06843 -0.405176,0.09693 -0.13114,0.02851 -0.313239,0.06878 -0.405175,0.08981 -0.368123,0.08409 -0.70487,0.151445 -0.965008,0.193853 -0.150745,0.02458 -0.408386,0.06628 -0.572308,0.09337 -0.394482,0.06449 -0.989607,0.136841 -1.632464,0.198132 -0.650348,0.06236 -3.483727,0.09337 -3.646228,0.03991 z"
       style="fill:#0a7838;fill-opacity:1;stroke:#0a7838;stroke-width:2.59158;stroke-linecap:round;stroke-linejoin:round;stroke-dasharray:none;stroke-opacity:1"
       id="path10" />
    <path
       style="fill:#ffffff;stroke-width:0.0736495;fill-opacity:1"
       d="M 20.595449,67.814676 C 17.286179,67.642549 14.437291,67.188345 11.610204,66.38214 7.9401154,65.335529 4.6613406,63.842011 1.7214504,61.877712 L 1.0757152,61.446258 1.694846,60.252229 c 0.340522,-0.656718 1.2897407,-2.503149 2.1093751,-4.103186 0.8196341,-1.600036 1.4961928,-2.916419 1.5034643,-2.925301 0.00727,-0.0089 0.2103335,0.142578 0.4512485,0.336579 2.5110004,2.021967 6.6476161,3.946179 10.6384911,4.94866 1.565138,0.393149 2.692282,0.564612 4.387873,0.667479 3.646483,0.221228 6.380975,-0.466121 7.850262,-1.973263 0.810927,-0.831813 1.163053,-1.763509 1.164995,-3.082455 0.0031,-2.112549 -0.922782,-3.335264 -3.49945,-4.621318 C 24.98172,48.840902 22.769103,48.098701 17.811974,46.651819 11.378613,44.774058 8.3006005,43.335174 6.1515398,41.200905 5.6809781,40.733577 5.1302481,40.102393 4.9276957,39.798264 3.5415323,37.716987 3.003315,35.367294 3.1511581,32.042437 3.3261155,28.107812 4.7043099,24.975232 7.3877814,22.412758 9.9069223,20.007209 13.277366,18.492171 17.538993,17.849719 c 1.33525,-0.201292 4.245448,-0.277173 5.819165,-0.151733 4.012884,0.319875 7.713913,1.420707 11.654669,3.466552 1.094073,0.567985 2.728364,1.523463 3.065177,1.792026 l 0.208827,0.166514 -2.088345,3.843822 c -1.148589,2.114103 -2.110065,3.84447 -2.136613,3.845265 -0.02655,8.1e-4 -0.19226,-0.120108 -0.368248,-0.268666 -0.497945,-0.42034 -2.001364,-1.384914 -2.781191,-1.784381 -1.036691,-0.531051 -2.120692,-0.978059 -3.594863,-1.482426 -2.568892,-0.878912 -3.981627,-1.167242 -6.025197,-1.229719 -2.079179,-0.06357 -3.704985,0.166772 -5.055039,0.716175 -1.257139,0.5116 -2.197375,1.33291 -2.700283,2.358752 -0.42305,0.862945 -0.547684,1.411546 -0.551654,2.428197 -0.0069,1.768023 0.591413,2.898537 2.046402,3.866653 1.483869,0.987331 3.164742,1.565958 9.393426,3.233627 3.887668,1.040889 6.069145,1.802352 8.359224,2.917863 3.321964,1.618139 5.502701,3.871867 6.510944,6.728851 0.948067,2.68646 0.96378,6.840855 0.03697,9.774721 -0.830801,2.629952 -2.551685,4.938158 -4.797234,6.434496 -2.727002,1.817148 -5.946528,2.851468 -9.962606,3.200626 -0.956176,0.08313 -3.25363,0.145369 -3.977076,0.107742 z M 99.768713,42.597529 V 17.92493 h 3.768747 c 3.16974,0 3.78721,0.01679 3.88501,0.105613 0.0639,0.05809 5.80018,7.361928 12.74717,16.230756 6.94699,8.868827 12.65575,16.110644 12.68613,16.092939 0.0304,-0.01771 0.0552,-7.305222 0.0552,-16.194465 V 17.997512 l 4.76881,0.01895 4.76881,0.01894 v 24.59895 24.598947 l -3.98515,0.01904 -3.98514,0.01905 -0.24971,-0.317599 c -0.13733,-0.174682 -5.78446,-7.288588 -12.54918,-15.808692 l -12.29947,-15.491082 -0.0186,15.808055 -0.0186,15.808058 h -4.78706 -4.787047 z m 48.257597,24.506885 c 0.0414,-0.200143 18.00141,-48.84675 18.10605,-49.042275 0.0705,-0.131693 0.26683,-0.137209 4.88701,-0.137209 4.51594,0 4.81671,0.008 4.86428,0.128887 0.0279,0.07089 3.49781,9.508157 7.71095,20.971709 9.05617,24.640993 10.27097,27.945 10.33745,28.115713 0.0475,0.121963 -0.21457,0.128886 -4.88046,0.128886 h -4.93065 l -2.28391,-6.131325 -2.28391,-6.131325 -8.62065,-0.01871 -8.62067,-0.01871 -0.0731,0.202838 c -0.14503,0.402532 -4.35037,11.842627 -4.39953,11.968354 -0.0473,0.120954 -0.35196,0.128886 -4.9488,0.128886 h -4.89841 z m 29.73728,-18.914792 c 0,-0.143904 -6.72007,-20.174704 -6.76835,-20.174704 -0.0625,0 -7.06221,20.126876 -7.02453,20.198389 0.0484,0.09183 13.79288,0.06824 13.79288,-0.02369 z m 21.65296,-5.594155 V 17.919738 l 11.5814,0.02488 c 12.3964,0.02663 11.97046,0.01455 13.58614,0.385239 1.36412,0.312974 3.09092,1.033524 4.33046,1.806992 4.49557,2.805223 7.44363,7.614605 7.92159,12.923065 0.15305,1.699803 -0.0252,3.737877 -0.48297,5.522965 -1.03389,4.031481 -3.38394,7.288581 -6.69261,9.275756 -0.41191,0.247389 -0.93999,0.531964 -1.17351,0.632392 -0.29986,0.128953 -0.41625,0.216633 -0.39618,0.298469 0.0156,0.06373 2.5052,4.203467 5.53238,9.199411 3.02718,4.995951 5.52104,9.128022 5.54189,9.182383 0.0315,0.08211 -0.84846,0.09884 -5.20069,0.09884 h -5.23862 l -0.21645,-0.341306 c -0.11905,-0.187718 -2.39685,-3.898963 -5.06179,-8.247211 l -4.84533,-7.905903 -4.80531,-0.0015 -4.80531,-0.0015 -0.0187,8.230337 -0.0187,8.230337 -4.76881,0.01895 -4.76881,0.01895 V 42.595452 Z m 22.86819,-0.3901 c 1.02019,-0.297956 1.78723,-0.760196 2.55992,-1.542656 1.23814,-1.25381 2.04079,-2.965874 2.30407,-4.91459 0.32276,-2.388919 -0.10572,-4.395943 -1.33771,-6.265986 -0.94085,-1.428124 -2.40016,-2.55544 -3.82736,-2.956632 -0.57793,-0.162456 -0.63366,-0.163995 -6.78769,-0.18729 l -6.20497,-0.0235 v 8.034319 8.034312 l 6.42592,-0.02446 c 5.86147,-0.02232 6.46474,-0.0358 6.86782,-0.153523 z"
       id="path293"
       sodipodi:nodetypes="ssscssscssssssssssscsscscsssssssssssssssccssssscccccccssccccccssssssscccccssscsssssccssssssssssscsscccccccccsssssscccss" />
  </g>
</svg>
