<?xml version="1.0" encoding="UTF-8" standalone="no"?>
<!-- Created with Inkscape (http://www.inkscape.org/) -->

<svg
   width="908"
   height="323"
   viewBox="0 0 240.24166 85.460416"
   version="1.1"
   id="svg5"
   inkscape:export-filename="bitmap.png"
   inkscape:export-xdpi="96"
   inkscape:export-ydpi="96"
   sodipodi:docname="nh-sonar-text-hydra.svg"
   inkscape:version="1.2.2 (b0a8486541, 2022-12-01)"
   xmlns:inkscape="http://www.inkscape.org/namespaces/inkscape"
   xmlns:sodipodi="http://sodipodi.sourceforge.net/DTD/sodipodi-0.dtd"
   xmlns="http://www.w3.org/2000/svg"
   xmlns:svg="http://www.w3.org/2000/svg">
  <sodipodi:namedview
     id="namedview7"
     pagecolor="#ffffff"
     bordercolor="#000000"
     borderopacity="0.25"
     inkscape:showpageshadow="2"
     inkscape:pageopacity="0.0"
     inkscape:pagecheckerboard="0"
     inkscape:deskcolor="#d1d1d1"
     inkscape:document-units="px"
     showgrid="false"
     inkscape:zoom="0.88480004"
     inkscape:cx="485.98551"
     inkscape:cy="236.77666"
     inkscape:window-width="1920"
     inkscape:window-height="1011"
     inkscape:window-x="0"
     inkscape:window-y="0"
     inkscape:window-maximized="1"
     inkscape:current-layer="layer1" />
  <defs
     id="defs2" />
  <g
     inkscape:label="Layer 1"
     inkscape:groupmode="layer"
     id="layer1">
    <g
       id="g361"
       transform="matrix(0.07364955,0,0,0.07364955,-0.07523431,-24.880081)">
      <path
         d="m 915.40161,1248.6359 c -0.8902,-0.2903 -3.5998,-0.5612 -6.024,-0.595 -2.4192,-0.034 -6.3529,-0.3388 -8.7335,-0.6726 -2.3853,-0.3387 -6.8078,-0.9388 -9.8318,-1.3452 -3.0289,-0.4016 -6.9578,-0.987 -8.7384,-1.3016 -1.7805,-0.3144 -5.1288,-0.9048 -7.4417,-1.3112 -2.3128,-0.4064 -5.0804,-0.9676 -6.1497,-1.2483 -1.0693,-0.2807 -3.687,-0.8758 -5.8255,-1.3258 -3.7209,-0.7838 -6.7691,-1.5387 -14.5593,-3.5901 -8.2689,-2.1774 -25.3973,-7.882 -32.3599,-10.7754 -0.8903,-0.3678 -2.2016,-0.8952 -2.9128,-1.1662 -0.7113,-0.2757 -2.6032,-1.0644 -4.2047,-1.7612 -1.6016,-0.6967 -4.224,-1.8144 -5.8256,-2.4918 -3.7595,-1.5822 -24.6813,-12.0333 -28.4747,-14.2155 -13.5237,-7.7901 -24.6184,-15.0866 -37.1647,-24.4346 -2.4579,-1.8338 -12.2511,-9.6431 -12.6672,-10.1076 -0.179,-0.1985 -2.2161,-1.95 -4.5337,-3.8902 -9.2706,-7.7804 -25.7652,-24.2798 -33.6664,-33.681 -1.9452,-2.3176 -3.7015,-4.3547 -3.8999,-4.5337 -0.4597,-0.4113 -8.2497,-10.1657 -10.1125,-12.6672 -9.3481,-12.5463 -16.6445,-23.6411 -24.4345,-37.1647 -2.1822,-3.7934 -12.6286,-24.7152 -14.2156,-28.4747 -0.6774,-1.6016 -1.7951,-4.224 -2.4919,-5.8256 -0.6967,-1.6015 -1.5241,-3.566 -1.8435,-4.3692 -0.3241,-0.7983 -0.8467,-2.1096 -1.1709,-2.9079 -3.1886,-7.9352 -8.4867,-23.8975 -10.785,-32.5245 -2.0274,-7.59646 -2.2451,-8.44816 -2.9419,-11.64636 -0.387,-1.78057 -0.9338,-4.25788 -1.2193,-5.5014 -1.1419,-4.99815 -2.0563,-9.57062 -2.6321,-13.10758 -0.3339,-2.04672 -0.9,-5.54013 -1.2677,-7.76585 -2.5548,-15.58967 -3.4402,-28.58118 -3.4402,-50.31576 0,-21.79753 0.8806,-34.60514 3.4644,-50.4803 0.3774,-2.31285 0.9483,-5.80626 1.2677,-7.76585 0.5516,-3.39664 1.4902,-8.03198 2.6079,-12.94309 0.2855,-1.24351 0.8323,-3.72083 1.2193,-5.50133 0.6968,-3.19829 0.9145,-4.04984 2.9419,-11.64632 2.2983,-8.62712 7.5964,-24.58941 10.785,-32.52463 0.3242,-0.7983 0.8468,-2.10951 1.1709,-2.9079 0.3194,-0.80321 1.1468,-2.76761 1.8435,-4.36921 0.6968,-1.60151 1.8145,-4.22402 2.4919,-5.82553 1.587,-3.75953 12.0334,-24.68135 14.2156,-28.47469 7.79,-13.52369 15.0864,-24.61848 24.4345,-37.16469 1.8628,-2.50157 9.6528,-12.256 10.1125,-12.66732 0.1984,-0.179 1.9547,-2.216 3.8999,-4.53367 7.9012,-9.40125 24.3958,-25.90062 33.6664,-33.68092 2.3176,-1.94032 4.3547,-3.69184 4.5337,-3.89019 0.4161,-0.46448 10.2093,-8.27386 12.6672,-10.10769 12.556,-9.35283 23.8733,-16.79449 37.1647,-24.42968 7.6449,-4.38856 29.0698,-14.74785 37.2131,-17.98966 1.7757,-0.71126 3.8176,-1.5241 4.5288,-1.80476 8.1143,-3.237 23.8394,-8.44322 32.3601,-10.71728 7.5964,-2.02737 8.4481,-2.24507 11.6463,-2.94188 1.7806,-0.38707 4.2579,-0.93378 5.5014,-1.21926 4.9982,-1.14193 9.5706,-2.05636 13.1075,-2.63214 2.0467,-0.33391 5.5402,-0.89997 7.7659,-1.26778 15.5897,-2.55472 28.5812,-3.44016 50.3157,-3.44016 21.7347,0 34.7261,0.88544 50.3159,3.44016 2.2257,0.36781 5.7239,0.93387 7.7707,1.26778 3.5321,0.57578 8.10439,1.49021 13.10269,2.63214 1.2483,0.28548 3.7208,0.83219 5.5014,1.21926 3.1982,0.69681 4.0498,0.91451 11.6511,2.94188 8.5158,2.27406 24.2411,7.48028 32.3552,10.71728 0.7113,0.28066 2.7531,1.0935 4.5338,1.80476 8.1384,3.24181 29.5682,13.6011 37.2082,17.98966 13.2913,7.63519 24.6087,15.07685 37.1646,24.42968 2.4629,1.83383 12.2512,9.64321 12.6673,10.10769 0.179,0.19835 2.2208,1.94987 4.5337,3.89019 4.0063,3.36275 13.6301,12.38175 17.6365,16.53317 5.2062,5.39012 6.7786,14.57367 3.6724,21.41529 -1.1807,2.60797 -16.2865,18.0429 -84.5048,86.3435 -45.6854,45.74338 -83.0678,83.53701 -83.0678,83.99186 0,0.44994 0.9339,2.63223 2.0709,4.84823 1.9451,3.77889 3.2514,6.96264 5.3708,13.08337 3.1305,9.06252 4.6691,28.36339 2.8982,36.44371 -0.3677,1.66929 -0.9774,4.49015 -1.3548,6.27074 -3.7255,17.51546 -14.6123,34.52774 -29.36979,45.88861 -2.8451,2.19183 -6.6336,4.86268 -8.4142,5.9272 -6.6722,4.00622 -15.9864,7.70766 -23.2975,9.26566 -1.7805,0.3775 -4.6014,0.9871 -6.2707,1.35 -3.9289,0.8613 -20.4137,0.8613 -24.3426,0 -1.6741,-0.3629 -4.495,-0.9725 -6.2756,-1.35 -7.3303,-1.5628 -16.6009,-5.2449 -23.2975,-9.26566 -11.1334,-6.67716 -21.7733,-17.32196 -28.5134,-28.51834 -4.0111,-6.66263 -7.7077,-15.94776 -9.2705,-23.29747 -0.3775,-1.78059 -0.9872,-4.60145 -1.3501,-6.27074 -0.3677,-1.6741 -0.6676,-7.15136 -0.6676,-12.17368 0,-5.0224 0.2999,-10.49957 0.6676,-12.17376 0.3629,-1.66929 0.9726,-4.49015 1.3501,-6.27066 1.5628,-7.33044 5.2449,-16.60103 9.2657,-23.29755 11.3899,-18.99122 30.981,-33.26968 51.8157,-37.76946 1.7806,-0.38715 4.6015,-1.00164 6.2756,-1.36445 8.0803,-1.77096 27.3764,-0.23715 36.4389,2.89336 6.1208,2.11933 9.3045,3.42572 13.0883,5.37077 2.2111,1.13712 4.3981,2.07089 4.853,2.07089 0.4597,0 14.5155,-13.70268 31.24709,-30.45364 l 30.415,-30.45364 -1.9451,-1.60159 c -2.5644,-2.11924 -14.9945,-10.62051 -15.5269,-10.62051 -0.2321,0 -1.6353,-0.82256 -3.1208,-1.82412 -5.8352,-3.93372 -23.20559,-11.48668 -34.09699,-14.82526 -6.8368,-2.09506 -9.498,-2.73863 -19.2525,-4.66914 -20.8589,-4.13216 -50.2626,-2.99504 -72.2101,2.7966 -6.6481,1.7516 -8.2207,2.25961 -17.259,5.55466 -10.1948,3.71602 -31.5036,15.00426 -36.7099,19.44598 -0.6339,0.53708 -2.1725,1.68864 -3.416,2.55963 -1.2483,0.86608 -2.4096,1.73698 -2.5886,1.93052 -0.179,0.19353 -1.6354,1.35963 -3.237,2.59352 -7.0932,5.44818 -19.1702,17.52509 -24.6184,24.61839 -1.2338,1.60151 -2.3999,3.05791 -2.5934,3.23691 -0.1936,0.17908 -1.0645,1.34028 -1.9306,2.58862 -0.8709,1.24351 -2.0225,2.78215 -2.5596,3.41599 -4.4418,5.20631 -15.73,26.51511 -19.446,36.70984 -3.295,9.03845 -3.8031,10.61097 -5.5546,17.25424 -2.758,10.44633 -3.9483,18.28959 -4.8337,31.76494 -1.1613,17.68473 0.5758,36.66623 4.8337,52.8027 1.7515,6.64336 2.2596,8.21579 5.5546,17.25423 3.716,10.19477 15.0042,31.50364 19.446,36.70984 0.5371,0.6339 1.6887,2.1725 2.5596,3.416 0.8661,1.2483 1.737,2.4096 1.9306,2.5886 0.1935,0.179 1.3596,1.6354 2.5934,3.2369 5.4482,7.0933 17.5252,19.1703 24.6184,24.6185 1.6016,1.2338 3.058,2.3999 3.237,2.5934 0.179,0.1935 1.3403,1.0645 2.5886,1.9305 1.2435,0.871 2.7821,2.0226 3.416,2.5597 5.2063,4.4417 26.5151,15.73 36.7099,19.4459 9.0383,3.2951 10.6109,3.8032 17.259,5.5547 10.4415,2.758 18.2847,3.9483 31.7648,4.8337 17.68,1.1612 36.6615,-0.5758 52.798,-4.8337 18.6187,-4.9111 42.08069,-15.8413 54.57859,-25.4264 1.0064,-0.7742 3.5999,-2.7241 5.7578,-4.3305 8.4384,-6.2997 21.3476,-18.9477 27.4877,-26.9458 1.2338,-1.6015 2.3999,-3.0579 2.5934,-3.2369 0.1936,-0.179 1.0645,-1.3403 1.9305,-2.5886 0.871,-1.2435 2.0226,-2.7821 2.5597,-3.416 2.4047,-2.8208 8.8592,-13.8527 12.9623,-22.14585 3.958,-8.01263 6.1111,-13.20922 9.4255,-22.76051 1.3886,-4.01105 4.2047,-14.92194 4.9014,-18.9815 1.3935,-8.19644 1.8628,-11.56882 2.187,-15.8558 1.5677,-20.54921 1.7515,-22.02015 3.0387,-24.75877 2.9949,-6.37714 10.4269,-11.16241 17.3315,-11.16241 9.3045,0 17.9751,7.53353 19.0831,16.57188 0.4451,3.67249 -0.6435,24.63293 -1.5773,30.35206 -0.3532,2.13377 -0.9048,5.77237 -1.229,8.08513 -1.0209,7.28692 -5.4482,24.4056 -8.1916,31.71173 -0.6048,1.6016 -1.679,4.51441 -2.3903,6.474 -1.9257,5.28368 -1.9644,5.38518 -6.8755,15.61394 -2.4967,5.2062 -5.7627,11.4672 -7.2627,13.9155 -1.4999,2.4434 -3.3046,5.4627 -4.0158,6.711 -12.1593,21.2895 -43.271,52.4012 -64.5605,64.5604 -1.2435,0.7113 -4.2676,2.5161 -6.711,4.016 -2.4483,1.4999 -8.7093,4.7659 -13.9157,7.2627 -10.2286,4.911 -10.3302,4.9497 -15.6138,6.8755 -1.9596,0.7111 -4.8676,1.7854 -6.4691,2.3902 -7.31109,2.7434 -24.42979,7.1707 -31.71169,8.1916 -2.3177,0.3242 -5.9563,0.8758 -8.09,1.229 -12.0334,1.9693 -42.9806,1.9693 -55.0092,0 -2.1387,-0.3532 -5.7772,-0.9048 -8.09,-1.229 -7.282,-1.0209 -24.4055,-5.4482 -31.7116,-8.1916 -1.6016,-0.6048 -4.5144,-1.6791 -6.474,-2.3902 -5.2401,-1.9065 -5.3708,-1.9645 -15.2075,-6.6724 -9.1544,-4.3788 -11.7092,-5.7868 -21.6815,-11.9463 -23.6893,-14.6414 -51.714,-42.7434 -63.9119,-64.0959 -0.7113,-1.2483 -2.5161,-4.2676 -4.016,-6.711 -1.5,-2.4483 -4.766,-8.7093 -7.2626,-13.9155 -4.9063,-10.22876 -4.9498,-10.33026 -6.8756,-15.61394 -0.7112,-1.95959 -1.7854,-4.8724 -2.3854,-6.474 -2.7483,-7.30613 -7.1755,-24.42481 -8.1964,-31.71173 -0.3242,-2.31276 -0.8758,-5.95136 -1.229,-8.08513 -1.9693,-12.03339 -1.9693,-42.98059 0,-55.01398 0.3532,-2.13377 0.9048,-5.77237 1.229,-8.08513 1.0209,-7.28684 5.4481,-24.4056 8.1964,-31.7117 0.6,-1.6016 1.6742,-4.5144 2.3854,-6.47399 1.9258,-5.28364 1.9693,-5.38522 6.8756,-15.61384 2.4966,-5.20631 5.7626,-11.46733 7.2626,-13.91566 1.4999,-2.44342 3.3047,-5.46263 4.016,-6.71096 12.1979,-21.35241 40.2226,-49.45458 63.9119,-64.09594 9.9723,-6.15944 12.5271,-7.56741 21.6815,-11.94634 9.8367,-4.70785 9.9674,-4.76591 15.2075,-6.67226 1.9596,-0.71126 4.8724,-1.78541 6.474,-2.39027 7.3061,-2.74344 24.4296,-7.17071 31.7116,-8.19162 2.3128,-0.32419 5.9513,-0.88062 8.09,-1.22898 11.3706,-1.86282 38.6018,-2.16284 51.1239,-0.55643 8.1335,1.04026 14.0414,1.95477 16.5042,2.54509 1.2435,0.29994 4.0111,0.89026 6.1497,1.31603 6.8368,1.35 25.29099,7.0933 30.88909,9.6045 1.5194,0.68219 4.0644,1.7806 5.6563,2.43861 12.1592,5.0175 29.2537,15.15427 42.729,25.33937 l 6.1498,4.64497 29.9311,-29.92628 c 16.4654,-16.46066 29.931,-30.38104 29.931,-30.93747 0,-2.18702 -32.1519,-25.90062 -44.2047,-32.60204 -9.7883,-5.44818 -22.6879,-12.12534 -25.6877,-13.29626 -1.2483,-0.48865 -4.0934,-1.71281 -6.3288,-2.71918 -2.2305,-1.00165 -4.1902,-1.82412 -4.345,-1.82412 -0.1597,0 -1.8435,-0.71126 -3.7402,-1.57743 -7.04,-3.22246 -28.0005,-9.78831 -38.3307,-12.00913 -2.1338,-0.45966 -5.92239,-1.34519 -8.41429,-1.96449 -5.0368,-1.25797 -10.0738,-2.11924 -18.7686,-3.21765 -3.2031,-0.40642 -7.5723,-0.99674 -9.7061,-1.31121 -19.6637,-2.91762 -57.7913,-1.98866 -79.4388,1.93061 -2.0467,0.37253 -5.3079,0.94831 -7.2384,1.28222 -3.179,0.54671 -6.3675,1.25315 -15.2511,3.3821 -14.351,3.44017 -35.2679,10.60606 -49.1884,16.84773 -8.8497,3.97724 -25.0393,12.38657 -28.5763,14.85425 -0.9435,0.65801 -1.8822,1.19509 -2.0806,1.19509 -1.2532,0 -21.4298,13.86241 -30.4778,20.93635 -27.5216,21.52651 -55.435,53.18014 -70.986,80.50817 -0.658,1.15639 -1.8241,3.19821 -2.5886,4.53367 -18.1735,31.66809 -30.5117,67.20219 -35.4567,102.08801 -2.608,18.39599 -2.9515,23.42812 -2.9515,43.03864 0,19.61053 0.3435,24.64257 2.9515,43.03865 4.9547,34.96804 17.2397,70.2989 35.5486,102.2524 0.8177,1.4226 1.979,3.4596 2.5886,4.5289 21.425,37.6147 63.9121,80.034 101.6138,101.4735 1.2436,0.7064 3.2854,1.8725 4.5289,2.5886 12.3914,7.1175 23.5636,12.5075 37.1695,17.9219 76.5599,30.473 162.6615,27.0861 236.58449,-9.3045 7.94,-3.9095 16.4267,-8.4964 18.8702,-10.1996 0.9435,-0.658 1.8821,-1.1951 2.0854,-1.1951 0.4984,0 11.056,-6.8562 18.1928,-11.8157 26.5538,-18.4492 52.7108,-44.6064 71.3537,-71.3731 4.8966,-7.0303 11.8157,-17.6702 11.8157,-18.1734 0,-0.2033 0.5371,-1.142 1.1951,-2.0855 2.4677,-3.5369 10.877,-19.7218 14.8542,-28.5762 6.2417,-13.9156 13.4076,-34.8373 16.8478,-49.18842 2.1289,-8.87862 2.8353,-12.07213 3.3821,-15.25098 0.3339,-1.93061 0.9097,-5.19177 1.2823,-7.2385 1.7611,-9.72544 3.1208,-24.45875 3.5998,-38.9888 0.2371,-7.23359 0.716,-12.37694 1.3209,-14.23976 4.1853,-12.84141 19.4944,-17.59769 30.2456,-9.39643 2.5548,1.94514 6.2272,7.09811 6.2272,8.73351 0,0.57579 0.3096,1.35964 0.6871,1.73707 1.7273,1.72735 -0.3968,37.57593 -3.2612,55.06722 -0.3629,2.22572 -0.9339,5.71913 -1.2677,7.76585 -0.5709,3.53696 -1.4903,8.10943 -2.6322,13.10758 -0.2855,1.24352 -0.8322,3.72083 -1.2193,5.5014 -0.6967,3.1982 -0.9145,4.0499 -2.9418,11.64636 -2.2741,8.5206 -7.4803,24.2457 -10.7173,32.3599 -0.2807,0.7113 -1.0935,2.7532 -1.8048,4.5289 -3.2418,8.1432 -13.6011,29.5682 -17.9896,37.2131 -7.6352,13.2914 -15.072,24.6087 -24.4297,37.1647 -1.8339,2.4579 -9.6432,12.2511 -10.1077,12.6672 -0.1984,0.179 -1.9499,2.2161 -3.8902,4.5337 -7.7658,9.2609 -24.42,25.9151 -33.6809,33.681 -2.3129,1.9402 -4.3547,3.6917 -4.5337,3.8902 -0.4161,0.4645 -10.2044,8.2738 -12.6673,10.1076 -12.5559,9.3529 -23.8733,16.7945 -37.1646,24.4297 -7.64,4.3885 -29.0698,14.7478 -37.2082,17.9896 -1.7807,0.7113 -3.8225,1.5242 -4.5338,1.8048 -8.5206,3.4015 -23.6119,8.4287 -31.3875,10.4609 -2.6708,0.7016 -5.8739,1.5483 -7.1174,1.8821 -1.2483,0.3339 -3.7209,0.9291 -5.5014,1.3161 -1.7806,0.3871 -4.2531,0.9339 -5.5014,1.2194 -4.9983,1.1418 -9.57059,2.0563 -13.10269,2.6321 -2.0468,0.3338 -5.545,0.9 -7.7707,1.2677 -5.3562,0.8757 -13.4367,1.858 -22.1653,2.6902 -8.8303,0.8467 -47.3014,1.2677 -49.5078,0.5419 z"
         style="fill:#0a7838;fill-opacity:1;stroke:#0a7838;stroke-width:35.188;stroke-linecap:round;stroke-linejoin:round;stroke-dasharray:none;stroke-opacity:1"
         id="path10" />
      <path
         style="fill:#000000"
         d="m 280.66273,1258.5923 c -44.93266,-2.3371 -83.61434,-8.5042 -122,-19.4507 -49.83179,-14.2107 -94.35039,-34.4894 -134.267677,-61.1603 l -8.767673,-5.8582 8.406444,-16.2123 c 4.623545,-8.9168 17.511861,-33.9873 28.640706,-55.7123 11.12884,-21.725 20.31503,-39.5986 20.41376,-39.7192 0.0987,-0.1206 2.85587,1.9359 6.12697,4.57 34.0939,27.4539 90.26011,53.5805 144.44747,67.192 21.25115,5.3381 36.55531,7.6662 59.57773,9.0629 49.51127,3.0038 86.6397,-6.3289 106.58941,-26.7926 11.01061,-11.2942 15.79171,-23.9446 15.81808,-41.853 0.0422,-28.6838 -12.52936,-45.2856 -47.51488,-62.7474 -17.91437,-8.9413 -47.95687,-19.01876 -115.26385,-38.66426 -87.35099,-25.4959 -129.14368,-45.0328 -158.32323,-74.0115 -6.3892,-6.3453 -13.86691,-14.9154 -16.61713,-19.0448 -18.82107,-28.2592 -26.128886,-60.1629 -24.121499,-105.3072 2.375539,-53.4236 21.088409,-95.9572 57.524089,-130.75 34.20443,-32.6621 79.96769,-53.233 137.83128,-61.9561 18.12978,-2.7331 57.64391,-3.7634 79.01155,-2.0602 54.48619,4.3432 104.73808,19.2901 158.24494,47.0682 14.85512,7.712 37.04523,20.6853 41.61841,24.3318 l 2.83541,2.2609 -28.35516,52.1907 c -15.59533,28.7049 -28.65007,52.1995 -29.01054,52.2103 -0.36046,0.011 -2.61046,-1.6308 -5,-3.6479 -6.761,-5.7073 -27.17415,-18.8041 -37.7625,-24.228 -14.07599,-7.2105 -28.79436,-13.2799 -48.81038,-20.1281 -34.87994,-11.9337 -54.0618,-15.8486 -81.80902,-16.6969 -28.23071,-0.8631 -50.3056,2.2644 -68.63639,9.7241 -17.06919,6.9464 -29.83554,18.098 -36.66394,32.0267 -5.74409,11.7169 -7.43635,19.1657 -7.49026,32.9696 -0.0937,24.0059 8.0301,39.3558 27.78568,52.5007 20.1477,13.4058 42.97028,21.2623 127.5422,43.9056 52.78604,14.133 82.40573,24.472 113.5,39.6182 45.10502,21.9708 74.71466,52.5715 88.4044,91.3631 12.87268,36.47626 13.08603,92.88386 0.50198,132.71936 -11.28046,35.709 -34.6463,67.0494 -65.13596,87.3664 -37.02673,24.6729 -80.74085,38.7167 -135.27042,43.4575 -12.98279,1.1287 -44.17719,1.9738 -54,1.4629 z M 1355.6627,916.19854 v -335 h 51.1713 c 43.0382,0 51.4221,0.228 52.75,1.434 0.8683,0.7887 78.7537,99.9589 173.0787,220.3782 94.325,120.4193 171.8375,218.74736 172.25,218.50696 0.4125,-0.2405 0.75,-99.18896 0.75,-219.88546 v -219.4482 l 64.75,0.2573 64.75,0.2572 v 334 333.99996 l -54.1096,0.2585 -54.1095,0.2586 -3.3905,-4.3123 c -1.8647,-2.3718 -78.5404,-98.9631 -170.3904,-214.6475 l -167,-210.33506 -0.2523,214.63886 -0.2523,214.6389 h -64.9977 -64.9977 z m 655.2327,332.74996 c 0.5626,-2.7175 244.4199,-663.23216 245.8406,-665.88696 0.957,-1.7881 3.623,-1.863 66.3549,-1.863 61.3166,0 65.4004,0.1083 66.0463,1.75 0.3787,0.9625 47.4927,129.1 104.6979,284.75 122.963,334.57086 139.4573,379.43206 140.36,381.74996 0.645,1.656 -2.9134,1.75 -66.266,1.75 h -66.9475 l -31.0104,-83.25 -31.0105,-83.25 -117.0497,-0.2541 -117.0498,-0.2541 -0.9922,2.7541 c -1.9691,5.4655 -59.0684,160.797 -59.7359,162.5041 -0.6422,1.6423 -4.7789,1.75 -67.194,1.75 h -66.5096 z m 403.7673,-256.82156 c 0,-1.9539 -91.2438,-273.9284 -91.8993,-273.9284 -0.8494,0 -95.8894,273.279 -95.3778,274.25 0.657,1.2469 187.2771,0.9265 187.2771,-0.3216 z m 294,-75.9564 v -335.0425 l 157.25,0.3378 c 168.3161,0.3616 162.5328,0.1976 184.4702,5.2307 18.5217,4.2495 41.9679,14.033 58.7981,24.535 61.0401,38.0888 101.0683,103.3897 107.5579,175.467 2.0781,23.0796 -0.3419,50.7522 -6.5577,74.9898 -14.0379,54.7387 -45.9465,98.963 -90.871,125.9445 -5.5928,3.359 -12.763,7.2229 -15.9337,8.5865 -4.0714,1.7509 -5.6517,2.9414 -5.3792,4.05256 0.2122,0.8653 34.0151,57.0739 75.1176,124.9079 41.1025,67.8341 74.9636,123.9386 75.2468,124.6767 0.4278,1.1149 -11.5203,1.342 -70.614,1.342 h -71.129 l -2.939,-4.6342 c -1.6164,-2.5488 -32.544,-52.9394 -68.728,-111.9791 l -65.789,-107.3449 -65.2457,-0.021 -65.2456,-0.021 -0.2544,111.75 -0.2543,111.75 -64.75,0.2573 -64.75,0.2573 V 916.17034 Z m 310.5,-5.2967 c 13.852,-4.0456 24.2667,-10.3218 34.7581,-20.9459 16.8112,-17.024 27.7095,-40.2701 31.2843,-66.7294 4.3823,-32.4363 -1.4355,-59.6873 -18.1632,-85.0784 -12.7747,-19.3908 -32.589,-34.6973 -51.9672,-40.1446 -7.847,-2.2058 -8.6037,-2.2267 -92.162,-2.543 l -84.25,-0.319 v 109.0885 109.0884 l 87.25,-0.3321 c 79.5859,-0.303 87.777,-0.4861 93.25,-2.0845 z"
         id="path293"
         sodipodi:nodetypes="ssscssscssssssssssscsscscsssssssssssssssccssssscccccccssccccccssssssscccccssscsssssccssssssssssscsscccccccccsssssscccss" />
    </g>
  </g>
</svg>
