<?xml version="1.0" encoding="UTF-8" standalone="no"?>
<!-- Created with Inkscape (http://www.inkscape.org/) -->

<svg
   version="1.1"
   id="svg2"
   width="3264"
   height="3264"
   viewBox="0 0 3264 3264"
   sodipodi:docname="nethydra-enterprise-logo-hydra.svg"
   inkscape:export-filename="nethydra-enterprise-logo.svg"
   inkscape:export-xdpi="96"
   inkscape:export-ydpi="96"
   inkscape:version="1.2.2 (b0a8486541, 2022-12-01)"
   xmlns:inkscape="http://www.inkscape.org/namespaces/inkscape"
   xmlns:sodipodi="http://sodipodi.sourceforge.net/DTD/sodipodi-0.dtd"
   xmlns="http://www.w3.org/2000/svg"
   xmlns:svg="http://www.w3.org/2000/svg">
  <defs
     id="defs6" />
  <sodipodi:namedview
     id="namedview4"
     pagecolor="#ffffff"
     bordercolor="#000000"
     borderopacity="0.25"
     inkscape:showpageshadow="2"
     inkscape:pageopacity="0.0"
     inkscape:pagecheckerboard="0"
     inkscape:deskcolor="#d1d1d1"
     showgrid="false"
     inkscape:zoom="0.24050245"
     inkscape:cx="1629.921"
     inkscape:cy="1257.7834"
     inkscape:window-width="1920"
     inkscape:window-height="1011"
     inkscape:window-x="0"
     inkscape:window-y="0"
     inkscape:window-maximized="1"
     inkscape:current-layer="g8" />
  <g
     inkscape:groupmode="layer"
     inkscape:label="Image"
     id="g8">
    <path
       style="fill:#0e823e;fill-opacity:1"
       d="m 499.78265,2345.9067 c -1.55349,-2.9027 -8.44436,-21.1744 -12.97389,-34.4013 -2.07181,-6.05 -7.44268,-20.9 -11.93527,-33 -9.30754,-25.0683 -32.96957,-90.3465 -40.05398,-110.5 -2.61006,-7.425 -6.6592,-18.45 -8.99808,-24.5 -6.74305,-17.4423 -7.14439,-19.0579 -5.1617,-20.7793 0.92166,-0.8002 11.57575,-4.9079 23.67575,-9.1282 12.1,-4.2203 25.375,-8.9887 29.5,-10.5963 4.125,-1.6077 15.6,-5.8052 25.5,-9.3278 9.9,-3.5227 34.11041,-12.1668 53.80091,-19.209 l 35.8009,-12.8042 14.29583,-21.0776 c 65.32991,-96.3216 155.73146,-203.3828 259.53853,-307.3676 27.4582,-27.5052 36.07506,-35.3009 62.06383,-56.1487 46.00249,-36.9027 82.55472,-62.6818 136.93942,-96.579 13.9916,-8.7209 24.9041,-16.0345 24.25,-16.2525 -3.0975,-1.0325 -43.5893,10.278 -82.0444,22.9172 -102.87288,33.812 -187.73568,73.761 -260.64502,122.6981 -42.41292,28.4678 -65.85435,48.0335 -114.0044,95.1549 -13.20713,12.925 -34.95058,34.0491 -48.31876,46.9424 -31.2812,30.1701 -61.87621,62.766 -89.6916,95.5576 -68.47512,80.7253 -129.42772,172.1518 -190.93304,286.3922 -15.76044,29.2735 -20.10883,36.0497 -25.76134,40.1443 -10.13987,7.3453 -31.15556,14.5673 -39.93537,13.7235 -2.73527,-0.2627 -5.48298,-0.9875 -6.10603,-1.6106 -1.485,-1.485 4.19463,-18.6912 15.78955,-47.8339 27.76498,-69.7845 58.31852,-127.8377 102.00554,-193.8155 58.70852,-88.6639 132.00018,-177.4687 238.39448,-288.8538 43.37269,-45.4072 63.50508,-63.8376 105.36281,-96.4553 93.26384,-72.676 187.11647,-126.7477 289.61468,-166.857 76.6969,-30.0127 151.7351,-50.8135 266.1213,-73.7694 57.7564,-11.591 71.2807,-13.4782 158.0447,-22.054 l 35.5825,-3.5169 143.9175,-0.9887 c 157.8861,-1.0846 149.564,-0.7487 188.2959,-7.5991 130.12,-23.0139 233.9048,-65.5543 312.8927,-128.2517 14.5979,-11.5872 48.7236,-46.0103 59.6345,-60.1541 23.47,-30.4242 39.4878,-58.9378 51.1388,-91.0332 9.9575,-27.4302 14.5739,-46.6134 19.0032,-78.9668 2.1616,-15.7897 3.0629,-70.11705 1.5427,-93.00005 -3.5473,-53.3987 -13.4696,-106.87077 -27.9269,-150.49997 -32.1141,-96.9139 -85.1513,-167.5241 -159.0335,-211.7266 -14.5648,-8.7138 -40.0591,-21.2442 -46.4977,-22.8535 -5.7744,-1.4432 -18.8146,-0.9204 -52.1533,2.0909 -134.5874,12.1565 -265.6785,45.8373 -397.9789,102.2513 -30.075,12.8242 -45.8732,20.6534 -57.5,28.4954 -12.623,8.514 -17.5075,13.4306 -27.0644,27.2425 -3.9959,5.775 -11.1176,15.225 -15.8261,21 -12.1589,14.913 -37.4153,40.3862 -45.0979,45.4851 -9.3652,6.2155 -24.7088,14.1493 -48.6134,25.1368 -11.494,5.2832 -26.5242,12.192 -33.4004,15.3529 -6.8761,3.161 -20.4889,8.9525 -30.2506,12.8699 -25.1646,10.0989 -39.3991,16.6016 -70.7472,32.3191 -53.6961,26.92247 -74.5629,42.28027 -138.522,101.95127 -33.0313,30.8166 -51.0838,53.37115 -62.0837,77.56595 -6.28808,13.8309 -6.66465,14.4713 -9.04113,15.3748 -1.39955,0.5321 -5.65867,0.4816 -10.59665,-0.1256 -53.16681,-6.5383 -97.06692,-41.5329 -126.61513,-100.93025 -13.05136,-26.2356 -17.64408,-41.5232 -18.72286,-62.3221 -0.65222,-12.5748 -0.57402,-13.5222 1.19171,-14.4365 1.03936,-0.5383 7.06474,-1.5225 13.38974,-2.1872 36.14612,-3.79867 68.77793,-8.99387 91.58697,-14.58097 27.80728,-6.8115 79.33535,-25.4213 102.41305,-36.9874 29.3358,-14.7024 55.7683,-35.9625 62.1342,-49.9753 4.6051,-10.1371 0.8746,-14.9332 -15.5476,-19.9889 l -6.9134,-2.1283 12.4134,-10.512 c 6.8274,-5.7815 31.9884,-26.4366 55.9134,-45.9001 92.9215,-75.5938 114.3735,-94.635 117.0146,-103.8648 0.5692,-1.989 2.609,-11.4914 4.533,-21.1164 1.9239,-9.625 3.9495,-18.5593 4.5012,-19.8541 l 1.0032,-2.354 15.4732,0.7251 15.4732,0.7252 4.7508,-3.8634 c 2.6129,-2.1249 9.6055,-8.0463 15.539,-13.1588 l 10.7882,-9.2953 10.69,9.7877 c 17.9864,16.4681 28.0388,26.3991 30.8973,30.5238 l 2.7295,3.9386 -1.837,9.1626 c -3.2395,16.1579 -10.4762,39.8821 -15.0156,49.2254 -5.9286,12.2029 -15.7212,24.5775 -33.0364,41.7473 -15.1685,15.0412 -19.0464,18.0487 -20.4155,15.8335 -0.4296,-0.6953 -1.5612,-6.0515 -2.5147,-11.9029 -0.9534,-5.8513 -2.5501,-12.7881 -3.5482,-15.4149 -2.0802,-5.4747 -10.2053,-17.297 -12.4902,-18.1738 -1.8917,-0.7259 -1.9407,-1.8099 0.5732,12.687 1.7108,9.8657 2.0165,14.8033 1.6195,26.161 -0.4728,13.5269 -0.9831,16.3708 -6.3249,35.25 -0.3991,1.4102 -0.2018,2.25 0.5285,2.25 2.8986,0 42.9318,-26.9395 57.0681,-38.4028 10.3521,-8.3947 26.7692,-24.8467 32.2134,-32.2819 4.7825,-6.5316 9.6504,-17.3792 21.0083,-46.8153 10.9498,-28.3784 8.9279,-25.7149 26.3476,-34.7087 45.0021,-23.2347 116.4503,-52.2923 178.7383,-72.6921 51.7976,-16.964 95.2651,-27.6581 152.8859,-37.6137 14.2968,-2.4702 26.7202,-4.8975 27.6075,-5.3941 4.2089,-2.3554 -14.3897,-4.6257 -49.8011,-6.0791 -39.6099,-1.6257 -74.9663,0.2252 -124.8822,6.5376 -54.6848,6.9154 -97.9361,15.5015 -201.1177,39.9254 -31.075,7.3557 -66.4,15.6751 -78.5,18.4877 -12.1,2.8125 -23.2566,5.6089 -24.7924,6.2142 -1.5358,0.6053 -11.6608,9.651 -22.5,20.1015 -21.755,20.9749 -29.6065,27.6324 -38.9931,33.0634 -9.2594,5.3574 -30.2152,14.8583 -42.2145,19.1391 -5.775,2.0603 -18.1746,6.8023 -27.5547,10.5379 -9.3802,3.7355 -27.8302,10.2604 -41,14.4996 -67.7077,21.7944 -118.8979,44.6347 -156.3779,69.7736 -21.83042,14.6423 -71.50592,53.937 -90.82518,71.8452 -22.33558,20.7043 -33.46519,34.187 -45.91215,55.6195 -4.96569,8.5504 -7.14653,11.4098 -9.07049,11.8927 -2.85694,0.717 -19.58247,-2.5561 -29.32033,-5.7379 -22.75461,-7.4349 -46.76417,-24.3604 -65.05745,-45.8622 -20.90287,-24.569 -38.92493,-60.8303 -46.24611,-93.0496 -3.59701,-15.8298 -4.60571,-39.43 -1.805,-42.2307 1.10307,-1.1031 4.89751,-1.444 47.63219,-4.2797 39.84191,-2.6438 62.1893,-5.9062 92.5371,-13.509 50.15891,-12.566 88.49789,-27.5321 110.46172,-43.1203 16.31967,-11.5824 29.53828,-26.3391 29.53828,-32.9753 0,-3.6317 -6.82085,-9.0925 -15.4232,-12.3478 l -7.82947,-2.9629 3.37633,-2.861 c 5.56893,-4.719 31.58258,-23.3869 83.87636,-60.1912 27.225,-19.1609 56.25,-39.7827 64.5,-45.8263 25.6352,-18.7791 40.347,-31.5153 43.4662,-37.6295 1.0092,-1.9782 4.0172,-12.271 6.6844,-22.8729 4.2056,-16.717 5.1311,-19.3471 6.9713,-19.811 1.167,-0.2942 7.224,0.1744 13.4598,1.0414 17.9975,2.502 15.8927,3.1482 33.8952,-10.4064 l 15.9146,-11.9826 5.8043,6.2172 c 3.1923,3.4194 8.7659,9.3741 12.3858,13.2326 10.4333,11.1211 19.6417,22.0796 21.3831,25.4472 1.2757,2.4668 1.3941,3.8789 0.5791,6.9056 -1.6978,6.3051 -11.5882,35.2245 -14.3243,41.8839 -6.3366,15.423 -21.3266,33.3668 -43.2195,51.7361 -12.0424,10.1042 -18.4454,14.6944 -19.5475,14.0132 -0.3924,-0.2425 -1.0262,-4.3851 -1.4083,-9.2057 -1.4011,-17.674 -5.2195,-28.7207 -13.0537,-37.7649 l -2.5986,-3 0.5217,5.5 c 1.3976,14.7328 1.7019,32.1352 0.6908,39.5 -0.6041,4.4 -2.9991,13.4881 -5.3223,20.1958 -2.3231,6.7076 -3.9231,12.4966 -3.5554,12.8643 1.3961,1.396 32.2487,-16.1228 54.2373,-30.7971 15.4878,-10.3359 23.8462,-17.2453 35.5534,-29.39 11.1109,-11.5262 16.526,-18.6032 27.4826,-35.9171 4.4,-6.953 8.7507,-13.0462 9.6682,-13.5403 2.3543,-1.2679 10.5907,-3.3695 31.3318,-7.9945 9.9,-2.2076 32.85,-7.5644 51,-11.9041 113.5574,-27.1517 234.5408,-46.8918 318.9999,-52.0491 21.9309,-1.3392 80.4359,-1.3361 101.0089,0 86.1983,5.6203 154.4919,21.7351 228.2291,53.8533 l 16.238,7.073 9.8652,-10.1998 c 65.8414,-68.074 113.4048,-142.8215 143.9355,-226.1998 13.34,-36.4309 23.2564,-71.86146 34.2504,-122.37351 C 2228.2047,3.77054 2229.4763,0 2231.3131,0 c 4.474,0 78.0495,50.60558 140.0223,96.30788 161.444,119.0583 291.0466,240.2801 382.3307,357.607 95.1766,122.3299 158.1888,241.5749 203.0465,384.2469 38.8625,123.60427 62.3689,256.38342 77.6893,438.83822 2.0962,24.9644 1.8049,28.8405 -2.879,38.3178 -3.0641,6.1998 -4.5569,8.0316 -8.7244,10.7059 -8.1218,5.2117 -11.7715,4.1153 -14.0132,-4.2098 -0.5551,-2.0613 -4.846,-23.4502 -9.5353,-47.5309 -35.9236,-184.473 -65.7791,-297.83345 -109.1091,-414.28302 -21.1384,-56.8097 -42.715,-105.29 -72.5446,-163 -60.6931,-117.4198 -143.4077,-228.7835 -241.2432,-324.8003 -64.7358,-63.5323 -123.3777,-112.5681 -200.5177,-167.6708 -17.0384,-12.1709 -64.9107,-44.1888 -73.1884,-48.9497 l -4.6883,-2.6966 -1.4678,2.3089 c -0.8073,1.2699 -2.4642,6.3589 -3.6821,11.3089 -5.2653,21.4012 -14.9228,45.2523 -28.733,70.9621 -22.3126,41.5382 -45.1652,74.3118 -86.1407,123.537 -16.3829,19.6814 -22.2257,26.3524 -44.8115,51.1625 l -14.2575,15.6617 11.2771,9.4515 c 26.801,22.4624 62.0157,56.6151 77.5644,75.2252 52.354,62.6619 95.495,142.8405 126.1754,234.5 12.4774,37.277 17.7949,57.7342 20.1447,77.5 1.8579,15.6278 1.8448,144.32167 -0.017,163.99997 -6.6926,70.75045 -21.6021,135.44175 -44.7726,194.26575 -6.6348,16.8439 -24.7256,53.5515 -33.8747,68.7343 -23.4388,38.8963 -43.5736,65.3906 -70.9707,93.387 -49.7,50.7871 -106.4404,89.1324 -175.5577,118.6423 -53.3348,22.7715 -109.7158,39.057 -171,49.3928 -69.623,11.7422 -119.7907,14.9708 -208.4999,13.4181 -73.8836,-1.2933 -77.7938,-1.1074 -131.5,6.2498 -216.4497,29.6513 -410.5322,99.7701 -544.50002,196.7188 -32.99839,23.88 -52.73707,41.0432 -94.5,82.1698 -16.225,15.9778 -39.48907,38.6372 -51.69793,50.3541 -66.75203,64.0626 -129.83414,140.973 -188.7838,230.1672 -6.72479,10.1751 -13.08797,19.2628 -14.14039,20.1949 -1.05243,0.9321 -13.60549,5.7244 -27.89569,10.6495 -32.26416,11.1198 -65.97289,23.4741 -74.23219,27.206 -3.4375,1.5534 -6.25,3.439 -6.25,4.1904 0,1.1991 5.56827,18.2846 7.49889,23.0092 1.04353,2.5539 4.08729,2.1798 15.13182,-1.8593 5.42811,-1.9851 23.36929,-8.3294 39.86929,-14.0985 16.5,-5.7692 34.38807,-12.0462 39.75128,-13.949 5.3632,-1.9028 10.16196,-3.2058 10.66391,-2.8956 0.50195,0.3102 2.04495,3.5989 3.4289,7.3082 9.31848,24.9757 14.96278,41.2469 15.38906,44.3632 l 0.49504,3.619 -6.86409,2.5718 c -18.81866,7.051 -53.92654,19.6747 -80.3641,28.8964 -16.59087,5.7871 -16.06663,4.7965 -10.794,20.3979 3.5802,10.5935 4.73079,12.9499 6.44425,13.1983 2.668,0.3866 13.16645,-3.1052 65.32588,-21.7269 23.36187,-8.3405 43.61187,-15.0321 45,-14.87 1.88166,0.2196 3.06827,1.4396 4.66333,4.7946 3.53541,7.4362 16.64082,46.8272 16.07231,48.3087 -0.29046,0.757 -2.13822,2.1403 -4.10614,3.0741 -3.99999,1.8982 -45.12919,16.5827 -89.10563,31.8137 -15.95,5.5242 -33.05,11.5491 -38,13.3885 -16.62811,6.1792 -52.48448,18.415 -53.96421,18.415 -0.80598,0 -1.97086,-0.9444 -2.58862,-2.0987 z M 959.68201,1011.5763 c -0.33619,-9.1476 -0.50724,-9.7428 -5.73032,-19.94035 -11.95835,-23.3475 -37.24517,-51.3494 -65.47147,-72.5012 -10.40367,-7.7962 -15.20911,-10.5167 -16.81906,-9.5217 -1.7212,1.0638 -0.29889,23.4432 2.07127,32.5904 6.36935,24.5813 19.5373,43.8925 39.1639,57.4349 14.3414,9.89575 37.9244,21.25575 44.28568,21.33265 l 2.84653,0.034 -0.34653,-9.4291 z M 808.4668,776.15708 c 2.81761,-15.0192 -15.34174,-49.2986 -40.60585,-76.6517 -13.43454,-14.5454 -38.0956,-36.5 -40.99955,-36.5 -3.82236,0 -1.97778,33.2282 2.60642,46.9522 9.30237,27.8488 25.76411,46.1804 56.36766,62.7701 19.72878,10.6947 19.34047,10.5326 20.71627,8.651 0.69206,-0.9464 1.55383,-3.2961 1.91505,-5.2216 z m 384.6068,-28.4017 c 8.6745,-12.4953 35.4069,-52.5236 42.1395,-63.0984 2.0479,-3.2166 3.5661,-6.3206 3.3737,-6.8978 -0.5443,-1.6328 -64.0879,47.449 -78.0238,60.2665 -5.4035,4.9698 -5.9116,5.7672 -4.8904,7.6753 1.2777,2.3875 23.4663,14.2085 26.7798,14.267 1.595,0.028 4.2138,-2.983 10.6212,-12.2126 z m -140.0755,-215.5 c 4.0914,-4.2996 14.7895,-17.9842 36.9381,-47.25 18.4254,-24.3462 20.2769,-26.9557 19.6029,-27.6298 -0.6948,-0.6948 -4.0875,1.4978 -41.7036,26.9512 -46.3519,31.3646 -49.9159,34.1957 -46.8716,37.2319 3.1488,3.1405 23.3489,14.4467 25.8109,14.4467 1.7667,0 3.8485,-1.2545 6.2233,-3.75 z M 2969.0909,1832.7874 c -2.9101,-1.4038 -3.5403,-3.8404 -7.8321,-30.282 -1.964,-12.1 -6.4716,-39.775 -10.017,-61.5 -53.5457,-328.1146 -128.1973,-612.0192 -218.2808,-830.13525 -63.7693,-154.40237 -134.0635,-275.32527 -215.0078,-369.86477 -14.1802,-16.5619 -57.8039,-60.3339 -76.1178,-76.3766 -42.472,-37.2047 -94.9312,-69.5463 -146.9591,-90.6017 -19.4524,-7.8724 -22.0409,-9.2664 -22.0409,-11.8704 0,-2.3236 2.3977,-4.4241 13.9803,-12.2477 11.0926,-7.4927 20.9065,-16.7536 23.7413,-22.4036 1.1038,-2.2 2.6134,-6.475 3.3546,-9.5 1.4897,-6.0794 1.8381,-24.5362 0.6735,-35.6783 -0.6119,-5.8542 -0.4652,-7.4634 0.7956,-8.7242 1.3947,-1.3946 2.1743,-1.3094 7.9644,0.8699 7.2365,2.7238 44.2918,21.3104 60.9903,30.5922 30.0469,16.7013 68.5256,43.0475 97,66.4154 39.5536,32.4601 86.0979,79.3883 121.0267,122.025 114.8521,140.1967 209.2305,335.6126 277.4616,574.50002 44.85,157.0267 76.0648,314.26 98.4685,496 10.2732,83.3367 18.8121,173.1767 20.2089,212.6249 l 0.6418,18.1249 -5.3021,9.8751 c -10.3041,19.1913 -17.8444,29.5226 -21.3903,29.3074 -0.6133,-0.037 -2.1251,-0.5549 -3.3596,-1.1503 z m -209.3662,-343.4445 c -2.5006,-0.6683 -3.5154,-3.7347 -11.5152,-34.794 -18.0312,-70.006 -34.1206,-124.7593 -55.8449,-190.0435 -83.3103,-250.3588 -194.7168,-474.88252 -310.1995,-625.16252 -55.6827,-72.461 -109.0044,-125.3364 -166.2288,-164.8375 -26.5712,-18.3416 -31.4292,-21.8908 -31.8795,-23.2906 -0.2283,-0.7098 1.1697,-2.7852 3.1067,-4.612 4.0492,-3.819 24.4242,-17.7784 32.9219,-22.5557 l 5.75,-3.2326 0.01,-11.1546 c 0.01,-11.7075 1.2097,-18.4161 3.4597,-19.2796 1.7556,-0.6736 7.5597,2.3332 21.0347,10.897 73.1078,46.4625 144.4611,120.6432 217.1549,225.7598 125.7589,181.8496 238.9506,447.04052 291.7255,683.46832 13.2426,59.3259 24.6196,127.1425 24.6196,146.7534 0,8.7819 -1.6969,13.1497 -8.761,22.5512 -6.2112,8.2664 -10.3865,10.8594 -15.3497,9.5329 z"
       id="path239" />
  </g>
</svg>
