<?xml version="1.0" encoding="UTF-8" standalone="no"?>
<!-- Created with Inkscape (http://www.inkscape.org/) -->

<svg
   version="1.1"
   id="svg2"
   width="512"
   height="512"
   viewBox="0 0 512 512"
   sodipodi:docname="backtrace-logo.png"
   xmlns:inkscape="http://www.inkscape.org/namespaces/inkscape"
   xmlns:sodipodi="http://sodipodi.sourceforge.net/DTD/sodipodi-0.dtd"
   xmlns="http://www.w3.org/2000/svg"
   xmlns:svg="http://www.w3.org/2000/svg">
  <defs
     id="defs6" />
  <sodipodi:namedview
     id="namedview4"
     pagecolor="#ffffff"
     bordercolor="#000000"
     borderopacity="0.25"
     inkscape:showpageshadow="2"
     inkscape:pageopacity="0.0"
     inkscape:pagecheckerboard="0"
     inkscape:deskcolor="#d1d1d1"
     showgrid="false" />
  <g
     inkscape:groupmode="layer"
     inkscape:label="Image"
     id="g8">
    <path
       style="fill:#ffffff;stroke-width:0.485554"
       d="m 16.362668,468.63141 c -9.0083091,-0.31367 -9.5612789,-0.52454 -11.8715609,-4.52755 -1.8491501,-3.20397 -2.7461599,-6.16395 -3.433743,-11.33083 -0.65776404,-4.94284 -0.20012274,-8.96255 2.2645941,-19.89111 2.5345719,-11.23829 3.5471941,-19.06546 4.0789322,-31.52827 0.7156338,-16.77322 0.7435343,-16.96677 2.7230446,-18.88922 0.917686,-0.89123 4.231645,-3.42816 7.364366,-5.63753 18.3934,-12.97225 26.398632,-20.08002 35.506984,-31.52648 9.045363,-11.36724 15.61675,-24.77243 18.817801,-38.38701 2.106657,-8.95998 2.382795,-31.80884 0.616144,-50.98316 -0.531345,-5.76702 -0.507756,-7.02194 0.196193,-10.43941 1.622757,-7.87807 3.981547,-10.93686 15.268295,-19.79944 11.290516,-8.86553 10.636046,-11.69679 -5.148234,-22.27119 C 65.339731,191.75949 54.040396,182.14761 44.869887,171.20109 33.494178,157.62224 24.636514,138.63532 21.878311,121.91737 20.976089,116.44881 21.149386,102.29399 22.190405,96.42579 25.568197,77.385178 35.094651,60.907372 48.43295,51.034409 52.203694,48.2433 58.498955,44.830147 61.989817,43.684191 c 2.982712,-0.979168 3.241618,-0.993104 4.39595,-0.236756 1.446454,0.947753 1.603721,2.667585 0.410462,4.488752 -0.448857,0.685019 -3.016219,2.895212 -5.70526,4.911475 -6.020695,4.514389 -13.846817,12.357347 -16.846519,16.882759 -4.349535,6.561726 -7.433574,14.074309 -9.01047,21.949129 -1.212918,6.05714 -1.209716,20.62268 0.0058,26.35338 1.401738,6.60854 3.492977,12.38357 7.121041,19.66494 4.22471,8.47879 9.391817,15.47286 17.231242,23.32372 9.59609,9.61014 17.725187,15.60517 30.298893,22.34481 7.645613,4.09812 11.867674,5.90861 21.365964,9.16201 8.92111,3.05574 9.42589,3.08905 16.07854,1.06127 8.56932,-2.61194 14.59228,-4.03392 22.82103,-5.38799 7.07314,-1.16388 8.57808,-1.23879 25.00602,-1.24545 16.54986,-0.007 17.86748,0.0591 24.76326,1.23555 11.06696,1.88817 17.51191,3.59814 34.47432,9.14686 34.54809,11.30131 45.96437,14.76249 54.068,16.39239 7.03731,1.41545 17.26713,1.69838 26.15471,0.72344 11.2329,-1.23229 16.90858,-0.50415 23.68582,3.03864 6.1826,3.2319 10.1722,7.86247 23.07632,26.78383 17.8385,26.1566 20.85049,29.6775 50.88376,59.48035 11.84125,11.75042 24.16091,24.31412 27.37702,27.91936 3.21612,3.60524 12.12865,12.78221 19.8056,20.39326 18.24022,18.08359 20.01555,20.46445 29.45695,39.50443 5.10974,10.30467 5.26312,10.7085 5.26312,13.85843 0,2.95644 -0.18869,3.56605 -2.12508,6.86598 -2.86316,4.87933 -3.09681,7.13327 -1.16528,11.24058 0.79228,1.68471 5.50137,9.1049 10.46466,16.48936 4.96324,7.38444 9.28297,14.29038 9.59941,15.3465 1.03466,3.45336 -0.71334,5.72017 -8.82373,11.44282 l -3.21777,2.27039 h -21.3282 -21.3282 l -2.54372,-2.49083 c -3.09526,-3.03094 -4.46296,-4.98528 -8.19658,-11.7123 l -2.88623,-5.20023 0.63781,-3.04413 c 0.95348,-4.55027 0.79136,-12.33006 -0.43281,-20.7668 -1.07163,-7.38542 -1.09789,-7.47166 -1.40451,-4.61276 -0.17184,1.60232 -0.33621,6.22227 -0.36519,10.26654 -0.0653,9.11225 -0.77286,16.25786 -2.0014,20.21264 -1.06788,3.43749 -4.42554,9.37601 -6.91856,12.23654 -1.5062,1.72819 -1.80214,1.87356 -2.84065,1.3954 -2.11507,-0.97398 -15.21453,-12.55823 -18.07112,-15.98089 -3.91841,-4.69493 -6.77035,-9.4065 -9.58159,-15.82936 -1.32477,-3.02675 -3.87047,-8.01586 -5.65712,-11.08699 -4.95657,-8.52007 -5.47987,-9.66578 -5.47987,-11.99775 0,-2.65476 0.80991,-4.25059 7.1364,-14.0612 l 5.06259,-7.85063 -1.02799,-2.01505 c -0.5654,-1.10823 -1.15605,-3.09623 -1.31256,-4.41777 -0.26895,-2.27088 -0.53063,-2.63795 -4.76935,-6.6902 -10.97407,-10.49126 -19.8484,-16.91533 -31.25758,-22.62719 -8.24055,-4.12547 -11.73508,-5.23136 -16.56026,-5.24064 -3.96423,-0.008 -4.45315,0.12144 -12.38163,3.26856 -9.17795,3.64305 -10.92495,4.45437 -10.92495,5.0735 0,0.49885 5.29262,3.91798 18.89434,12.20614 5.45137,3.32178 10.58611,6.70575 11.41051,7.51997 3.68257,3.63694 5.40911,9.34643 4.59246,15.18681 -0.61886,4.42588 -2.52695,8.08313 -6.07384,11.64175 -3.23695,3.24767 -6.29575,4.89763 -21.29739,11.48811 -8.96203,3.93721 -12.3094,5.87374 -12.67572,7.33326 -0.71807,2.86103 3.12562,11.85558 7.61013,17.80818 3.40691,4.5223 9.54267,11.38658 11.79125,13.19138 l 1.87014,1.501 7.6557,-0.14377 7.6557,-0.14378 1.54665,1.30143 c 2.06316,1.73601 8.7777,12.00489 8.7777,13.42416 0,0.46122 -41.68002,0.43001 -42.8468,-0.032 -0.67969,-0.26928 -6.6797,-10.20022 -6.6797,-11.05605 0,-0.52731 -6.05292,-9.18149 -7.68625,-10.98936 -1.10449,-1.22257 -3.08087,-2.55595 -5.26137,-3.54963 -3.97941,-1.81345 -5.89855,-3.98101 -7.21317,-8.14677 -0.43636,-1.38276 -0.89744,-2.83573 -1.02461,-3.22883 -0.20356,-0.62929 -0.28526,-0.62929 -0.68321,0 -0.2486,0.3931 -0.45534,1.2013 -0.45943,1.796 -0.0104,1.59058 -1.49594,2.30352 -8.50463,4.08289 -5.12238,1.30046 -7.27505,1.60548 -11.4203,1.61805 -4.88321,0.015 -5.2573,-0.0593 -8.49719,-1.6839 l -3.3891,-1.69944 0.028,-2.26607 c 0.0247,-2.00616 0.30327,-2.57903 2.42777,-4.99369 3.27375,-3.72084 6.9961,-8.65184 7.00513,-9.27961 0.003,-0.28386 0.66671,-1.14776 1.4725,-1.91978 1.2654,-1.21234 1.91064,-1.42627 4.73414,-1.5698 1.798,-0.0914 3.76929,-0.27166 4.38066,-0.40068 l 1.11159,-0.23452 -1.73542,-3.3025 c -2.26018,-4.30113 -4.40933,-7.10379 -31.51463,-41.09757 -24.94526,-31.28482 -27.71352,-34.93216 -28.40015,-37.41892 -1.14942,-4.16285 0.91682,-6.43175 14.99884,-16.46999 9.93788,-7.08418 18.33036,-13.31122 19.47375,-14.44916 0.37221,-0.37043 1.11373,-0.92581 1.64785,-1.23423 0.87023,-0.5025 0.88083,-0.56228 0.10205,-0.57549 -1.09041,-0.0185 -3.68814,1.29935 -9.57035,4.85515 -10.72303,6.48215 -23.52183,13.58041 -24.4701,13.57119 -1.18709,-0.0117 -2.6373,-1.89778 -11.74309,-15.27412 -7.03974,-10.34127 -10.37644,-14.04649 -15.88617,-17.64071 -6.30493,-4.11298 -6.8732,-3.94954 -6.42987,1.84934 0.15312,2.00291 0.41465,8.99489 0.58115,15.53773 0.25078,9.8547 0.17035,12.53024 -0.46873,15.5918 -2.32804,11.15284 -7.50202,22.56423 -17.14732,37.81912 -3.12376,4.94052 -9.05932,14.33599 -13.19012,20.87881 -7.97697,12.63485 -11.76171,19.7894 -12.96101,24.50111 -1.11497,4.38038 -0.97764,12.20168 0.27976,15.93423 1.42879,4.24131 5.44337,11.36424 11.83645,21.00108 8.67884,13.08228 11.53889,14.96452 19.98415,13.15162 3.49102,-0.74941 4.45957,-0.41219 6.18,2.15138 1.60624,2.39344 7.5962,13.81261 7.5962,14.48126 0,0.41588 -4.9544,0.52746 -19.23573,0.43322 l -19.23571,-0.12697 -1.78575,-4.14411 c -0.98214,-2.27924 -4.53201,-8.94347 -7.88857,-14.80939 -6.86471,-11.99678 -22.37633,-39.84908 -24.46332,-43.92573 -1.09663,-2.14218 -1.40912,-3.49478 -1.57931,-6.83612 -0.24457,-4.8014 -0.36551,-4.48778 5.0803,-13.17298 8.49706,-13.55152 13.99659,-25.5616 17.25755,-37.68768 1.50496,-5.59624 1.5245,-5.81558 1.54413,-17.32131 0.0228,-13.35457 0.33449,-11.81542 -5.46703,-26.99491 l -3.45099,-9.02935 3.39232,-7.3108 c 1.86577,-4.02097 3.39231,-7.55061 3.39231,-7.84363 0,-1.98276 -3.09216,1.61587 -7.25474,8.44314 -3.83077,6.28303 -5.30995,9.94542 -8.04311,19.91452 -2.70795,9.87713 -5.09973,15.89645 -8.11863,20.43205 -3.36863,5.06103 -14.45201,15.64825 -23.196697,22.15826 -4.139344,3.08152 -13.534814,9.70248 -20.878815,14.71321 -7.344002,5.01072 -15.259188,10.57176 -17.589303,12.35788 -10.293427,7.89025 -17.710335,15.31917 -22.778901,22.81569 -7.877323,11.65077 -14.998028,45.49533 -10.295716,48.93534 0.492049,0.35999 2.661291,1.19344 4.820525,1.85219 2.233272,0.68128 4.361878,1.66652 4.937165,2.28516 0.556218,0.59811 2.022009,3.21369 3.257326,5.81232 1.235317,2.5987 2.976136,5.68133 3.8685,6.8504 l 1.622467,2.12556 -4.388888,0.31153 c -4.56971,0.32435 -7.0694,0.30623 -20.043929,-0.14548 z M 318.06801,399.92669 c 8.25551,-4.18154 12.90636,-7.07077 13.6656,-8.48947 1.35359,-2.52919 -1.86089,-5.08622 -19.88767,-15.82016 -11.99562,-7.14275 -31.1999,-17.75963 -31.77979,-17.5691 -1.26532,0.41573 -0.51373,2.50706 3.1743,8.83257 5.33298,9.14682 8.42962,13.86785 14.01253,21.36316 6.54699,8.7896 12.04882,15.29494 12.93553,15.29494 0.41177,0 3.95756,-1.62539 7.8795,-3.61194 z"
       id="path293" />
  </g>
</svg>
