<?xml version="1.0" encoding="UTF-8" standalone="no"?>
<!-- Created with Inkscape (http://www.inkscape.org/) -->

<svg
   version="1.1"
   id="svg2"
   width="1920"
   height="1080"
   viewBox="0 0 1920 1080"
   sodipodi:docname="nethydra-pig.svg"
   inkscape:version="1.2.2 (b0a8486541, 2022-12-01)"
   xmlns:inkscape="http://www.inkscape.org/namespaces/inkscape"
   xmlns:sodipodi="http://sodipodi.sourceforge.net/DTD/sodipodi-0.dtd"
   xmlns="http://www.w3.org/2000/svg"
   xmlns:svg="http://www.w3.org/2000/svg">
  <defs
     id="defs6" />
  <sodipodi:namedview
     id="namedview4"
     pagecolor="#ffffff"
     bordercolor="#000000"
     borderopacity="0.25"
     inkscape:showpageshadow="2"
     inkscape:pageopacity="0.0"
     inkscape:pagecheckerboard="0"
     inkscape:deskcolor="#d1d1d1"
     showgrid="false"
     inkscape:zoom="0.48159978"
     inkscape:cx="431.89389"
     inkscape:cy="725.70631"
     inkscape:window-width="1920"
     inkscape:window-height="1011"
     inkscape:window-x="0"
     inkscape:window-y="0"
     inkscape:window-maximized="1"
     inkscape:current-layer="g8" />
  <g
     inkscape:groupmode="layer"
     inkscape:label="Image"
     id="g8">
    <path
       style="fill:#ffffff;fill-opacity:1"
       d="m 216.94431,895.04159 c -29.9274,-3.7224 -60.03097,-12.7875 -81.5,-24.5421 -47.633593,-26.0799 -82.346893,-86.2687 -94.154933,-163.2536 -2.57574,-16.793 -3.60258,-56.5031 -1.94567,-75.2427 8.59361,-97.1933 56.96649,-180.1329 124.938763,-214.2185 44.82571,-22.4785 101.86583,-33.8748 143.16184,-28.603 33.20801,4.2393 62.38046,12.2515 93,25.5425 43.40243,18.8397 81.19391,44.3906 135.5,91.612 39.26865,34.1457 37.41724,32.6365 111,90.4861 99.76814,78.4362 132.65572,101.7588 171.5,121.6214 26.61985,13.6117 60.507,25.8931 86.31621,31.2827 37.7459,7.8823 97.65128,2.1121 136.94138,-13.1903 59.1186,-23.0251 96.0335,-59.9694 120.2883,-120.384 6.4218,-15.9956 9.6994,-28.1713 11.9042,-44.2221 3.9434,-28.7082 0.024,-46.5285 -13.3078,-60.5053 -10.1619,-10.6538 -23.4097,-16.5665 -43.5116,-19.4199 -12.7155,-1.805 -72.5526,-2.4097 -92.9243,-0.939 l -11.7937,0.8513 -9.2063,13.5478 c -5.06358,7.4512 -11.09078,16.1437 -13.39388,19.3165 -4.71,6.4886 -2.792,5.8056 -30.8125,10.9731 -21.5036,3.9656 -50.8917,13.3898 -69.6927,22.3492 -30.3567,14.4659 -42.63465,25.3806 -66.30731,58.9451 -2.2,3.1193 -4.70472,5.8992 -5.56604,6.1775 -2.94807,0.9527 -12.4319,-1.5085 -19.93396,-5.1731 -12.99626,-6.3485 -26.93148,-22.6906 -33.75594,-39.5863 -4.37159,-10.8229 -6.89012,-31.6172 -4.04252,-33.3771 0.66084,-0.4084 5.49834,-0.628 10.75,-0.4879 17.49707,0.4665 39.47364,-3.2884 61.09904,-10.4395 15.91893,-5.2641 23.91451,-9.679 32.74084,-18.0783 7.1918,-6.8439 7.37892,-8.7928 1.04873,-10.9228 -1.83708,-0.6182 -3.47361,-1.8092 -3.63674,-2.6466 -0.18895,-0.9701 3.98433,-4.5381 11.5,-9.8322 6.48813,-4.5703 17.4993,-12.9577 24.4693,-18.6388 6.9701,-5.6811 12.9826,-10.3293 13.3612,-10.3293 0.3786,0 4.4506,-2.2725 9.0489,-5.05 4.5982,-2.7775 12.6318,-7.0733 17.8522,-9.5463 8.8463,-4.1905 9.5361,-4.7329 10.1447,-7.9771 0.7841,-4.1792 2.8045,-5.4266 8.7895,-5.4266 6.7691,0 9.4481,-1.4309 17.3931,-9.2903 8.5315,-8.4397 8.5509,-8.4373 14.9522,1.8517 4.9241,7.9145 5.3487,11.7059 2.8018,25.0172 -2.4361,12.7326 -9.3511,25.1998 -19.2662,34.7356 l -3.966,3.8142 -0.5148,-6.3142 c -0.6322,-7.753 -3.2786,-14.7049 -4.9584,-13.0251 -0.8577,0.8577 -0.8257,2.9204 0.1281,8.2575 0.7451,4.1696 0.9909,9.3588 0.5938,12.5374 -0.8581,6.8673 0.7798,7.8574 6.4725,3.9123 5.2694,-3.6517 19.4037,-18.4528 21.5087,-22.5235 4.5106,-8.7225 6.785,-16.7178 7.3776,-25.9351 l 0.6084,-9.4623 3.50008,-0.7505 c 23.1809,-4.9707 60.9849,-5.8338 87,-1.9864 14.0137,2.0725 38.7924,6.8999 54.5,10.6178 l 6,1.4201 -3.5,-2.9712 c -6.0385,-5.1262 -45.7089,-23.8423 -66.8398,-31.5344 -13.9542,-5.0796 -42.0104,-12.0333 -56.1602,-13.9192 -7.3966,-0.9858 -22.7068,-1.8622 -37.50008,-2.1467 l -25,-0.4807 -7.5,11.2724 c -11.798,17.7321 -12.4357,18.458 -21.5379,24.5148 -6.4866,4.3162 -10.1351,6.0285 -14.7868,6.9397 -12.037,2.3576 -29.0882,6.4904 -34.5937,8.3846 -3.06987,1.0563 -10.06711,3.1438 -15.54938,4.6389 -15.9596,4.3525 -40.16278,15.3067 -55.10054,24.938 -15.00805,9.6767 -32.81542,28.7524 -41.7426,44.7156 -5.63516,10.0767 -5.99439,10.2549 -14.2531,7.072 -22.48106,-8.6644 -40.39537,-25.8137 -48.46909,-46.3994 -2.89054,-7.37 -3.35004,-9.8425 -3.74492,-20.1508 -0.36159,-9.4393 -0.18186,-11.7738 0.91396,-11.8711 0.75023,-0.067 7.21406,-0.028 14.36406,0.086 20.21589,0.3219 34.85523,-2.043 56.5,-9.1273 17.18708,-5.6253 28.71174,-11.7054 36.73274,-19.3791 7.25321,-6.9391 7.4482,-8.878 1.10741,-11.0116 -1.83708,-0.6182 -3.47427,-1.8125 -3.63819,-2.6541 -0.19155,-0.9835 4.2746,-4.7643 12.5,-10.5819 12.89699,-9.1216 43.72644,-33.7079 56.92592,-45.3981 4.88913,-4.33 7.67943,-7.6897 8.88383,-10.6966 2.6114,-6.5196 4.6479,-8.1162 10.3525,-8.1162 4.7239,0 5.0553,-0.2018 11.4967,-7 3.6479,-3.85 6.9778,-7 7.3997,-7 0.4219,0 3.7444,2.687 7.3832,5.9712 6.17,5.5687 9.8562,11.3962 9.8562,15.5818 0,0.8319 -2.003,5.5373 -4.4512,10.4564 -6.9263,13.9172 -15.6614,25.1232 -24.229,31.0828 -2.2991,1.5993 -4.4366,2.9078 -4.75,2.9078 -0.3134,0 -0.5698,-2.6735 -0.5698,-5.941 0,-10.6366 -3.2553,-8.6933 -4.8613,2.902 -1.5671,11.3156 0.759,12.6354 11.2305,6.3718 9.3851,-5.6137 20.2675,-17.4039 26.156,-28.3378 2.7361,-5.0806 5.8748,-9.8104 6.9748,-10.5106 1.1,-0.7002 7.2638,-2.0505 13.6973,-3.0007 9.991,-1.4755 16.7011,-1.6479 46.00008,-1.1821 42.7569,0.6799 46.166,1.2108 87.8027,13.673 10.725,3.21 20.8499,6.0631 22.4997,6.34 6.9721,1.1703 11.47,-3.3421 19.7512,-19.8146 9.2538,-18.4072 12.3293,-32.939 14.0823,-66.5392 l 1.1668,-22.3637 13.5,-4.3731 c 81.2465,-26.3183 190.1138,-48.7952 289,-59.6673 107.7923,-11.8512 225.9367,-13.1166 326.5,-3.4971 37.34,3.5719 103.4744,12.2759 106.5,14.0166 0.8513,0.4897 -31.8015,0.8803 -75.5,0.9031 -79.2606,0.041 -120.9764,0.9051 -170.5,3.5302 -166.9416,8.8489 -306.3527,32.8356 -396.5,68.2206 -13.5271,5.3097 -48.5,21.6215 -48.5,22.621 0,0.2697 -2.707,10.7635 -6.0155,23.3196 -4.3803,16.624 -8.4874,29.1625 -15.11,46.129 -8.0818,20.705 -8.9345,23.489 -7.657,25 0.7906,0.9351 6.835,8.0003 13.4318,15.7003 6.5968,7.7 14.4741,17.375 17.5051,21.5 20.386,27.744 33.5267,61.909 39.0394,101.5 1.6406,11.7819 1.5984,46.4348 -0.071,58.5 -5.5458,40.0771 -18.1044,72.1426 -40.6168,103.7059 -24.3429,34.1297 -47.2115,57.5519 -73.0058,74.7731 -25.5863,17.0823 -67.6375,35.5521 -97.7802,42.9471 -35.29968,8.6602 -81.62448,9.7749 -122.12968,2.9389 -17.34304,-2.927 -48.68414,-10.67 -64.63303,-15.9681 -12.2121,-4.0566 -33.60479,-14.2038 -52.95738,-25.1192 -6.875,-3.8776 -21.05,-11.6525 -31.5,-17.2775 -36.06711,-19.414 -45.18118,-26.1015 -116.5,-85.4824 -14.575,-12.1353 -37.3,-30.8087 -50.5,-41.4965 -34.22046,-27.7077 -47.27926,-38.6404 -89,-74.5097 -40.73433,-35.0213 -50.07916,-42.556 -65.17586,-52.551 -22.91899,-15.1739 -71.87158,-37.154 -99.90768,-44.8593 -19.70158,-5.4148 -27.52734,-6.5349 -45.41646,-6.5009 -14.13744,0.027 -18.07504,0.3999 -27.5,2.6049 -59.20604,13.8517 -118.87892,63.9318 -142.74109,119.7947 -12.839673,30.0585 -17.686753,78.8489 -12.16976,122.5 11.33352,89.6723 55.36393,136.9495 138.91085,149.154 14.56117,2.1271 54.61845,2.399 70,0.4751 65.29541,-8.1668 138.3027,-41.252 206.5,-93.5809 36.66298,-28.1321 38,-29.075 38,-26.7979 0,2.4655 -15.7269,21.0479 -29.46679,34.8171 -34.98079,35.0553 -62.96702,57.2698 -99.03321,78.6089 -51.13211,30.253 -99.96293,47.8766 -150.34174,54.2599 -11.28238,1.4296 -48.68184,2.0075 -57.65826,0.891 z m 586.02818,-288.9879 c -1.17934,-7.8644 -18.39423,-32.3236 -29.82162,-42.3711 -2.63639,-2.3181 -5.07999,-3.9281 -5.43021,-3.5779 -0.35023,0.3502 -0.11425,4.5682 0.5244,9.3732 2.22439,16.736 12.29864,31.1235 26.43824,37.7578 3.99356,1.8738 7.6496,3.423 8.12455,3.4428 0.47495,0.02 0.54904,-2.0614 0.16464,-4.6248 z m -53.97428,-93.1866 c -3.2506,-9.2131 -8.04535,-16.886 -19.20374,-30.7311 -7.84206,-9.7302 -14.61577,-15.5497 -15.15744,-13.0221 -0.51086,2.3838 3.72278,18.7362 6.31901,24.4071 3.23652,7.0695 11.44801,14.8179 20.58629,19.4255 4.07109,2.0526 7.71952,3.7401 8.10762,3.75 0.3881,0.01 0.0948,-1.7134 -0.65174,-3.8294 z m 154.94611,-15.3785 c 7.8535,-9.2227 14.1133,-17.282 15.7442,-20.2701 0.8563,-1.5688 0.2512,-1.3649 -2.8274,0.9531 -11.2754,8.4895 -30.4168,24.0424 -30.4168,24.7144 0,0.86 5.407,2.6002 8.5,2.7355 1.3271,0.058 4.355,-2.678 9,-8.1329 z m -51.00001,-93 c 7.85352,-9.2227 14.11327,-17.282 15.74421,-20.2701 0.85626,-1.5688 0.25124,-1.3649 -2.82742,0.9531 -11.27541,8.4895 -30.41679,24.0424 -30.41679,24.7144 0,0.86 5.40705,2.6002 8.5,2.7355 1.32714,0.058 4.35501,-2.678 9,-8.1329 z m 865.00009,160.0854 c -130.8515,-63.1853 -247.7206,-108.6491 -354,-137.7112 -56.375,-15.4158 -119.8335,-27.4704 -156.7758,-29.7813 -5.6233,-0.3518 -10.8388,-1.1266 -11.5899,-1.7218 -1.0262,-0.8132 -1.2064,-2.6372 -0.7249,-7.3368 1.1896,-11.611 5.6698,-33.7979 7.0364,-34.8451 2.8394,-2.1758 48.5248,3.3236 79.817,9.6081 100.8523,20.2544 229.0404,73.1045 358.2372,147.6958 43.4441,25.0823 110.3884,67.3157 106.4893,67.1814 -0.8191,-0.028 -13.6393,-5.9183 -28.4893,-13.0891 z m 125,-171.9707 c -141.3198,-36.37 -277.9492,-57.2081 -412.9004,-62.9739 -31.3895,-1.3411 -129.9833,-0.6767 -150.5996,1.0148 -20.5293,1.6844 -48.2537,4.8724 -60.2621,6.9295 -13.1013,2.2443 -14.3623,1.7769 -13.3483,-4.9468 0.934,-6.1933 7.0769,-27.1578 9.2771,-31.6605 1.0083,-2.0636 2.982,-4.2965 4.3859,-4.962 3.1644,-1.4999 33.1451,-5.8597 49.9474,-7.2633 34.6827,-2.8972 105.5304,-3.8192 154.5,-2.0106 32.4585,1.1988 46.4788,2.2552 73.5,5.538 110.7151,13.4509 214.5408,39.8437 315.5,80.2012 25.0745,10.0233 60.5,25.6502 60.5,26.6878 0,1.1237 -4.0397,0.2556 -30.5,-6.5542 z"
       id="path847" />
  </g>
</svg>
