<?xml version="1.0" encoding="UTF-8" standalone="no"?>
<!-- Created with Inkscape (http://www.inkscape.org/) -->

<svg
   version="1.1"
   id="svg2"
   width="3264"
   height="1836"
   viewBox="0 0 3264 1836"
   sodipodi:docname="sonar-text.svg"
   inkscape:version="1.2.2 (b0a8486541, 2022-12-01)"
   xmlns:inkscape="http://www.inkscape.org/namespaces/inkscape"
   xmlns:sodipodi="http://sodipodi.sourceforge.net/DTD/sodipodi-0.dtd"
   xmlns="http://www.w3.org/2000/svg"
   xmlns:svg="http://www.w3.org/2000/svg">
  <defs
     id="defs6" />
  <sodipodi:namedview
     id="namedview4"
     pagecolor="#ffffff"
     bordercolor="#000000"
     borderopacity="0.25"
     inkscape:showpageshadow="2"
     inkscape:pageopacity="0.0"
     inkscape:pagecheckerboard="0"
     inkscape:deskcolor="#d1d1d1"
     showgrid="false"
     inkscape:zoom="0.14189796"
     inkscape:cx="303.03466"
     inkscape:cy="1166.3311"
     inkscape:window-width="1920"
     inkscape:window-height="1011"
     inkscape:window-x="0"
     inkscape:window-y="0"
     inkscape:window-maximized="1"
     inkscape:current-layer="g8" />
  <g
     inkscape:groupmode="layer"
     inkscape:label="Image"
     id="g8">
    <path
       style="fill:#ffffff;fill-opacity:1"
       d="m 312.5859,1242.7574 c -76.31306,-4.9897 -146.9296,-32.0725 -205.23833,-78.7129 -12.676997,-10.1401 -34.975267,-30.6098 -37.437077,-34.367 -1.48031,-2.2593 -0.9762,-2.9129 20.82919,-27.0057 12.290427,-13.5797 23.755387,-26.303 25.477717,-28.2739 l 3.13149,-3.5835 11.02427,10.6508 c 50.09353,48.3966 103.89842,77.4158 161.73407,87.2297 15.38192,2.6101 46.03279,4.8009 57.47867,4.1083 24.66448,-1.4924 46.42949,-5.0759 63.1784,-10.4017 34.25213,-10.8916 59.13649,-28.3519 74.76009,-52.4557 20.61646,-31.8068 21.14988,-76.1501 1.26688,-105.316 -14.69165,-21.55069 -42.88174,-36.75349 -88.70537,-47.83839 -7.7,-1.8627 -16.7,-3.8311 -20,-4.3744 -3.3,-0.5432 -16.8,-2.8346 -30,-5.092 -41.29455,-7.062 -76.75905,-13.0955 -83,-14.1207 -57.99602,-9.5263 -106.00043,-29.5485 -133.66702,-55.7515 -25.57053,-24.2178 -38.789067,-53.1611 -41.977787,-91.9147 -3.33264,-40.5028 5.91501,-77.0387 27.455857,-108.4733 13.32005,-19.438 32.17024,-37.1393 52.68895,-49.4774 21.27338,-12.792 46.27836,-22.8639 71,-28.5986 25.88662,-6.0049 38.35145,-7.175 75.5,-7.0877 31.4865,0.074 36.13271,0.39 66.5,4.5223 25.5666,3.479 75.91899,18.4142 102.62587,30.4402 9.4336,4.2479 29.32612,14.0973 36.37413,18.01 17.15984,9.5263 47,29.6634 47,31.7171 0,0.4642 -10.18393,14.5653 -22.63096,31.3358 -14.21123,19.1475 -23.11497,30.3062 -23.93189,29.9927 -0.7155,-0.2746 -4.59407,-2.9261 -8.61903,-5.8922 -25.03631,-18.4501 -54.60644,-35.535 -81.81812,-47.2724 -12.18002,-5.2536 -35.4093,-12.8446 -50.3608,-16.457 -22.37655,-5.4064 -36.75877,-7.1693 -62.89991,-7.7097 -25.80765,-0.5336 -38.15799,0.585 -58.23929,5.2749 -32.59065,7.6113 -62.5618,26.3202 -77.45717,48.351 -12.80614,18.9408 -17.99037,45.1857 -13.53002,68.4951 6.24592,32.6407 24.64715,50.942 65.39187,65.037 15.13542,5.2358 39.20219,10.6428 66.59532,14.9615 5.5,0.8672 21.25,3.3978 35,5.6236 13.75,2.2259 30.625,4.951 37.5,6.0558 18.35056,2.9489 38.84962,6.911 49.00856,9.4726 24.63639,6.212 46.36304,13.3616 62.13968,20.4485 57.84403,25.9834 87.10466,62.485 95.3319,118.92299 2.02072,13.862 1.99114,41.7956 -0.0591,55.7936 -6.07197,41.4566 -26.37454,77.3437 -59.92106,105.9173 -14.39267,12.2591 -25.7023,19.553 -46.51655,30 -32.93861,16.5324 -69.88262,25.3341 -118.98345,28.3472 -18.86317,1.1575 -18.0099,1.1678 -44,-0.5316 z m 1098.2484,-325.70249 0.2516,-317.25 40.2423,-0.2613 40.2422,-0.2614 22.1593,29.7614 c 12.1875,16.3687 29.1785,39.2036 37.7577,50.7441 8.5792,11.5405 34.9485,46.9356 58.5986,78.6558 23.65,31.7201 61.675,82.7366 84.5,113.37 22.825,30.6334 58.375,78.3358 79,106.0054 20.625,27.66939 48.4142,64.97309 61.7538,82.89699 13.3397,17.9239 24.7022,32.5889 25.25,32.5889 0.6589,0 0.9962,-83.6362 0.9962,-246.99989 v -247 h 37.9809 37.981 l 0.542,2.25 c 0.2981,1.2375 0.4192,144 0.269,317.25 l -0.2729,314.99989 -36,0.259 -36,0.259 -4.9796,-6.759 c -8.8816,-12.0553 -212.0689,-286.31329 -249.1213,-336.25889 -19.7891,-26.675 -55.2347,-74.4875 -78.7679,-106.25 -23.5333,-31.7625 -43.2026,-57.75 -43.7095,-57.75 -0.56,0 -0.9218,99.5119 -0.9218,253.5 v 253.49989 h -39.0016 -39.0015 z m 597.7517,316.76159 c 0,-0.2686 1.6348,-4.4311 3.6329,-9.25 1.9981,-4.8189 5.76,-13.9367 8.3598,-20.2617 2.5998,-6.325 12.2637,-29.725 21.4754,-52 9.2118,-22.275 18.6865,-45.225 21.0551,-51 2.3686,-5.775 7.0775,-17.223 10.4642,-25.44 3.3868,-8.217 8.3937,-20.367 11.1265,-27 2.7329,-6.633 5.3751,-12.96 5.8716,-14.06 0.4965,-1.1 3.6651,-8.75 7.0413,-17 6.354,-15.5264 14.6667,-35.68709 26.8007,-64.99989 6.6433,-16.0483 13.6125,-32.9424 28.8769,-70 3.6248,-8.8 10.5138,-25.45 15.3088,-37 4.7951,-11.55 11.7596,-28.425 15.4767,-37.5 3.7171,-9.075 9.5623,-23.25 12.9894,-31.5 6.5764,-15.8316 14.4727,-34.9846 27.004,-65.5 4.1784,-10.175 8.0109,-19.4 8.5167,-20.5 0.8773,-1.908 4.1965,-9.9455 24.7776,-60 4.9752,-12.1 9.9696,-24.1375 11.0986,-26.75 l 2.0527,-4.75 h 47.9131 c 37.1606,0 48.1248,0.2805 48.8566,1.25 0.5189,0.6875 3.2484,6.875 6.0656,13.75 2.8172,6.875 8.5463,20.825 12.7314,31 4.185,10.175 9.362,22.775 11.5044,28 6.1278,14.9451 18.5107,45.0388 25.5116,62 3.5188,8.525 11.8386,28.775 18.4884,45 6.6498,16.225 14.9696,36.475 18.4884,45 3.5188,8.525 9.8202,23.825 14.0032,34 4.1829,10.175 10.0267,24.35 12.9861,31.5 2.9595,7.15 8.129,19.75 11.4878,28 3.3589,8.25 6.5165,15.9 7.0169,17 0.5004,1.1 3.6542,8.75 7.0084,17 3.3543,8.25 8.5217,20.85 11.4832,28 2.9615,7.15 8.1327,19.74989 11.4915,27.99989 3.3589,8.25 6.5156,15.9 7.0149,17 0.4993,1.1 3.6581,8.75 7.0196,17 3.3615,8.25 6.5115,15.9 7,17 0.4885,1.1 3.6461,8.75 7.0168,17 3.3706,8.25 8.5411,20.85 11.4898,28 2.9488,7.15 8.6991,21.1 12.7786,31 4.0795,9.9 10.3902,25.2 14.0238,34 3.6336,8.8 10.9448,26.575 16.2472,39.5 5.3023,12.925 9.8479,23.8375 10.1012,24.25 0.2534,0.4125 -19.6331,0.75 -44.192,0.75 -41.6785,0 -44.6843,-0.1166 -45.128,-1.75 -0.2615,-0.9625 -17.4856,-44.275 -38.2758,-96.25 l -37.8004,-94.5 -146.0936,-0.2533 c -144.7432,-0.251 -146.1035,-0.235 -147.154,1.728 -0.5833,1.0897 -5.7281,13.5787 -11.4331,27.7533 -5.7049,14.1746 -16.4944,40.9595 -23.9766,59.522 -7.4821,18.5625 -19.7246,48.9375 -27.2054,67.5 -7.4808,18.5625 -13.8289,34.3125 -14.1069,35 -0.3932,0.9721 -9.8205,1.25 -42.3986,1.25 -23.0411,0 -41.893,-0.2197 -41.893,-0.4883 z m 426.1867,-262.03159 c 0.286,-0.286 -1.253,-4.8985 -3.4199,-10.25 -2.167,-5.3515 -28.4724,-70.93 -58.4563,-145.73 -29.984,-74.8 -54.7505,-136.5815 -55.0366,-137.2922 -1.0766,-2.674 -2.5882,-0.3099 -7.2398,11.3221 -41.294,103.263 -108.3051,270.4417 -109.0152,271.9701 -1.2691,2.7316 -4.0189,9.6572 -4.0189,10.1221 0,0.5869 236.5995,0.4451 237.1867,-0.1421 z m 263.0617,-54.73 0.2516,-317.25 139,-0.3022 c 165.7622,-0.3605 176.6258,0.028 206,7.3726 71.5098,17.8794 122.0776,65.1775 137.8425,128.9296 4.1189,16.6567 5.0874,25.811 5.078,48 -0.01,23.3441 -1.5666,35.8691 -6.4713,52.0642 -12.1295,40.0518 -39.1998,74.5636 -76.4492,97.4645 -9.1663,5.6354 -30.9643,16.0708 -40.75,19.5083 -5.0424,1.7712 -7.75,3.2498 -7.75,4.2321 0,1.3362 11.1642,23.5902 39.999,79.73079 4.8023,9.35 15.1499,29.6 22.9946,45 7.8448,15.4 18.6463,36.55 24.0034,47 5.3571,10.45 15.489,30.25 22.5153,44 7.0263,13.75 16.7604,32.7564 21.6314,42.2364 4.8709,9.48 8.8563,17.6925 8.8563,18.25 0,0.6697 -15.2084,1.0136 -44.8301,1.0136 h -44.8302 l -66.2875,-133.25 c -36.4582,-73.2875 -66.7971,-133.58179 -67.4199,-133.98749 -0.6228,-0.4057 -43.8823,-0.6307 -96.1323,-0.5 l -95,0.2376 -0.2536,133.74989 -0.2537,133.75 h -40.9979 -40.9979 z m 304.1323,-20.3277 c 30.2589,-4.7175 54.4014,-16.2044 72.8662,-34.6692 17.7198,-17.7197 27.1236,-38.7398 29.6399,-66.2531 3.1606,-34.5574 -7.3023,-65.331 -29.6533,-87.2165 -14.4561,-14.1551 -27.7147,-22.1454 -48.0892,-28.9808 -23.3978,-7.8497 -18.562,-7.5721 -139.3943,-8.0026 l -107.75,-0.384 v 113.542 113.5419 h 106.1307 c 91.718,0 107.5049,-0.2142 116.25,-1.5777 z"
       id="path293" />
    <path
       d="m 956.26745,1248.636 c -0.8902,-0.2903 -3.5998,-0.5612 -6.024,-0.595 -2.4192,-0.034 -6.3529,-0.3388 -8.7335,-0.6726 -2.3853,-0.3387 -6.8078,-0.9388 -9.8318,-1.3452 -3.0289,-0.4016 -6.9578,-0.987 -8.7384,-1.3016 -1.7805,-0.3144 -5.1288,-0.9048 -7.4417,-1.3112 -2.3128,-0.4064 -5.0804,-0.9676 -6.1497,-1.2483 -1.0693,-0.2807 -3.687,-0.8758 -5.8255,-1.3258 -3.7209,-0.7838 -6.7691,-1.5387 -14.5593,-3.5901 -8.2689,-2.1774 -25.3973,-7.882 -32.3599,-10.7754 -0.8903,-0.3678 -2.2016,-0.8952 -2.9128,-1.1662 -0.7113,-0.2757 -2.6032,-1.0644 -4.2047,-1.7612 -1.6016,-0.6967 -4.224,-1.8144 -5.8256,-2.4918 -3.7595,-1.5822 -24.6813,-12.0333 -28.4747,-14.2155 -13.5237,-7.7901 -24.6184,-15.0866 -37.1647,-24.4346 -2.4579,-1.8338 -12.2511,-9.6431 -12.6672,-10.1076 -0.179,-0.1985 -2.2161,-1.95 -4.5337,-3.8902 -9.2706,-7.7804 -25.7652,-24.2798 -33.6664,-33.681 -1.9452,-2.3176 -3.7015,-4.3547 -3.8999,-4.5337 -0.4597,-0.4113 -8.2497,-10.1657 -10.1125,-12.6672 -9.3481,-12.5463 -16.6445,-23.6411 -24.4345,-37.1647 -2.1822,-3.7934 -12.6286,-24.7152 -14.2156,-28.4747 -0.6774,-1.6016 -1.7951,-4.224 -2.4919,-5.8256 -0.6967,-1.6015 -1.5241,-3.566 -1.8435,-4.3692 -0.3241,-0.7983 -0.8467,-2.1096 -1.1709,-2.9079 -3.1886,-7.9352 -8.4867,-23.8975 -10.785,-32.5245 -2.0274,-7.59653 -2.2451,-8.44823 -2.9419,-11.64643 -0.387,-1.7805 -0.9338,-4.2578 -1.2193,-5.5014 -1.1419,-4.9981 -2.0563,-9.5706 -2.6321,-13.1075 -0.3339,-2.0468 -0.9,-5.5402 -1.2677,-7.7659 -2.5548,-15.58968 -3.4402,-28.58118 -3.4402,-50.31568 0,-21.7976 0.8806,-34.6052 3.4644,-50.4803 0.3774,-2.3129 0.9483,-5.8063 1.2677,-7.7659 0.5516,-3.3966 1.4902,-8.032 2.6079,-12.9431 0.2855,-1.2435 0.8323,-3.7208 1.2193,-5.5013 0.6968,-3.1983 0.9145,-4.0499 2.9419,-11.6463 2.2983,-8.6272 7.5964,-24.5894 10.785,-32.5247 0.3242,-0.7983 0.8468,-2.1095 1.1709,-2.9079 0.3194,-0.8032 1.1468,-2.7676 1.8435,-4.3692 0.6968,-1.6015 1.8145,-4.224 2.4919,-5.8255 1.587,-3.7595 12.0334,-24.6814 14.2156,-28.4747 7.79,-13.5237 15.0864,-24.6185 24.4345,-37.1647 1.8628,-2.5016 9.6528,-12.256 10.1125,-12.6673 0.1984,-0.179 1.9547,-2.216 3.8999,-4.5337 7.9012,-9.4012 24.3958,-25.9006 33.6664,-33.6809 2.3176,-1.9403 4.3547,-3.6918 4.5337,-3.8902 0.4161,-0.4645 10.2093,-8.2738 12.6672,-10.1077 12.556,-9.3528 23.8733,-16.7945 37.1647,-24.4297 7.6449,-4.3885 29.0698,-14.7478 37.2131,-17.9896 1.7757,-0.7113 3.8176,-1.5241 4.5288,-1.8048 8.1143,-3.23698 23.8394,-8.4432 32.3601,-10.71726 7.5964,-2.02737 8.4481,-2.24507 11.6463,-2.94188 1.7806,-0.38707 4.2579,-0.93378 5.5014,-1.21926 4.9982,-1.14193 9.5706,-2.05636 13.1075,-2.63214 2.0467,-0.33391 5.5402,-0.89997 7.7659,-1.26778 15.5897,-2.55472 28.5812,-3.44016 50.3157,-3.44016 21.7347,0 34.72605,0.88544 50.31585,3.44016 2.2257,0.36781 5.7239,0.93387 7.7707,1.26778 3.5321,0.57578 8.1044,1.49021 13.1027,2.63214 1.2483,0.28548 3.7208,0.83219 5.5014,1.21926 3.1982,0.69681 4.0498,0.91451 11.6511,2.94188 8.5158,2.27406 24.2411,7.48028 32.3553,10.71726 0.7113,0.2807 2.7531,1.0935 4.5338,1.8048 8.1384,3.2418 29.5682,13.6011 37.2082,17.9896 13.2913,7.6352 24.6087,15.0769 37.1646,24.4297 2.4629,1.8339 12.2512,9.6432 12.6673,10.1077 0.179,0.1984 2.2208,1.9499 4.5337,3.8902 4.0063,3.3628 13.6301,12.3818 17.6365,16.5332 5.2062,5.3901 6.7786,14.5736 3.6724,21.4153 -1.1807,2.6079 -16.2865,18.0429 -84.5048,86.3435 -45.6855,45.7433 -83.0679,83.537 -83.0679,83.9918 0,0.45 0.9339,2.6323 2.0709,4.8483 1.9451,3.7788 3.2514,6.9626 5.3708,13.0833 3.1305,9.0625 4.6691,28.3634 2.8982,36.4437 -0.3677,1.6693 -0.9774,4.4902 -1.3548,6.2708 -3.7255,17.5154 -14.6123,34.52768 -29.3698,45.88858 -2.8451,2.1918 -6.6336,4.8627 -8.4142,5.9272 -6.6722,4.0062 -15.9864,7.7076 -23.29745,9.2656 -1.7805,0.3775 -4.6014,0.9871 -6.2707,1.35 -3.9289,0.8613 -20.4137,0.8613 -24.3426,0 -1.6741,-0.3629 -4.495,-0.9725 -6.2756,-1.35 -7.3303,-1.5628 -16.6009,-5.2449 -23.2975,-9.2656 -11.1334,-6.6772 -21.7733,-17.322 -28.5134,-28.5184 -4.0111,-6.66258 -7.7077,-15.94768 -9.2705,-23.29738 -0.3775,-1.7806 -0.9872,-4.6015 -1.3501,-6.2708 -0.3677,-1.6741 -0.6676,-7.1513 -0.6676,-12.1736 0,-5.0224 0.2999,-10.4996 0.6676,-12.1738 0.3629,-1.6693 0.9726,-4.4902 1.3501,-6.2707 1.5628,-7.3304 5.2449,-16.601 9.2657,-23.2975 11.3899,-18.9912 30.981,-33.2697 51.8157,-37.7695 1.7806,-0.3871 4.6015,-1.0016 6.2756,-1.3644 8.0803,-1.771 27.3764,-0.2372 36.43885,2.8933 6.1208,2.1194 9.3045,3.4257 13.0883,5.3708 2.2111,1.1371 4.3981,2.0709 4.853,2.0709 0.4597,0 14.5155,-13.7027 31.2471,-30.4536 l 30.415,-30.4537 -1.9451,-1.6016 c -2.5644,-2.1192 -14.9945,-10.6205 -15.5269,-10.6205 -0.2321,0 -1.6353,-0.8225 -3.1208,-1.8241 -5.8352,-3.9337 -23.2056,-11.4867 -34.097,-14.8253 -6.8368,-2.095 -9.498,-2.7386 -19.2525,-4.6691 -20.85885,-4.1322 -50.26255,-2.995 -72.21005,2.7966 -6.6481,1.7516 -8.2207,2.2596 -17.259,5.5547 -10.1948,3.716 -31.5036,15.0042 -36.7099,19.4459 -0.6339,0.5371 -2.1725,1.6887 -3.416,2.5597 -1.2483,0.866 -2.4096,1.7369 -2.5886,1.9305 -0.179,0.1935 -1.6354,1.3596 -3.237,2.5935 -7.0932,5.4482 -19.1702,17.5251 -24.6184,24.6184 -1.2338,1.6015 -2.3999,3.0579 -2.5934,3.2369 -0.1936,0.1791 -1.0645,1.3403 -1.9306,2.5886 -0.8709,1.2435 -2.0225,2.7822 -2.5596,3.416 -4.4418,5.2063 -15.73,26.5151 -19.446,36.7099 -3.295,9.0384 -3.8031,10.6109 -5.5546,17.2542 -2.758,10.4463 -3.9483,18.2896 -4.8337,31.7649 -1.1613,17.6848 0.5758,36.6663 4.8337,52.80268 1.7515,6.6434 2.2596,8.2158 5.5546,17.2543 3.716,10.1947 15.0042,31.50363 19.446,36.70983 0.5371,0.6339 1.6887,2.1725 2.5596,3.416 0.8661,1.2483 1.737,2.4096 1.9306,2.5886 0.1935,0.179 1.3596,1.6354 2.5934,3.2369 5.4482,7.0933 17.5252,19.1703 24.6184,24.6185 1.6016,1.2338 3.058,2.3999 3.237,2.5934 0.179,0.1935 1.3403,1.0645 2.5886,1.9305 1.2435,0.871 2.7821,2.0226 3.416,2.5597 5.2063,4.4417 26.5151,15.73 36.7099,19.4459 9.0383,3.2951 10.6109,3.8032 17.259,5.5547 10.4415,2.758 18.2847,3.9483 31.7648,4.8337 17.68,1.1612 36.66145,-0.5758 52.79795,-4.8337 18.6187,-4.9111 42.0807,-15.8413 54.5786,-25.4264 1.0064,-0.7742 3.5999,-2.7241 5.7578,-4.3305 8.4384,-6.2997 21.3477,-18.9477 27.4878,-26.9458 1.2338,-1.6015 2.3999,-3.0579 2.5934,-3.2369 0.1936,-0.179 1.0645,-1.3403 1.9305,-2.5886 0.871,-1.2435 2.0226,-2.7821 2.5597,-3.416 2.4047,-2.8208 8.8592,-13.8527 12.9623,-22.14593 3.958,-8.0126 6.1111,-13.2092 9.4255,-22.7605 1.3886,-4.011 4.2047,-14.92188 4.9014,-18.98148 1.3935,-8.1964 1.8628,-11.5688 2.187,-15.8558 1.5677,-20.5492 1.7515,-22.0201 3.0387,-24.7587 2.9949,-6.3772 10.4269,-11.1624 17.3315,-11.1624 9.3045,0 17.9751,7.5335 19.0831,16.5718 0.4451,3.6725 -0.6435,24.633 -1.5773,30.3521 -0.3532,2.1338 -0.9048,5.7724 -1.229,8.0851 -1.0209,7.28688 -5.4482,24.40558 -8.1916,31.71178 -0.6048,1.6016 -1.679,4.5144 -2.3903,6.474 -1.9257,5.2836 -1.9644,5.3851 -6.8755,15.61393 -2.4967,5.2062 -5.7627,11.4672 -7.2627,13.9155 -1.4999,2.4434 -3.3046,5.4627 -4.0158,6.711 -12.1593,21.2895 -43.271,52.4012 -64.5606,64.5604 -1.2435,0.7113 -4.2676,2.5161 -6.711,4.016 -2.4483,1.4999 -8.7093,4.7659 -13.9157,7.2627 -10.2286,4.911 -10.3302,4.9497 -15.6138,6.8755 -1.9596,0.7111 -4.8676,1.7854 -6.4691,2.3902 -7.3111,2.7434 -24.4298,7.1707 -31.7117,8.1916 -2.3177,0.3242 -5.9563,0.8758 -8.09,1.229 -12.03335,1.9693 -42.98055,1.9693 -55.00915,0 -2.1387,-0.3532 -5.7772,-0.9048 -8.09,-1.229 -7.282,-1.0209 -24.4055,-5.4482 -31.7116,-8.1916 -1.6016,-0.6048 -4.5144,-1.6791 -6.474,-2.3902 -5.2401,-1.9065 -5.3708,-1.9645 -15.2075,-6.6724 -9.1544,-4.3788 -11.7092,-5.7868 -21.6815,-11.9463 -23.6893,-14.6414 -51.714,-42.7434 -63.9119,-64.0959 -0.7113,-1.2483 -2.5161,-4.2676 -4.016,-6.711 -1.5,-2.4483 -4.766,-8.7093 -7.2626,-13.9155 -4.9063,-10.22883 -4.9498,-10.33033 -6.8756,-15.61393 -0.7112,-1.9596 -1.7854,-4.8724 -2.3854,-6.474 -2.7483,-7.3062 -7.1755,-24.4249 -8.1964,-31.71178 -0.3242,-2.3127 -0.8758,-5.9513 -1.229,-8.0851 -1.9693,-12.0334 -1.9693,-42.9806 0,-55.014 0.3532,-2.1338 0.9048,-5.7724 1.229,-8.0851 1.0209,-7.2869 5.4481,-24.4056 8.1964,-31.7117 0.6,-1.6016 1.6742,-4.5144 2.3854,-6.474 1.9258,-5.2836 1.9693,-5.3852 6.8756,-15.6138 2.4966,-5.2063 5.7626,-11.4674 7.2626,-13.9157 1.4999,-2.4434 3.3047,-5.4626 4.016,-6.711 12.1979,-21.3524 40.2226,-49.4545 63.9119,-64.0959 9.9723,-6.1594 12.5271,-7.5674 21.6815,-11.9463 9.8367,-4.7079 9.9674,-4.7659 15.2075,-6.6723 1.9596,-0.7113 4.8724,-1.7854 6.474,-2.3903 7.3061,-2.7434 24.4296,-7.1707 31.7116,-8.1916 2.3128,-0.3242 5.9513,-0.8806 8.09,-1.229 11.3706,-1.8628 38.6018,-2.1628 51.12385,-0.5564 8.1335,1.0403 14.0414,1.9548 16.5042,2.5451 1.2435,0.2999 4.0111,0.8903 6.1497,1.316 6.8368,1.35 25.291,7.0933 30.8891,9.6045 1.5194,0.6822 4.0644,1.7806 5.6563,2.4386 12.1592,5.0175 29.2537,15.1543 42.7291,25.3394 l 6.1498,4.645 29.9311,-29.9263 c 16.4654,-16.4607 29.931,-30.3811 29.931,-30.9375 0,-2.187 -32.1519,-25.9006 -44.2047,-32.602 -9.7883,-5.4482 -22.6879,-12.1254 -25.6877,-13.2963 -1.2483,-0.4886 -4.0935,-1.7128 -6.3289,-2.7192 -2.2305,-1.0016 -4.1902,-1.8241 -4.345,-1.8241 -0.1597,0 -1.8435,-0.7112 -3.7402,-1.5774 -7.04,-3.2225 -28.0005,-9.7883 -38.3307,-12.0091 -2.1338,-0.4597 -5.9224,-1.3452 -8.4143,-1.9645 -5.0368,-1.258 -10.0738,-2.1193 -18.7686,-3.2177 -3.2031,-0.4064 -7.5723,-0.9967 -9.7061,-1.3112 -19.66365,-2.9176 -57.79125,-1.9887 -79.43875,1.9306 -2.0467,0.3725 -5.3079,0.9483 -7.2384,1.2822 -3.179,0.5468 -6.3675,1.2532 -15.2511,3.3821 -14.351,3.4402 -35.2679,10.6061 -49.1884,16.8478 -8.8497,3.9772 -25.0393,12.3865 -28.5763,14.8542 -0.9435,0.658 -1.8822,1.1951 -2.0806,1.1951 -1.2532,0 -21.4298,13.8624 -30.4778,20.9364 -27.5216,21.5265 -55.435,53.1801 -70.986,80.5081 -0.658,1.1564 -1.8241,3.1982 -2.5886,4.5337 -18.1735,31.6681 -30.5117,67.2022 -35.4567,102.088 -2.608,18.396 -2.9515,23.4281 -2.9515,43.0387 0,19.6105 0.3435,24.6425 2.9515,43.03858 4.9547,34.968 17.2397,70.29893 35.5486,102.25243 0.8177,1.4226 1.979,3.4596 2.5886,4.5289 21.425,37.6147 63.9121,80.034 101.6138,101.4735 1.2436,0.7064 3.2854,1.8725 4.5289,2.5886 12.3914,7.1175 23.5636,12.5075 37.1695,17.9219 76.5599,30.473 162.66145,27.0861 236.58455,-9.3045 7.94,-3.9095 16.4267,-8.4964 18.8702,-10.1996 0.9435,-0.658 1.8821,-1.1951 2.0854,-1.1951 0.4984,0 11.056,-6.8562 18.1928,-11.8157 26.5538,-18.4492 52.7108,-44.6064 71.3537,-71.3731 4.8966,-7.0303 11.8157,-17.6702 11.8157,-18.1734 0,-0.2033 0.5371,-1.142 1.1951,-2.0855 2.4677,-3.5369 10.877,-19.7218 14.8542,-28.5762 6.2417,-13.9156 13.4076,-34.8373 16.8478,-49.18843 2.1289,-8.8786 2.8353,-12.0721 3.3821,-15.251 0.3339,-1.9306 0.9097,-5.1918 1.2823,-7.2385 1.7611,-9.72538 3.1208,-24.45868 3.5998,-38.98878 0.2371,-7.2336 0.716,-12.3769 1.3209,-14.2398 4.1853,-12.8414 19.4944,-17.5976 30.2456,-9.3964 2.5548,1.9452 6.2272,7.0981 6.2272,8.7335 0,0.5758 0.3096,1.3597 0.6871,1.7371 1.7273,1.7273 -0.3968,37.5759 -3.2612,55.06718 -0.3629,2.2257 -0.9339,5.7191 -1.2677,7.7659 -0.5709,3.5369 -1.4903,8.1094 -2.6322,13.1075 -0.2855,1.2436 -0.8322,3.7209 -1.2193,5.5014 -0.6967,3.1982 -0.9145,4.0499 -2.9418,11.64643 -2.2741,8.5206 -7.4803,24.2457 -10.7173,32.3599 -0.2807,0.7113 -1.0935,2.7532 -1.8048,4.5289 -3.2418,8.1432 -13.6011,29.5682 -17.9896,37.2131 -7.6352,13.2914 -15.072,24.6087 -24.4297,37.1647 -1.8339,2.4579 -9.6432,12.2511 -10.1077,12.6672 -0.1984,0.179 -1.9499,2.2161 -3.8902,4.5337 -7.7658,9.2609 -24.42,25.9151 -33.6809,33.681 -2.3129,1.9402 -4.3547,3.6917 -4.5337,3.8902 -0.4161,0.4645 -10.2044,8.2738 -12.6673,10.1076 -12.5559,9.3529 -23.8733,16.7945 -37.1646,24.4297 -7.64,4.3885 -29.0698,14.7478 -37.2082,17.9896 -1.7807,0.7113 -3.8225,1.5242 -4.5338,1.8048 -8.5207,3.4015 -23.612,8.4287 -31.3876,10.4609 -2.6708,0.7016 -5.8739,1.5483 -7.1174,1.8821 -1.2483,0.3339 -3.7209,0.9291 -5.5014,1.3161 -1.7806,0.3871 -4.2531,0.9339 -5.5014,1.2194 -4.9983,1.1418 -9.5706,2.0563 -13.1027,2.6321 -2.0468,0.3338 -5.545,0.9 -7.7707,1.2677 -5.3562,0.8757 -13.4367,1.858 -22.1653,2.6902 -8.83025,0.8467 -47.30135,1.2677 -49.50775,0.5419 z"
       style="fill:#367bf0;fill-opacity:1;stroke:none;stroke-width:0;stroke-linecap:round;stroke-linejoin:round;stroke-dasharray:none;stroke-opacity:1"
       id="path10" />
  </g>
</svg>
