<?xml version="1.0" encoding="UTF-8" standalone="no"?>
<!-- Created with Inkscape (http://www.inkscape.org/) -->

<svg
   version="1.1"
   id="svg2"
   width="512"
   height="512"
   viewBox="0 0 512 512"
   sodipodi:docname="sonar-logo.png"
   xmlns:inkscape="http://www.inkscape.org/namespaces/inkscape"
   xmlns:sodipodi="http://sodipodi.sourceforge.net/DTD/sodipodi-0.dtd"
   xmlns="http://www.w3.org/2000/svg"
   xmlns:svg="http://www.w3.org/2000/svg">
  <defs
     id="defs6" />
  <sodipodi:namedview
     id="namedview4"
     pagecolor="#ffffff"
     bordercolor="#000000"
     borderopacity="0.25"
     inkscape:showpageshadow="2"
     inkscape:pageopacity="0.0"
     inkscape:pagecheckerboard="0"
     inkscape:deskcolor="#d1d1d1"
     showgrid="false" />
  <g
     inkscape:groupmode="layer"
     inkscape:label="Image"
     id="g8">
    <path
       style="fill:#ffffff"
       d="M 356.57006,502.0242 C 325.83776,466.53327 291.53892,439.13114 252.5,418.88022 223.32864,403.74797 187.41666,391.55753 155.99163,386.12016 132.53248,382.06109 108.8585,380.51241 46.5,378.95754 25.05,378.42269 5.8125,377.70457 3.75,377.3617 L 0,376.73832 v -20.92818 c 0,-11.5105 0.3506,-20.71149 0.7791,-20.44666 1.37774,0.85149 36.85794,3.5611 67.2209,5.13363 106.59598,5.52074 146.47216,11.09634 207.5,29.01324 65.77165,19.30962 115.53229,43.05855 157.96986,75.39326 12.85972,9.79828 35.63209,31.92067 45.56431,44.26381 7.50556,9.32742 15.96583,21.13235 15.96583,22.27771 0,0.30518 -3.9375,0.52273 -8.75,0.48345 l -8.75,-0.0714 -7.5,-8.50121 c -23.12085,-26.20736 -59.83002,-53.36366 -96.5,-71.3877 -21.62472,-10.62899 -39.53984,-17.60136 -60,-23.35135 -14.27968,-4.01307 -37.63323,-8.83674 -38.47016,-7.94601 -0.59435,0.63256 2.91895,3.70483 20.97016,18.33772 C 320.93704,439.22339 343.82396,461.46354 364.93958,486 373.42765,495.86317 385,510.51216 385,511.3937 385,511.72717 380.54687,512 375.10415,512 H 365.2083 Z M 314.76799,277.14229 c -2.20813,-0.51913 -3.47572,-2.17635 -6.61037,-8.64229 -6.97276,-14.38293 -27.03633,-37.9286 -41.44664,-48.63984 -4.28395,-3.18428 -16.12077,-10.79652 -26.30404,-16.91608 -27.73185,-16.66527 -34.03399,-22.28871 -46.89275,-41.84266 -4.48983,-6.82756 -5.87439,-8.05963 -17.93976,-15.96387 C 153.31948,130.55792 130.44478,117.37522 107,105.61805 72.14642,88.13956 42.70772,77.34778 13.25,71.25074 L 0,68.50831 V 34.25416 0 l 34.25,6e-5 34.25,5e-5 8,4.53929 c 8.02498,4.55346 17.10679,10.78918 45,30.89774 17.06597,12.30307 21.5,16.17829 21.5,18.79042 0,3.38848 -2.80042,2.96195 -14.68194,-2.2362 C 96.44128,38.04533 77.8357,33.77281 41.23062,31.9929 24.87164,31.19745 5.15713,31.51368 6.22887,32.55435 c 0.14912,0.14479 9.3187,2.10008 20.37685,4.34507 24.7392,5.02247 33.96585,7.645 51.89428,14.75013 12.08564,4.7896 36.16152,16.53989 53.06705,25.8995 C 138.30975,81.28209 140,80.57703 140,74.03139 140,71.26413 140.40309,69 140.89575,69 c 0.49267,0 2.40517,2.35783 4.25,5.23961 8.75289,13.67271 21.65664,25.27266 31.66963,28.4697 6.36201,2.03133 7.14565,1.37995 7.16931,-5.95931 0.0228,-7.05936 -0.13342,-7.17874 10.78377,8.24355 3.69618,5.22146 7.96696,10.91339 9.49062,12.64875 l 2.7703,3.15519 11.23531,-3.38837 c 6.17942,-1.8636 11.92723,-3.39303 12.7729,-3.39874 1.9363,-0.0131 8.21986,6.53825 19.17263,19.98962 4.70229,5.775 14.79115,17.174 22.4197,25.33112 24.15175,25.8252 25.87163,28.1745 21.12008,28.84933 -3.11269,0.44207 -3.32657,3.66822 -0.51935,7.83385 7.53709,11.18428 34.72141,25.28368 63.47435,32.92155 8.50883,2.26026 9.15115,5.58328 3.3828,17.50067 -6.31345,13.04358 -18.60567,25.02963 -29.63049,28.89246 -5.14433,1.80245 -12.24482,2.62309 -15.68932,1.81331 z m 19.94836,-12.36705 C 343.81776,260.53606 352,250.54177 352,243.66395 v -2.7046 l -3.81927,1.94845 C 338.55931,247.81628 326,260.69758 326,265.65719 c 0,2.79745 1.04345,2.69187 8.71635,-0.88195 z m -59.24514,-81.90885 c 0.60865,-0.56954 -2.13037,-3.98072 -7.33706,-9.1376 l -8.30828,-8.22879 4.20185,8.5 c 2.31102,4.675 4.66373,9.07266 5.22825,9.77258 1.04211,1.29207 4.38728,0.80434 6.21524,-0.90619 z m 86.90333,14.39636 c -1.031,-1.09249 -3.44954,-4.57023 -5.37454,-7.72833 -11.65121,-19.11463 -52.36239,-48.88506 -78,-57.03825 -6.74984,-2.14656 -17.44657,-7.39119 -24.90966,-12.21326 C 251.01565,118.29629 242.875,110.92911 236,103.91141 227.292,95.02266 220.88813,89.48607 214.89019,85.66052 210.1548,82.64024 198.6798,74.02857 189.39019,66.52348 180.10059,59.0184 162.58339,45.0722 150.46308,35.53193 128.2444,18.04293 120,10.42733 120,7.3923 c 0,-4.2508 14.99065,1.05631 36.2709,12.84092 5.92399,3.2806 11.43649,5.70931 12.25,5.39714 0.85536,-0.32823 1.4791,-1.84593 1.4791,-3.59897 0,-1.76318 0.52295,-3.02767 1.25,-3.0225 0.6875,0.005 3.95,2.32947 7.25,5.16575 7.63673,6.5636 16.06124,12.0392 25.22155,16.39302 11.08978,5.27089 12.09348,4.78705 9.88654,-4.76585 -0.79923,-3.45954 -1.29295,-6.45028 -1.09715,-6.64608 0.80013,-0.80013 2.92723,1.48838 10.49417,11.29049 4.3691,5.65966 9.06447,11.02458 10.43417,11.92204 3.67432,2.40751 9.12993,1.99198 17.56072,-1.33751 4.125,-1.62905 9.17184,-2.97739 11.2152,-2.99632 4.26066,-0.0395 5.87207,1.16798 21.2848,15.94906 14.25674,13.67246 27.96165,25.39741 53.46092,45.73736 0.25351,0.20221 -0.82732,1.39487 -2.40184,2.65034 -4.03421,3.21677 -2.97461,6.50599 3.70439,11.49914 13.02986,9.74097 35.75646,18.0854 57.73653,21.19886 12.32357,1.74562 13,2.1026 13,6.86057 0,2.18859 -1.06777,6.92093 -2.37282,10.5163 -7.03189,19.37266 -22.58003,34.45823 -37.31323,36.20316 -4.2397,0.50213 -5.37027,0.27625 -6.93941,-1.38647 z m 20.23591,-12.86216 c 4.60909,-3.08027 9.85474,-7.91783 12.37477,-11.41205 2.26824,-3.1451 3.83033,-13.98854 2.01517,-13.98854 -0.67654,0 -4.78682,3.46124 -9.13396,7.69164 C 379.81341,174.52841 374,182.34558 374,185.33755 c 0,2.51333 4.11827,2.06519 8.61045,-0.93696 z m -69.05158,-73.90808 c 1.87084,-1.45291 1.77458,-1.66111 -2.65845,-5.75 C 305.81767,100.05434 297,93.53811 297,94.47013 c 0,1.39057 9.38043,14.68293 11.32094,16.04211 2.62904,1.84145 2.84241,1.84065 5.23793,-0.0197 z M 208.4135,105.11039 c -1.69758,-1.03518 -10.02258,-8.53691 -18.5,-16.67052 C 155.42858,55.35353 124.64928,30.63413 89.50063,7.79652 L 77.50126,0 h 8.66068 8.66068 l 19.75986,13.13047 c 23.05575,15.3206 43.13875,30.28726 63.39855,47.24716 15.01312,12.5678 42.37971,38.55939 44.22024,41.99845 2.3518,4.39437 -7.77278,6.40222 -13.78777,2.73431 z M 229.5,35.42764 C 218.61515,26.34324 204.58621,15.74166 192.08611,7.15423 L 181.67223,0 h 10.70905 10.70904 l 7.70484,5.19518 C 232.12168,19.57509 253,35.86408 253,38.12285 c 0,2.12916 -2.03955,2.87921 -9.48768,3.48916 L 237.5,42.10437 Z"
       id="path293" />
  </g>
</svg>
