<?xml version="1.0" encoding="UTF-8" standalone="no"?>
<!-- Uploaded to: SVG Repo, www.svgrepo.com, Generator: SVG Repo Mixer Tools -->

<svg
   fill="#000000"
   height="800px"
   width="800px"
   version="1.1"
   id="Capa_1"
   viewBox="0 0 611.998 611.998"
   xml:space="preserve"
   sodipodi:docname="hero-enterprise.svg"
   inkscape:version="1.2.2 (b0a8486541, 2022-12-01)"
   xmlns:inkscape="http://www.inkscape.org/namespaces/inkscape"
   xmlns:sodipodi="http://sodipodi.sourceforge.net/DTD/sodipodi-0.dtd"
   xmlns:xlink="http://www.w3.org/1999/xlink"
   xmlns="http://www.w3.org/2000/svg"
   xmlns:svg="http://www.w3.org/2000/svg"><defs
   id="defs15"><linearGradient
     inkscape:collect="always"
     id="linearGradient1794"><stop
       style="stop-color:#ffffff;stop-opacity:0.16055068;"
       offset="0"
       id="stop1790" /><stop
       style="stop-color:#ffffff;stop-opacity:1;"
       offset="1"
       id="stop1792" /></linearGradient><linearGradient
     inkscape:collect="always"
     id="linearGradient934"><stop
       style="stop-color:#ff0097;stop-opacity:1;"
       offset="0"
       id="stop930" /><stop
       style="stop-color:#0045d0;stop-opacity:0.07570745;"
       offset="1"
       id="stop932" /></linearGradient><linearGradient
     inkscape:collect="always"
     xlink:href="#linearGradient934"
     id="linearGradient936"
     x1="32.904003"
     y1="152.32352"
     x2="566.42334"
     y2="491.54483"
     gradientUnits="userSpaceOnUse" /><linearGradient
     inkscape:collect="always"
     xlink:href="#linearGradient1794"
     id="linearGradient1796"
     x1="-6.2536335e-05"
     y1="305.99929"
     x2="611.99947"
     y2="305.99929"
     gradientUnits="userSpaceOnUse" /><linearGradient
     inkscape:collect="always"
     xlink:href="#linearGradient1794"
     id="linearGradient1798"
     gradientUnits="userSpaceOnUse"
     x1="-6.2536335e-05"
     y1="305.99929"
     x2="611.99947"
     y2="305.99929" /><linearGradient
     inkscape:collect="always"
     xlink:href="#linearGradient1794"
     id="linearGradient1800"
     gradientUnits="userSpaceOnUse"
     x1="-6.2536335e-05"
     y1="305.99929"
     x2="611.99947"
     y2="305.99929" /><linearGradient
     inkscape:collect="always"
     xlink:href="#linearGradient1794"
     id="linearGradient1802"
     gradientUnits="userSpaceOnUse"
     x1="-6.2536335e-05"
     y1="305.99929"
     x2="611.99947"
     y2="305.99929" /><linearGradient
     inkscape:collect="always"
     xlink:href="#linearGradient1794"
     id="linearGradient1804"
     gradientUnits="userSpaceOnUse"
     x1="-6.2536335e-05"
     y1="305.99929"
     x2="611.99947"
     y2="305.99929" /></defs><sodipodi:namedview
   id="namedview13"
   pagecolor="#ffffff"
   bordercolor="#000000"
   borderopacity="0.25"
   inkscape:showpageshadow="2"
   inkscape:pageopacity="0.0"
   inkscape:pagecheckerboard="0"
   inkscape:deskcolor="#d1d1d1"
   showgrid="false"
   inkscape:zoom="0.34692426"
   inkscape:cx="-611.08438"
   inkscape:cy="967.06986"
   inkscape:window-width="1920"
   inkscape:window-height="1011"
   inkscape:window-x="0"
   inkscape:window-y="0"
   inkscape:window-maximized="1"
   inkscape:current-layer="Capa_1" />

<circle
   style="fill:url(#linearGradient936);fill-opacity:1;stroke-width:293.236;stroke-linecap:round;stroke-linejoin:round"
   id="path350"
   cx="305.99899"
   cy="305.99899"
   r="305.99899" /><g
   id="g10"
   transform="matrix(0.66686008,0.23102176,-0.23102176,0.66686008,171.75989,41.650589)"
   style="fill:url(#linearGradient1796);fill-opacity:1">
	<g
   id="g8"
   style="fill:url(#linearGradient1804);fill-opacity:1">
		<path
   d="m 424.546,104.617 23.071,32.499 v 0 l 38.456,54.169 -1.851,8.856 c -0.347,1.626 -3.67,16.542 -15.224,38.881 -17.544,33.913 -53.591,84.072 -125.671,130.44 -13.701,9.049 -137.734,88.911 -208.921,65.923 l -8.252,-2.667 -20.366,-40.571 h -0.006 L 74.884,330.6 v 0 l -2.905,-5.79 c -33.302,34.324 -104.367,121.417 -55.126,197.963 0,0 75.345,127.393 293.925,-13.232 0,0 349.476,-230.225 295.57,-390.496 0.005,0.006 -26.646,-77.376 -181.802,-14.428 z"
   id="path2"
   style="fill:url(#linearGradient1798);fill-opacity:1" />
		<path
   d="M 280.2,262.402 C 371.033,203.978 401.745,143.055 410.485,120.594 l -5.43,-7.641 -46.496,-65.48 C 311.105,4.479 171.34,99.791 171.34,99.791 25.618,193.541 56.26,247.331 56.26,247.331 l 31.349,62.44 10.212,20.334 C 147.189,340.555 245.869,285.03 280.2,262.402 Z M 127.447,225.327 c -2.371,-5.199 -0.084,-11.349 5.122,-13.721 37.698,-17.204 83.372,-46.869 83.834,-47.164 40.526,-26.072 66.11,-48.643 80.441,-62.993 4.042,-4.049 10.597,-4.049 14.646,-0.013 3.278,3.271 3.901,8.187 1.883,12.088 -0.476,0.919 -1.105,1.787 -1.877,2.558 -21.889,21.921 -50.101,44.041 -83.841,65.744 -1.87,1.215 -47.357,30.764 -86.488,48.623 -5.198,2.378 -11.342,0.083 -13.72,-5.122 z"
   id="path4"
   style="fill:url(#linearGradient1800);fill-opacity:1" />
		<path
   d="m 130.66,395.528 10.109,20.141 c 63.777,20.597 191.35,-63.636 191.35,-63.636 C 446.659,278.346 463.94,195.887 463.94,195.887 L 451.402,178.22 c -1.208,2.622 -2.571,5.43 -4.152,8.464 -16.388,31.676 -53.353,84.997 -131.879,135.517 -4.934,3.258 -113.807,74.381 -184.711,73.327 z"
   id="path6"
   style="fill:url(#linearGradient1802);fill-opacity:1" />
	</g>
</g></svg>
