<?xml version="1.0" encoding="UTF-8" standalone="no"?>
<!-- Created with Inkscape (http://www.inkscape.org/) -->

<svg
   width="512"
   height="512"
   viewBox="0 0 135.46666 135.46667"
   version="1.1"
   id="svg5"
   xmlns:inkscape="http://www.inkscape.org/namespaces/inkscape"
   xmlns:sodipodi="http://sodipodi.sourceforge.net/DTD/sodipodi-0.dtd"
   xmlns="http://www.w3.org/2000/svg"
   xmlns:svg="http://www.w3.org/2000/svg">
  <sodipodi:namedview
     id="namedview7"
     pagecolor="#ffffff"
     bordercolor="#000000"
     borderopacity="0.25"
     inkscape:showpageshadow="2"
     inkscape:pageopacity="0.0"
     inkscape:pagecheckerboard="0"
     inkscape:deskcolor="#d1d1d1"
     inkscape:document-units="px"
     showgrid="false" />
  <defs
     id="defs2">
    <inkscape:path-effect
       effect="powerclip"
       id="path-effect1317"
       is_visible="true"
       lpeversion="1"
       inverse="true"
       flatten="false"
       hide_clip="false"
       message="Use fill-rule evenodd on &lt;b&gt;fill and stroke&lt;/b&gt; dialog if no flatten result after convert clip to paths." />
    <clipPath
       clipPathUnits="userSpaceOnUse"
       id="clipPath1165">
      <path
         style="fill:#000000;stroke-width:0.0797528"
         d="m 147.71753,201.95617 c -0.25042,-0.3075 -0.62464,-1.61033 -1.01348,-3.52818 -1.16666,-5.75416 -4.07476,-15.32661 -6.29339,-20.71538 -5.37213,-13.04842 -12.86339,-25.62355 -20.893,-35.07186 -10.75512,-11.97857 -26.316957,-21.422 -39.208743,-25.51245 -0.855361,-0.26428 -1.896141,-0.56856 -2.312844,-0.67619 -0.416722,-0.10761 -1.170358,-0.30521 -1.674807,-0.43902 -8.883542,-2.55299 -18.659557,-2.7223 -25.281681,-2.84085 -12.554217,-0.22177 -18.293429,-0.42662 -20.337021,-0.72586 -19.739995,-2.89052 -34.5358219,-16.250501 -39.0022057,-35.217292 -1.16835,-4.96148 -1.6127981,-11.019197 -1.1458162,-15.617306 0.500141,-4.924415 1.683086,-10.328728 3.1909752,-14.577875 2.8768579,-8.10687 7.21615799,-14.394876 13.4698159,-19.51895 1.7051036,-1.397109 2.5133062,-1.931979 6.1556788,-4.073883 1.709946,-1.005552 3.793444,-2.272575 3.914136,-2.380284 0.01118,-0.01118 -0.12242,-0.266471 -0.297547,-0.569309 -0.738047,-1.276035 -1.676874,-3.886245 -3.468208,-9.64247 C 10.786498,2.7409478 8.6626416,-3.8347152 6.7342286,-11.539177 L 6.5990223,-12.075079 5.5912511,-12.665712 C -12.158646,-23.068788 -38.088376,-29.898549 -73.016141,-33.370546 c -13.30099,-1.322176 -25.116753,-2.068272 -48.011289,-3.031628 -4.46697,-0.187896 -5.04983,-0.219961 -6.65938,-0.364138 -1.40093,-0.125552 -3.3111,-0.237551 -6.10109,-0.357542 -1.95506,-0.08408 -5.15207,-0.288221 -5.58272,-0.356468 -0.1316,-0.02016 -1.80042,-0.09281 -3.70851,-0.159636 -5.57445,-0.195731 -6.14097,-0.280977 -6.14097,-0.924586 0,-0.802937 0.29008,-0.812287 25.52093,-0.822601 19.81093,-0.0089 22.38225,0.01791 25.607967,0.267325 1.366361,0.105145 3.898011,0.221752 7.848407,0.360772 3.747465,0.132046 4.320971,0.16232 6.141005,0.32443 2.090404,0.186327 11.215534,0.848585 15.352443,1.114359 3.423814,0.219937 19.512446,2.084461 27.176687,3.149449 17.764859,2.468533 30.945671,5.532382 42.7622011,9.939976 5.460183,2.03664 11.9345509,4.910361 12.7764319,5.670942 l 0.327544,0.295931 -0.04599,0.679508 c -0.02531,0.373731 -0.101803,1.128102 -0.170407,1.676403 -0.315889,2.530369 -0.315281,6.2756081 0.0016,9.3311151 0.848022,8.1802547 3.539463,15.6618094 7.207776,20.0358859 1.641919,1.957826 3.609932,3.335117 5.627735,3.938506 0.886767,0.265149 1.962089,0.290889 3.7484,0.08967 4.962244,-0.558973 11.52685,-0.268845 17.864648,0.789572 6.689275,1.117096 13.296336,2.926993 23.339723,6.39352 l 1.806438,0.6235 0.04696,-0.283803 c 0.02569,-0.156051 0.0473,-0.437473 0.04772,-0.625317 7.94e-4,-0.404246 0.187457,-0.894656 0.340005,-0.894656 0.05942,0 0.601943,0.519961 1.205574,1.155456 1.890826,1.990541 3.476191,3.174631 5.868697,4.383223 2.166371,1.094383 3.111074,1.41251 3.347698,1.127385 0.112229,-0.134983 0.112679,-0.112985 -0.07453,-2.040382 -0.09755,-1.002411 -0.05754,-1.276012 0.186092,-1.276149 0.120901,-6.9e-5 0.835028,0.667893 2.366309,2.213136 l 2.193184,2.213248 0.590579,1.156422 c 0.753049,1.474616 1.07972,2.01128 1.735564,2.851187 1.10744,1.418228 1.894509,2.139797 3.89351,3.569504 1.263589,0.903716 2.252932,1.522508 2.322682,1.452756 0.02487,-0.02389 -0.02957,-0.306806 -0.118655,-0.628745 -0.381664,-1.378231 -0.407982,-2.777514 -0.07519,-3.992182 0.09362,-0.342053 0.146521,-0.645922 0.116917,-0.675296 -0.104224,-0.104251 -0.545073,0.421714 -0.814406,0.971786 -0.175897,0.359095 -0.302453,0.768855 -0.354904,1.148508 -0.09428,0.683072 -0.220649,0.991582 -0.421852,1.030325 -0.187841,0.03608 -1.159189,-0.835758 -2.071634,-1.859828 -0.886714,-0.995238 -1.579967,-2.034937 -1.886098,-2.828745 -0.251288,-0.651613 -0.733351,-2.4853 -0.885952,-3.369937 -0.08529,-0.493392 -0.07939,-0.557067 0.07094,-0.797528 0.275132,-0.440169 2.959764,-3.012954 3.143618,-3.012597 0.05395,0 0.582699,0.430211 1.174832,0.955779 l 1.076671,0.955596 1.210868,0.0013 c 1.082554,0.0013 1.215565,0.01566 1.255155,0.140805 0.02487,0.07668 0.167917,0.813203 0.318836,1.636541 0.18111,0.987097 0.330877,1.587974 0.439785,1.764223 0.372036,0.60198 2.777246,2.774712 6.983736,6.30877 3.0729,2.581664 5.67275,4.813456 5.93174,5.092009 0.10423,0.112102 0.17092,0.252302 0.14828,0.311539 -0.0225,0.05918 -0.2936,0.206727 -0.60195,0.327658 -1.20365,0.472225 -1.25405,0.860306 -0.2691,2.072087 1.07608,1.323882 3.32762,2.821614 5.72333,3.807208 3.95167,1.62569 6.15861,2.267329 9.56428,2.780697 2.67771,0.403643 3.68021,0.583681 3.84809,0.691055 0.36654,0.234439 0.20299,1.561205 -0.42693,3.46072 -1.47713,4.455147 -4.8355,8.020212 -8.6051,9.134663 -0.86955,0.257075 -2.50017,0.371893 -2.71769,0.191476 -0.0707,-0.05873 -0.37462,-0.59796 -0.67545,-1.19848 -0.98699,-1.97023 -1.74124,-2.937933 -4.22157,-5.416309 -3.72349,-3.72051 -6.0089,-5.558412 -9.1334,-7.344923 -1.39544,-0.797867 -4.44654,-2.261476 -6.779002,-3.251872 -0.614098,-0.26075 -1.942013,-0.866495 -2.950863,-1.346097 -1.00888,-0.479626 -1.898505,-0.894974 -1.976917,-0.923041 -0.308523,-0.110305 0.377296,0.595047 4.225639,4.346294 4.168933,4.063794 5.367683,5.28138 5.367683,5.451978 0,0.05916 -0.2743,0.195508 -0.63584,0.315801 -0.64763,0.21568 -1.04109,0.52841 -1.03724,0.82432 0.003,0.235559 0.30957,0.821298 0.71783,1.372018 0.79624,1.074092 2.13992,2.193025 3.84543,3.202252 1.132,0.669891 3.7887,1.966688 5.17233,2.524742 2.12332,0.856408 3.11951,1.145254 7.88808,2.287124 1.71222,0.410012 1.75456,0.430168 1.75456,0.835356 0,0.887502 -0.49053,2.418667 -1.27773,3.988369 -1.86603,3.720867 -5.04346,6.571405 -8.26595,7.415437 -1.24785,0.32685 -2.63312,0.394356 -3.16058,0.154038 -0.20225,-0.09214 -0.27051,-0.222425 -0.64526,-1.230588 -0.43542,-1.171265 -1.71451,-3.250078 -2.82411,-4.589878 -1.44307,-1.742458 -4.75187,-5.176025 -6.316701,-6.554861 C 96.334185,64.803408 93.703242,63.089697 89.888615,61.119157 87.92203,60.103305 86.76043,59.470144 85.361903,58.651785 84.697897,58.263255 84.087784,57.920217 84.006112,57.889523 83.775747,57.802753 82.35807,56.94659 81.368211,56.296141 80.359863,55.633495 80.113144,55.356823 79.545504,54.252148 79.098102,53.381436 78.825428,52.968265 78.46256,52.610966 78.00813,52.163519 76.827493,51.382194 74.428156,49.941075 72.114203,48.551232 69.876632,47.425056 61.845816,43.608275 48.090015,37.070527 39.287095,34.061926 31.061123,33.086796 c -1.735371,-0.205827 -6.176864,-0.205827 -7.696167,0 -3.903575,0.528371 -7.174481,1.709164 -10.048873,3.627623 -1.518426,1.013441 -2.259209,1.62542 -3.6319241,3.000441 C 7.4004434,42.002477 5.69933,44.418993 4.1454342,47.582997 0.63077105,54.739471 -0.53351884,63.507151 0.84215535,72.458661 2.2161013,81.399027 6.250234,89.532086 11.585735,94.118421 c 2.034399,1.748745 3.746877,2.870689 6.316144,4.138088 2.6129,1.288905 4.741286,2.088041 7.533751,2.828721 17.743039,3.3067 37.824781,2.50203 56.268618,5.55945 3.07522,0.51771 3.879739,0.65896 4.036404,0.70872 0.09282,0.0294 0.783907,0.17172 1.535538,0.31629 5.388488,1.03582 12.025342,2.74054 17.43676,4.47873 6.34227,2.03717 12.25473,4.41105 17.74505,7.12468 6.95254,3.43636 12.44044,6.90196 17.86119,11.27937 2.95108,2.38309 6.33267,5.67794 9.09198,8.85879 4.28532,4.93999 7.58347,10.22876 10.29435,16.5078 1.14342,2.64836 2.4144,6.5356 2.48754,7.60815 0.0375,0.55104 0.0258,0.66222 -0.0659,0.6326 -0.0615,-0.0197 -0.16941,-0.15922 -0.24056,-0.30968 -0.071,-0.15076 -0.21892,-0.45316 -0.32878,-0.67249 -0.11009,-0.21916 -0.66476,-1.33189 -1.23294,-2.47236 -2.69315,-5.40576 -6.0208,-10.35389 -10.1473,-15.0887 -4.41449,-5.06516 -9.27072,-9.41818 -14.59094,-13.07893 -3.41847,-2.35218 -6.24111,-4.01081 -10.13793,-5.95727 -5.34728,-3.13322 -16.28395,-7.91058 -26.262616,-8.30825 -0.08008,0.0799 -0.111675,0.18028 -0.07624,0.24224 5.313926,4.51292 11.944026,8.61743 17.257836,13.49944 12.88312,12.25582 19.22895,24.9248 25.07283,38.85995 1.15543,2.85534 2.6851,7.34877 3.46466,10.17753 0.97162,3.52566 1.90202,8.20815 2.43859,12.27294 0.18684,1.41536 0.52165,5.62203 0.57192,7.18587 0.0455,1.41277 0.007,1.69801 -0.19851,1.44652 z M 112.10638,76.733119 c 2.35688,-0.801638 3.66702,-1.630397 4.66657,-2.952012 0.78834,-1.04239 1.3789,-2.522747 1.52988,-3.835125 0.0718,-0.625028 -0.0112,-0.675947 -0.59198,-0.370552 -2.4698,1.294623 -5.31562,3.971894 -6.26649,5.895306 -0.28671,0.580027 -0.41263,1.097791 -0.32343,1.330182 0.0662,0.172643 0.33262,0.15426 0.98545,-0.06772 z m 10.98854,-13.44594 c 3.02778,-1.202764 4.73189,-2.841522 5.41843,-5.210617 0.3008,-1.037973 0.42807,-2.605749 0.21168,-2.605749 -0.15075,0 -1.10087,0.650113 -1.91979,1.313479 -2.17087,1.758485 -3.96836,3.967652 -4.52079,5.556057 -0.17462,0.502494 -0.18906,0.617625 -0.10997,0.88174 0.0505,0.168394 0.14204,0.303763 0.20524,0.303763 0.063,0 0.38474,-0.107392 0.7152,-0.23867 z M 97.483455,55.947031 c 0.531141,-0.198641 0.959739,-0.478213 0.992272,-0.647041 0.01498,-0.07623 -0.54783,-0.67148 -1.435018,-1.518584 -2.296808,-2.193136 -3.649194,-3.44211 -3.901183,-3.602913 l -0.232338,-0.148188 0.07385,0.194834 c 0.04072,0.107175 0.48355,0.945417 0.984028,1.862926 0.500494,0.917477 1.158645,2.130311 1.462513,2.695178 0.303885,0.564875 0.645361,1.127636 0.758793,1.250569 0.190053,0.206055 0.23185,0.217697 0.533533,0.150006 0.180107,-0.04035 0.523481,-0.146847 0.763317,-0.236678 z M 88.33224,51.70248 c -0.02929,-0.186325 -0.08582,-0.51839 -0.125862,-0.737709 -0.174149,-0.960779 -0.05353,-2.535187 0.271846,-3.549012 0.183105,-0.570095 0.170648,-0.804863 -0.0356,-0.677355 -0.05207,0.03205 -0.267697,0.323689 -0.479356,0.64787 -0.375462,0.575183 -0.575143,1.059542 -0.669777,1.624547 -0.05993,0.35824 -0.327406,0.797528 -0.485513,0.797528 -0.155493,0 -0.753279,-0.619104 -1.557353,-1.612818 -1.227058,-1.516433 -1.909829,-2.712426 -2.175291,-3.810394 -0.09214,-0.380299 -0.613288,-3.267319 -0.613288,-3.396258 0,-0.009 0.17612,-0.129585 0.3917,-0.267819 0.396044,-0.254138 0.544999,-0.455568 0.425384,-0.575159 C 83.121166,39.988056 80.348039,38.47425 78.633906,37.610288 69.842768,33.17935 58.762627,29.333891 49.313062,27.43422 c -1.190744,-0.239366 -2.213586,-0.433372 -2.27298,-0.431086 -0.05939,0.0021 0.861029,0.33777 2.04537,0.74558 5.639027,1.94169 7.63371,2.829756 12.934066,5.758518 1.46545,0.809752 2.694609,1.453629 2.731463,1.430851 0.0367,-0.02289 0.09213,-0.243072 0.123087,-0.48949 0.08367,-0.669533 0.270314,-1.224761 0.483346,-1.437801 0.149767,-0.149762 0.274775,-0.189913 0.591981,-0.189913 0.389874,0 0.420791,0.01791 1.013042,0.578213 0.335995,0.318013 1.33631,1.403652 2.222992,2.412521 2.699126,3.071204 4.182206,4.395084 5.28151,4.714671 0.376774,0.109638 0.472461,0.111649 0.725429,0.01566 0.267459,-0.101352 0.293685,-0.139685 0.319638,-0.46649 0.01572,-0.195731 -0.0339,-0.840512 -0.110093,-1.432687 -0.125334,-0.975646 -0.126667,-1.103982 -0.01572,-1.367761 0.171297,-0.406871 0.516843,-0.482722 0.913442,-0.200435 0.52446,0.373153 2.028209,1.761604 2.648665,2.445573 1.404313,1.54809 1.676313,2.022538 1.76708,3.082144 0.152001,1.774452 1.291363,3.687506 3.620868,6.079472 1.146316,1.17707 2.070405,2.007986 3.190103,2.868427 0.776433,0.596707 0.878747,0.616035 0.805688,0.152249 z m 18.85023,-8.25895 c 0.86541,-0.429334 0.98775,-0.561483 0.75747,-0.818158 -0.38972,-0.434449 -5.69458,-4.731194 -5.7602,-4.665591 -0.0703,0.07018 3.19186,5.231199 3.54388,5.606928 0.39086,0.417187 0.36531,0.419338 1.45885,-0.123089 z m -245.51181,8.021875 c -0.14168,-0.202448 -0.16006,-0.483687 -0.0456,-0.697648 0.0742,-0.138562 0.21119,-0.236405 1.38941,-0.99192 0.26733,-0.171527 1.56271,-0.927817 2.87864,-1.680864 23.75721,-13.595553 53.601504,-25.814961 87.528828,-35.837757 12.443135,-3.6759576 25.514442,-7.0530947 38.3610973,-9.9110758 5.6694369,-1.2612819 11.3065434,-2.41337404 12.4414646,-2.54276614 0.9715159,-0.1107521 3.2506795,-0.21232339 3.8400124,-0.1713024 l 0.4046263,0.02826 -0.055824,0.33066331 C 8.1041628,1.818895 8.2617497,2.6438017 9.4066327,5.1934517 9.7161505,5.8827585 9.9511219,6.4650254 9.9287675,6.4873795 9.9063653,6.5097712 8.8381183,6.7199538 7.5547989,6.9544731 -27.579127,13.375591 -56.883955,20.880597 -83.942308,30.38702 c -12.393665,4.354279 -23.748952,8.790683 -39.397982,15.39245 -9.06514,3.824248 -14.1689,5.863217 -14.67638,5.863217 -0.10444,0 -0.24392,-0.07916 -0.31265,-0.177345 z M -163.67713,5.1408718 c -0.58549,-0.4826283 -0.44939,-0.5729171 1.50248,-0.9965594 32.04846,-6.9559886 63.353956,-11.4258682 98.250325,-14.0284093 4.949481,-0.3691351 10.605424,-0.7372851 12.242075,-0.7968361 3.754297,-0.136548 5.312905,-0.218144 6.180857,-0.32315 3.259156,-0.394383 30.134197,-0.699978 40.1157393,-0.456197 9.7546211,0.23827 10.890639,0.291539 11.3567888,0.532584 -0.9808416,2.0115502 -1.1388177,2.3900153 0.02264,7.0764351 -1.5416808,-0.1432666 -3.5072683,-0.2401367 -6.75380218,-0.3328374 -2.97826562,-0.084981 -4.93945972,-0.1730941 -7.05813772,-0.316829 -3.6450182,-0.2473759 -29.5272882,-0.3136683 -36.0882222,-0.092365 -1.403654,0.047311 -3.736427,0.1237623 -5.183936,0.169958 -35.507744,1.1307731 -69.601397,4.00635227 -110.189407,9.2937856 -2.17714,0.2836246 -3.99031,0.5156565 -4.02931,0.5156565 -0.0389,0 -0.20471,-0.1103027 -0.36813,-0.2450613 z"
         id="path1167"
         sodipodi:nodetypes="cssccsccsssssssscccsssssssssssssssscsscssssscssssssssscsssssssssssssscscssssssssssssssssssssssssssssssssssssssssssssscssssssccsssssssssssssscccccsssccssssssssssssssssssscsssssssssssssssssssssssssssssssssssssssssssssssscsssscssssssssscssssccsssssss" />
    </clipPath>
    <clipPath
       clipPathUnits="userSpaceOnUse"
       id="clipPath1313">
      <circle
         style="display:none;opacity:1;fill:#ffffff;fill-opacity:1;stroke:none;stroke-width:2.51721;stroke-linecap:round;stroke-linejoin:round;stroke-dasharray:none;stroke-opacity:0.283055"
         id="circle1315"
         cx="67.73333"
         cy="67.73333"
         r="41.408836"
         d="M 109.14217,67.73333 A 41.408836,41.408836 0 0 1 67.73333,109.14217 41.408836,41.408836 0 0 1 26.324493,67.73333 41.408836,41.408836 0 0 1 67.73333,26.324493 41.408836,41.408836 0 0 1 109.14217,67.73333 Z" />
      <path
         id="lpe_path-effect1317"
         style="opacity:1;fill:#ffffff;fill-opacity:1;stroke:none;stroke-width:2.51721;stroke-linecap:round;stroke-linejoin:round;stroke-dasharray:none;stroke-opacity:0.283055"
         class="powerclip"
         d="M -5,-5 H 140.46666 V 140.46666 H -5 Z M 109.14217,67.73333 A 41.408836,41.408836 0 0 0 67.73333,26.324493 41.408836,41.408836 0 0 0 26.324493,67.73333 41.408836,41.408836 0 0 0 67.73333,109.14217 41.408836,41.408836 0 0 0 109.14217,67.73333 Z" />
    </clipPath>
  </defs>
  <g
     inkscape:label="Layer 1"
     inkscape:groupmode="layer"
     id="layer1">
    <g
       id="g1352"
       transform="matrix(0.94126878,0,0,0.94126878,3.9780638,3.9780638)">
      <circle
         style="fill:#008fc7;fill-opacity:1;stroke:#008fc7;stroke-width:4.11745;stroke-linecap:round;stroke-linejoin:round;stroke-dasharray:none;stroke-opacity:0.283055"
         id="circle1159"
         r="67.73333"
         cy="67.73333"
         cx="67.73333" />
      <circle
         style="fill:#ffffff;fill-opacity:1;stroke:none;stroke-width:1.98106;stroke-linecap:round;stroke-linejoin:round"
         id="path1221"
         r="15.401515"
         cy="67.73333"
         cx="67.73333" />
      <circle
         style="fill:#ffffff;fill-opacity:1;stroke:none;stroke-width:2.60942;stroke-linecap:round;stroke-linejoin:round"
         id="path491"
         clip-path="url(#clipPath1165)"
         r="67.73333"
         cy="67.73333"
         cx="67.73333" />
      <path
         style="opacity:0.342148;fill:#ffffff;fill-opacity:1;stroke:none;stroke-width:4.11745;stroke-linecap:round;stroke-linejoin:round;stroke-dasharray:none;stroke-opacity:0.283055"
         id="circle1284"
         clip-path="url(#clipPath1313)"
         transform="matrix(0.47604128,0,0,0.47604128,35.489471,35.489471)"
         d="M 135.46666,67.73333 A 67.73333,67.73333 0 0 1 67.73333,135.46666 67.73333,67.73333 0 0 1 0,67.73333 67.73333,67.73333 0 0 1 67.73333,0 67.73333,67.73333 0 0 1 135.46666,67.73333 Z"
         sodipodi:type="arc"
         sodipodi:ry="67.73333"
         sodipodi:rx="67.73333"
         sodipodi:cy="67.73333"
         sodipodi:cx="67.73333"
         inkscape:path-effect="#path-effect1317" />
    </g>
  </g>
</svg>
