<?xml version="1.0" encoding="UTF-8" standalone="no"?>
<!-- Created with Inkscape (http://www.inkscape.org/) -->

<svg
   width="512"
   height="512"
   viewBox="0 0 135.46666 135.46667"
   version="1.1"
   id="svg5"
   xmlns:inkscape="http://www.inkscape.org/namespaces/inkscape"
   xmlns:sodipodi="http://sodipodi.sourceforge.net/DTD/sodipodi-0.dtd"
   xmlns="http://www.w3.org/2000/svg"
   xmlns:svg="http://www.w3.org/2000/svg">
  <sodipodi:namedview
     id="namedview7"
     pagecolor="#ffffff"
     bordercolor="#000000"
     borderopacity="0.25"
     inkscape:showpageshadow="2"
     inkscape:pageopacity="0.0"
     inkscape:pagecheckerboard="0"
     inkscape:deskcolor="#d1d1d1"
     inkscape:document-units="px"
     showgrid="false" />
  <defs
     id="defs2">
    <filter
       style="color-interpolation-filters:sRGB"
       inkscape:label="Drop Shadow"
       id="filter3837"
       x="-0.01314357"
       y="-0.01314357"
       width="1.0262871"
       height="1.0497912">
      <feFlood
         flood-opacity="1"
         flood-color="rgb(0,137,99)"
         result="flood"
         id="feFlood3827" />
      <feComposite
         in="flood"
         in2="SourceGraphic"
         operator="in"
         result="composite1"
         id="feComposite3829" />
      <feGaussianBlur
         in="composite1"
         stdDeviation="3.1225e-14"
         result="blur"
         id="feGaussianBlur3831" />
      <feOffset
         dx="4.57967e-15"
         dy="1.5"
         result="offset"
         id="feOffset3833" />
      <feComposite
         in="SourceGraphic"
         in2="offset"
         operator="over"
         result="composite2"
         id="feComposite3835" />
    </filter>
    <filter
       style="color-interpolation-filters:sRGB"
       inkscape:label="Drop Shadow"
       id="filter4611"
       x="-0.01314357"
       y="-0.01314357"
       width="1.0262871"
       height="1.0497912">
      <feFlood
         flood-opacity="1"
         flood-color="rgb(255,42,0)"
         result="flood"
         id="feFlood4601" />
      <feComposite
         in="flood"
         in2="SourceGraphic"
         operator="in"
         result="composite1"
         id="feComposite4603" />
      <feGaussianBlur
         in="composite1"
         stdDeviation="3.1225e-14"
         result="blur"
         id="feGaussianBlur4605" />
      <feOffset
         dx="4.57967e-15"
         dy="1.5"
         result="offset"
         id="feOffset4607" />
      <feComposite
         in="SourceGraphic"
         in2="offset"
         operator="over"
         result="composite2"
         id="feComposite4609" />
    </filter>
    <filter
       style="color-interpolation-filters:sRGB"
       inkscape:label="Drop Shadow"
       id="filter5385"
       x="-0.01314357"
       y="-0.01314357"
       width="1.0262871"
       height="1.0497912">
      <feFlood
         flood-opacity="1"
         flood-color="rgb(54,104,240)"
         result="flood"
         id="feFlood5375" />
      <feComposite
         in="flood"
         in2="SourceGraphic"
         operator="in"
         result="composite1"
         id="feComposite5377" />
      <feGaussianBlur
         in="composite1"
         stdDeviation="3.1225e-14"
         result="blur"
         id="feGaussianBlur5379" />
      <feOffset
         dx="4.57967e-15"
         dy="1.5"
         result="offset"
         id="feOffset5381" />
      <feComposite
         in="SourceGraphic"
         in2="offset"
         operator="over"
         result="composite2"
         id="feComposite5383" />
    </filter>
    <filter
       style="color-interpolation-filters:sRGB"
       inkscape:label="Drop Shadow"
       id="filter6933"
       x="-0.01314357"
       y="-0.01314357"
       width="1.0262871"
       height="1.0497912">
      <feFlood
         flood-opacity="1"
         flood-color="rgb(255,171,45)"
         result="flood"
         id="feFlood6923" />
      <feComposite
         in="flood"
         in2="SourceGraphic"
         operator="in"
         result="composite1"
         id="feComposite6925" />
      <feGaussianBlur
         in="composite1"
         stdDeviation="3.1225e-14"
         result="blur"
         id="feGaussianBlur6927" />
      <feOffset
         dx="4.57967e-15"
         dy="1.5"
         result="offset"
         id="feOffset6929" />
      <feComposite
         in="SourceGraphic"
         in2="offset"
         operator="over"
         result="composite2"
         id="feComposite6931" />
    </filter>
  </defs>
  <g
     inkscape:label="Layer 1"
     inkscape:groupmode="layer"
     id="layer1">
    <g
       id="g7303"
       transform="matrix(0.94272419,0,0,0.94272419,3.8794855,3.3118443)">
      <rect
         style="opacity:1;fill:#ff2a23;fill-opacity:1;stroke:#ff2a23;stroke-width:1.67761;stroke-linecap:round;stroke-linejoin:round;stroke-dasharray:none;stroke-opacity:1"
         id="rect1018"
         width="63.818661"
         height="63.818661"
         x="0.83880323"
         y="0.54305768" />
      <rect
         style="opacity:1;fill:#ff2a23;fill-opacity:1;stroke:#ff2a23;stroke-width:1.67761;stroke-linecap:round;stroke-linejoin:round;stroke-dasharray:none;stroke-opacity:1;filter:url(#filter4611)"
         id="rect1020"
         width="63.818661"
         height="63.818661"
         x="0.83880502"
         y="0.83880502" />
      <rect
         style="opacity:1;fill:#668963;fill-opacity:1;stroke:#668963;stroke-width:1.67761;stroke-linecap:round;stroke-linejoin:round;stroke-dasharray:none;stroke-opacity:1;filter:url(#filter3837)"
         id="rect1062"
         width="63.818661"
         height="63.818661"
         x="70.809196"
         y="0.83880502" />
      <rect
         style="opacity:1;fill:#367bf0;fill-opacity:1;stroke:#367bf0;stroke-width:1.67761;stroke-linecap:round;stroke-linejoin:round;stroke-dasharray:none;stroke-opacity:1;filter:url(#filter5385)"
         id="rect1078"
         width="63.818661"
         height="63.818661"
         x="0.83880502"
         y="70.809196" />
      <rect
         style="opacity:1;fill:#ffff2d;fill-opacity:1;stroke:#ffff2d;stroke-width:1.67761;stroke-linecap:round;stroke-linejoin:round;stroke-dasharray:none;stroke-opacity:1;filter:url(#filter6933)"
         id="rect1080"
         width="63.818661"
         height="63.818661"
         x="70.809196"
         y="70.809196" />
    </g>
    <g
       id="g7458"
       transform="matrix(0.81422552,0,0,0.81422552,7.598448,9.116447)">
      <g
         id="g7462"
         transform="matrix(1.156423,0,0,1.156423,-4.3016385,-4.4391846)">
        <path
           style="fill:#ffffff;fill-opacity:1;stroke:#000000;stroke-width:7.432;stroke-dasharray:none;stroke-opacity:1"
           d="m 128.21349,116.82974 c -0.10191,-0.12516 -0.25423,-0.65539 -0.41249,-1.43596 -0.47481,-2.34191 -1.6584,-6.23784 -2.56136,-8.43105 C 123.0532,101.6521 120.00428,96.534057 116.73628,92.688652 112.359,87.813402 106.0254,83.969976 100.7785,82.30518 100.43037,82.197627 100.00678,82.073787 99.837181,82.029975 99.667582,81.986154 99.360852,81.905766 99.155549,81.851302 95.539972,80.812243 91.561186,80.743339 88.866017,80.695094 83.75651,80.604782 81.420677,80.52146 80.588948,80.399672 72.554859,79.223247 66.533029,73.785797 64.715227,66.066399 c -0.475513,-2.019303 -0.6564,-4.484775 -0.466337,-6.356177 0.203552,-2.004215 0.685006,-4.203736 1.298707,-5.933122 1.170875,-3.299461 2.936942,-5.858652 5.482151,-7.944123 0.693967,-0.56861 1.022903,-0.786304 2.505335,-1.658058 0.695943,-0.409254 1.543913,-0.924924 1.593035,-0.968757 0.0047,-0.004 -0.0498,-0.108458 -0.121098,-0.23171 -0.300381,-0.519335 -0.682488,-1.581677 -1.411549,-3.92443 -1.112272,-3.299944 -1.976667,-5.976216 -2.761531,-9.111891 L 70.77891,29.720022 70.368746,29.479634 C 63.144617,25.245634 52.591341,22.465947 38.37591,21.052868 32.962467,20.514745 28.153511,20.211084 18.835536,19.81901 17.017504,19.74249 16.78029,19.72954 16.125207,19.670807 c -0.570168,-0.05114 -1.347596,-0.09668 -2.483121,-0.145515 -0.795691,-0.03421 -2.096869,-0.117311 -2.272131,-0.145085 -0.05353,-0.0085 -0.732768,-0.0377 -1.5093453,-0.06498 -2.2687743,-0.07964 -2.499355,-0.114361 -2.499355,-0.376303 0,-0.326798 0.1180583,-0.3306 10.3869093,-0.334791 8.062952,-0.0032 9.109458,0.008 10.42232,0.108792 0.556099,0.04287 1.586465,0.09021 3.194263,0.146834 1.525197,0.05369 1.758609,0.06609 2.499347,0.132041 0.850786,0.0758 4.564676,0.34537 6.248373,0.453542 1.393482,0.08953 7.941481,0.848361 11.060792,1.281811 7.230208,1.004677 12.594737,2.25165 17.404015,4.045519 2.222269,0.828913 4.857308,1.998496 5.199942,2.30805 l 0.133313,0.120436 -0.01867,0.276554 c -0.01026,0.152109 -0.04146,0.459149 -0.06932,0.682301 -0.128554,1.029842 -0.128314,2.55414 7.17e-4,3.79771 0.345145,3.329326 1.440547,6.374288 2.933524,8.154515 0.668259,0.796829 1.469235,1.35738 2.290471,1.602955 0.360905,0.107916 0.798559,0.118391 1.525577,0.0365 2.019613,-0.227495 4.691382,-0.109413 7.270832,0.32135 2.722499,0.454647 5.411544,1.191265 9.499162,2.602134 l 0.735202,0.253766 0.01909,-0.115513 c 0.0105,-0.06355 0.01925,-0.178054 0.01949,-0.254498 3.59e-4,-0.164524 0.07628,-0.364125 0.138389,-0.364125 0.02418,0 0.244977,0.211618 0.490662,0.47026 0.769546,0.810142 1.414785,1.292064 2.388525,1.783959 0.88171,0.445413 1.26619,0.574885 1.3625,0.458847 0.0456,-0.05496 0.0459,-0.04598 -0.0303,-0.830433 -0.0397,-0.407975 -0.0234,-0.519336 0.0757,-0.519384 0.0492,-3.2e-5 0.33987,0.27183 0.96307,0.900737 l 0.89263,0.900776 0.24035,0.470658 c 0.30648,0.600163 0.43944,0.818582 0.70637,1.160428 0.45071,0.577207 0.77105,0.870878 1.58465,1.452769 0.51428,0.367809 0.91693,0.61965 0.94532,0.591263 0.009,-0.0097 -0.012,-0.124875 -0.0482,-0.255898 -0.15534,-0.560934 -0.16604,-1.130434 -0.0306,-1.624802 0.0382,-0.139208 0.0595,-0.26289 0.0476,-0.274837 -0.0424,-0.04239 -0.22183,0.171628 -0.33146,0.395504 -0.0715,0.146151 -0.1231,0.312926 -0.14445,0.467445 -0.0384,0.278009 -0.0898,0.403567 -0.1717,0.419332 -0.0766,0.01472 -0.47177,-0.340153 -0.84313,-0.75694 -0.3609,-0.405055 -0.64306,-0.828206 -0.76765,-1.151281 -0.10232,-0.265211 -0.29847,-1.011509 -0.36057,-1.371545 -0.0347,-0.20081 -0.0323,-0.226731 0.0288,-0.324594 0.11197,-0.179144 1.20462,-1.226262 1.27944,-1.226111 0.022,0 0.23715,0.175087 0.47816,0.388997 l 0.4382,0.388925 0.49281,3.57e-4 c 0.44057,3.58e-4 0.49473,0.0064 0.51084,0.05727 0.0103,0.03126 0.0683,0.330973 0.12978,0.666059 0.0737,0.401747 0.13464,0.646302 0.17898,0.718037 0.15141,0.244993 1.13032,1.129297 2.84235,2.567638 1.25065,1.050722 2.30878,1.959054 2.4142,2.072427 0.0424,0.04566 0.0696,0.102684 0.0603,0.126792 -0.009,0.0241 -0.11949,0.08412 -0.24499,0.133354 -0.48988,0.192195 -0.5104,0.350142 -0.10952,0.843333 0.43796,0.538815 1.35433,1.148377 2.32937,1.549512 1.60831,0.661645 2.50652,0.922784 3.89262,1.13173 1.08982,0.164286 1.49781,0.237557 1.56614,0.281255 0.14918,0.09541 0.0826,0.635406 -0.17375,1.408499 -0.60118,1.81322 -1.96804,3.264192 -3.50223,3.717766 -0.35392,0.104624 -1.01757,0.151353 -1.1061,0.07786 -0.0287,-0.02386 -0.15246,-0.24337 -0.2749,-0.487782 -0.4017,-0.801871 -0.70867,-1.195719 -1.71817,-2.204412 -1.51544,-1.514229 -2.4456,-2.262244 -3.71725,-2.989342 -0.56794,-0.324729 -1.80971,-0.920413 -2.75902,-1.323496 -0.24993,-0.106128 -0.79038,-0.352664 -1.20099,-0.547858 -0.4106,-0.195203 -0.77267,-0.364252 -0.8046,-0.375674 -0.12555,-0.04494 0.15358,0.242185 1.71982,1.768926 1.69674,1.653945 2.18462,2.149483 2.18462,2.21892 0,0.0241 -0.11163,0.07954 -0.25877,0.128533 -0.26357,0.08778 -0.42373,0.215063 -0.42215,0.335499 0.002,0.09586 0.12599,0.334267 0.29214,0.558404 0.32409,0.43715 0.87093,0.892552 1.56507,1.303303 0.46073,0.272632 1.542,0.800423 2.10511,1.027552 0.86419,0.348559 1.26964,0.466124 3.21042,0.930856 0.69688,0.166872 0.71411,0.175072 0.71411,0.339978 0,0.361206 -0.19965,0.984394 -0.52004,1.623244 -0.75946,1.51438 -2.05267,2.674537 -3.3642,3.018054 -0.50788,0.133027 -1.07166,0.1605 -1.28635,0.06267 -0.0823,-0.03746 -0.11009,-0.09056 -0.26262,-0.500851 -0.17722,-0.476711 -0.69777,-1.322773 -1.14939,-1.868078 -0.58733,-0.70916 -1.93399,-2.106604 -2.57086,-2.667784 -0.91081,-0.802563 -1.98159,-1.500039 -3.53412,-2.302037 -0.80037,-0.413455 -1.27314,-0.671142 -1.84233,-1.004207 -0.27025,-0.158138 -0.51857,-0.297751 -0.55181,-0.310246 -0.0938,-0.03523 -0.67074,-0.383764 -1.07361,-0.648489 -0.41041,-0.269698 -0.51082,-0.382301 -0.74185,-0.831897 -0.1821,-0.354373 -0.29307,-0.522541 -0.44076,-0.667961 -0.184959,-0.182109 -0.665464,-0.500102 -1.641985,-1.086632 -0.941769,-0.565658 -1.852447,-1.024012 -5.120951,-2.577421 -5.59853,-2.66081 -9.181272,-3.885305 -12.529202,-4.282176 -0.70629,-0.08372 -2.513961,-0.08376 -3.132301,0 -1.588746,0.215047 -2.919988,0.695624 -4.089845,1.476424 -0.618,0.412469 -0.919491,0.661541 -1.478179,1.221171 -0.929467,0.93104 -1.621812,1.91456 -2.254234,3.202289 -1.430453,2.91265 -1.904311,6.48106 -1.344424,10.124283 0.559189,3.638681 2.201063,6.948804 4.372593,8.815426 0.827986,0.71173 1.524953,1.168348 2.570641,1.684173 1.06343,0.524578 1.929674,0.849834 3.066198,1.151281 7.221337,1.345821 15.394505,1.018307 22.901079,2.262671 1.2516,0.210714 1.57903,0.268195 1.6428,0.288444 0.0378,0.01201 0.31903,0.06989 0.62494,0.128735 2.19309,0.421582 4.89427,1.115392 7.0967,1.822811 2.58126,0.829125 4.98761,1.795277 7.22214,2.899719 2.82965,1.398581 5.06319,2.809078 7.26942,4.590654 1.20108,0.969908 2.57737,2.310895 3.70038,3.605485 1.74412,2.010564 3.08643,4.163064 4.18978,6.718604 0.46536,1.07787 0.98263,2.659953 1.0124,3.096473 0.0153,0.22429 0.0106,0.26954 -0.0269,0.25749 -0.0249,-0.008 -0.0691,-0.0647 -0.0979,-0.12604 -0.0288,-0.0613 -0.0891,-0.18445 -0.13381,-0.27372 -0.0447,-0.0893 -0.27055,-0.54207 -0.50179,-1.00623 -1.0961,-2.200123 -2.45045,-4.213993 -4.12992,-6.141023 -1.79666,-2.061515 -3.77314,-3.833177 -5.93843,-5.323077 -1.39131,-0.957326 -2.54011,-1.632386 -4.12609,-2.424575 -2.17632,-1.275224 -6.6275,-3.219576 -10.68877,-3.38143 -0.0326,0.03264 -0.0454,0.07338 -0.031,0.09862 2.16273,1.836748 4.86116,3.507261 7.02385,5.494214 5.24336,4.988058 7.8261,10.144268 10.20452,15.815821 0.47026,1.16211 1.09284,2.99093 1.41011,4.14221 0.39545,1.43493 0.77411,3.34066 0.9925,4.99502 0.076,0.57605 0.2123,2.28815 0.23277,2.92463 0.0185,0.57499 0.002,0.69107 -0.0808,0.58872 z M 113.71992,65.864539 c 0.95924,-0.326265 1.49245,-0.663561 1.89927,-1.201453 0.32085,-0.424247 0.5612,-1.026749 0.62266,-1.560886 0.0292,-0.254378 -0.004,-0.275098 -0.24093,-0.150812 -1.0052,0.526908 -2.16342,1.616539 -2.55043,2.399368 -0.1167,0.236061 -0.16794,0.446789 -0.13165,0.541375 0.027,0.07023 0.13539,0.06276 0.40108,-0.0276 z m 4.47228,-5.472438 c 1.23229,-0.489517 1.92586,-1.156482 2.20527,-2.120698 0.12243,-0.42245 0.17423,-1.060528 0.0861,-1.060528 -0.0614,0 -0.44805,0.264598 -0.78135,0.534583 -0.88352,0.71569 -1.61511,1.614812 -1.83993,2.261289 -0.0711,0.204517 -0.077,0.251372 -0.0448,0.35886 0.0205,0.06848 0.0578,0.123633 0.0835,0.123633 0.0257,0 0.15659,-0.04375 0.29108,-0.09714 z m -10.42374,-2.9874 c 0.21616,-0.08088 0.39062,-0.194638 0.40385,-0.263351 0.005,-0.03102 -0.22297,-0.273276 -0.58404,-0.61805 -0.9348,-0.892599 -1.48522,-1.400926 -1.58777,-1.466371 l -0.0945,-0.06036 0.0302,0.0793 c 0.0166,0.04359 0.1968,0.384789 0.4005,0.758204 0.20369,0.373415 0.47156,0.867028 0.59523,1.096925 0.12369,0.229904 0.26266,0.458942 0.30883,0.508979 0.0774,0.08388 0.0943,0.08864 0.21715,0.06108 0.0733,-0.01646 0.21305,-0.05981 0.31065,-0.09633 z m -3.7245,-1.727518 c -0.012,-0.07588 -0.035,-0.210983 -0.0511,-0.300248 -0.0709,-0.391025 -0.0219,-1.0318 0.11064,-1.444426 0.0745,-0.232029 0.0695,-0.327569 -0.0145,-0.275679 -0.0211,0.01313 -0.10896,0.131738 -0.19509,0.263684 -0.15281,0.234088 -0.23409,0.431223 -0.27259,0.661176 -0.0244,0.145801 -0.13326,0.324587 -0.19762,0.324587 -0.0633,0 -0.30658,-0.251969 -0.63382,-0.656404 -0.49941,-0.617183 -0.7773,-1.103948 -0.88534,-1.550809 -0.0374,-0.154781 -0.2496,-1.329787 -0.2496,-1.382258 0,-0.004 0.0717,-0.05273 0.15941,-0.109008 0.16119,-0.103439 0.22182,-0.185411 0.17314,-0.234088 -0.0643,-0.06426 -1.19294,-0.680352 -1.89059,-1.031982 -3.577955,-1.803373 -8.087522,-3.368459 -11.933455,-4.141608 -0.484626,-0.09742 -0.900911,-0.176383 -0.925083,-0.175453 -0.02418,7.96e-4 0.350428,0.137473 0.832444,0.303445 2.295071,0.790259 3.106899,1.151703 5.264113,2.343691 0.596424,0.329567 1.096686,0.59162 1.111695,0.582346 0.01503,-0.0093 0.03754,-0.09892 0.05003,-0.199218 0.03404,-0.27249 0.110009,-0.498465 0.196722,-0.585178 0.06093,-0.06093 0.111822,-0.07723 0.240937,-0.07723 0.158677,0 0.171252,0.0072 0.412301,0.235329 0.136741,0.129432 0.54388,0.571282 0.904737,0.981889 1.098539,1.249963 1.702137,1.788778 2.149554,1.918847 0.153358,0.04454 0.1923,0.04541 0.295245,0.0064 0.108864,-0.04128 0.119538,-0.05687 0.130093,-0.189849 0.0064,-0.0797 -0.01384,-0.342093 -0.04478,-0.583102 -0.05098,-0.397086 -0.05162,-0.449318 -0.0064,-0.556679 0.06967,-0.16559 0.210354,-0.196458 0.371769,-0.08161 0.213448,0.15187 0.825477,0.716963 1.077998,0.995338 0.57156,0.630061 0.68226,0.823163 0.71919,1.254418 0.0619,0.722198 0.52559,1.500795 1.47368,2.474317 0.46656,0.479066 0.84265,0.817237 1.29837,1.167443 0.31599,0.242845 0.35764,0.250712 0.32791,0.06196 z m 7.67196,-3.361357 c 0.35221,-0.174737 0.402,-0.228512 0.30828,-0.332986 -0.15861,-0.176812 -2.31767,-1.925568 -2.34437,-1.898866 -0.0285,0.02855 1.29907,2.129073 1.44234,2.281985 0.15907,0.169798 0.14868,0.170673 0.59375,-0.05011 z m -99.922161,3.264869 c -0.05767,-0.08238 -0.06522,-0.196856 -0.01862,-0.283934 0.03022,-0.05648 0.08592,-0.09621 0.56549,-0.403712 0.108801,-0.06976 0.636019,-0.377614 1.171587,-0.684106 9.669096,-5.533317 21.815578,-10.506566 35.623844,-14.585785 5.064334,-1.496102 10.384297,-2.870583 15.612821,-4.033771 2.307438,-0.513339 4.601717,-0.982231 5.063615,-1.034893 0.395407,-0.04509 1.323018,-0.08645 1.562874,-0.06967 l 0.164678,0.01154 -0.02275,0.134578 c -0.125829,0.743951 -0.06173,1.079673 0.404269,2.117382 0.125979,0.280538 0.221611,0.517522 0.212509,0.526621 -0.0091,0.009 -0.443888,0.09465 -0.966188,0.190104 -14.299348,2.613356 -26.226274,5.667863 -37.238892,9.536934 -5.044158,1.772163 -9.665706,3.577764 -16.034785,6.264653 -3.689466,1.556448 -5.766682,2.3863 -5.973218,2.3863 -0.04248,0 -0.09927,-0.03221 -0.127252,-0.07214 z M 1.4773284,36.726828 C 1.2390325,36.530402 1.2944228,36.493662 2.0888246,36.32124 15.132408,33.490179 27.873587,31.670962 42.076245,30.611739 c 2.014417,-0.15024 4.316362,-0.300066 4.98247,-0.324309 1.527974,-0.05559 2.162328,-0.08878 2.515579,-0.131524 1.326461,-0.1605 12.264475,-0.284889 16.326919,-0.185666 3.97008,0.09697 4.432432,0.118647 4.622156,0.216758 -0.399195,0.818692 -0.4635,0.972725 0.0092,2.880071 -0.627463,-0.0583 -1.427444,-0.09773 -2.748768,-0.135461 -1.212143,-0.0346 -2.010331,-0.07039 -2.872628,-0.128947 -1.483506,-0.100667 -12.017462,-0.127659 -14.687736,-0.03762 -0.571278,0.01924 -1.520708,0.05035 -2.109841,0.06912 -14.451474,0.460215 -28.327423,1.630561 -44.8465622,3.782526 -0.8860854,0.115433 -1.624039,0.209869 -1.6398989,0.209869 -0.015907,0 -0.083292,-0.04486 -0.1498418,-0.09974 z"
           id="path7454"
           sodipodi:nodetypes="cssccsccsssssssscccsssssssssssssssscsscssssscssssssssscsssssssssssssscscssssssssssssssssssssssssssssssssssssssssssssscssssssccsssssssssssssscccccsssccssssssssssssssssssscsssssssssssssssssssssssssssssssssssssssssssssssscsssscssssssssscssssccsssssss" />
        <path
           style="fill:#ffffff;fill-opacity:1;stroke-width:0.0324591"
           d="m 128.21349,116.82974 c -0.10191,-0.12516 -0.25423,-0.65539 -0.41249,-1.43596 -0.47481,-2.34191 -1.6584,-6.23784 -2.56136,-8.43105 C 123.0532,101.6521 120.00428,96.534057 116.73628,92.688652 112.359,87.813402 106.0254,83.969976 100.7785,82.30518 100.43037,82.197627 100.00678,82.073787 99.837181,82.029975 99.667582,81.986154 99.360852,81.905766 99.155549,81.851302 95.539972,80.812243 91.561186,80.743339 88.866017,80.695094 83.75651,80.604782 81.420677,80.52146 80.588948,80.399672 72.554859,79.223247 66.533029,73.785797 64.715227,66.066399 c -0.475513,-2.019303 -0.6564,-4.484775 -0.466337,-6.356177 0.203552,-2.004215 0.685006,-4.203736 1.298707,-5.933122 1.170875,-3.299461 2.936942,-5.858652 5.482151,-7.944123 0.693967,-0.56861 1.022903,-0.786304 2.505335,-1.658058 0.695943,-0.409254 1.543913,-0.924924 1.593035,-0.968757 0.0047,-0.004 -0.0498,-0.108458 -0.121098,-0.23171 -0.300381,-0.519335 -0.682488,-1.581677 -1.411549,-3.92443 -1.112272,-3.299944 -1.976667,-5.976216 -2.761531,-9.111891 L 70.77891,29.720022 70.368746,29.479634 C 63.144617,25.245634 52.591341,22.465947 38.37591,21.052868 32.962467,20.514745 28.153511,20.211084 18.835536,19.81901 17.017504,19.74249 16.78029,19.72954 16.125207,19.670807 c -0.570168,-0.05114 -1.347596,-0.09668 -2.483121,-0.145515 -0.795691,-0.03421 -2.096869,-0.117311 -2.272131,-0.145085 -0.05353,-0.0085 -0.732768,-0.0377 -1.5093453,-0.06498 -2.2687743,-0.07964 -2.499355,-0.114361 -2.499355,-0.376303 0,-0.326798 0.1180583,-0.3306 10.3869093,-0.334791 8.062952,-0.0032 9.109458,0.008 10.42232,0.108792 0.556099,0.04287 1.586465,0.09021 3.194263,0.146834 1.525197,0.05369 1.758609,0.06609 2.499347,0.132041 0.850786,0.0758 4.564676,0.34537 6.248373,0.453542 1.393482,0.08953 7.941481,0.848361 11.060792,1.281811 7.230208,1.004677 12.594737,2.25165 17.404015,4.045519 2.222269,0.828913 4.857308,1.998496 5.199942,2.30805 l 0.133313,0.120436 -0.01867,0.276554 c -0.01026,0.152109 -0.04146,0.459149 -0.06932,0.682301 -0.128554,1.029842 -0.128314,2.55414 7.17e-4,3.79771 0.345145,3.329326 1.440547,6.374288 2.933524,8.154515 0.668259,0.796829 1.469235,1.35738 2.290471,1.602955 0.360905,0.107916 0.798559,0.118391 1.525577,0.0365 2.019613,-0.227495 4.691382,-0.109413 7.270832,0.32135 2.722499,0.454647 5.411544,1.191265 9.499162,2.602134 l 0.735202,0.253766 0.01909,-0.115513 c 0.0105,-0.06355 0.01925,-0.178054 0.01949,-0.254498 3.59e-4,-0.164524 0.07628,-0.364125 0.138389,-0.364125 0.02418,0 0.244977,0.211618 0.490662,0.47026 0.769546,0.810142 1.414785,1.292064 2.388525,1.783959 0.88171,0.445413 1.26619,0.574885 1.3625,0.458847 0.0456,-0.05496 0.0459,-0.04598 -0.0303,-0.830433 -0.0397,-0.407975 -0.0234,-0.519336 0.0757,-0.519384 0.0492,-3.2e-5 0.33987,0.27183 0.96307,0.900737 l 0.89263,0.900776 0.24035,0.470658 c 0.30648,0.600163 0.43944,0.818582 0.70637,1.160428 0.45071,0.577207 0.77105,0.870878 1.58465,1.452769 0.51428,0.367809 0.91693,0.61965 0.94532,0.591263 0.009,-0.0097 -0.012,-0.124875 -0.0482,-0.255898 -0.15534,-0.560934 -0.16604,-1.130434 -0.0306,-1.624802 0.0382,-0.139208 0.0595,-0.26289 0.0476,-0.274837 -0.0424,-0.04239 -0.22183,0.171628 -0.33146,0.395504 -0.0715,0.146151 -0.1231,0.312926 -0.14445,0.467445 -0.0384,0.278009 -0.0898,0.403567 -0.1717,0.419332 -0.0766,0.01472 -0.47177,-0.340153 -0.84313,-0.75694 -0.3609,-0.405055 -0.64306,-0.828206 -0.76765,-1.151281 -0.10232,-0.265211 -0.29847,-1.011509 -0.36057,-1.371545 -0.0347,-0.20081 -0.0323,-0.226731 0.0288,-0.324594 0.11197,-0.179144 1.20462,-1.226262 1.27944,-1.226111 0.022,0 0.23715,0.175087 0.47816,0.388997 l 0.4382,0.388925 0.49281,3.57e-4 c 0.44057,3.58e-4 0.49473,0.0064 0.51084,0.05727 0.0103,0.03126 0.0683,0.330973 0.12978,0.666059 0.0737,0.401747 0.13464,0.646302 0.17898,0.718037 0.15141,0.244993 1.13032,1.129297 2.84235,2.567638 1.25065,1.050722 2.30878,1.959054 2.4142,2.072427 0.0424,0.04566 0.0696,0.102684 0.0603,0.126792 -0.009,0.0241 -0.11949,0.08412 -0.24499,0.133354 -0.48988,0.192195 -0.5104,0.350142 -0.10952,0.843333 0.43796,0.538815 1.35433,1.148377 2.32937,1.549512 1.60831,0.661645 2.50652,0.922784 3.89262,1.13173 1.08982,0.164286 1.49781,0.237557 1.56614,0.281255 0.14918,0.09541 0.0826,0.635406 -0.17375,1.408499 -0.60118,1.81322 -1.96804,3.264192 -3.50223,3.717766 -0.35392,0.104624 -1.01757,0.151353 -1.1061,0.07786 -0.0287,-0.02386 -0.15246,-0.24337 -0.2749,-0.487782 -0.4017,-0.801871 -0.70867,-1.195719 -1.71817,-2.204412 -1.51544,-1.514229 -2.4456,-2.262244 -3.71725,-2.989342 -0.56794,-0.324729 -1.80971,-0.920413 -2.75902,-1.323496 -0.24993,-0.106128 -0.79038,-0.352664 -1.20099,-0.547858 -0.4106,-0.195203 -0.77267,-0.364252 -0.8046,-0.375674 -0.12555,-0.04494 0.15358,0.242185 1.71982,1.768926 1.69674,1.653945 2.18462,2.149483 2.18462,2.21892 0,0.0241 -0.11163,0.07954 -0.25877,0.128533 -0.26357,0.08778 -0.42373,0.215063 -0.42215,0.335499 0.002,0.09586 0.12599,0.334267 0.29214,0.558404 0.32409,0.43715 0.87093,0.892552 1.56507,1.303303 0.46073,0.272632 1.542,0.800423 2.10511,1.027552 0.86419,0.348559 1.26964,0.466124 3.21042,0.930856 0.69688,0.166872 0.71411,0.175072 0.71411,0.339978 0,0.361206 -0.19965,0.984394 -0.52004,1.623244 -0.75946,1.51438 -2.05267,2.674537 -3.3642,3.018054 -0.50788,0.133027 -1.07166,0.1605 -1.28635,0.06267 -0.0823,-0.03746 -0.11009,-0.09056 -0.26262,-0.500851 -0.17722,-0.476711 -0.69777,-1.322773 -1.14939,-1.868078 -0.58733,-0.70916 -1.93399,-2.106604 -2.57086,-2.667784 -0.91081,-0.802563 -1.98159,-1.500039 -3.53412,-2.302037 -0.80037,-0.413455 -1.27314,-0.671142 -1.84233,-1.004207 -0.27025,-0.158138 -0.51857,-0.297751 -0.55181,-0.310246 -0.0938,-0.03523 -0.67074,-0.383764 -1.07361,-0.648489 -0.41041,-0.269698 -0.51082,-0.382301 -0.74185,-0.831897 -0.1821,-0.354373 -0.29307,-0.522541 -0.44076,-0.667961 -0.184959,-0.182109 -0.665464,-0.500102 -1.641985,-1.086632 -0.941769,-0.565658 -1.852447,-1.024012 -5.120951,-2.577421 -5.59853,-2.66081 -9.181272,-3.885305 -12.529202,-4.282176 -0.70629,-0.08372 -2.513961,-0.08376 -3.132301,0 -1.588746,0.215047 -2.919988,0.695624 -4.089845,1.476424 -0.618,0.412469 -0.919491,0.661541 -1.478179,1.221171 -0.929467,0.93104 -1.621812,1.91456 -2.254234,3.202289 -1.430453,2.91265 -1.904311,6.48106 -1.344424,10.124283 0.559189,3.638681 2.201063,6.948804 4.372593,8.815426 0.827986,0.71173 1.524953,1.168348 2.570641,1.684173 1.06343,0.524578 1.929674,0.849834 3.066198,1.151281 7.221337,1.345821 15.394505,1.018307 22.901079,2.262671 1.2516,0.210714 1.57903,0.268195 1.6428,0.288444 0.0378,0.01201 0.31903,0.06989 0.62494,0.128735 2.19309,0.421582 4.89427,1.115392 7.0967,1.822811 2.58126,0.829125 4.98761,1.795277 7.22214,2.899719 2.82965,1.398581 5.06319,2.809078 7.26942,4.590654 1.20108,0.969908 2.57737,2.310895 3.70038,3.605485 1.74412,2.010564 3.08643,4.163064 4.18978,6.718604 0.46536,1.07787 0.98263,2.659953 1.0124,3.096473 0.0153,0.22429 0.0106,0.26954 -0.0269,0.25749 -0.0249,-0.008 -0.0691,-0.0647 -0.0979,-0.12604 -0.0288,-0.0613 -0.0891,-0.18445 -0.13381,-0.27372 -0.0447,-0.0893 -0.27055,-0.54207 -0.50179,-1.00623 -1.0961,-2.200123 -2.45045,-4.213993 -4.12992,-6.141023 -1.79666,-2.061515 -3.77314,-3.833177 -5.93843,-5.323077 -1.39131,-0.957326 -2.54011,-1.632386 -4.12609,-2.424575 -2.17632,-1.275224 -6.6275,-3.219576 -10.68877,-3.38143 -0.0326,0.03264 -0.0454,0.07338 -0.031,0.09862 2.16273,1.836748 4.86116,3.507261 7.02385,5.494214 5.24336,4.988058 7.8261,10.144268 10.20452,15.815821 0.47026,1.16211 1.09284,2.99093 1.41011,4.14221 0.39545,1.43493 0.77411,3.34066 0.9925,4.99502 0.076,0.57605 0.2123,2.28815 0.23277,2.92463 0.0185,0.57499 0.002,0.69107 -0.0808,0.58872 z M 113.71992,65.864539 c 0.95924,-0.326265 1.49245,-0.663561 1.89927,-1.201453 0.32085,-0.424247 0.5612,-1.026749 0.62266,-1.560886 0.0292,-0.254378 -0.004,-0.275098 -0.24093,-0.150812 -1.0052,0.526908 -2.16342,1.616539 -2.55043,2.399368 -0.1167,0.236061 -0.16794,0.446789 -0.13165,0.541375 0.027,0.07023 0.13539,0.06276 0.40108,-0.0276 z m 4.47228,-5.472438 c 1.23229,-0.489517 1.92586,-1.156482 2.20527,-2.120698 0.12243,-0.42245 0.17423,-1.060528 0.0861,-1.060528 -0.0614,0 -0.44805,0.264598 -0.78135,0.534583 -0.88352,0.71569 -1.61511,1.614812 -1.83993,2.261289 -0.0711,0.204517 -0.077,0.251372 -0.0448,0.35886 0.0205,0.06848 0.0578,0.123633 0.0835,0.123633 0.0257,0 0.15659,-0.04375 0.29108,-0.09714 z m -10.42374,-2.9874 c 0.21616,-0.08088 0.39062,-0.194638 0.40385,-0.263351 0.005,-0.03102 -0.22297,-0.273276 -0.58404,-0.61805 -0.9348,-0.892599 -1.48522,-1.400926 -1.58777,-1.466371 l -0.0945,-0.06036 0.0302,0.0793 c 0.0166,0.04359 0.1968,0.384789 0.4005,0.758204 0.20369,0.373415 0.47156,0.867028 0.59523,1.096925 0.12369,0.229904 0.26266,0.458942 0.30883,0.508979 0.0774,0.08388 0.0943,0.08864 0.21715,0.06108 0.0733,-0.01646 0.21305,-0.05981 0.31065,-0.09633 z m -3.7245,-1.727518 c -0.012,-0.07588 -0.035,-0.210983 -0.0511,-0.300248 -0.0709,-0.391025 -0.0219,-1.0318 0.11064,-1.444426 0.0745,-0.232029 0.0695,-0.327569 -0.0145,-0.275679 -0.0211,0.01313 -0.10896,0.131738 -0.19509,0.263684 -0.15281,0.234088 -0.23409,0.431223 -0.27259,0.661176 -0.0244,0.145801 -0.13326,0.324587 -0.19762,0.324587 -0.0633,0 -0.30658,-0.251969 -0.63382,-0.656404 -0.49941,-0.617183 -0.7773,-1.103948 -0.88534,-1.550809 -0.0374,-0.154781 -0.2496,-1.329787 -0.2496,-1.382258 0,-0.004 0.0717,-0.05273 0.15941,-0.109008 0.16119,-0.103439 0.22182,-0.185411 0.17314,-0.234088 -0.0643,-0.06426 -1.19294,-0.680352 -1.89059,-1.031982 -3.577955,-1.803373 -8.087522,-3.368459 -11.933455,-4.141608 -0.484626,-0.09742 -0.900911,-0.176383 -0.925083,-0.175453 -0.02418,7.96e-4 0.350428,0.137473 0.832444,0.303445 2.295071,0.790259 3.106899,1.151703 5.264113,2.343691 0.596424,0.329567 1.096686,0.59162 1.111695,0.582346 0.01503,-0.0093 0.03754,-0.09892 0.05003,-0.199218 0.03404,-0.27249 0.110009,-0.498465 0.196722,-0.585178 0.06093,-0.06093 0.111822,-0.07723 0.240937,-0.07723 0.158677,0 0.171252,0.0072 0.412301,0.235329 0.136741,0.129432 0.54388,0.571282 0.904737,0.981889 1.098539,1.249963 1.702137,1.788778 2.149554,1.918847 0.153358,0.04454 0.1923,0.04541 0.295245,0.0064 0.108864,-0.04128 0.119538,-0.05687 0.130093,-0.189849 0.0064,-0.0797 -0.01384,-0.342093 -0.04478,-0.583102 -0.05098,-0.397086 -0.05162,-0.449318 -0.0064,-0.556679 0.06967,-0.16559 0.210354,-0.196458 0.371769,-0.08161 0.213448,0.15187 0.825477,0.716963 1.077998,0.995338 0.57156,0.630061 0.68226,0.823163 0.71919,1.254418 0.0619,0.722198 0.52559,1.500795 1.47368,2.474317 0.46656,0.479066 0.84265,0.817237 1.29837,1.167443 0.31599,0.242845 0.35764,0.250712 0.32791,0.06196 z m 7.67196,-3.361357 c 0.35221,-0.174737 0.402,-0.228512 0.30828,-0.332986 -0.15861,-0.176812 -2.31767,-1.925568 -2.34437,-1.898866 -0.0285,0.02855 1.29907,2.129073 1.44234,2.281985 0.15907,0.169798 0.14868,0.170673 0.59375,-0.05011 z m -99.922161,3.264869 c -0.05767,-0.08238 -0.06522,-0.196856 -0.01862,-0.283934 0.03022,-0.05648 0.08592,-0.09621 0.56549,-0.403712 0.108801,-0.06976 0.636019,-0.377614 1.171587,-0.684106 9.669096,-5.533317 21.815578,-10.506566 35.623844,-14.585785 5.064334,-1.496102 10.384297,-2.870583 15.612821,-4.033771 2.307438,-0.513339 4.601717,-0.982231 5.063615,-1.034893 0.395407,-0.04509 1.323018,-0.08645 1.562874,-0.06967 l 0.164678,0.01154 -0.02275,0.134578 c -0.125829,0.743951 -0.06173,1.079673 0.404269,2.117382 0.125979,0.280538 0.221611,0.517522 0.212509,0.526621 -0.0091,0.009 -0.443888,0.09465 -0.966188,0.190104 -14.299348,2.613356 -26.226274,5.667863 -37.238892,9.536934 -5.044158,1.772163 -9.665706,3.577764 -16.034785,6.264653 -3.689466,1.556448 -5.766682,2.3863 -5.973218,2.3863 -0.04248,0 -0.09927,-0.03221 -0.127252,-0.07214 z M 1.4773284,36.726828 C 1.2390325,36.530402 1.2944228,36.493662 2.0888246,36.32124 15.132408,33.490179 27.873587,31.670962 42.076245,30.611739 c 2.014417,-0.15024 4.316362,-0.300066 4.98247,-0.324309 1.527974,-0.05559 2.162328,-0.08878 2.515579,-0.131524 1.326461,-0.1605 12.264475,-0.284889 16.326919,-0.185666 3.97008,0.09697 4.432432,0.118647 4.622156,0.216758 -0.399195,0.818692 -0.4635,0.972725 0.0092,2.880071 -0.627463,-0.0583 -1.427444,-0.09773 -2.748768,-0.135461 -1.212143,-0.0346 -2.010331,-0.07039 -2.872628,-0.128947 -1.483506,-0.100667 -12.017462,-0.127659 -14.687736,-0.03762 -0.571278,0.01924 -1.520708,0.05035 -2.109841,0.06912 -14.451474,0.460215 -28.327423,1.630561 -44.8465622,3.782526 -0.8860854,0.115433 -1.624039,0.209869 -1.6398989,0.209869 -0.015907,0 -0.083292,-0.04486 -0.1498418,-0.09974 z"
           id="path293"
           sodipodi:nodetypes="cssccsccsssssssscccsssssssssssssssscsscssssscssssssssscsssssssssssssscscssssssssssssssssssssssssssssssssssssssssssssscssssssccsssssssssssssscccccsssccssssssssssssssssssscsssssssssssssssssssssssssssssssssssssssssssssssscsssscssssssssscssssccsssssss" />
      </g>
    </g>
  </g>
</svg>
