<?xml version="1.0" encoding="UTF-8" standalone="no"?>
<svg
   version="1.1"
   id="Layer_1"
   x="0px"
   y="0px"
   viewBox="0 0 512.00001 512.00001"
   xml:space="preserve"
   sodipodi:docname="docker-icon.svg"
   width="512"
   height="512"
   inkscape:export-filename="nethydra-sonar-docker-icon.svg"
   inkscape:export-xdpi="96"
   inkscape:export-ydpi="96"
   xmlns:inkscape="http://www.inkscape.org/namespaces/inkscape"
   xmlns:sodipodi="http://sodipodi.sourceforge.net/DTD/sodipodi-0.dtd"
   xmlns="http://www.w3.org/2000/svg"
   xmlns:svg="http://www.w3.org/2000/svg"><defs
     id="defs11" /><sodipodi:namedview
     id="namedview9"
     pagecolor="#ffffff"
     bordercolor="#000000"
     borderopacity="0.25"
     inkscape:showpageshadow="2"
     inkscape:pageopacity="0.0"
     inkscape:pagecheckerboard="0"
     inkscape:deskcolor="#d1d1d1"
     showgrid="false" /><style
     type="text/css"
     id="style2">.st0{fill:#0091E2;}</style><g
     id="g6"
     transform="matrix(3.9066194,0,0,3.9066194,16.069078,83.796217)"><path
       class="st0"
       d="m 121.68,33.34 c -0.34,-0.28 -3.42,-2.62 -10.03,-2.62 -1.71,0 -3.48,0.17 -5.19,0.46 -1.25,-8.72 -8.49,-12.94 -8.78,-13.16 l -1.77,-1.03 -1.14,1.65 c -1.42,2.22 -2.51,4.73 -3.13,7.29 -1.2,4.96 -0.46,9.63 2.05,13.62 -3.02,1.71 -7.92,2.11 -8.95,2.17 H 3.81 c -2.11,0 -3.82,1.71 -3.82,3.82 -0.11,7.07 1.08,14.13 3.53,20.8 2.79,7.29 6.95,12.71 12.31,16.01 6.04,3.7 15.9,5.81 27.01,5.81 5.01,0 10.03,-0.46 14.99,-1.37 6.9,-1.25 13.51,-3.65 19.6,-7.12 5.02,-2.91 9.52,-6.61 13.34,-10.94 6.44,-7.24 10.26,-15.33 13.05,-22.51 0.4,0 0.74,0 1.14,0 7.01,0 11.34,-2.79 13.73,-5.19 1.6,-1.48 2.79,-3.31 3.65,-5.36 l 0.51,-1.48 z m -50.09,6.04 h 10.83 c 0.51,0 0.97,-0.4 0.97,-0.97 v -9.69 c 0,-0.51 -0.4,-0.97 -0.97,-0.97 v 0 H 71.59 c -0.51,0 -0.97,0.4 -0.97,0.97 v 0 9.69 c 0.06,0.57 0.46,0.97 0.97,0.97 z M 56.49,11.63 h 10.83 c 0.51,0 0.97,-0.4 0.97,-0.97 V 0.97 C 68.29,0.46 67.83,0 67.32,0 H 56.49 c -0.51,0 -0.97,0.4 -0.97,0.97 v 0 9.69 c 0,0.51 0.45,0.97 0.97,0.97 z m 0,13.9 h 10.83 c 0.51,0 0.97,-0.46 0.97,-0.97 v -9.69 c 0,-0.51 -0.46,-0.97 -0.97,-0.97 H 56.49 c -0.51,0 -0.97,0.4 -0.97,0.97 v 0 9.69 c 0,0.52 0.45,0.97 0.97,0.97 z m -14.99,0 h 10.83 c 0.51,0 0.97,-0.46 0.97,-0.97 v -9.69 c 0,-0.51 -0.4,-0.97 -0.97,-0.97 v 0 H 41.5 c -0.51,0 -0.97,0.4 -0.97,0.97 v 0 9.69 c 0,0.52 0.4,0.97 0.97,0.97 z m -15.22,0 h 10.83 c 0.51,0 0.97,-0.46 0.97,-0.97 v -9.69 c 0,-0.51 -0.4,-0.97 -0.97,-0.97 v 0 H 26.28 c -0.51,0 -0.97,0.4 -0.97,0.97 v 9.69 c 0.06,0.52 0.46,0.97 0.97,0.97 z m 30.21,13.85 h 10.83 c 0.51,0 0.97,-0.4 0.97,-0.97 v -9.69 c 0,-0.51 -0.4,-0.97 -0.97,-0.97 v 0 H 56.49 c -0.51,0 -0.97,0.4 -0.97,0.97 v 0 9.69 c 0,0.57 0.45,0.97 0.97,0.97 z m -14.99,0 h 10.83 c 0.51,0 0.97,-0.4 0.97,-0.97 v 0 -9.69 c 0,-0.51 -0.4,-0.97 -0.97,-0.97 v 0 H 41.5 c -0.51,0 -0.97,0.4 -0.97,0.97 v 0 9.69 c 0,0.57 0.4,0.97 0.97,0.97 z m -15.22,0 h 10.83 c 0.51,0 0.97,-0.4 0.97,-0.97 v 0 -9.69 c 0,-0.51 -0.4,-0.97 -0.97,-0.97 v 0 H 26.28 c -0.51,0 -0.97,0.4 -0.97,0.97 v 9.69 c 0.06,0.57 0.46,0.97 0.97,0.97 z m -14.93,0 h 10.83 c 0.51,0 0.97,-0.4 0.97,-0.97 v 0 -9.69 c 0,-0.51 -0.4,-0.97 -0.97,-0.97 v 0 H 11.35 c -0.51,0 -0.97,0.4 -0.97,0.97 v 0 9.69 c 0.06,0.57 0.46,0.97 0.97,0.97 z"
       id="path4" /></g><path
     style="fill:#000000;stroke:#ffffff;stroke-width:8.323;stroke-dasharray:none;stroke-opacity:1"
     d="m 485.31513,442.15201 c -0.38644,-0.47453 -0.96392,-2.48495 -1.56398,-5.44454 -1.8003,-8.87955 -6.288,-23.65134 -9.71164,-31.96709 -8.29007,-20.13575 -19.8503,-39.54123 -32.24122,-54.12143 -16.59684,-18.48489 -40.61129,-33.0576 -60.50534,-39.36979 -1.31995,-0.40785 -2.92603,-0.87738 -3.56908,-1.04348 -0.64304,-0.16611 -1.80606,-0.47095 -2.58447,-0.67751 -13.70875,-3.93964 -28.79471,-4.20089 -39.01367,-4.38385 -19.37317,-0.34224 -28.22963,-0.65834 -31.38322,-1.12011 -30.46197,-4.46054 -53.29426,-25.07712 -60.18662,-54.34589 -1.80296,-7.65634 -2.4888,-17.00438 -1.76815,-24.09995 0.77176,-7.59918 2.59726,-15.93886 4.92415,-22.49599 4.43948,-12.51019 11.1357,-22.2136 20.78607,-30.12082 2.63123,-2.15593 3.87841,-2.98137 9.4992,-6.28665 2.63872,-1.55173 5.85387,-3.50695 6.04011,-3.67317 0.0176,-0.0157 -0.18885,-0.41118 -0.45913,-0.87853 -1.13892,-1.96909 -2.5877,-5.99709 -5.35204,-14.87983 -4.21726,-12.51203 -7.49469,-22.65935 -10.47057,-34.54854 l -0.20862,-0.82697 -1.55516,-0.91145 C 238.60082,94.902857 198.58714,84.363408 144.68807,79.005605 124.16253,76.965255 105.92894,75.813915 70.599055,74.3273 63.705811,74.037234 62.806384,73.988064 60.322593,73.765379 58.160735,73.571586 55.21305,73.39884 50.907634,73.213646 47.890681,73.083879 42.95715,72.76885 42.292592,72.663558 c -0.203054,-0.03229 -2.77831,-0.143091 -5.722814,-0.246466 -8.602196,-0.301969 -9.476498,-0.433577 -9.476498,-1.426763 0,-1.239079 0.44764,-1.253522 39.382897,-1.269386 30.571374,-0.01271 34.539333,0.02879 39.517113,0.412486 2.1085,0.162452 6.01523,0.342039 12.11134,0.556733 5.78294,0.203668 6.66791,0.250459 9.4765,0.500649 3.22584,0.287375 17.3074,1.309488 23.69128,1.71967 5.2835,0.339423 30.11077,3.216623 41.93793,4.860083 27.41397,3.809303 47.75403,8.537316 65.98885,15.338946 8.42592,3.142867 18.41691,7.57747 19.71606,8.75117 l 0.50545,0.45663 -0.0709,1.04862 c -0.0389,0.5767 -0.15718,1.74083 -0.26282,2.58697 -0.48744,3.90473 -0.48651,9.68424 0.004,14.39935 1.30865,12.62343 5.46198,24.16867 11.12273,30.91856 2.53374,3.0212 5.57073,5.1466 8.68452,6.07771 1.36837,0.40919 3.02781,0.44891 5.78435,0.13837 7.65753,-0.86258 17.78779,-0.41487 27.568,1.21842 10.3226,1.72386 20.51832,4.51681 36.01687,9.86623 l 2.78762,0.96217 0.0724,-0.43796 c 0.0399,-0.24085 0.0731,-0.67509 0.0738,-0.96496 0,-0.6238 0.2892,-1.38059 0.52468,-1.38059 0.0917,0 0.92885,0.80235 1.86038,1.78302 2.9178,3.07175 5.36429,4.89898 9.05629,6.76402 3.34309,1.68882 4.80089,2.17975 5.16604,1.73976 0.17287,-0.20825 0.17409,-0.17425 -0.11497,-3.14867 -0.15031,-1.54685 -0.0888,-1.96909 0.28719,-1.96929 0.1865,-1.1e-4 1.28863,1.03069 3.65157,3.41523 l 3.3845,3.4154 0.91129,1.78453 c 1.16209,2.27555 1.66619,3.10372 2.67829,4.39983 1.70891,2.18856 2.92351,3.30206 6.00833,5.50833 1.94994,1.39456 3.47666,2.34945 3.58433,2.24182 0.0369,-0.0368 -0.0456,-0.47344 -0.18316,-0.97026 -0.58897,-2.12681 -0.62956,-4.28614 -0.11586,-6.16057 0.14467,-0.52781 0.22591,-0.99677 0.18062,-1.04206 -0.16091,-0.16091 -0.8411,0.65073 -1.25678,1.49961 -0.27132,0.5541 -0.46673,1.18644 -0.54767,1.77233 -0.14563,1.05407 -0.34053,1.53014 -0.65099,1.58994 -0.28999,0.0558 -1.78878,-1.28974 -3.1968,-2.87 -1.36842,-1.53579 -2.43821,-3.14022 -2.91062,-4.3652 -0.38779,-1.00556 -1.13167,-3.8352 -1.36714,-5.20035 -0.13134,-0.76136 -0.12259,-0.85966 0.10932,-1.23069 0.42451,-0.67928 4.56737,-4.6495 4.85109,-4.64892 0.0834,0 0.89919,0.66386 1.81298,1.47489 l 1.66147,1.47467 1.86853,0.004 c 1.6705,0 1.87582,0.0246 1.93689,0.2173 0.0376,0.11844 0.259,1.25491 0.49205,2.52541 0.27942,1.52326 0.51057,2.45049 0.67866,2.7225 0.57409,0.92893 4.28571,4.2818 10.77703,9.73544 4.74197,3.9839 8.75394,7.42794 9.1536,7.85779 0.16088,0.17297 0.26379,0.38932 0.22872,0.48071 -0.035,0.0914 -0.4531,0.31895 -0.92889,0.50563 -1.85742,0.72876 -1.9352,1.32759 -0.41525,3.19757 1.66055,2.04297 5.135,4.35421 8.83199,5.87514 6.09804,2.50869 9.50366,3.4988 14.75916,4.29104 4.13218,0.62289 5.67915,0.9007 5.93822,1.06642 0.56563,0.36173 0.31306,2.40919 -0.6588,5.3404 -2.27945,6.875 -7.46197,12.37648 -13.27905,14.09626 -1.34183,0.39669 -3.85818,0.57386 -4.19384,0.29529 -0.10901,-0.0904 -0.57804,-0.92273 -1.04231,-1.84944 -1.52307,-3.04037 -2.68697,-4.53367 -6.51461,-8.35823 -5.7459,-5.74134 -9.27267,-8.5775 -14.09422,-11.33434 -2.1534,-1.23128 -6.8617,-3.48987 -10.46108,-5.01816 -0.94767,-0.40238 -2.99682,-1.33714 -4.55365,-2.07727 -1.55683,-0.74011 -2.92968,-1.38109 -3.05072,-1.42439 -0.4761,-0.17031 0.58228,0.91825 6.52086,6.70703 6.43332,6.27105 8.28318,8.14999 8.28318,8.41324 0,0.0913 -0.42329,0.30155 -0.98121,0.48736 -0.99933,0.33281 -1.60658,0.81541 -1.60058,1.27203 0.005,0.36351 0.47764,1.26739 1.10767,2.11726 1.22877,1.65748 3.30223,3.38418 5.93411,4.94159 1.74688,1.03372 5.84659,3.03488 7.98171,3.89605 3.27662,1.32158 4.81395,1.76733 12.17258,3.52942 2.64225,0.63271 2.70759,0.66378 2.70759,1.28909 0,1.36953 -0.75698,3.73237 -1.97174,6.15467 -2.87958,5.74187 -7.7829,10.14071 -12.75565,11.4432 -1.9257,0.50437 -4.06331,0.60856 -4.87729,0.23767 -0.31196,-0.14213 -0.41744,-0.34334 -0.99576,-1.89903 -0.67198,-1.80752 -2.64572,-5.01542 -4.35805,-7.08297 -2.2269,-2.68889 -7.33293,-7.98741 -9.74767,-10.11517 -3.4534,-3.04298 -7.51332,-5.6875 -13.39993,-8.72839 -3.0347,-1.56763 -4.82723,-2.54468 -6.98537,-3.80754 -1.02468,-0.59956 -1.96617,-1.1289 -2.09221,-1.17631 -0.35563,-0.13371 -2.54319,-1.45506 -4.07067,-2.45883 -1.55611,-1.02257 -1.93682,-1.4495 -2.81282,-3.15419 -0.69045,-1.34365 -1.11115,-1.98128 -1.67114,-2.53263 -0.7013,-0.69047 -2.52319,-1.89618 -6.22574,-4.12004 -3.5708,-2.14476 -7.0237,-3.88263 -19.41654,-9.77254 -21.22728,-10.08856 -34.81155,-14.73132 -47.50552,-16.23612 -2.67794,-0.31744 -9.53189,-0.31759 -11.8764,0 -6.02387,0.81538 -11.07137,2.63755 -15.50702,5.59798 -2.3432,1.56393 -3.48633,2.50831 -5.60461,4.63021 -3.52416,3.53011 -6.14925,7.25918 -8.54711,12.14173 -5.42372,11.04359 -7.22039,24.57352 -5.09752,38.3871 2.12021,13.79639 8.34552,26.34699 16.57906,33.42448 3.13937,2.69857 5.78201,4.42988 9.74682,6.38569 4.03207,1.98899 7.31653,3.22222 11.62575,4.36519 27.38034,5.10278 58.36963,3.86101 86.83143,8.57912 4.74553,0.79892 5.98702,1.01687 6.22884,1.09364 0.14332,0.0454 1.20962,0.26517 2.36947,0.48811 8.31533,1.59845 18.55712,4.22911 26.90778,6.91138 9.78711,3.14368 18.91098,6.80693 27.38342,10.99451 10.72883,5.30286 19.19754,10.65084 27.56261,17.40591 4.55399,3.67743 9.77233,8.76193 14.03038,13.67045 6.61295,7.62322 11.70243,15.78463 15.88585,25.47416 1.76446,4.08685 3.72576,10.08548 3.83866,11.74058 0.058,0.85044 0.0401,1.022 -0.10184,0.97628 -0.0947,-0.0304 -0.26172,-0.24557 -0.37112,-0.4779 -0.10936,-0.23237 -0.33765,-0.69936 -0.50732,-1.03782 -0.16965,-0.33844 -1.02584,-2.0553 -1.9026,-3.81519 -4.15596,-8.34198 -9.29108,-15.97773 -15.65894,-23.28427 -6.8122,-7.81637 -14.30615,-14.53376 -22.51608,-20.18287 -5.27529,-3.62979 -9.63104,-6.18935 -15.64444,-9.193 -8.25168,-4.83507 -25.12876,-12.20726 -40.52737,-12.82096 -0.12361,0.12358 -0.17232,0.27823 -0.11774,0.37385 8.20024,6.96412 18.43153,13.29801 26.63159,20.83174 19.88068,18.9127 29.67328,38.46292 38.69132,59.9671 1.78302,4.40622 4.14355,11.34034 5.34656,15.70553 1.49936,5.44066 2.93509,12.66646 3.76312,18.93911 0.28831,2.18414 0.80497,8.67569 0.88256,11.08896 0.0702,2.18014 0.01,2.62029 -0.3063,2.2322 z M 430.3615,248.91296 c 3.63706,-1.23704 5.65878,-2.51595 7.20121,-4.55542 1.21656,-1.60853 2.12789,-3.89297 2.36087,-5.91822 0.11102,-0.96451 -0.0146,-1.04307 -0.91347,-0.57179 -3.81132,1.99782 -8.20283,6.12923 -9.67018,9.09739 -0.44246,0.89504 -0.63676,1.69405 -0.49916,2.05268 0.10223,0.26629 0.51332,0.23802 1.52073,-0.10464 z m 16.95706,-20.7492 c 4.67231,-1.85607 7.30204,-4.38493 8.3615,-8.0408 0.46415,-1.60179 0.66056,-4.0211 0.32644,-4.0211 -0.23244,0 -1.69882,1.00326 -2.96256,2.02691 -3.34995,2.71359 -6.12381,6.1227 -6.97625,8.57389 -0.26967,0.77543 -0.29184,0.95308 -0.16973,1.36065 0.0778,0.25972 0.21916,0.46878 0.31693,0.46878 0.0971,0 0.59369,-0.16577 1.10367,-0.36833 z m -39.52254,-11.32701 c 0.8196,-0.30665 1.48106,-0.73796 1.53122,-0.99851 0.0227,-0.1176 -0.84538,-1.03618 -2.21445,-2.3434 -3.54436,-3.38435 -5.63131,-5.31171 -6.02017,-5.55988 l -0.35848,-0.2287 0.11428,0.30055 c 0.0629,0.16529 0.74619,1.4589 1.51854,2.87477 0.77235,1.41581 1.78793,3.28742 2.25689,4.1591 0.46895,0.87169 0.99588,1.74011 1.17093,1.92983 0.29344,0.31799 0.35778,0.33609 0.82333,0.23149 0.27777,-0.0625 0.80784,-0.22679 1.17791,-0.36525 z m -14.12176,-6.55001 c -0.0454,-0.28768 -0.13261,-0.79997 -0.194,-1.13843 -0.26892,-1.48262 -0.0828,-3.91218 0.41952,-5.47666 0.28246,-0.87975 0.26344,-1.24204 -0.0549,-1.04528 -0.0803,0.0497 -0.41311,0.49949 -0.73969,0.99976 -0.57941,0.88759 -0.8876,1.63505 -1.03361,2.50693 -0.0926,0.55285 -0.50526,1.23074 -0.74923,1.23074 -0.23993,0 -1.16244,-0.95539 -2.40324,-2.48884 -1.89354,-2.34013 -2.94715,-4.18572 -3.35683,-5.88004 -0.1419,-0.58689 -0.94636,-5.042 -0.94636,-5.24095 0,-0.0138 0.27197,-0.20003 0.6044,-0.41334 0.61116,-0.39216 0.84103,-0.70297 0.6565,-0.88755 -0.24366,-0.24362 -4.52315,-2.57959 -7.16833,-3.91283 -13.56615,-6.83767 -30.66458,-12.77179 -45.24677,-15.7033 -1.83749,-0.36939 -3.41587,-0.66875 -3.50753,-0.66521 -0.0917,0.004 1.32869,0.52123 3.1563,1.15053 8.70194,2.99635 11.78003,4.36677 19.95931,8.88631 2.26141,1.24956 4.15821,2.24317 4.21511,2.20802 0.0569,-0.035 0.14231,-0.37507 0.18983,-0.75537 0.12907,-1.03318 0.41714,-1.88996 0.74588,-2.21874 0.23106,-0.23106 0.42398,-0.29295 0.91353,-0.29295 0.60163,0 0.64934,0.0273 1.56328,0.89228 0.51847,0.49073 2.06216,2.16608 3.4304,3.72292 4.16521,4.73934 6.45378,6.7823 8.15022,7.27546 0.58148,0.16905 0.7291,0.17224 1.11946,0.0242 0.41276,-0.15647 0.45324,-0.2155 0.49322,-0.71984 0.0239,-0.30216 -0.0524,-1.29709 -0.16974,-2.21087 -0.19333,-1.5056 -0.19565,-1.70362 -0.0241,-2.11069 0.26428,-0.62783 0.79758,-0.74492 1.4096,-0.30946 0.80929,0.57582 3.12984,2.71844 4.0873,3.77392 2.16711,2.38892 2.58687,3.1211 2.72689,4.75622 0.23452,2.73828 1.99279,5.69043 5.58756,9.38157 1.76899,1.81645 3.19495,3.09865 4.92284,4.42647 1.1982,0.92081 1.35605,0.95062 1.24335,0.23494 z m 29.08888,-12.74487 c 1.33544,-0.66255 1.52425,-0.86646 1.16888,-1.26258 -0.60141,-0.67039 -8.78766,-7.30097 -8.88891,-7.1997 -0.10825,0.10827 4.92561,8.07254 5.46878,8.65236 0.60317,0.64378 0.56372,0.64712 2.25125,-0.19008 z M 43.899528,209.92089 c -0.218772,-0.31234 -0.247196,-0.74638 -0.07053,-1.07659 0.114507,-0.21397 0.325788,-0.36477 2.144104,-1.53071 0.412526,-0.26453 2.411507,-1.43173 4.442177,-2.59382 36.661236,-20.98009 82.715681,-39.8366 135.070941,-55.30331 19.20187,-5.67262 39.37297,-10.88407 59.19738,-15.29439 8.74883,-1.94636 17.44779,-3.72422 19.19914,-3.92385 1.49921,-0.17091 5.01633,-0.32783 5.92577,-0.26437 l 0.62438,0.0435 -0.0863,0.5103 c -0.47711,2.82072 -0.23406,4.09368 1.53282,8.02822 0.47767,1.06371 0.84026,1.96225 0.80573,1.99675 -0.0345,0.0345 -1.68302,0.35886 -3.66337,0.72079 -54.21724,9.90877 -99.43923,21.49019 -141.19452,36.16009 -19.12541,6.71935 -36.648361,13.56542 -60.797293,23.753 -13.988933,5.90145 -21.864887,9.04788 -22.647988,9.04788 -0.161067,0 -0.376375,-0.12207 -0.482474,-0.27355 z M 4.7838787,138.43479 C 3.8803431,137.69003 4.0903515,137.5507 7.1023768,136.89697 56.558263,126.16276 104.86761,119.26502 158.71822,115.2489 c 7.63784,-0.56964 16.36586,-1.13775 18.89146,-1.22967 5.79347,-0.21085 8.19867,-0.33658 9.53804,-0.49869 5.02941,-0.60855 46.50182,-1.08016 61.90496,-0.70393 15.05288,0.36766 16.80594,0.44986 17.52532,0.82186 -1.51363,3.10414 -1.7574,3.68815 0.035,10.92002 -2.37904,-0.22112 -5.41228,-0.37058 -10.42217,-0.5136 -4.59594,-0.13118 -7.62238,-0.26705 -10.89181,-0.48893 -5.62487,-0.38171 -45.5653,-0.48402 -55.68984,-0.14263 -2.16607,0.073 -5.76592,0.19099 -7.99965,0.26209 -54.79405,1.745 -107.405939,6.18245 -170.039688,14.34182 -3.3596752,0.43764 -6.1576917,0.79573 -6.2178499,0.79573 -0.060174,0 -0.3157623,-0.17017 -0.5681034,-0.37818 z"
     id="path997"
     sodipodi:nodetypes="cssccsccsssssssscccsssssssssssssssscsscssssscssssssssscsssssssssssssscscssssssssssssssssssssssssssssssssssssssssssssscssssssccsssssssssssssscccccsssccssssssssssssssssssscsssssssssssssssssssssssssssssssssssssssssssssssscsssscssssssssscssssccsssssss" /><path
     style="fill:#008fc7;fill-opacity:1;stroke:none;stroke-width:0.123072;stroke-opacity:1"
     d="m 485.31513,442.15201 c -0.38644,-0.47453 -0.96392,-2.48495 -1.56398,-5.44454 -1.8003,-8.87955 -6.288,-23.65134 -9.71164,-31.96709 -8.29007,-20.13575 -19.8503,-39.54123 -32.24122,-54.12143 -16.59684,-18.48489 -40.61129,-33.0576 -60.50534,-39.36979 -1.31995,-0.40785 -2.92603,-0.87738 -3.56908,-1.04348 -0.64304,-0.16611 -1.80606,-0.47095 -2.58447,-0.67751 -13.70875,-3.93964 -28.79471,-4.20089 -39.01367,-4.38385 -19.37317,-0.34224 -28.22963,-0.65834 -31.38322,-1.12011 -30.46197,-4.46054 -53.29426,-25.07712 -60.18662,-54.34589 -1.80296,-7.65634 -2.4888,-17.00438 -1.76815,-24.09995 0.77176,-7.59918 2.59726,-15.93886 4.92415,-22.49599 4.43948,-12.51019 11.1357,-22.2136 20.78607,-30.12082 2.63123,-2.15593 3.87841,-2.98137 9.4992,-6.28665 2.63872,-1.55173 5.85387,-3.50695 6.04011,-3.67317 0.0176,-0.0157 -0.18885,-0.41118 -0.45913,-0.87853 -1.13892,-1.96909 -2.5877,-5.99709 -5.35204,-14.87983 -4.21726,-12.51203 -7.49469,-22.65935 -10.47057,-34.54854 l -0.20862,-0.82697 -1.55516,-0.91145 C 238.60082,94.902857 198.58714,84.363408 144.68807,79.005605 124.16253,76.965255 105.92894,75.813915 70.599055,74.3273 63.705811,74.037234 62.806384,73.988064 60.322593,73.765379 58.160735,73.571586 55.21305,73.39884 50.907634,73.213646 47.890681,73.083879 42.95715,72.76885 42.292592,72.663558 c -0.203054,-0.03229 -2.77831,-0.143091 -5.722814,-0.246466 -8.602196,-0.301969 -9.476498,-0.433577 -9.476498,-1.426763 0,-1.239079 0.44764,-1.253522 39.382897,-1.269386 30.571374,-0.01271 34.539333,0.02879 39.517113,0.412486 2.1085,0.162452 6.01523,0.342039 12.11134,0.556733 5.78294,0.203668 6.66791,0.250459 9.4765,0.500649 3.22584,0.287375 17.3074,1.309488 23.69128,1.71967 5.2835,0.339423 30.11077,3.216623 41.93793,4.860083 27.41397,3.809303 47.75403,8.537316 65.98885,15.338946 8.42592,3.142867 18.41691,7.57747 19.71606,8.75117 l 0.50545,0.45663 -0.0709,1.04862 c -0.0389,0.5767 -0.15718,1.74083 -0.26282,2.58697 -0.48744,3.90473 -0.48651,9.68424 0.004,14.39935 1.30865,12.62343 5.46198,24.16867 11.12273,30.91856 2.53374,3.0212 5.57073,5.1466 8.68452,6.07771 1.36837,0.40919 3.02781,0.44891 5.78435,0.13837 7.65753,-0.86258 17.78779,-0.41487 27.568,1.21842 10.3226,1.72386 20.51832,4.51681 36.01687,9.86623 l 2.78762,0.96217 0.0724,-0.43796 c 0.0399,-0.24085 0.0731,-0.67509 0.0738,-0.96496 0,-0.6238 0.2892,-1.38059 0.52468,-1.38059 0.0917,0 0.92885,0.80235 1.86038,1.78302 2.9178,3.07175 5.36429,4.89898 9.05629,6.76402 3.34309,1.68882 4.80089,2.17975 5.16604,1.73976 0.17287,-0.20825 0.17409,-0.17425 -0.11497,-3.14867 -0.15031,-1.54685 -0.0888,-1.96909 0.28719,-1.96929 0.1865,-1.1e-4 1.28863,1.03069 3.65157,3.41523 l 3.3845,3.4154 0.91129,1.78453 c 1.16209,2.27555 1.66619,3.10372 2.67829,4.39983 1.70891,2.18856 2.92351,3.30206 6.00833,5.50833 1.94994,1.39456 3.47666,2.34945 3.58433,2.24182 0.0369,-0.0368 -0.0456,-0.47344 -0.18316,-0.97026 -0.58897,-2.12681 -0.62956,-4.28614 -0.11586,-6.16057 0.14467,-0.52781 0.22591,-0.99677 0.18062,-1.04206 -0.16091,-0.16091 -0.8411,0.65073 -1.25678,1.49961 -0.27132,0.5541 -0.46673,1.18644 -0.54767,1.77233 -0.14563,1.05407 -0.34053,1.53014 -0.65099,1.58994 -0.28999,0.0558 -1.78878,-1.28974 -3.1968,-2.87 -1.36842,-1.53579 -2.43821,-3.14022 -2.91062,-4.3652 -0.38779,-1.00556 -1.13167,-3.8352 -1.36714,-5.20035 -0.13134,-0.76136 -0.12259,-0.85966 0.10932,-1.23069 0.42451,-0.67928 4.56737,-4.6495 4.85109,-4.64892 0.0834,0 0.89919,0.66386 1.81298,1.47489 l 1.66147,1.47467 1.86853,0.004 c 1.6705,0 1.87582,0.0246 1.93689,0.2173 0.0376,0.11844 0.259,1.25491 0.49205,2.52541 0.27942,1.52326 0.51057,2.45049 0.67866,2.7225 0.57409,0.92893 4.28571,4.2818 10.77703,9.73544 4.74197,3.9839 8.75394,7.42794 9.1536,7.85779 0.16088,0.17297 0.26379,0.38932 0.22872,0.48071 -0.035,0.0914 -0.4531,0.31895 -0.92889,0.50563 -1.85742,0.72876 -1.9352,1.32759 -0.41525,3.19757 1.66055,2.04297 5.135,4.35421 8.83199,5.87514 6.09804,2.50869 9.50366,3.4988 14.75916,4.29104 4.13218,0.62289 5.67915,0.9007 5.93822,1.06642 0.56563,0.36173 0.31306,2.40919 -0.6588,5.3404 -2.27945,6.875 -7.46197,12.37648 -13.27905,14.09626 -1.34183,0.39669 -3.85818,0.57386 -4.19384,0.29529 -0.10901,-0.0904 -0.57804,-0.92273 -1.04231,-1.84944 -1.52307,-3.04037 -2.68697,-4.53367 -6.51461,-8.35823 -5.7459,-5.74134 -9.27267,-8.5775 -14.09422,-11.33434 -2.1534,-1.23128 -6.8617,-3.48987 -10.46108,-5.01816 -0.94767,-0.40238 -2.99682,-1.33714 -4.55365,-2.07727 -1.55683,-0.74011 -2.92968,-1.38109 -3.05072,-1.42439 -0.4761,-0.17031 0.58228,0.91825 6.52086,6.70703 6.43332,6.27105 8.28318,8.14999 8.28318,8.41324 0,0.0913 -0.42329,0.30155 -0.98121,0.48736 -0.99933,0.33281 -1.60658,0.81541 -1.60058,1.27203 0.005,0.36351 0.47764,1.26739 1.10767,2.11726 1.22877,1.65748 3.30223,3.38418 5.93411,4.94159 1.74688,1.03372 5.84659,3.03488 7.98171,3.89605 3.27662,1.32158 4.81395,1.76733 12.17258,3.52942 2.64225,0.63271 2.70759,0.66378 2.70759,1.28909 0,1.36953 -0.75698,3.73237 -1.97174,6.15467 -2.87958,5.74187 -7.7829,10.14071 -12.75565,11.4432 -1.9257,0.50437 -4.06331,0.60856 -4.87729,0.23767 -0.31196,-0.14213 -0.41744,-0.34334 -0.99576,-1.89903 -0.67198,-1.80752 -2.64572,-5.01542 -4.35805,-7.08297 -2.2269,-2.68889 -7.33293,-7.98741 -9.74767,-10.11517 -3.4534,-3.04298 -7.51332,-5.6875 -13.39993,-8.72839 -3.0347,-1.56763 -4.82723,-2.54468 -6.98537,-3.80754 -1.02468,-0.59956 -1.96617,-1.1289 -2.09221,-1.17631 -0.35563,-0.13371 -2.54319,-1.45506 -4.07067,-2.45883 -1.55611,-1.02257 -1.93682,-1.4495 -2.81282,-3.15419 -0.69045,-1.34365 -1.11115,-1.98128 -1.67114,-2.53263 -0.7013,-0.69047 -2.52319,-1.89618 -6.22574,-4.12004 -3.5708,-2.14476 -7.0237,-3.88263 -19.41654,-9.77254 -21.22728,-10.08856 -34.81155,-14.73132 -47.50552,-16.23612 -2.67794,-0.31744 -9.53189,-0.31759 -11.8764,0 -6.02387,0.81538 -11.07137,2.63755 -15.50702,5.59798 -2.3432,1.56393 -3.48633,2.50831 -5.60461,4.63021 -3.52416,3.53011 -6.14925,7.25918 -8.54711,12.14173 -5.42372,11.04359 -7.22039,24.57352 -5.09752,38.3871 2.12021,13.79639 8.34552,26.34699 16.57906,33.42448 3.13937,2.69857 5.78201,4.42988 9.74682,6.38569 4.03207,1.98899 7.31653,3.22222 11.62575,4.36519 27.38034,5.10278 58.36963,3.86101 86.83143,8.57912 4.74553,0.79892 5.98702,1.01687 6.22884,1.09364 0.14332,0.0454 1.20962,0.26517 2.36947,0.48811 8.31533,1.59845 18.55712,4.22911 26.90778,6.91138 9.78711,3.14368 18.91098,6.80693 27.38342,10.99451 10.72883,5.30286 19.19754,10.65084 27.56261,17.40591 4.55399,3.67743 9.77233,8.76193 14.03038,13.67045 6.61295,7.62322 11.70243,15.78463 15.88585,25.47416 1.76446,4.08685 3.72576,10.08548 3.83866,11.74058 0.058,0.85044 0.0401,1.022 -0.10184,0.97628 -0.0947,-0.0304 -0.26172,-0.24557 -0.37112,-0.4779 -0.10936,-0.23237 -0.33765,-0.69936 -0.50732,-1.03782 -0.16965,-0.33844 -1.02584,-2.0553 -1.9026,-3.81519 -4.15596,-8.34198 -9.29108,-15.97773 -15.65894,-23.28427 -6.8122,-7.81637 -14.30615,-14.53376 -22.51608,-20.18287 -5.27529,-3.62979 -9.63104,-6.18935 -15.64444,-9.193 -8.25168,-4.83507 -25.12876,-12.20726 -40.52737,-12.82096 -0.12361,0.12358 -0.17232,0.27823 -0.11774,0.37385 8.20024,6.96412 18.43153,13.29801 26.63159,20.83174 19.88068,18.9127 29.67328,38.46292 38.69132,59.9671 1.78302,4.40622 4.14355,11.34034 5.34656,15.70553 1.49936,5.44066 2.93509,12.66646 3.76312,18.93911 0.28831,2.18414 0.80497,8.67569 0.88256,11.08896 0.0702,2.18014 0.01,2.62029 -0.3063,2.2322 z M 430.3615,248.91296 c 3.63706,-1.23704 5.65878,-2.51595 7.20121,-4.55542 1.21656,-1.60853 2.12789,-3.89297 2.36087,-5.91822 0.11102,-0.96451 -0.0146,-1.04307 -0.91347,-0.57179 -3.81132,1.99782 -8.20283,6.12923 -9.67018,9.09739 -0.44246,0.89504 -0.63676,1.69405 -0.49916,2.05268 0.10223,0.26629 0.51332,0.23802 1.52073,-0.10464 z m 16.95706,-20.7492 c 4.67231,-1.85607 7.30204,-4.38493 8.3615,-8.0408 0.46415,-1.60179 0.66056,-4.0211 0.32644,-4.0211 -0.23244,0 -1.69882,1.00326 -2.96256,2.02691 -3.34995,2.71359 -6.12381,6.1227 -6.97625,8.57389 -0.26967,0.77543 -0.29184,0.95308 -0.16973,1.36065 0.0778,0.25972 0.21916,0.46878 0.31693,0.46878 0.0971,0 0.59369,-0.16577 1.10367,-0.36833 z m -39.52254,-11.32701 c 0.8196,-0.30665 1.48106,-0.73796 1.53122,-0.99851 0.0227,-0.1176 -0.84538,-1.03618 -2.21445,-2.3434 -3.54436,-3.38435 -5.63131,-5.31171 -6.02017,-5.55988 l -0.35848,-0.2287 0.11428,0.30055 c 0.0629,0.16529 0.74619,1.4589 1.51854,2.87477 0.77235,1.41581 1.78793,3.28742 2.25689,4.1591 0.46895,0.87169 0.99588,1.74011 1.17093,1.92983 0.29344,0.31799 0.35778,0.33609 0.82333,0.23149 0.27777,-0.0625 0.80784,-0.22679 1.17791,-0.36525 z m -14.12176,-6.55001 c -0.0454,-0.28768 -0.13261,-0.79997 -0.194,-1.13843 -0.26892,-1.48262 -0.0828,-3.91218 0.41952,-5.47666 0.28246,-0.87975 0.26344,-1.24204 -0.0549,-1.04528 -0.0803,0.0497 -0.41311,0.49949 -0.73969,0.99976 -0.57941,0.88759 -0.8876,1.63505 -1.03361,2.50693 -0.0926,0.55285 -0.50526,1.23074 -0.74923,1.23074 -0.23993,0 -1.16244,-0.95539 -2.40324,-2.48884 -1.89354,-2.34013 -2.94715,-4.18572 -3.35683,-5.88004 -0.1419,-0.58689 -0.94636,-5.042 -0.94636,-5.24095 0,-0.0138 0.27197,-0.20003 0.6044,-0.41334 0.61116,-0.39216 0.84103,-0.70297 0.6565,-0.88755 -0.24366,-0.24362 -4.52315,-2.57959 -7.16833,-3.91283 -13.56615,-6.83767 -30.66458,-12.77179 -45.24677,-15.7033 -1.83749,-0.36939 -3.41587,-0.66875 -3.50753,-0.66521 -0.0917,0.004 1.32869,0.52123 3.1563,1.15053 8.70194,2.99635 11.78003,4.36677 19.95931,8.88631 2.26141,1.24956 4.15821,2.24317 4.21511,2.20802 0.0569,-0.035 0.14231,-0.37507 0.18983,-0.75537 0.12907,-1.03318 0.41714,-1.88996 0.74588,-2.21874 0.23106,-0.23106 0.42398,-0.29295 0.91353,-0.29295 0.60163,0 0.64934,0.0273 1.56328,0.89228 0.51847,0.49073 2.06216,2.16608 3.4304,3.72292 4.16521,4.73934 6.45378,6.7823 8.15022,7.27546 0.58148,0.16905 0.7291,0.17224 1.11946,0.0242 0.41276,-0.15647 0.45324,-0.2155 0.49322,-0.71984 0.0239,-0.30216 -0.0524,-1.29709 -0.16974,-2.21087 -0.19333,-1.5056 -0.19565,-1.70362 -0.0241,-2.11069 0.26428,-0.62783 0.79758,-0.74492 1.4096,-0.30946 0.80929,0.57582 3.12984,2.71844 4.0873,3.77392 2.16711,2.38892 2.58687,3.1211 2.72689,4.75622 0.23452,2.73828 1.99279,5.69043 5.58756,9.38157 1.76899,1.81645 3.19495,3.09865 4.92284,4.42647 1.1982,0.92081 1.35605,0.95062 1.24335,0.23494 z m 29.08888,-12.74487 c 1.33544,-0.66255 1.52425,-0.86646 1.16888,-1.26258 -0.60141,-0.67039 -8.78766,-7.30097 -8.88891,-7.1997 -0.10825,0.10827 4.92561,8.07254 5.46878,8.65236 0.60317,0.64378 0.56372,0.64712 2.25125,-0.19008 z M 43.899528,209.92089 c -0.218772,-0.31234 -0.247196,-0.74638 -0.07053,-1.07659 0.114507,-0.21397 0.325788,-0.36477 2.144104,-1.53071 0.412526,-0.26453 2.411507,-1.43173 4.442177,-2.59382 36.661236,-20.98009 82.715681,-39.8366 135.070941,-55.30331 19.20187,-5.67262 39.37297,-10.88407 59.19738,-15.29439 8.74883,-1.94636 17.44779,-3.72422 19.19914,-3.92385 1.49921,-0.17091 5.01633,-0.32783 5.92577,-0.26437 l 0.62438,0.0435 -0.0863,0.5103 c -0.47711,2.82072 -0.23406,4.09368 1.53282,8.02822 0.47767,1.06371 0.84026,1.96225 0.80573,1.99675 -0.0345,0.0345 -1.68302,0.35886 -3.66337,0.72079 -54.21724,9.90877 -99.43923,21.49019 -141.19452,36.16009 -19.12541,6.71935 -36.648361,13.56542 -60.797293,23.753 -13.988933,5.90145 -21.864887,9.04788 -22.647988,9.04788 -0.161067,0 -0.376375,-0.12207 -0.482474,-0.27355 z M 4.7838787,138.43479 C 3.8803431,137.69003 4.0903515,137.5507 7.1023768,136.89697 56.558263,126.16276 104.86761,119.26502 158.71822,115.2489 c 7.63784,-0.56964 16.36586,-1.13775 18.89146,-1.22967 5.79347,-0.21085 8.19867,-0.33658 9.53804,-0.49869 5.02941,-0.60855 46.50182,-1.08016 61.90496,-0.70393 15.05288,0.36766 16.80594,0.44986 17.52532,0.82186 -1.51363,3.10414 -1.7574,3.68815 0.035,10.92002 -2.37904,-0.22112 -5.41228,-0.37058 -10.42217,-0.5136 -4.59594,-0.13118 -7.62238,-0.26705 -10.89181,-0.48893 -5.62487,-0.38171 -45.5653,-0.48402 -55.68984,-0.14263 -2.16607,0.073 -5.76592,0.19099 -7.99965,0.26209 -54.79405,1.745 -107.405939,6.18245 -170.039688,14.34182 -3.3596752,0.43764 -6.1576917,0.79573 -6.2178499,0.79573 -0.060174,0 -0.3157623,-0.17017 -0.5681034,-0.37818 z"
     id="path293"
     sodipodi:nodetypes="cssccsccsssssssscccsssssssssssssssscsscssssscssssssssscsssssssssssssscscssssssssssssssssssssssssssssssssssssssssssssscssssssccsssssssssssssscccccsssccssssssssssssssssssscsssssssssssssssssssssssssssssssssssssssssssssssscsssscssssssssscssssccsssssss" /></svg>
