<svg xmlns="http://www.w3.org/2000/svg" fill="none" viewBox="0 0 136 136">
  <g clip-path="url(#a)">
    <path fill="url(#b)" d="M68 128.395c33.849 0 61.29-27.441 61.29-61.29S101.849 5.816 68 5.816 6.71 33.257 6.71 67.106s27.44 61.29 61.29 61.29" opacity=".3"/>
    <path fill="url(#c)" d="M68 119c28.66 0 51.895-23.234 51.895-51.895 0-28.66-23.234-51.895-51.895-51.895-28.66 0-51.894 23.234-51.894 51.895C16.106 95.765 39.34 119 68 119" opacity=".3"/>
    <path fill="#00c1cd" d="M108.151 67.33c0-22.042-17.967-39.928-40.151-39.928S27.85 45.288 27.85 67.33 45.815 107.256 68 107.256c22.184-.001 40.151-17.886 40.151-39.927m2.014 0c0 23.163-18.879 41.94-42.165 41.94-23.287 0-42.165-18.777-42.165-41.94 0-23.165 18.878-41.942 42.165-41.942s42.165 18.777 42.165 41.941"/>
    <g fill="#00c1cd" opacity=".4">
      <path d="M17.843 12.651a.447.447 0 0 0-.895 0zm-.895 116.233a.447.447 0 0 0 .895 0zm0-116.233v2.076h.895V12.65zm0 6.227v4.151h.895v-4.151zm0 8.302v4.151h.895v-4.15zm0 8.303v4.15h.895v-4.15zm0 8.302v4.15h.895v-4.15zm0 8.302v4.151h.895v-4.151zm0 8.302v4.152h.895V60.39zm0 8.303v4.151h.895v-4.15zm0 8.302v4.152h.895v-4.152zm0 8.303v4.15h.895v-4.15zm0 8.302v4.15h.895V93.6zm0 8.302v4.151h.895v-4.151zm0 8.302v4.151h.895v-4.151zm0 8.303v4.151h.895v-4.151zm0 8.302v2.076h.895v-2.076zM51.447 12.651a.447.447 0 0 0-.894 0zm-.894 116.233a.447.447 0 0 0 .894 0zm0-116.233v2.076h.894V12.65zm0 6.227v4.151h.894v-4.151zm0 8.302v4.151h.894v-4.15zm0 8.303v4.15h.894v-4.15zm0 8.302v4.15h.894v-4.15zm0 8.302v4.151h.894v-4.151zm0 8.302v4.152h.894V60.39zm0 8.303v4.151h.894v-4.15zm0 8.302v4.152h.894v-4.152zm0 8.303v4.15h.894v-4.15zm0 8.302v4.15h.894V93.6zm0 8.302v4.151h.894v-4.151zm0 8.302v4.151h.894v-4.151zm0 8.303v4.151h.894v-4.151zm0 8.302v2.076h.894v-2.076zM85.052 12.651a.447.447 0 1 0-.895 0zm-.895 116.233a.447.447 0 0 0 .895 0zm0-116.233v2.076h.895V12.65zm0 6.227v4.151h.895v-4.151zm0 8.302v4.151h.895v-4.15zm0 8.303v4.15h.895v-4.15zm0 8.302v4.15h.895v-4.15zm0 8.302v4.151h.895v-4.151zm0 8.302v4.152h.895V60.39zm0 8.303v4.151h.895v-4.15zm0 8.302v4.152h.895v-4.152zm0 8.303v4.15h.895v-4.15zm0 8.302v4.15h.895V93.6zm0 8.302v4.151h.895v-4.151zm0 8.302v4.151h.895v-4.151zm0 8.303v4.151h.895v-4.151zm0 8.302v2.076h.895v-2.076zM118.657 12.651a.447.447 0 1 0-.895 0zm-.895 116.233a.447.447 0 1 0 .895 0zm0-116.233v2.076h.895V12.65zm0 6.227v4.151h.895v-4.151zm0 8.302v4.151h.895v-4.15zm0 8.303v4.15h.895v-4.15zm0 8.302v4.15h.895v-4.15zm0 8.302v4.151h.895v-4.151zm0 8.302v4.152h.895V60.39zm0 8.303v4.151h.895v-4.15zm0 8.302v4.152h.895v-4.152zm0 8.303v4.15h.895v-4.15zm0 8.302v4.15h.895V93.6zm0 8.302v4.151h.895v-4.151zm0 8.302v4.151h.895v-4.151zm0 8.303v4.151h.895v-4.151zm0 8.302v2.076h.895v-2.076z"/>
      <path d="M125.919 20.808a.447.447 0 0 0 0-.895zM9.686 19.913a.447.447 0 0 0 0 .895zm116.233 0h-2.076v.895h2.076zm-6.227 0h-4.151v.895h4.151zm-8.302 0h-4.152v.895h4.152zm-8.303 0h-4.15v.895h4.15zm-8.302 0h-4.15v.895h4.15zm-8.302 0h-4.151v.895h4.15zm-8.303 0H74.03v.895h4.151zm-8.302 0h-4.151v.895h4.151zm-8.303 0h-4.15v.895h4.15zm-8.302 0h-4.15v.895h4.15zm-8.302 0H40.82v.895h4.151zm-8.302 0h-4.151v.895h4.15zm-8.303 0h-4.15v.895h4.15zm-8.302 0h-4.151v.895h4.151zm-8.302 0H9.686v.895h2.076zM125.919 54.413a.447.447 0 0 0 0-.895zM9.686 53.518a.447.447 0 1 0 0 .895zm116.233 0h-2.076v.895h2.076zm-6.227 0h-4.151v.895h4.151zm-8.302 0h-4.152v.895h4.152zm-8.303 0h-4.15v.895h4.15zm-8.302 0h-4.15v.895h4.15zm-8.302 0h-4.151v.895h4.15zm-8.303 0H74.03v.895h4.151zm-8.302 0h-4.151v.895h4.151zm-8.303 0h-4.15v.895h4.15zm-8.302 0h-4.15v.895h4.15zm-8.302 0H40.82v.895h4.151zm-8.302 0h-4.151v.895h4.15zm-8.303 0h-4.15v.895h4.15zm-8.302 0h-4.151v.895h4.151zm-8.302 0H9.686v.895h2.076zM125.919 88.018a.447.447 0 0 0 0-.895zM9.686 87.123a.447.447 0 1 0 0 .895zm116.233 0h-2.076v.895h2.076zm-6.227 0h-4.151v.895h4.151zm-8.302 0h-4.152v.895h4.152zm-8.303 0h-4.15v.895h4.15zm-8.302 0h-4.15v.895h4.15zm-8.302 0h-4.151v.895h4.15zm-8.303 0H74.03v.895h4.151zm-8.302 0h-4.151v.895h4.151zm-8.303 0h-4.15v.895h4.15zm-8.302 0h-4.15v.895h4.15zm-8.302 0H40.82v.895h4.151zm-8.302 0h-4.151v.895h4.15zm-8.303 0h-4.15v.895h4.15zm-8.302 0h-4.151v.895h4.151zm-8.302 0H9.686v.895h2.076zM125.919 121.622a.447.447 0 0 0 0-.895zm-116.233-.895a.448.448 0 0 0 0 .895zm116.233 0h-2.076v.895h2.076zm-6.227 0h-4.151v.895h4.151zm-8.302 0h-4.152v.895h4.152zm-8.303 0h-4.15v.895h4.15zm-8.302 0h-4.15v.895h4.15zm-8.302 0h-4.151v.895h4.15zm-8.303 0H74.03v.895h4.151zm-8.302 0h-4.151v.895h4.151zm-8.303 0h-4.15v.895h4.15zm-8.302 0h-4.15v.895h4.15zm-8.302 0H40.82v.895h4.151zm-8.302 0h-4.151v.895h4.15zm-8.303 0h-4.15v.895h4.15zm-8.302 0h-4.151v.895h4.151zm-8.302 0H9.686v.895h2.076z"/>
    </g>
    <path fill="#00c1cd" d="M69.902 0v136h-2.015V0z"/>
    <path fill="#00c1cd" d="M136 67.887v2.015H0v-2.015z"/>
    <path fill="#00c1cd" d="M102.466 33.703a4.772 4.772 0 1 0 6.646-6.85 4.772 4.772 0 0 0-6.646 6.85m-32.638 34.92 36.604-37.722-1.285-1.246-36.604 37.722z"/>
    <path fill="url(#d)" d="M68 76.053c4.695 0 8.5-3.906 8.5-8.724s-3.805-8.723-8.5-8.723c-4.694 0-8.5 3.905-8.5 8.723s3.806 8.724 8.5 8.724" opacity=".95"/>
    <path fill="url(#e)" d="M98.197 106.474c5.807 0 10.513-4.807 10.513-10.737S104.004 85 98.197 85s-10.513 4.807-10.513 10.737 4.707 10.737 10.513 10.737" opacity=".35"/>
    <path fill="url(#f)" d="M52.118 64.869c5.807 0 10.514-4.807 10.514-10.737s-4.707-10.737-10.514-10.737-10.513 4.807-10.513 10.737 4.707 10.737 10.513 10.737" opacity=".35"/>
    <path fill="url(#g)" d="M97.974 103.342c3.953 0 7.158-3.305 7.158-7.381s-3.205-7.382-7.158-7.382-7.158 3.305-7.158 7.382c0 4.076 3.204 7.381 7.158 7.381"/>
    <path fill="url(#h)" d="M51.895 61.737c3.953 0 7.158-3.305 7.158-7.382 0-4.076-3.205-7.381-7.158-7.381s-7.158 3.305-7.158 7.381 3.204 7.382 7.157 7.382"/>
    <path fill="#fff" d="M97.798 91.91a.5.5 0 0 1 .353 0l2.684 1.007a.5.5 0 0 1 .327.471v2.35a2.8 2.8 0 0 1-.127.82.503.503 0 1 1-.962-.3q.08-.256.081-.521v-2l-2.18-.818-.884.33a.504.504 0 0 1-.352-.943zM94.786 95.737v-2.349c0-.21.13-.398.328-.472l.244-.09a.503.503 0 0 1 .435.903v2.008c0 .781.53 1.493 1.17 2.054a7 7 0 0 0 1.01.725 6.3 6.3 0 0 0 1.512-1.23.504.504 0 0 1 .749.673 7.3 7.3 0 0 1-2.025 1.579.5.5 0 0 1-.46.005l.225-.45-.226.45v-.001l-.003-.001-.008-.004-.027-.014-.095-.052a7.776 7.776 0 0 1-1.314-.923c-.702-.613-1.515-1.58-1.515-2.811"/>
    <path fill="#fff" d="M93.927 91.69a.504.504 0 0 1 .712 0l7.382 7.382a.503.503 0 1 1-.712.712l-7.382-7.382a.504.504 0 0 1 0-.712M51.719 50.305a.5.5 0 0 1 .353 0l2.684 1.006a.5.5 0 0 1 .327.472v2.35q-.004.421-.127.819a.504.504 0 1 1-.962-.299q.08-.257.081-.521v-2l-2.18-.818-.884.33a.504.504 0 0 1-.352-.943zM48.707 54.132v-2.35c0-.21.131-.398.329-.471l.245-.091a.504.504 0 0 1 .433.904v2.008c0 .781.53 1.492 1.17 2.053a7 7 0 0 0 1.01.725 6.3 6.3 0 0 0 1.512-1.23.504.504 0 1 1 .75.674 7.3 7.3 0 0 1-2.026 1.578.5.5 0 0 1-.46.005l.224-.45-.225.45h-.001l-.003-.002-.008-.004-.027-.014-.095-.051a7.783 7.783 0 0 1-1.314-.923c-.701-.613-1.514-1.58-1.514-2.812"/>
    <path fill="#fff" d="M47.848 50.085a.504.504 0 0 1 .712 0l7.382 7.381a.504.504 0 0 1-.712.712l-7.382-7.381a.504.504 0 0 1 0-.712"/>
  </g>
  <defs>
    <linearGradient id="b" x1="68" x2="68" y1="5.816" y2="128.395" gradientUnits="userSpaceOnUse">
      <stop stop-color="#00c1cd"/>
      <stop offset="1" stop-color="#00c1cd" stop-opacity=".45"/>
    </linearGradient>
    <linearGradient id="c" x1="68" x2="68" y1="15.21" y2="119" gradientUnits="userSpaceOnUse">
      <stop stop-color="#00c1cd"/>
      <stop offset="1" stop-color="#00c1cd" stop-opacity=".45"/>
    </linearGradient>
    <linearGradient id="d" x1="68" x2="68" y1="58.605" y2="76.053" gradientUnits="userSpaceOnUse">
      <stop stop-color="#00c1cd"/>
      <stop offset="1" stop-color="#006167"/>
    </linearGradient>
    <linearGradient id="e" x1="98.197" x2="98.197" y1="85" y2="106.474" gradientUnits="userSpaceOnUse">
      <stop stop-color="#00c1cd"/>
      <stop offset="1" stop-color="#00c1cd" stop-opacity=".65"/>
    </linearGradient>
    <linearGradient id="f" x1="52.118" x2="52.118" y1="43.395" y2="64.868" gradientUnits="userSpaceOnUse">
      <stop stop-color="#00c1cd"/>
      <stop offset="1" stop-color="#00c1cd" stop-opacity=".65"/>
    </linearGradient>
    <linearGradient id="g" x1="97.974" x2="97.974" y1="88.579" y2="103.342" gradientUnits="userSpaceOnUse">
      <stop stop-color="#00c1cd"/>
      <stop offset="1" stop-color="#00c1cd" stop-opacity=".65"/>
    </linearGradient>
    <linearGradient id="h" x1="51.895" x2="51.895" y1="46.974" y2="61.737" gradientUnits="userSpaceOnUse">
      <stop stop-color="#00c1cd"/>
      <stop offset="1" stop-color="#00c1cd" stop-opacity=".65"/>
    </linearGradient>
    <clipPath id="a">
      <path fill="#fff" d="M0 0h136v136H0z"/>
    </clipPath>
  </defs>
</svg>
