<?xml version="1.0" encoding="UTF-8" standalone="no"?>
<!-- Created with Inkscape (http://www.inkscape.org/) -->

<svg
   width="1920"
   height="1080"
   viewBox="0 0 507.99999 285.75"
   version="1.1"
   id="svg5"
   xmlns:inkscape="http://www.inkscape.org/namespaces/inkscape"
   xmlns:sodipodi="http://sodipodi.sourceforge.net/DTD/sodipodi-0.dtd"
   xmlns="http://www.w3.org/2000/svg"
   xmlns:svg="http://www.w3.org/2000/svg">
  <sodipodi:namedview
     id="namedview7"
     pagecolor="#ffffff"
     bordercolor="#000000"
     borderopacity="0.25"
     inkscape:showpageshadow="2"
     inkscape:pageopacity="0.0"
     inkscape:pagecheckerboard="0"
     inkscape:deskcolor="#d1d1d1"
     inkscape:document-units="px"
     showgrid="false" />
  <defs
     id="defs2" />
  <g
     inkscape:label="Layer 1"
     inkscape:groupmode="layer"
     id="layer1">
    <rect
       style="fill:#171717;fill-opacity:1;stroke:#000000;stroke-width:0;stroke-linecap:round;stroke-linejoin:round"
       id="rect668"
       width="630.54236"
       height="342.58917"
       x="-61.271183"
       y="-28.419588" />
    <rect
       style="fill:#17251c;fill-opacity:1;stroke:#17251c;stroke-width:9.6;stroke-linecap:round;stroke-linejoin:round;stroke-dasharray:none;stroke-opacity:1"
       id="rect4236"
       width="353.2879"
       height="155.53882"
       x="323.90598"
       y="-40.316151" />
    <rect
       style="fill:#17251c;fill-opacity:1;stroke:#17251c;stroke-width:5.4;stroke-linecap:round;stroke-linejoin:round;stroke-dasharray:none;stroke-opacity:1"
       id="rect4236-3"
       width="353.2879"
       height="155.53882"
       x="-214.3201"
       y="232.28851" />
    <path
       style="fill:#17241c;fill-opacity:1;stroke-width:0.230039"
       d="m 183.12864,192.79318 c -0.87661,-0.8766 -0.27541,-2.30039 0.97134,-2.30039 0.54908,0 1.32905,0.81002 1.32905,1.38023 0,0.59249 -0.78775,1.38024 -1.38024,1.38024 -0.25304,0 -0.66711,-0.20704 -0.92015,-0.46008 z m 12.1921,0 c -0.25306,-0.25304 -0.46008,-0.66711 -0.46008,-0.92016 0,-0.59248 0.78775,-1.38023 1.38024,-1.38023 0.59247,0 1.38023,0.78775 1.38023,1.38023 0,0.25305 -0.20703,0.66712 -0.46008,0.92016 -0.25304,0.25304 -0.66711,0.46008 -0.92015,0.46008 -0.25305,0 -0.66712,-0.20704 -0.92016,-0.46008 z m 12.34277,0.0395 c -0.79546,-0.87899 -0.25523,-2.3398 0.86528,-2.3398 1.18584,0 1.74087,1.72457 0.77318,2.40237 -0.67306,0.47143 -1.17245,0.45235 -1.63846,-0.0626 z m 12.32265,0.0627 c -0.9791,-0.68579 -0.4118,-2.40238 0.79392,-2.40238 1.07608,0 1.62854,1.63408 0.80457,2.37977 -0.52505,0.47515 -0.94393,0.48108 -1.59849,0.0227 z m 12.14091,-0.10196 c -0.25304,-0.25306 -0.46006,-0.66712 -0.46006,-0.92016 0,-0.25304 0.20702,-0.66711 0.46006,-0.92016 0.25304,-0.25304 0.66712,-0.46009 0.92016,-0.46009 0.25306,0 0.66713,0.20705 0.92016,0.46009 0.25304,0.25305 0.46009,0.66712 0.46009,0.92016 0,0.25304 -0.20705,0.6671 -0.46009,0.92016 -0.25303,0.25304 -0.6671,0.46008 -0.92016,0.46008 -0.25304,0 -0.66712,-0.20704 -0.92016,-0.46008 z m 12.34279,0.0393 c -0.79547,-0.87897 -0.25524,-2.3398 0.86528,-2.3398 1.18583,0 1.74087,1.72457 0.77316,2.40237 -0.67305,0.47143 -1.17245,0.45236 -1.63844,-0.0626 z m 12.32265,0.0627 c -0.97909,-0.68577 -0.4118,-2.40237 0.79392,-2.40237 1.07608,0 1.62854,1.63407 0.80457,2.37977 -0.52506,0.47516 -0.94391,0.48108 -1.59849,0.0225 z m 12.14091,-0.10196 c -0.87661,-0.8766 -0.27542,-2.30039 0.97135,-2.30039 0.54907,0 1.32905,0.81002 1.32905,1.38024 0,0.25304 -0.20704,0.66711 -0.46008,0.92015 -0.25305,0.25304 -0.66712,0.46008 -0.92016,0.46008 -0.25304,0 -0.66711,-0.20704 -0.92016,-0.46008 z m 12.19209,0 c -0.25303,-0.25304 -0.46006,-0.66711 -0.46006,-0.92015 0,-0.25305 0.20703,-0.66712 0.46006,-0.92016 0.25306,-0.25305 0.66713,-0.46008 0.92018,-0.46008 0.25304,0 0.66711,0.20703 0.92015,0.46008 0.25304,0.25304 0.46008,0.66711 0.46008,0.92016 0,0.25304 -0.20704,0.66711 -0.46008,0.92015 -0.25304,0.25304 -0.66711,0.46008 -0.92015,0.46008 -0.25305,0 -0.66712,-0.20704 -0.92018,-0.46008 z m 12.34279,0.0395 c -0.79545,-0.87897 -0.25524,-2.3398 0.86528,-2.3398 1.18583,0 1.74087,1.72457 0.77317,2.40237 -0.67304,0.47143 -1.17245,0.45235 -1.63845,-0.0627 z m 12.32265,0.0627 c -0.97908,-0.68579 -0.4118,-2.40238 0.79393,-2.40238 1.07608,0 1.62853,1.63408 0.80456,2.37977 -0.52504,0.47517 -0.94391,0.48109 -1.59849,0.0227 z m 12.14093,-0.10196 c -0.87663,-0.87661 -0.27542,-2.30041 0.97133,-2.30041 0.54908,0 1.32906,0.81002 1.32906,1.38025 0,0.59249 -0.78776,1.38024 -1.38025,1.38024 -0.25304,0 -0.66711,-0.20704 -0.92014,-0.46008 z m 12.19209,0 c -0.25305,-0.25306 -0.46009,-0.66712 -0.46009,-0.92016 0,-0.59248 0.78777,-1.38025 1.38024,-1.38025 0.59249,0 1.38024,0.78777 1.38024,1.38025 0,0.59249 -0.78775,1.38024 -1.38024,1.38024 -0.25304,0 -0.66711,-0.20704 -0.92015,-0.46008 z m 12.34278,0.0393 c -0.79546,-0.87897 -0.25523,-2.3398 0.86528,-2.3398 1.18584,0 1.74087,1.72459 0.77317,2.40239 -0.67305,0.47143 -1.17244,0.45234 -1.63845,-0.0626 z m 12.32265,0.0627 c -0.97909,-0.68577 -0.4118,-2.40237 0.79392,-2.40237 1.07608,0 1.62853,1.63407 0.80457,2.37977 -0.52505,0.47516 -0.94393,0.48108 -1.59849,0.0225 z m 12.1409,-0.10196 c -0.87659,-0.8766 -0.27541,-2.30039 0.97136,-2.30039 0.54908,0 1.32905,0.81002 1.32905,1.38024 0,0.59248 -0.78775,1.38023 -1.38024,1.38023 -0.25304,0 -0.66711,-0.20703 -0.92017,-0.46008 z m 12.19212,0 c -0.25306,-0.25304 -0.46008,-0.66711 -0.46008,-0.92015 0,-0.59249 0.78775,-1.38024 1.38022,-1.38024 0.59249,0 1.38025,0.78775 1.38025,1.38024 0,0.59248 -0.78776,1.38023 -1.38025,1.38023 -0.25304,0 -0.66711,-0.20703 -0.92014,-0.46008 z m 12.34277,0.0395 c -0.79546,-0.87897 -0.25523,-2.3398 0.86528,-2.3398 1.18584,0 1.74087,1.72457 0.77318,2.40237 -0.67306,0.47143 -1.17245,0.45235 -1.63846,-0.0626 z m 12.27146,-0.0395 c -0.87661,-0.8766 -0.27541,-2.30039 0.97135,-2.30039 0.54907,0 1.32906,0.81002 1.32906,1.38024 0,0.59248 -0.78776,1.38023 -1.38025,1.38023 -0.25304,0 -0.66711,-0.20703 -0.92016,-0.46008 z m 12.19211,0 c -0.25305,-0.25304 -0.46008,-0.66711 -0.46008,-0.92015 0,-0.59249 0.78776,-1.38024 1.38025,-1.38024 0.59248,0 1.38022,0.78775 1.38022,1.38024 0,0.59248 -0.78774,1.38023 -1.38022,1.38023 -0.25306,0 -0.66713,-0.20703 -0.92017,-0.46008 z m 12.34278,0.0395 c -0.79546,-0.87897 -0.25523,-2.3398 0.86528,-2.3398 1.18584,0 1.74087,1.72457 0.77317,2.40237 -0.67305,0.47143 -1.17246,0.45235 -1.63845,-0.0626 z m 12.32265,0.0626 c -0.97911,-0.68579 -0.4118,-2.40237 0.79394,-2.40237 1.07607,0 1.62853,1.63407 0.80456,2.37976 -0.52506,0.47517 -0.94393,0.48109 -1.5985,0.0227 z m 12.14092,-0.10196 c -0.87663,-0.87661 -0.27541,-2.30039 0.97134,-2.30039 0.54908,0 1.32905,0.81 1.32905,1.38023 0,0.59249 -0.78775,1.38024 -1.38024,1.38024 -0.25304,0 -0.66711,-0.20704 -0.92015,-0.46008 z m 12.1921,0 c -0.25306,-0.25304 -0.46008,-0.66713 -0.46008,-0.92016 0,-0.59248 0.78775,-1.38023 1.38024,-1.38023 0.59249,0 1.38023,0.78775 1.38023,1.38023 0,0.59249 -0.78774,1.38024 -1.38023,1.38024 -0.25306,0 -0.66713,-0.20704 -0.92016,-0.46008 z m 12.34277,0.0393 c -0.79546,-0.87897 -0.25523,-2.3398 0.86528,-2.3398 1.18586,0 1.74087,1.72459 0.77318,2.40239 -0.67306,0.47143 -1.17247,0.45234 -1.63846,-0.0627 z m 12.32265,0.0626 c -0.9791,-0.68577 -0.4118,-2.40237 0.79394,-2.40237 1.07608,0 1.62853,1.63408 0.80456,2.37977 -0.52506,0.47516 -0.94392,0.48108 -1.5985,0.0225 z m 12.14092,-0.10196 c -0.87661,-0.8766 -0.27541,-2.30039 0.97134,-2.30039 0.54908,0 1.32905,0.81002 1.32905,1.38024 0,0.59248 -0.78775,1.38023 -1.38024,1.38023 -0.25304,0 -0.66711,-0.20703 -0.92015,-0.46008 z m 12.1921,0 c -0.25305,-0.25304 -0.46008,-0.66711 -0.46008,-0.92015 0,-0.59249 0.78775,-1.38024 1.38024,-1.38024 0.59249,0 1.38024,0.78775 1.38024,1.38024 0,0.59248 -0.78775,1.38023 -1.38024,1.38023 -0.25304,0 -0.66712,-0.20703 -0.92016,-0.46008 z m 12.34277,0.0395 c -0.79545,-0.87897 -0.25523,-2.3398 0.86528,-2.3398 1.18584,0 1.74087,1.72457 0.77318,2.40237 -0.67305,0.47143 -1.17246,0.45236 -1.63846,-0.0626 z m 12.32265,0.0626 c -0.97908,-0.68579 -0.4118,-2.40237 0.79394,-2.40237 1.07608,0 1.62855,1.63407 0.80457,2.37976 -0.52506,0.47517 -0.94393,0.48109 -1.59851,0.0227 z m 12.14093,-0.10196 c -0.87662,-0.87661 -0.27542,-2.30039 0.97133,-2.30039 0.54908,0 1.32906,0.81002 1.32906,1.38023 0,0.59249 -0.78774,1.38024 -1.38023,1.38024 -0.25306,0 -0.66713,-0.20704 -0.92016,-0.46008 z m 12.19209,0 c -0.25303,-0.25304 -0.46008,-0.66711 -0.46008,-0.92016 0,-0.59248 0.78776,-1.38023 1.38025,-1.38023 0.59248,0 1.38024,0.78775 1.38024,1.38023 0,0.59249 -0.78776,1.38024 -1.38024,1.38024 -0.25304,0 -0.66711,-0.20704 -0.92017,-0.46008 z m 12.47333,0.10196 c -0.9791,-0.68579 -0.4118,-2.40237 0.79394,-2.40237 1.07608,0 1.62853,1.63407 0.80456,2.37976 -0.52507,0.47517 -0.94392,0.48109 -1.5985,0.0227 z m 12.14092,-0.10196 c -0.87662,-0.87661 -0.27541,-2.30039 0.97134,-2.30039 0.54908,0 1.32905,0.81002 1.32905,1.38023 0,0.59249 -0.78775,1.38024 -1.38024,1.38024 -0.25304,0 -0.66711,-0.20704 -0.92015,-0.46008 z m 12.1921,0 c -0.25304,-0.25304 -0.46008,-0.66711 -0.46008,-0.92016 0,-0.59248 0.78775,-1.38023 1.38024,-1.38023 0.59249,0 1.38023,0.78775 1.38023,1.38023 0,0.59249 -0.78774,1.38024 -1.38023,1.38024 -0.25305,0 -0.66712,-0.20704 -0.92016,-0.46008 z m 12.34277,0.0393 c -0.79545,-0.87897 -0.25523,-2.33978 0.86528,-2.33978 1.18586,0 1.74087,1.72457 0.77318,2.40237 -0.67305,0.47143 -1.17246,0.45234 -1.63846,-0.0626 z m 12.32265,0.0626 c -0.9791,-0.68577 -0.4118,-2.40237 0.79394,-2.40237 1.07608,0 1.62854,1.63408 0.80457,2.37977 -0.52506,0.47516 -0.94393,0.48108 -1.59851,0.0225 z m 12.14093,-0.10212 c -0.87662,-0.8766 -0.27542,-2.30039 0.97133,-2.30039 0.54908,0 1.32906,0.81002 1.32906,1.38023 0,0.59249 -0.78776,1.38024 -1.38025,1.38024 -0.25304,0 -0.66711,-0.20704 -0.92014,-0.46008 z m 12.19209,0 c -0.25305,-0.25304 -0.46008,-0.66711 -0.46008,-0.92016 0,-0.59248 0.78776,-1.38023 1.38025,-1.38023 0.59248,0 1.38024,0.78775 1.38024,1.38023 0,0.59249 -0.78776,1.38024 -1.38024,1.38024 -0.25304,0 -0.66713,-0.20704 -0.92017,-0.46008 z m 12.34278,0.0395 c -0.79546,-0.87899 -0.25523,-2.3398 0.86528,-2.3398 1.18585,0 1.74087,1.72457 0.77317,2.40237 -0.67305,0.47143 -1.17246,0.45235 -1.63845,-0.0626 z m 12.32265,0.0626 c -0.97911,-0.68579 -0.4118,-2.40238 0.79393,-2.40238 1.07608,0 1.62856,1.63408 0.80457,2.37977 -0.52506,0.47515 -0.94393,0.48108 -1.5985,0.0227 z m 12.14092,-0.10196 c -0.87661,-0.87661 -0.27541,-2.30041 0.97133,-2.30041 0.54909,0 1.32906,0.81002 1.32906,1.38025 0,0.59249 -0.78776,1.38024 -1.38024,1.38024 -0.25304,0 -0.66711,-0.20704 -0.92015,-0.46008 z m 12.1921,0 c -0.25304,-0.25306 -0.46008,-0.66713 -0.46008,-0.92016 0,-0.59248 0.78775,-1.38025 1.38024,-1.38025 0.59249,0 1.38024,0.78777 1.38024,1.38025 0,0.59249 -0.78775,1.38024 -1.38024,1.38024 -0.25304,0 -0.66711,-0.20704 -0.92016,-0.46008 z m 12.34277,0.0393 c -0.79544,-0.87897 -0.25523,-2.3398 0.86528,-2.3398 1.18586,0 1.74087,1.72457 0.77318,2.40237 -0.67306,0.47143 -1.17247,0.45236 -1.63846,-0.0626 z m 12.32265,0.0626 c -0.97909,-0.68577 -0.41178,-2.40237 0.79394,-2.40237 1.07608,0 1.62855,1.63407 0.80456,2.37977 -0.52506,0.47516 -0.94392,0.48108 -1.5985,0.0225 z m 12.14092,-0.10196 c -0.87661,-0.8766 -0.27539,-2.30039 0.97134,-2.30039 0.5491,0 1.32905,0.81002 1.32905,1.38024 0,0.59248 -0.78774,1.38023 -1.38023,1.38023 -0.25305,0 -0.66712,-0.20704 -0.92016,-0.46008 z m 12.1921,0 c -0.25304,-0.25304 -0.46008,-0.66711 -0.46008,-0.92015 0,-0.59249 0.78775,-1.38024 1.38024,-1.38024 0.59249,0 1.38024,0.78775 1.38024,1.38024 0,0.59248 -0.78775,1.38023 -1.38024,1.38023 -0.25304,0 -0.66711,-0.20704 -0.92016,-0.46008 z m 12.47333,0.10196 c -0.97911,-0.68577 -0.4118,-2.40237 0.79393,-2.40237 1.07608,0 1.62854,1.63407 0.80457,2.37977 -0.52506,0.47516 -0.94393,0.48108 -1.5985,0.0225 z m 12.14092,-0.10196 c -0.87661,-0.8766 -0.27541,-2.30039 0.97133,-2.30039 0.54909,0 1.32906,0.81002 1.32906,1.38024 0,0.59248 -0.78774,1.38023 -1.38024,1.38023 -0.25304,0 -0.66711,-0.20704 -0.92015,-0.46008 z M 182.90669,180.38678 c -0.87358,-1.63229 1.36904,-2.97938 2.27136,-1.36435 0.3033,0.54286 0.2975,0.66888 -0.0556,1.2077 -0.49875,0.76119 -1.84147,0.85612 -2.21581,0.15662 z m 12.33468,0.0243 c -0.47516,-0.52505 -0.48109,-0.94391 -0.0225,-1.59849 0.44215,-0.63125 1.4899,-0.67819 2.02167,-0.0906 0.43715,0.48305 0.48377,1.0273 0.14256,1.6648 -0.31337,0.58555 -1.62027,0.60037 -2.14163,0.0243 z m 12.31746,0.14463 c -0.44952,-0.44953 -0.34113,-1.74328 0.16893,-2.01627 1.05693,-0.56564 2.08546,-0.0169 2.08546,1.11255 0,0.81978 -0.38605,1.17977 -1.26521,1.17977 -0.39221,0 -0.83734,-0.12418 -0.98918,-0.27605 z m 12.19211,0 c -0.39085,-0.39083 -0.34236,-1.46511 0.0855,-1.89289 0.80645,-0.80647 2.16894,-0.26258 2.16894,0.86581 0,0.94003 -0.35252,1.30313 -1.26521,1.30313 -0.39222,0 -0.83736,-0.12418 -0.98917,-0.27605 z m 12.29677,-0.14463 c -0.47517,-0.52505 -0.48109,-0.94391 -0.0225,-1.59849 0.44214,-0.63125 1.48988,-0.67819 2.02165,-0.0906 0.43715,0.48305 0.48377,1.0273 0.14256,1.6648 -0.31337,0.58555 -1.62027,0.60037 -2.14163,0.0243 z m 12.31748,0.14463 c -0.44953,-0.44953 -0.34114,-1.74328 0.1689,-2.01627 1.05695,-0.56564 2.08548,-0.0169 2.08548,1.11255 0,0.81978 -0.38605,1.17977 -1.26522,1.17977 -0.39221,0 -0.83735,-0.12418 -0.98916,-0.27605 z m 12.1921,0 c -0.39085,-0.39083 -0.34236,-1.46511 0.0855,-1.89289 0.80646,-0.80647 2.16896,-0.26258 2.16896,0.86581 0,0.94003 -0.35253,1.30313 -1.26522,1.30313 -0.39223,0 -0.83735,-0.12418 -0.98917,-0.27605 z m 12.15419,-0.16891 c -0.87359,-1.63229 1.36904,-2.97939 2.27135,-1.36436 0.3033,0.54287 0.2975,0.66888 -0.0556,1.20771 -0.49875,0.76119 -1.84146,0.85612 -2.21579,0.15662 z m 12.33469,0.0243 c -0.47517,-0.52504 -0.4811,-0.94391 -0.0227,-1.59849 0.44213,-0.63124 1.48988,-0.67818 2.02167,-0.0906 0.43713,0.48304 0.48375,1.0273 0.14256,1.66479 -0.31337,0.58556 -1.62028,0.60037 -2.14163,0.0243 z m 12.31747,0.14464 c -0.44953,-0.44954 -0.34115,-1.74329 0.16891,-2.01627 1.05693,-0.56564 2.08547,-0.0169 2.08547,1.11255 0,0.81976 -0.38606,1.17977 -1.26523,1.17977 -0.3922,0 -0.83733,-0.12418 -0.98915,-0.27605 z m 12.19209,0 c -0.39084,-0.39084 -0.34235,-1.46511 0.0855,-1.89289 0.80643,-0.80647 2.16894,-0.26258 2.16894,0.86579 0,0.94004 -0.35253,1.30315 -1.26523,1.30315 -0.3922,0 -0.83734,-0.12418 -0.98917,-0.27605 z m 12.15419,-0.16891 c -0.87359,-1.63229 1.36904,-2.97939 2.27137,-1.36436 0.30328,0.54286 0.29748,0.66888 -0.0556,1.2077 -0.49875,0.7612 -1.84146,0.85613 -2.21579,0.15662 z m 12.33469,0.0243 c -0.47517,-0.52505 -0.4811,-0.94391 -0.0227,-1.59849 0.44214,-0.63125 1.4899,-0.67818 2.02167,-0.0906 0.43715,0.48303 0.48375,1.02731 0.14256,1.6648 -0.31339,0.58555 -1.62027,0.60037 -2.14163,0.0243 z m 12.31746,0.14463 c -0.44952,-0.44953 -0.34113,-1.7433 0.16892,-2.01626 1.05694,-0.56564 2.08547,-0.0169 2.08547,1.11255 0,0.81976 -0.38605,1.17976 -1.26521,1.17976 -0.39222,0 -0.83734,-0.12417 -0.98918,-0.27605 z m 12.19211,0 c -0.39085,-0.39085 -0.34236,-1.4651 0.0855,-1.8929 0.80645,-0.80645 2.16894,-0.26256 2.16894,0.86581 0,0.94004 -0.35254,1.30314 -1.26522,1.30314 -0.39221,0 -0.83735,-0.12417 -0.98917,-0.27605 z m 12.15419,-0.16891 c -0.87358,-1.63229 1.36904,-2.97938 2.27136,-1.36436 0.30329,0.54287 0.2975,0.66889 -0.0556,1.20771 -0.49874,0.76119 -1.84146,0.85612 -2.2158,0.15662 z m 12.33468,0.0243 c -0.47517,-0.52506 -0.4811,-0.94391 -0.0225,-1.59848 0.44215,-0.63125 1.48989,-0.67819 2.02167,-0.0906 0.43714,0.48303 0.48375,1.0273 0.14255,1.6648 -0.31337,0.58555 -1.62027,0.60035 -2.14162,0.0243 z m 12.31747,0.14464 c -0.44951,-0.44953 -0.34114,-1.7433 0.16892,-2.01627 1.05693,-0.56564 2.08546,-0.0169 2.08546,1.11254 0,0.81978 -0.38605,1.17978 -1.2652,1.17978 -0.39223,0 -0.83735,-0.12418 -0.98918,-0.27605 z m 12.15419,-0.16891 c -0.87359,-1.63229 1.36904,-2.97939 2.27135,-1.36436 0.3033,0.54287 0.2975,0.66888 -0.0556,1.20771 -0.49876,0.76119 -1.84146,0.85612 -2.2158,0.15662 z m 12.33469,0.0243 c -0.47517,-0.52506 -0.48108,-0.94391 -0.0225,-1.59849 0.44214,-0.63124 1.4899,-0.67818 2.02166,-0.0906 0.43714,0.48303 0.48375,1.0273 0.14255,1.66479 -0.31337,0.58556 -1.62025,0.60035 -2.14161,0.0243 z m 12.31747,0.14463 c -0.44952,-0.44953 -0.34116,-1.74329 0.16891,-2.01626 1.05695,-0.56564 2.08548,-0.0169 2.08548,1.11253 0,0.81978 -0.38606,1.17979 -1.26522,1.17979 -0.39222,0 -0.83734,-0.12418 -0.98917,-0.27606 z m 12.1921,0 c -0.39083,-0.39084 -0.34235,-1.4651 0.0855,-1.8929 0.80648,-0.80645 2.16896,-0.26256 2.16896,0.86581 0,0.94004 -0.35254,1.30315 -1.26523,1.30315 -0.3922,0 -0.83734,-0.12418 -0.98917,-0.27606 z m 12.15419,-0.16891 c -0.87358,-1.63229 1.36904,-2.97938 2.27136,-1.36435 0.30329,0.54285 0.29749,0.66888 -0.0556,1.2077 -0.49878,0.76119 -1.84148,0.85612 -2.21582,0.15662 z m 12.33468,0.0243 c -0.47517,-0.52507 -0.48108,-0.94393 -0.0225,-1.59849 0.44211,-0.63125 1.48989,-0.67819 2.02165,-0.0906 0.43715,0.48303 0.48375,1.0273 0.14256,1.6648 -0.31339,0.58555 -1.62026,0.60035 -2.14163,0.0243 z m 12.31747,0.14463 c -0.44951,-0.44953 -0.34114,-1.7433 0.16892,-2.01627 1.05694,-0.56565 2.08548,-0.0169 2.08548,1.11254 0,0.81978 -0.38606,1.17977 -1.26522,1.17977 -0.39223,0 -0.83735,-0.12418 -0.98918,-0.27604 z m 12.1921,0 c -0.39083,-0.39085 -0.34234,-1.46511 0.0855,-1.8929 0.80649,-0.80646 2.16896,-0.26257 2.16896,0.8658 0,0.94005 -0.35254,1.30314 -1.26522,1.30314 -0.39221,0 -0.83735,-0.12418 -0.98916,-0.27604 z m 12.15419,-0.16891 c -0.87358,-1.63231 1.36904,-2.97939 2.27137,-1.36436 0.30328,0.54285 0.29749,0.66887 -0.0556,1.20771 -0.49877,0.76119 -1.84148,0.85612 -2.21581,0.15662 z m 12.33468,0.0243 c -0.47516,-0.52506 -0.48108,-0.94392 -0.0225,-1.5985 0.44213,-0.63123 1.48989,-0.67817 2.02165,-0.0906 0.43715,0.48303 0.48375,1.02729 0.14256,1.6648 -0.31339,0.58555 -1.62027,0.60035 -2.14163,0.0243 z m 12.31748,0.14464 c -0.44952,-0.44954 -0.34115,-1.7433 0.16891,-2.01627 1.05695,-0.56566 2.08547,-0.0169 2.08547,1.11253 0,0.81978 -0.38604,1.17977 -1.26521,1.17977 -0.39222,0 -0.83735,-0.12418 -0.98917,-0.27603 z m 12.19209,0 c -0.39083,-0.39085 -0.34234,-1.46511 0.0855,-1.89291 0.80646,-0.80645 2.16895,-0.26256 2.16895,0.86581 0,0.94004 -0.35254,1.30313 -1.26522,1.30313 -0.39222,0 -0.83735,-0.12418 -0.98917,-0.27603 z m 12.15421,-0.16891 c -0.87359,-1.63231 1.36902,-2.97941 2.27135,-1.36436 0.3033,0.54285 0.2975,0.66886 -0.0556,1.2077 -0.49877,0.7612 -1.84146,0.85613 -2.2158,0.15662 z m 12.33467,0.0243 c -0.47517,-0.52506 -0.48108,-0.94393 -0.0225,-1.59851 0.44214,-0.63123 1.4899,-0.67818 2.02166,-0.0906 0.43714,0.48303 0.48375,1.02728 0.14255,1.66479 -0.31338,0.58556 -1.62027,0.60036 -2.14162,0.0243 z m 12.31747,0.14463 c -0.39083,-0.39083 -0.34234,-1.46509 0.0855,-1.89289 0.80649,-0.80645 2.16896,-0.26256 2.16896,0.86581 0,0.94005 -0.35254,1.30313 -1.26521,1.30313 -0.39222,0 -0.83736,-0.12417 -0.98918,-0.27605 z m 12.15419,-0.16889 c -0.87356,-1.63231 1.36904,-2.97941 2.27137,-1.36438 0.30328,0.54287 0.29748,0.66889 -0.0556,1.20773 -0.49877,0.76119 -1.84148,0.8561 -2.21581,0.15662 z m 12.33468,0.0243 c -0.47516,-0.52506 -0.48108,-0.94393 -0.0225,-1.5985 0.44213,-0.63123 1.48989,-0.67819 2.02165,-0.0906 0.43715,0.48303 0.48377,1.02729 0.14256,1.6648 -0.31339,0.58555 -1.62026,0.60035 -2.14163,0.0243 z m 12.31748,0.14463 c -0.44952,-0.44951 -0.34115,-1.74328 0.16891,-2.01625 1.05695,-0.56565 2.08548,-0.0169 2.08548,1.11254 0,0.81978 -0.38605,1.17977 -1.26522,1.17977 -0.39222,0 -0.83735,-0.12418 -0.98917,-0.27606 z m 12.19209,0 c -0.39083,-0.39083 -0.34234,-1.46509 0.0855,-1.89288 0.80648,-0.80646 2.16895,-0.26258 2.16895,0.8658 0,0.94005 -0.35254,1.30314 -1.2652,1.30314 -0.39223,0 -0.83737,-0.12418 -0.98918,-0.27606 z m 12.15419,-0.16889 c -0.87357,-1.63231 1.36904,-2.9794 2.27137,-1.36437 0.30328,0.54286 0.2975,0.66888 -0.0556,1.2077 -0.49877,0.76121 -1.84147,0.85612 -2.21581,0.15662 z m 12.33469,0.0243 c -0.47517,-0.52504 -0.48108,-0.94391 -0.0225,-1.59849 0.44215,-0.63124 1.4899,-0.67818 2.02166,-0.0906 0.43714,0.48303 0.48376,1.02728 0.14255,1.66479 -0.31338,0.58554 -1.62025,0.60036 -2.14162,0.0243 z m 12.31747,0.14464 c -0.44952,-0.44952 -0.34114,-1.74329 0.16891,-2.01625 1.05695,-0.56566 2.08548,-0.0169 2.08548,1.11253 0,0.81978 -0.38605,1.17977 -1.26522,1.17977 -0.39222,0 -0.83734,-0.12418 -0.98917,-0.27605 z m 12.19211,0 c -0.39084,-0.39084 -0.34236,-1.46511 0.0855,-1.89289 0.80648,-0.80647 2.16895,-0.26258 2.16895,0.86581 0,0.94004 -0.35252,1.30313 -1.26522,1.30313 -0.39221,0 -0.83735,-0.12418 -0.98916,-0.27605 z m 12.15419,-0.1689 c -0.87359,-1.6323 1.36903,-2.9794 2.27135,-1.36437 0.3033,0.54286 0.2975,0.66888 -0.0556,1.2077 -0.49878,0.76121 -1.84146,0.85613 -2.21582,0.15662 z m 12.33467,0.0243 c -0.47517,-0.52504 -0.48108,-0.94391 -0.0225,-1.59848 0.44213,-0.63125 1.48989,-0.67819 2.02165,-0.0906 0.43715,0.48305 0.48375,1.0273 0.14256,1.6648 -0.31337,0.58555 -1.62026,0.60036 -2.14163,0.0243 z m 12.31747,0.14464 c -0.44951,-0.44952 -0.34114,-1.74328 0.16893,-2.01625 1.05693,-0.56566 2.08547,-0.0169 2.08547,1.11253 0,0.81978 -0.38606,1.17977 -1.26522,1.17977 -0.39223,0 -0.83735,-0.12418 -0.98918,-0.27605 z m 12.19212,0 c -0.39085,-0.39083 -0.34236,-1.46511 0.0855,-1.89289 0.80648,-0.80647 2.16895,-0.26258 2.16895,0.86581 0,0.94003 -0.35252,1.30313 -1.26522,1.30313 -0.3922,0 -0.83733,-0.12418 -0.98915,-0.27605 z m 12.15419,-0.16891 c -0.8736,-1.63229 1.36902,-2.97939 2.27136,-1.36436 0.30329,0.54287 0.29748,0.66888 -0.0556,1.20771 -0.49877,0.7612 -1.84145,0.85612 -2.21579,0.15662 z m 12.33466,0.0243 c -0.47516,-0.52505 -0.48108,-0.94391 -0.0225,-1.59849 0.44213,-0.63124 1.48991,-0.67818 2.02167,-0.0906 0.43715,0.48305 0.48373,1.02731 0.14256,1.6648 -0.31339,0.58555 -1.62028,0.60037 -2.14163,0.0243 z m 12.31748,0.14463 c -0.39083,-0.39083 -0.34235,-1.4651 0.0855,-1.89288 0.80648,-0.80647 2.16896,-0.26258 2.16896,0.8658 0,0.94003 -0.35255,1.30314 -1.26521,1.30314 -0.39222,0 -0.83736,-0.12418 -0.98917,-0.27606 z m 12.15419,-0.16891 c -0.87356,-1.63229 1.36904,-2.97938 2.27136,-1.36435 0.30329,0.54286 0.2975,0.66888 -0.0556,1.2077 -0.49878,0.76119 -1.84148,0.85612 -2.21582,0.15662 z M 183.04926,168.2192 c -0.20937,-0.23138 -0.3807,-0.63805 -0.3807,-0.90373 0,-1.27064 1.86896,-1.63178 2.50957,-0.4849 0.30319,0.54282 0.29739,0.66891 -0.0556,1.2077 -0.47323,0.72223 -1.50208,0.81202 -2.07322,0.18093 z m 12.1695,-0.0906 c -0.47143,-0.67306 -0.45235,-1.17245 0.0626,-1.63846 0.87896,-0.79546 2.3398,-0.25523 2.3398,0.86528 0,1.18584 -1.72459,1.74087 -2.40239,0.77318 z m 12.34007,0.23522 c -0.35657,-0.35659 -0.35657,-1.62176 0,-1.97835 0.44953,-0.44953 1.7433,-0.34114 2.01626,0.16891 0.34163,0.63835 0.2938,1.30683 -0.12337,1.724 -0.42782,0.42778 -1.50207,0.47628 -1.89292,0.0855 z m 12.27755,-0.0855 c -0.4278,-0.42779 -0.47629,-1.50205 -0.0855,-1.8929 0.15182,-0.15183 0.59694,-0.27604 0.98917,-0.27604 0.90301,0 1.26522,0.36221 1.26522,1.26523 0,0.3922 -0.12418,0.83733 -0.27605,0.98915 -0.39085,0.39085 -1.46509,0.34235 -1.89291,-0.0855 z m 12.18871,-0.14975 c -0.47141,-0.67305 -0.45234,-1.17244 0.0627,-1.63845 0.87898,-0.79546 2.3398,-0.25523 2.3398,0.86529 0,1.18583 -1.72458,1.74086 -2.40238,0.77316 z m 12.3401,0.23522 c -0.15182,-0.15182 -0.27605,-0.59694 -0.27605,-0.98915 0,-0.9127 0.36309,-1.26522 1.30313,-1.26522 1.12839,0 1.67228,1.36247 0.86581,2.16894 -0.4278,0.42778 -1.50205,0.47628 -1.89289,0.0855 z m 12.27754,-0.0855 c -0.4278,-0.4278 -0.47629,-1.50205 -0.0855,-1.89289 0.15182,-0.15182 0.59695,-0.27605 0.98917,-0.27605 0.39222,0 0.83733,0.12418 0.98917,0.27605 0.15183,0.15183 0.27604,0.59695 0.27604,0.98917 0,0.39221 -0.12418,0.83735 -0.27604,0.98916 -0.39085,0.39085 -1.46511,0.34236 -1.8929,-0.0855 z m 12.21132,-0.0593 c -0.20939,-0.23137 -0.38071,-0.63805 -0.38071,-0.90372 0,-1.27065 1.86896,-1.63178 2.50957,-0.48491 0.3032,0.54281 0.2974,0.66893 -0.0556,1.20772 -0.47323,0.72223 -1.5021,0.81201 -2.07322,0.18091 z m 12.1695,-0.0906 c -0.47143,-0.67305 -0.45234,-1.17245 0.0626,-1.63844 0.87896,-0.79547 2.33978,-0.25524 2.33978,0.86528 0,1.18583 -1.72457,1.74087 -2.40237,0.77316 z m 12.34009,0.23522 c -0.15183,-0.15182 -0.27605,-0.59695 -0.27605,-0.98915 0,-0.9127 0.36308,-1.26523 1.30313,-1.26523 1.12838,0 1.67227,1.36249 0.86581,2.16894 -0.4278,0.4278 -1.50206,0.47629 -1.89289,0.0855 z m 12.27753,-0.0855 c -0.42779,-0.42781 -0.47628,-1.50206 -0.0855,-1.8929 0.15183,-0.15183 0.59695,-0.27606 0.98917,-0.27606 0.39221,0 0.83735,0.12418 0.98917,0.27606 0.15183,0.15182 0.27605,0.59694 0.27605,0.98917 0,0.39222 -0.12417,0.83734 -0.27605,0.98917 -0.39085,0.39085 -1.4651,0.34234 -1.8929,-0.0855 z m 12.21133,-0.0591 c -0.2094,-0.23139 -0.3807,-0.63806 -0.3807,-0.90374 0,-1.27064 1.86894,-1.63177 2.50955,-0.4849 0.30321,0.54282 0.29741,0.66892 -0.0556,1.20771 -0.47324,0.72223 -1.50209,0.81201 -2.07323,0.18093 z m 12.16949,-0.0906 c -0.47142,-0.67305 -0.45234,-1.17245 0.0626,-1.63846 0.87896,-0.79545 2.33979,-0.25523 2.33979,0.86528 0,1.18584 -1.72457,1.74087 -2.40237,0.77318 z m 12.34008,0.23522 c -0.15183,-0.15183 -0.27604,-0.59696 -0.27604,-0.98917 0,-0.9127 0.36309,-1.26522 1.30313,-1.26522 1.12839,0 1.67226,1.36248 0.86581,2.16894 -0.4278,0.42779 -1.50206,0.4763 -1.8929,0.0855 z m 12.27756,-0.0855 c -0.42781,-0.4278 -0.4763,-1.50206 -0.0855,-1.89291 0.15183,-0.15182 0.59695,-0.27603 0.98917,-0.27603 0.39221,0 0.83735,0.12418 0.98917,0.27603 0.15183,0.15183 0.27605,0.59695 0.27605,0.98918 0,0.39222 -0.12417,0.83734 -0.27605,0.98917 -0.39083,0.39084 -1.4651,0.34234 -1.89289,-0.0855 z m 12.21131,-0.0591 c -0.20939,-0.23139 -0.3807,-0.63806 -0.3807,-0.90372 0,-1.27066 1.86895,-1.6318 2.50957,-0.48492 0.30319,0.54282 0.29739,0.66892 -0.0556,1.20771 -0.47324,0.72223 -1.50209,0.81203 -2.07323,0.18093 z m 12.1695,-0.0906 c -0.47143,-0.67305 -0.45236,-1.17245 0.0627,-1.63846 0.87896,-0.79546 2.33978,-0.25523 2.33978,0.8653 0,1.18582 -1.72457,1.74085 -2.40237,0.77316 z m 12.34008,0.23522 c -0.15182,-0.15183 -0.27605,-0.59695 -0.27605,-0.98917 0,-0.91269 0.36309,-1.26521 1.30313,-1.26521 1.12839,0 1.67228,1.36247 0.86583,2.16894 -0.4278,0.42778 -1.50206,0.47629 -1.89291,0.0855 z m 12.29677,-0.14464 c -0.2094,-0.23138 -0.38072,-0.63805 -0.38072,-0.90371 0,-1.27066 1.86898,-1.6318 2.50957,-0.48492 0.30321,0.54282 0.29741,0.66891 -0.0556,1.2077 -0.47324,0.72223 -1.50211,0.81203 -2.07324,0.18093 z m 12.16949,-0.0906 c -0.47141,-0.67306 -0.45234,-1.17245 0.0626,-1.63846 0.879,-0.79546 2.3398,-0.25523 2.3398,0.8653 0,1.18582 -1.72458,1.74085 -2.40237,0.77316 z m 12.34009,0.23522 c -0.15182,-0.15183 -0.27605,-0.59695 -0.27605,-0.98917 0,-0.91269 0.3631,-1.26521 1.30313,-1.26521 1.12839,0 1.67228,1.36247 0.86582,2.16894 -0.42781,0.42778 -1.50207,0.47628 -1.8929,0.0855 z m 12.27754,-0.0855 c -0.42779,-0.42779 -0.47627,-1.50205 -0.0855,-1.89288 0.15183,-0.15183 0.59695,-0.27606 0.98917,-0.27606 0.903,0 1.26521,0.36221 1.26521,1.26523 0,0.3922 -0.12418,0.83734 -0.27603,0.98915 -0.39084,0.39085 -1.46511,0.34236 -1.89291,-0.0855 z m 12.21133,-0.0591 c -0.2094,-0.23137 -0.38071,-0.63805 -0.38071,-0.90372 0,-1.27065 1.86895,-1.63177 2.50956,-0.48491 0.3032,0.54282 0.2974,0.66893 -0.0556,1.20772 -0.47325,0.72223 -1.50212,0.81201 -2.07324,0.18091 z m 12.16949,-0.0906 c -0.47141,-0.67306 -0.45235,-1.17245 0.0627,-1.63845 0.87899,-0.79547 2.33981,-0.25524 2.33981,0.86528 0,1.18583 -1.7246,1.74086 -2.40238,0.77317 z m 12.34008,0.23521 c -0.15182,-0.15182 -0.27605,-0.59694 -0.27605,-0.98915 0,-0.9127 0.36311,-1.26522 1.30313,-1.26522 1.12839,0 1.67228,1.36248 0.86583,2.16894 -0.42782,0.42779 -1.50207,0.47628 -1.89291,0.0855 z m 12.27754,-0.0855 c -0.42778,-0.4278 -0.47627,-1.50205 -0.0855,-1.89289 0.15182,-0.15182 0.59695,-0.27605 0.98917,-0.27605 0.903,0 1.26522,0.36221 1.26522,1.26523 0,0.3922 -0.12418,0.83734 -0.27605,0.98917 -0.39085,0.39084 -1.46509,0.34234 -1.8929,-0.0855 z m 12.21134,-0.0591 c -0.20941,-0.23138 -0.38072,-0.63807 -0.38072,-0.90373 0,-1.27066 1.86895,-1.63178 2.50958,-0.48492 0.30318,0.54282 0.29738,0.66893 -0.0556,1.20772 -0.47323,0.72223 -1.5021,0.81201 -2.07323,0.18093 z m 12.16948,-0.0906 c -0.47143,-0.67305 -0.45235,-1.17245 0.0626,-1.63844 0.87898,-0.79546 2.33981,-0.25524 2.33981,0.86528 0,1.18583 -1.7246,1.74087 -2.40236,0.77316 z m 12.34009,0.23522 c -0.15183,-0.15182 -0.27605,-0.59695 -0.27605,-0.98915 0,-0.9127 0.3631,-1.26523 1.30313,-1.26523 1.12838,0 1.67227,1.36249 0.86582,2.16894 -0.42781,0.4278 -1.50205,0.47629 -1.8929,0.0855 z m 12.27753,-0.0855 c -0.42778,-0.4278 -0.47627,-1.50206 -0.0855,-1.8929 0.15183,-0.15183 0.59696,-0.27606 0.98919,-0.27606 0.903,0 1.2652,0.36221 1.2652,1.26523 0,0.39222 -0.12417,0.83734 -0.27603,0.98917 -0.39085,0.39085 -1.46511,0.34234 -1.89291,-0.0855 z m 12.21134,-0.0591 c -0.20941,-0.23139 -0.38071,-0.63806 -0.38071,-0.90374 0,-1.27064 1.86896,-1.63177 2.50957,-0.4849 0.30319,0.54282 0.29739,0.66892 -0.0556,1.20771 -0.47323,0.72223 -1.5021,0.81201 -2.07322,0.18093 z m 12.16948,-0.0906 c -0.47142,-0.67305 -0.45234,-1.17245 0.0627,-1.63846 0.87898,-0.79545 2.3398,-0.25523 2.3398,0.86528 0,1.18584 -1.72458,1.74087 -2.40237,0.77318 z m 12.42553,0.14975 c -0.42778,-0.42781 -0.47627,-1.50206 -0.0855,-1.8929 0.15182,-0.15183 0.59695,-0.27606 0.98917,-0.27606 0.903,0 1.2652,0.36221 1.2652,1.26523 0,0.39222 -0.12417,0.83734 -0.27603,0.98917 -0.39083,0.39085 -1.46511,0.34234 -1.8929,-0.0855 z m 12.21134,-0.0591 c -0.20941,-0.23139 -0.38073,-0.63806 -0.38073,-0.90374 0,-1.27064 1.86896,-1.63177 2.50957,-0.4849 0.3032,0.54282 0.2974,0.66892 -0.0556,1.20771 -0.47323,0.72223 -1.50212,0.81201 -2.07324,0.18093 z m 12.16948,-0.0906 c -0.47141,-0.67305 -0.45235,-1.17245 0.0627,-1.63846 0.87899,-0.79545 2.33981,-0.25523 2.33981,0.86528 0,1.18584 -1.72458,1.74087 -2.40238,0.77318 z m 12.34009,0.23522 c -0.15183,-0.15183 -0.27605,-0.59695 -0.27605,-0.98917 0,-0.9127 0.3631,-1.26522 1.30313,-1.26522 1.12838,0 1.67227,1.36248 0.86582,2.16895 -0.42781,0.42778 -1.50207,0.47629 -1.8929,0.0855 z m 12.27753,-0.0855 c -0.42778,-0.4278 -0.47627,-1.50206 -0.0855,-1.89291 0.15183,-0.15182 0.59695,-0.27603 0.98917,-0.27603 0.903,0 1.26522,0.36221 1.26522,1.26521 0,0.39222 -0.12417,0.83734 -0.27605,0.98917 -0.39083,0.39084 -1.4651,0.34234 -1.8929,-0.0855 z m 12.21134,-0.0591 c -0.20941,-0.23137 -0.38071,-0.63806 -0.38071,-0.90372 0,-1.27066 1.86894,-1.6318 2.50957,-0.48492 0.30319,0.54282 0.29739,0.66892 -0.0556,1.20771 -0.47323,0.72223 -1.50212,0.81203 -2.07324,0.18093 z m 12.16948,-0.0906 c -0.47141,-0.67305 -0.45234,-1.17245 0.0627,-1.63846 0.879,-0.79546 2.33982,-0.25523 2.33982,0.8653 0,1.18582 -1.7246,1.74085 -2.40237,0.77316 z m 12.34009,0.23522 c -0.15182,-0.15183 -0.27605,-0.59695 -0.27605,-0.98917 0,-0.91269 0.3631,-1.26521 1.30313,-1.26521 1.1284,0 1.67228,1.36247 0.86582,2.16894 -0.42781,0.42778 -1.50205,0.47629 -1.8929,0.0855 z m 12.27754,-0.0855 c -0.42779,-0.4278 -0.47627,-1.50206 -0.0855,-1.89289 0.15183,-0.15183 0.59697,-0.27605 0.98917,-0.27605 0.903,0 1.26523,0.36221 1.26523,1.26522 0,0.39221 -0.12418,0.83734 -0.27605,0.98915 -0.39084,0.39085 -1.46509,0.34236 -1.89291,-0.0855 z m 12.21133,-0.0591 c -0.2094,-0.23136 -0.38071,-0.63805 -0.38071,-0.90371 0,-1.27066 1.86896,-1.63178 2.50957,-0.48492 0.30319,0.54282 0.29739,0.66893 -0.0556,1.20772 -0.47325,0.72223 -1.50212,0.81201 -2.07325,0.18091 z m 12.16949,-0.0906 c -0.47141,-0.67306 -0.45235,-1.17245 0.0626,-1.63845 0.87899,-0.79547 2.33981,-0.25524 2.33981,0.86529 0,1.18582 -1.72458,1.74086 -2.40237,0.77316 z m 12.34008,0.23522 c -0.15182,-0.15183 -0.27603,-0.59695 -0.27603,-0.98916 0,-0.9127 0.36309,-1.26522 1.30311,-1.26522 1.12839,0 1.67228,1.36249 0.86583,2.16894 -0.4278,0.4278 -1.50206,0.47628 -1.89291,0.0855 z m 12.27754,-0.0855 c -0.42778,-0.42779 -0.47627,-1.50205 -0.0855,-1.89288 0.15182,-0.15183 0.59695,-0.27606 0.98915,-0.27606 0.903,0 1.26522,0.36221 1.26522,1.26523 0,0.3922 -0.12417,0.83734 -0.27605,0.98917 -0.39083,0.39085 -1.46509,0.34234 -1.8929,-0.0855 z m 12.21134,-0.0591 c -0.20941,-0.23138 -0.38072,-0.63807 -0.38072,-0.90373 0,-1.27066 1.86897,-1.63178 2.50958,-0.48492 0.30318,0.54282 0.29738,0.66893 -0.0556,1.20772 -0.47324,0.72223 -1.5021,0.81202 -2.07323,0.18093 z m 12.1695,-0.0906 c -0.47143,-0.67304 -0.45237,-1.17245 0.0626,-1.63845 0.87898,-0.79545 2.3398,-0.25524 2.3398,0.86528 0,1.18583 -1.72458,1.74087 -2.40236,0.77317 z m 12.42551,0.14974 c -0.42779,-0.42779 -0.47627,-1.50205 -0.0855,-1.89288 0.15183,-0.15183 0.59695,-0.27606 0.98917,-0.27606 0.903,0 1.26523,0.36221 1.26523,1.26523 0,0.3922 -0.12418,0.83734 -0.27605,0.98915 -0.39084,0.39085 -1.46511,0.34236 -1.89291,-0.0855 z m 12.21133,-0.0591 c -0.2094,-0.23138 -0.38071,-0.63807 -0.38071,-0.90373 0,-1.27066 1.86895,-1.63178 2.50957,-0.48492 0.30319,0.54282 0.29739,0.66893 -0.0556,1.20772 -0.47324,0.72223 -1.50212,0.81202 -2.07325,0.18093 z M 183.04926,156.02723 c -0.51191,-0.56564 -0.48004,-1.3203 0.0794,-1.8797 0.73305,-0.73307 1.52552,-0.58225 2.03592,0.38744 0.36554,0.69445 0.33484,0.92243 -0.1956,1.45286 -0.57414,0.57415 -1.42005,0.5915 -1.91968,0.0395 z m 12.27148,-0.0393 c -0.25306,-0.25303 -0.46008,-0.6671 -0.46008,-0.92016 0,-0.59247 0.78775,-1.38022 1.38024,-1.38022 0.57021,0 1.38023,0.77995 1.38023,1.32903 0,1.24677 -1.42378,1.84797 -2.30039,0.97135 z m 12.36463,0.21162 c -0.65505,-0.38153 -0.53378,-1.72532 0.19902,-2.20548 0.53884,-0.35305 0.66485,-0.35885 1.20772,-0.0556 0.7479,0.41786 0.92501,1.44283 0.35764,2.06976 -0.43533,0.48103 -1.13641,0.55702 -1.76438,0.19126 z m 12.15299,-0.19127 c -0.56737,-0.62693 -0.39024,-1.6519 0.35765,-2.06976 0.54285,-0.3033 0.66887,-0.2975 1.20771,0.0556 1.08199,0.70895 0.62378,2.45394 -0.64438,2.45394 -0.28767,0 -0.70211,-0.19789 -0.92098,-0.43974 z m 12.28871,-0.0203 c -0.25304,-0.25304 -0.46006,-0.66711 -0.46006,-0.92016 0,-0.25304 0.20702,-0.66712 0.46006,-0.92016 0.25304,-0.25304 0.66712,-0.46008 0.92016,-0.46008 0.57023,0 1.38025,0.77997 1.38025,1.32905 0,1.24676 -1.4238,1.84796 -2.30041,0.97135 z m 12.36464,0.21162 c -0.65505,-0.38153 -0.53376,-1.72532 0.19903,-2.20548 0.53884,-0.35305 0.66486,-0.35885 1.20771,-0.0556 0.74791,0.41785 0.92502,1.44284 0.35765,2.06975 -0.43532,0.48105 -1.13641,0.55705 -1.76439,0.19129 z m 12.153,-0.19129 c -0.56736,-0.62691 -0.39024,-1.6519 0.35766,-2.06976 0.54285,-0.30328 0.66888,-0.29748 1.2077,0.0556 1.08199,0.70895 0.62377,2.45394 -0.64438,2.45394 -0.28766,0 -0.70209,-0.19788 -0.92098,-0.43975 z m 12.20934,0.019 c -0.51191,-0.56564 -0.48004,-1.3203 0.0794,-1.8797 0.73305,-0.73307 1.52552,-0.58225 2.03593,0.38744 0.36551,0.69445 0.33483,0.92243 -0.19562,1.45286 -0.57413,0.57415 -1.42004,0.5915 -1.91967,0.0395 z m 12.27146,-0.0395 c -0.25303,-0.25303 -0.46006,-0.6671 -0.46006,-0.92014 0,-0.25304 0.20703,-0.66713 0.46006,-0.92016 0.25306,-0.25304 0.66713,-0.46008 0.92018,-0.46008 0.57021,0 1.38023,0.77997 1.38023,1.32905 0,1.24675 -1.42379,1.84796 -2.30041,0.97133 z m 12.36464,0.21162 c -0.65504,-0.38152 -0.53376,-1.72532 0.19904,-2.20546 0.53883,-0.35305 0.66485,-0.35885 1.2077,-0.0556 0.74791,0.41786 0.92502,1.44285 0.35765,2.06976 -0.43532,0.48105 -1.13641,0.55704 -1.76439,0.19127 z m 12.153,-0.19127 c -0.56736,-0.62691 -0.39025,-1.6519 0.35766,-2.06976 0.54285,-0.30328 0.66888,-0.29748 1.2077,0.0556 1.082,0.70895 0.62377,2.45394 -0.64438,2.45394 -0.28765,0 -0.70211,-0.19789 -0.92098,-0.43975 z m 12.20935,0.019 c -0.51191,-0.56564 -0.48005,-1.3203 0.0794,-1.87971 0.73305,-0.73306 1.52552,-0.58224 2.03593,0.38745 0.36552,0.69445 0.33483,0.92243 -0.19562,1.45286 -0.57412,0.57414 -1.42003,0.5915 -1.91967,0.0395 z m 12.27147,-0.0395 c -0.25305,-0.25304 -0.46009,-0.66711 -0.46009,-0.92014 0,-0.59249 0.78777,-1.38025 1.38024,-1.38025 0.57023,0 1.38024,0.77997 1.38024,1.32906 0,1.24675 -1.42379,1.84794 -2.30039,0.97133 z m 12.36464,0.21162 c -0.65506,-0.38152 -0.53377,-1.72532 0.19902,-2.20546 0.53884,-0.35307 0.66485,-0.35885 1.2077,-0.0556 0.74791,0.41786 0.92502,1.44285 0.35766,2.06976 -0.43533,0.48105 -1.13641,0.55704 -1.76438,0.19127 z m 12.15299,-0.19127 c -0.56737,-0.62692 -0.39024,-1.6519 0.35765,-2.06976 0.54285,-0.30328 0.66887,-0.2975 1.20771,0.0556 1.08199,0.70893 0.62378,2.45394 -0.64439,2.45394 -0.28767,0 -0.7021,-0.19789 -0.92097,-0.43975 z m 12.20934,0.019 c -0.51191,-0.56566 -0.48004,-1.3203 0.0794,-1.87971 0.73306,-0.73306 1.52553,-0.58224 2.03594,0.38743 0.36551,0.69445 0.33481,0.92245 -0.19562,1.45288 -0.57414,0.57413 -1.42004,0.5915 -1.91969,0.0393 z m 12.27148,-0.0395 c -0.25306,-0.25304 -0.46008,-0.66711 -0.46008,-0.92015 0,-0.59248 0.78775,-1.38024 1.38022,-1.38024 0.57025,0 1.38025,0.77997 1.38025,1.32906 0,1.24674 -1.4238,1.84794 -2.30039,0.97133 z m 12.36462,0.21161 c -0.65503,-0.38151 -0.53376,-1.72532 0.19905,-2.20547 0.53882,-0.35305 0.66484,-0.35885 1.2077,-0.0556 0.7479,0.41786 0.92501,1.44285 0.35766,2.06976 -0.43534,0.48105 -1.13643,0.55704 -1.76441,0.19127 z m 12.17025,-0.17221 c -0.5119,-0.56564 -0.48005,-1.3203 0.0794,-1.87971 0.73305,-0.73306 1.52552,-0.58224 2.03593,0.38745 0.36552,0.69445 0.33483,0.92243 -0.19562,1.45286 -0.57412,0.57414 -1.42003,0.5915 -1.91967,0.0395 z m 12.27147,-0.0393 c -0.25305,-0.25304 -0.46008,-0.66711 -0.46008,-0.92016 0,-0.59247 0.78776,-1.38023 1.38025,-1.38023 0.57021,0 1.38022,0.77996 1.38022,1.32906 0,1.24674 -1.42377,1.84794 -2.30039,0.97133 z m 12.36462,0.21161 c -0.65502,-0.38151 -0.53375,-1.72532 0.19904,-2.20547 0.53885,-0.35305 0.66487,-0.35885 1.2077,-0.0556 0.74791,0.41786 0.92502,1.44283 0.35767,2.06976 -0.43535,0.48103 -1.13641,0.55703 -1.76441,0.19127 z m 12.15301,-0.19126 c -0.56735,-0.62693 -0.39024,-1.6519 0.35765,-2.06976 0.54287,-0.3033 0.66887,-0.2975 1.20771,0.0556 1.08201,0.70895 0.62376,2.45395 -0.64439,2.45395 -0.28765,0 -0.70209,-0.19789 -0.92097,-0.43974 z m 12.20935,0.019 c -0.5119,-0.56564 -0.48004,-1.32029 0.0794,-1.8797 0.73304,-0.73306 1.5255,-0.58224 2.03591,0.38745 0.36553,0.69445 0.33485,0.92243 -0.1956,1.45286 -0.57412,0.57414 -1.42004,0.5915 -1.91967,0.0395 z m 12.27147,-0.0393 c -0.25306,-0.25304 -0.46008,-0.66711 -0.46008,-0.92016 0,-0.59248 0.78775,-1.38023 1.38024,-1.38023 0.57021,0 1.38023,0.77995 1.38023,1.32904 0,1.24676 -1.42378,1.84796 -2.30039,0.97135 z m 12.36463,0.21161 c -0.65504,-0.38153 -0.53377,-1.72532 0.19902,-2.20547 0.53886,-0.35305 0.66487,-0.35885 1.20771,-0.0556 0.74791,0.41786 0.92502,1.44285 0.35767,2.06978 -0.43534,0.48103 -1.13641,0.55702 -1.7644,0.19126 z m 12.15299,-0.19127 c -0.56735,-0.62693 -0.39024,-1.65191 0.35767,-2.06977 0.54284,-0.30328 0.66885,-0.29748 1.20771,0.0556 1.08199,0.70894 0.62375,2.45394 -0.6444,2.45394 -0.28766,0 -0.70209,-0.19789 -0.92098,-0.43974 z m 12.20936,0.019 c -0.51191,-0.56565 -0.48006,-1.32029 0.0794,-1.8797 0.73305,-0.73307 1.5255,-0.58225 2.0359,0.38743 0.36554,0.69445 0.33485,0.92244 -0.19558,1.45288 -0.57414,0.57412 -1.42005,0.5915 -1.91969,0.0393 z m 12.27146,-0.0393 c -0.25305,-0.25306 -0.46008,-0.66713 -0.46008,-0.92017 0,-0.59248 0.78775,-1.38024 1.38024,-1.38024 0.57023,0 1.38024,0.77997 1.38024,1.32906 0,1.24676 -1.42379,1.84796 -2.3004,0.97135 z m 12.36464,0.21161 c -0.65505,-0.38153 -0.53376,-1.72534 0.19903,-2.20547 0.53884,-0.35305 0.66486,-0.35886 1.20771,-0.0556 0.74789,0.41786 0.925,1.44284 0.35765,2.06976 -0.43534,0.48105 -1.13643,0.55704 -1.76439,0.19128 z m 12.15298,-0.19128 c -0.56735,-0.62692 -0.39024,-1.6519 0.35767,-2.06976 0.54284,-0.30329 0.66885,-0.29748 1.20771,0.0556 1.08199,0.70895 0.62375,2.45395 -0.64438,2.45395 -0.28767,0 -0.70211,-0.19789 -0.921,-0.43976 z m 12.20936,0.019 c -0.51191,-0.56565 -0.48006,-1.32029 0.0794,-1.87972 0.73305,-0.73304 1.5255,-0.58222 2.03592,0.38745 0.36552,0.69445 0.33485,0.92245 -0.19561,1.45288 -0.57413,0.57412 -1.42002,0.59148 -1.91967,0.0393 z m 12.27146,-0.0395 c -0.25303,-0.25304 -0.46008,-0.66711 -0.46008,-0.92015 0,-0.59249 0.78776,-1.38024 1.38025,-1.38024 0.57022,0 1.38024,0.77997 1.38024,1.32905 0,1.24675 -1.42379,1.84797 -2.30041,0.97134 z m 12.32553,0.0203 c -0.56735,-0.62692 -0.39024,-1.6519 0.35766,-2.06976 0.54286,-0.30329 0.66888,-0.29748 1.20772,0.0556 1.08199,0.70895 0.62375,2.45395 -0.6444,2.45395 -0.28766,0 -0.70209,-0.19789 -0.92098,-0.43976 z m 12.20936,0.019 c -0.51191,-0.56565 -0.48004,-1.32029 0.0794,-1.87971 0.73303,-0.73305 1.5255,-0.58223 2.0359,0.38744 0.36555,0.69445 0.33485,0.92245 -0.1956,1.45288 -0.57412,0.57413 -1.42003,0.59148 -1.91967,0.0393 z m 12.27146,-0.0395 c -0.25304,-0.25304 -0.46008,-0.66711 -0.46008,-0.92015 0,-0.59249 0.78775,-1.38024 1.38024,-1.38024 0.57021,0 1.38023,0.77997 1.38023,1.32905 0,1.24675 -1.42378,1.84797 -2.30039,0.97134 z m 12.36463,0.21161 c -0.65504,-0.38151 -0.53377,-1.72532 0.19902,-2.20545 0.53886,-0.35306 0.66488,-0.35886 1.20771,-0.0556 0.74791,0.41786 0.92502,1.44284 0.35767,2.06976 -0.43534,0.48104 -1.13641,0.55704 -1.7644,0.19126 z m 12.15299,-0.19127 c -0.56735,-0.62691 -0.39024,-1.6519 0.35767,-2.06975 0.54285,-0.30329 0.66887,-0.29749 1.20771,0.0556 1.08199,0.70895 0.62375,2.45394 -0.6444,2.45394 -0.28765,0 -0.70209,-0.19788 -0.92098,-0.43975 z m 12.20936,0.019 c -0.51191,-0.56565 -0.48004,-1.32031 0.0794,-1.87972 0.73303,-0.73304 1.5255,-0.58223 2.03591,0.38745 0.36553,0.69445 0.33485,0.92244 -0.19559,1.45288 -0.57414,0.57412 -1.42005,0.59148 -1.91968,0.0393 z m 12.27146,-0.0395 c -0.25305,-0.25304 -0.46008,-0.66711 -0.46008,-0.92015 0,-0.59249 0.78776,-1.38024 1.38025,-1.38024 0.57022,0 1.38024,0.77997 1.38024,1.32905 0,1.24675 -1.4238,1.84795 -2.30041,0.97134 z m 12.36464,0.21161 c -0.65504,-0.38151 -0.53376,-1.72532 0.19903,-2.20547 0.53884,-0.35305 0.66486,-0.35886 1.20771,-0.0556 0.74789,0.41786 0.925,1.44284 0.35765,2.06976 -0.43534,0.48105 -1.13641,0.55704 -1.76439,0.19127 z m 12.15299,-0.19127 c -0.56734,-0.62691 -0.39024,-1.6519 0.35767,-2.06976 0.54285,-0.3033 0.66885,-0.29749 1.2077,0.0556 1.08199,0.70895 0.62375,2.45396 -0.6444,2.45396 -0.28765,0 -0.70209,-0.19789 -0.92097,-0.43975 z m 12.20935,0.019 c -0.5119,-0.56566 -0.48004,-1.32031 0.0794,-1.87972 0.73305,-0.73305 1.5255,-0.58224 2.03593,0.38745 0.36551,0.69445 0.33485,0.92243 -0.1956,1.45286 -0.57414,0.57414 -1.42006,0.5915 -1.91969,0.0395 z m 12.27147,-0.0395 c -0.25304,-0.25304 -0.46008,-0.66711 -0.46008,-0.92017 0,-0.59247 0.78775,-1.38022 1.38024,-1.38022 0.57023,0 1.38024,0.77997 1.38024,1.32905 0,1.24675 -1.42379,1.84795 -2.3004,0.97134 z m 12.36463,0.21161 c -0.65504,-0.38152 -0.53376,-1.72532 0.19904,-2.20547 0.53884,-0.35306 0.66485,-0.35886 1.2077,-0.0556 0.7479,0.41786 0.92501,1.44283 0.35766,2.06976 -0.43535,0.48104 -1.13641,0.55704 -1.7644,0.19126 z m 12.15299,-0.19127 c -0.56733,-0.62693 -0.39024,-1.6519 0.35767,-2.06976 0.54284,-0.3033 0.66887,-0.2975 1.20771,0.0556 1.08199,0.70895 0.62375,2.45394 -0.64439,2.45394 -0.28767,0 -0.7021,-0.19787 -0.92099,-0.43974 z m 12.20936,0.019 c -0.51191,-0.56564 -0.48006,-1.3203 0.0794,-1.8797 0.73305,-0.73307 1.5255,-0.58225 2.03592,0.38744 0.36553,0.69445 0.33485,0.92243 -0.1956,1.45286 -0.57414,0.57415 -1.42004,0.5915 -1.91969,0.0395 z m 12.27146,-0.0393 c -0.25304,-0.25303 -0.46008,-0.6671 -0.46008,-0.92016 0,-0.59247 0.78775,-1.38023 1.38024,-1.38023 0.57023,0 1.38024,0.77997 1.38024,1.32906 0,1.24675 -1.42379,1.84794 -2.3004,0.97133 z m 12.32553,0.0203 c -0.56735,-0.62693 -0.39024,-1.6519 0.35767,-2.06976 0.54285,-0.3033 0.66886,-0.2975 1.2077,0.0556 1.08199,0.70895 0.62375,2.45394 -0.64438,2.45394 -0.28767,0 -0.70211,-0.19787 -0.92099,-0.43974 z m 12.20935,0.019 c -0.51191,-0.56564 -0.48004,-1.3203 0.0794,-1.8797 0.73304,-0.73307 1.52552,-0.58225 2.03591,0.38744 0.36555,0.69445 0.33485,0.92243 -0.19558,1.45286 -0.57414,0.57415 -1.42006,0.5915 -1.91969,0.0395 z M 183.12864,143.79516 c -0.86899,-0.86897 -0.32093,-2.30039 0.88075,-2.30039 0.62604,0 1.41964,0.77157 1.41964,1.38023 0,0.59249 -0.78775,1.38024 -1.38024,1.38024 -0.25304,0 -0.66711,-0.20704 -0.92015,-0.46008 z m 12.1921,0 c -0.25306,-0.25304 -0.46008,-0.66711 -0.46008,-0.92016 0,-0.59247 0.78775,-1.38023 1.38024,-1.38023 0.59247,0 1.38023,0.78776 1.38023,1.38023 0,0.25305 -0.20703,0.66712 -0.46008,0.92016 -0.25304,0.25304 -0.66711,0.46008 -0.92015,0.46008 -0.25305,0 -0.66712,-0.20704 -0.92016,-0.46008 z m 12.34277,0.0393 c -0.86136,-0.95178 -0.29855,-2.33979 0.94873,-2.33979 1.11308,0 1.61644,1.75328 0.68973,2.40237 -0.67306,0.47143 -1.17245,0.45236 -1.63846,-0.0627 z m 12.32265,0.0626 c -0.98837,-0.69227 -0.40955,-2.40237 0.81315,-2.40237 1.16503,0 1.66355,1.7238 0.69475,2.40237 -0.28119,0.19695 -0.62047,0.35811 -0.75395,0.35811 -0.13345,0 -0.47275,-0.16116 -0.75395,-0.35811 z m 12.14091,-0.10197 c -0.25304,-0.25305 -0.46006,-0.66712 -0.46006,-0.92016 0,-0.25304 0.20702,-0.66711 0.46006,-0.92016 0.25304,-0.25306 0.66712,-0.46008 0.92016,-0.46008 0.25306,0 0.66713,0.20702 0.92016,0.46008 0.25304,0.25305 0.46009,0.66712 0.46009,0.92016 0,0.25304 -0.20705,0.66711 -0.46009,0.92016 -0.25303,0.25304 -0.6671,0.46008 -0.92016,0.46008 -0.25304,0 -0.66712,-0.20704 -0.92016,-0.46008 z m 12.34279,0.0393 c -0.86137,-0.95179 -0.29856,-2.33979 0.94874,-2.33979 1.11307,0 1.61643,1.75328 0.6897,2.40237 -0.67305,0.47143 -1.17245,0.45235 -1.63844,-0.0627 z m 12.32265,0.0626 c -0.98837,-0.69228 -0.40955,-2.40237 0.81313,-2.40237 1.16505,0 1.66357,1.7238 0.69477,2.40237 -0.28119,0.19695 -0.62047,0.3581 -0.75395,0.3581 -0.13344,0 -0.47277,-0.16115 -0.75395,-0.3581 z m 12.14091,-0.10197 c -0.86898,-0.86897 -0.32093,-2.30039 0.88076,-2.30039 0.62604,0 1.41964,0.77158 1.41964,1.38023 0,0.25305 -0.20704,0.66712 -0.46008,0.92016 -0.25305,0.25304 -0.66712,0.46008 -0.92016,0.46008 -0.25304,0 -0.66711,-0.20704 -0.92016,-0.46008 z m 12.19209,0 c -0.25303,-0.25304 -0.46006,-0.66711 -0.46006,-0.92016 0,-0.25304 0.20703,-0.66711 0.46006,-0.92015 0.25306,-0.25305 0.66713,-0.46008 0.92018,-0.46008 0.25304,0 0.66711,0.20703 0.92015,0.46008 0.25304,0.25304 0.46008,0.66711 0.46008,0.92015 0,0.25305 -0.20704,0.66712 -0.46008,0.92016 -0.25304,0.25304 -0.66711,0.46008 -0.92015,0.46008 -0.25305,0 -0.66712,-0.20704 -0.92018,-0.46008 z m 12.34279,0.0393 c -0.86136,-0.95178 -0.29855,-2.33979 0.94874,-2.33979 1.11308,0 1.61644,1.75328 0.68971,2.40237 -0.67304,0.47143 -1.17245,0.45236 -1.63845,-0.0627 z m 12.32265,0.0626 c -0.98837,-0.69227 -0.40954,-2.40237 0.81315,-2.40237 1.16504,0 1.66355,1.72382 0.69476,2.40237 -0.2812,0.19695 -0.62048,0.35811 -0.75395,0.35811 -0.13345,0 -0.47276,-0.16116 -0.75396,-0.35811 z m 12.14093,-0.10197 c -0.86899,-0.86897 -0.32093,-2.3004 0.88075,-2.3004 0.62603,0 1.41964,0.77158 1.41964,1.38024 0,0.59247 -0.78776,1.38024 -1.38025,1.38024 -0.25304,0 -0.66711,-0.20704 -0.92014,-0.46008 z m 12.19209,0 c -0.25305,-0.25305 -0.46009,-0.66712 -0.46009,-0.92016 0,-0.59247 0.78777,-1.38024 1.38024,-1.38024 0.59249,0 1.38024,0.78777 1.38024,1.38024 0,0.59247 -0.78775,1.38024 -1.38024,1.38024 -0.25304,0 -0.66711,-0.20704 -0.92015,-0.46008 z m 12.34278,0.0393 c -0.86137,-0.95179 -0.29856,-2.33979 0.94873,-2.33979 1.11308,0 1.61644,1.75328 0.68972,2.40237 -0.67305,0.47143 -1.17244,0.45235 -1.63845,-0.0627 z m 12.32265,0.0626 c -0.98838,-0.69228 -0.40955,-2.40237 0.81315,-2.40237 1.16503,0 1.66355,1.7238 0.69475,2.40237 -0.2812,0.19695 -0.62047,0.3581 -0.75395,0.3581 -0.13345,0 -0.47276,-0.16115 -0.75395,-0.3581 z m 12.1409,-0.10197 c -0.86897,-0.86899 -0.32091,-2.3004 0.88077,-2.3004 0.62604,0 1.41964,0.77158 1.41964,1.38024 0,0.59247 -0.78775,1.38023 -1.38024,1.38023 -0.25304,0 -0.66711,-0.20703 -0.92017,-0.46007 z m 12.19212,0 c -0.25306,-0.25305 -0.46008,-0.66712 -0.46008,-0.92016 0,-0.59249 0.78775,-1.38024 1.38022,-1.38024 0.59249,0 1.38025,0.78775 1.38025,1.38024 0,0.59247 -0.78776,1.38023 -1.38025,1.38023 -0.25304,0 -0.66711,-0.20703 -0.92014,-0.46007 z m 12.34277,0.0393 c -0.86137,-0.95179 -0.29856,-2.3398 0.94874,-2.3398 1.11307,0 1.61643,1.75327 0.68972,2.40237 -0.67306,0.47142 -1.17245,0.45236 -1.63846,-0.0627 z m 12.27146,-0.0393 c -0.86897,-0.86899 -0.32093,-2.3004 0.88077,-2.3004 0.62603,0 1.41964,0.77158 1.41964,1.38024 0,0.59247 -0.78776,1.38023 -1.38025,1.38023 -0.25304,0 -0.66711,-0.20703 -0.92016,-0.46007 z m 12.19211,0 c -0.25305,-0.25305 -0.46008,-0.66712 -0.46008,-0.92016 0,-0.59249 0.78776,-1.38024 1.38025,-1.38024 0.59248,0 1.38022,0.78775 1.38022,1.38024 0,0.59247 -0.78774,1.38023 -1.38022,1.38023 -0.25306,0 -0.66713,-0.20703 -0.92017,-0.46007 z m 12.34278,0.0393 c -0.86137,-0.95179 -0.29854,-2.3398 0.94875,-2.3398 1.11308,0 1.61642,1.75327 0.6897,2.40237 -0.67305,0.47142 -1.17246,0.45236 -1.63845,-0.0627 z m 12.32265,0.0626 c -0.98838,-0.69228 -0.40955,-2.40239 0.81315,-2.40239 1.16503,0 1.66355,1.72382 0.69475,2.40239 -0.2812,0.19695 -0.62047,0.3581 -0.75395,0.3581 -0.13345,0 -0.47276,-0.16115 -0.75395,-0.3581 z m 12.14092,-0.10197 c -0.86897,-0.86897 -0.32093,-2.3004 0.88075,-2.3004 0.62605,0 1.41964,0.77158 1.41964,1.38024 0,0.59249 -0.78775,1.38024 -1.38024,1.38024 -0.25304,0 -0.66711,-0.20704 -0.92015,-0.46008 z m 12.1921,0 c -0.25306,-0.25305 -0.46008,-0.66712 -0.46008,-0.92016 0,-0.59247 0.78775,-1.38024 1.38024,-1.38024 0.59249,0 1.38023,0.78777 1.38023,1.38024 0,0.59249 -0.78774,1.38024 -1.38023,1.38024 -0.25306,0 -0.66713,-0.20704 -0.92016,-0.46008 z m 12.34277,0.0395 c -0.86135,-0.95181 -0.29854,-2.3398 0.94875,-2.3398 1.11308,0 1.61642,1.75327 0.68971,2.40237 -0.67306,0.47142 -1.17247,0.45234 -1.63846,-0.0626 z m 12.32265,0.0627 c -0.98837,-0.6923 -0.40955,-2.40239 0.81315,-2.40239 1.16503,0 1.66355,1.7238 0.69477,2.40239 -0.28121,0.19694 -0.6205,0.35808 -0.75397,0.35808 -0.13344,0 -0.47275,-0.16114 -0.75395,-0.35808 z m 12.14092,-0.10197 c -0.86899,-0.86899 -0.32093,-2.3004 0.88075,-2.3004 0.62606,0 1.41964,0.77158 1.41964,1.38024 0,0.59247 -0.78775,1.38023 -1.38024,1.38023 -0.25304,0 -0.66711,-0.20703 -0.92015,-0.46007 z m 12.1921,0 c -0.25305,-0.25304 -0.46008,-0.66712 -0.46008,-0.92016 0,-0.59249 0.78775,-1.38024 1.38024,-1.38024 0.59249,0 1.38024,0.78775 1.38024,1.38024 0,0.59247 -0.78775,1.38023 -1.38024,1.38023 -0.25304,0 -0.66712,-0.20703 -0.92016,-0.46007 z m 12.34277,0.0393 c -0.86135,-0.95179 -0.29854,-2.3398 0.94876,-2.3398 1.11307,0 1.61642,1.75329 0.6897,2.40238 -0.67305,0.47143 -1.17246,0.45235 -1.63846,-0.0626 z m 12.32265,0.0627 c -0.98835,-0.69228 -0.40954,-2.40239 0.81315,-2.40239 1.16503,0 1.66355,1.72382 0.69476,2.40239 -0.2812,0.19695 -0.62049,0.3581 -0.75395,0.3581 -0.13345,0 -0.47276,-0.16115 -0.75396,-0.3581 z m 12.14093,-0.10197 c -0.86899,-0.86897 -0.32093,-2.3004 0.88075,-2.3004 0.62605,0 1.41964,0.77159 1.41964,1.38024 0,0.59249 -0.78774,1.38024 -1.38023,1.38024 -0.25306,0 -0.66713,-0.20702 -0.92016,-0.46008 z m 12.19209,0 c -0.25303,-0.25304 -0.46008,-0.66711 -0.46008,-0.92016 0,-0.59247 0.78776,-1.38024 1.38025,-1.38024 0.59248,0 1.38024,0.78777 1.38024,1.38024 0,0.59249 -0.78776,1.38024 -1.38024,1.38024 -0.25304,0 -0.66711,-0.20702 -0.92017,-0.46008 z m 12.47333,0.10197 c -0.98837,-0.69228 -0.40953,-2.40239 0.81315,-2.40239 1.16503,0 1.66355,1.72382 0.69475,2.40239 -0.28119,0.19695 -0.62047,0.3581 -0.75395,0.3581 -0.13345,0 -0.47275,-0.16115 -0.75395,-0.3581 z m 12.14092,-0.10197 c -0.86897,-0.86897 -0.32093,-2.3004 0.88075,-2.3004 0.62605,0 1.41964,0.77159 1.41964,1.38024 0,0.59249 -0.78775,1.38024 -1.38024,1.38024 -0.25304,0 -0.66711,-0.20702 -0.92015,-0.46008 z m 12.1921,0 c -0.25304,-0.25304 -0.46008,-0.66711 -0.46008,-0.92016 0,-0.59247 0.78775,-1.38024 1.38024,-1.38024 0.59249,0 1.38023,0.78777 1.38023,1.38024 0,0.59249 -0.78774,1.38024 -1.38023,1.38024 -0.25305,0 -0.66712,-0.20702 -0.92016,-0.46008 z m 12.34277,0.0395 c -0.86135,-0.95181 -0.29854,-2.3398 0.94876,-2.3398 1.11307,0 1.61642,1.75327 0.6897,2.40238 -0.67305,0.47141 -1.17246,0.45235 -1.63846,-0.0627 z m 12.32265,0.0627 c -0.98837,-0.6923 -0.40953,-2.40237 0.81315,-2.40237 1.16503,0 1.66355,1.72378 0.69477,2.40237 -0.28121,0.19694 -0.62049,0.3581 -0.75395,0.3581 -0.13345,0 -0.47277,-0.16116 -0.75397,-0.3581 z m 12.14093,-0.10197 c -0.86898,-0.86897 -0.32093,-2.30039 0.88075,-2.30039 0.62605,0 1.41964,0.77158 1.41964,1.38025 0,0.59247 -0.78776,1.38022 -1.38025,1.38022 -0.25304,0 -0.66711,-0.20702 -0.92014,-0.46008 z m 12.19209,0 c -0.25305,-0.25304 -0.46008,-0.66711 -0.46008,-0.92014 0,-0.59249 0.78776,-1.38025 1.38025,-1.38025 0.59248,0 1.38024,0.78776 1.38024,1.38025 0,0.59247 -0.78776,1.38022 -1.38024,1.38022 -0.25304,0 -0.66713,-0.20702 -0.92017,-0.46008 z m 12.34278,0.0395 c -0.86135,-0.95179 -0.29854,-2.3398 0.94876,-2.3398 1.11307,0 1.61641,1.75327 0.68969,2.40238 -0.67305,0.47141 -1.17246,0.45235 -1.63845,-0.0627 z m 12.32265,0.0626 c -0.98836,-0.69228 -0.40955,-2.40237 0.81314,-2.40237 1.16504,0 1.66356,1.72378 0.69478,2.40237 -0.28122,0.19694 -0.62049,0.3581 -0.75397,0.3581 -0.13345,0 -0.47276,-0.16116 -0.75395,-0.3581 z m 12.14092,-0.10197 c -0.86897,-0.86897 -0.32093,-2.30039 0.88075,-2.30039 0.62605,0 1.41964,0.77157 1.41964,1.38023 0,0.59249 -0.78776,1.38024 -1.38024,1.38024 -0.25304,0 -0.66711,-0.20704 -0.92015,-0.46008 z m 12.1921,0 c -0.25304,-0.25304 -0.46008,-0.66712 -0.46008,-0.92016 0,-0.59247 0.78775,-1.38023 1.38024,-1.38023 0.59249,0 1.38024,0.78776 1.38024,1.38023 0,0.59249 -0.78775,1.38024 -1.38024,1.38024 -0.25304,0 -0.66711,-0.20704 -0.92016,-0.46008 z m 12.34277,0.0393 c -0.86135,-0.95178 -0.29854,-2.33979 0.94877,-2.33979 1.11306,0 1.6164,1.75327 0.68969,2.40237 -0.67306,0.47143 -1.17247,0.45236 -1.63846,-0.0627 z m 12.32265,0.0626 c -0.98836,-0.69228 -0.40953,-2.40237 0.81315,-2.40237 1.16503,0 1.66355,1.7238 0.69477,2.40237 -0.2812,0.19695 -0.62049,0.3581 -0.75397,0.3581 -0.13345,0 -0.47274,-0.16115 -0.75395,-0.3581 z m 12.14092,-0.10197 c -0.86897,-0.86897 -0.32093,-2.30039 0.88075,-2.30039 0.62605,0 1.41964,0.77158 1.41964,1.38025 0,0.59247 -0.78774,1.38022 -1.38023,1.38022 -0.25305,0 -0.66712,-0.20702 -0.92016,-0.46008 z m 12.1921,0 c -0.25304,-0.25304 -0.46008,-0.66711 -0.46008,-0.92014 0,-0.59249 0.78775,-1.38025 1.38024,-1.38025 0.59249,0 1.38024,0.78776 1.38024,1.38025 0,0.59247 -0.78775,1.38022 -1.38024,1.38022 -0.25304,0 -0.66711,-0.20702 -0.92016,-0.46008 z m 12.47333,0.10197 c -0.98838,-0.69228 -0.40953,-2.40237 0.81314,-2.40237 1.16504,0 1.66355,1.7238 0.69478,2.40237 -0.28122,0.19695 -0.62049,0.3581 -0.75397,0.3581 -0.13345,0 -0.47276,-0.16115 -0.75395,-0.3581 z m 12.14092,-0.10197 c -0.86897,-0.86897 -0.32093,-2.30039 0.88075,-2.30039 0.62605,0 1.41964,0.77158 1.41964,1.38025 0,0.59247 -0.78774,1.38022 -1.38024,1.38022 -0.25304,0 -0.66711,-0.20702 -0.92015,-0.46008 z M 183.03005,131.472 c -0.84693,-0.84691 -0.0682,-2.2713 1.16368,-2.12866 0.41045,0.0475 0.76907,0.29556 0.98432,0.68085 0.3033,0.54285 0.2975,0.66887 -0.0556,1.20771 -0.45709,0.6976 -1.5137,0.81885 -2.09245,0.2401 z m 12.21132,-0.0591 c -0.47516,-0.52506 -0.48109,-0.94392 -0.0225,-1.59848 0.6923,-0.98838 2.40239,-0.40955 2.40239,0.81314 0,1.1041 -1.61037,1.63552 -2.37977,0.78534 z m 12.31746,0.14464 c -0.35657,-0.35658 -0.35657,-1.62176 0,-1.97834 0.39085,-0.39085 1.4651,-0.34236 1.89292,0.0855 0.41714,0.41715 0.46497,1.08563 0.12338,1.72399 -0.27297,0.51004 -1.56673,0.61843 -2.01627,0.16889 z m 12.19211,0 c -0.39085,-0.39085 -0.34236,-1.46511 0.0855,-1.8929 0.4278,-0.4278 1.50206,-0.47629 1.89291,-0.0855 0.15182,0.15182 0.27603,0.59694 0.27603,0.98917 0,0.3922 -0.12418,0.83734 -0.27603,0.98917 -0.15183,0.15182 -0.59697,0.27605 -0.98918,0.27605 -0.39222,0 -0.83736,-0.12418 -0.98917,-0.27605 z m 12.29677,-0.14464 c -0.47517,-0.52506 -0.48109,-0.94392 -0.0225,-1.59848 0.69228,-0.98838 2.40237,-0.40955 2.40237,0.81314 0,1.1041 -1.61035,1.63552 -2.37975,0.78534 z m 12.31748,0.14464 c -0.15182,-0.15183 -0.27605,-0.59697 -0.27605,-0.98917 0,-0.87917 0.35999,-1.26522 1.17977,-1.26522 1.12949,0 1.67819,1.02853 1.11254,2.08548 -0.27297,0.51004 -1.56674,0.61843 -2.01626,0.16891 z m 12.1921,0 c -0.39085,-0.39085 -0.34236,-1.46511 0.0855,-1.8929 0.4278,-0.4278 1.50206,-0.47629 1.89291,-0.0855 0.15182,0.15182 0.27605,0.59694 0.27605,0.98917 0,0.90301 -0.36221,1.26522 -1.26522,1.26522 -0.39223,0 -0.83735,-0.12418 -0.98917,-0.27605 z m 12.27754,-0.0855 c -0.84692,-0.84694 -0.0683,-2.2713 1.16367,-2.12868 0.41048,0.0475 0.76907,0.29556 0.98433,0.68085 0.3033,0.54285 0.2975,0.66888 -0.0556,1.20772 -0.45709,0.6976 -1.5137,0.81885 -2.09245,0.24011 z m 12.21134,-0.0593 c -0.47517,-0.52505 -0.4811,-0.94391 -0.0227,-1.59849 0.69228,-0.98836 2.40237,-0.40953 2.40237,0.81315 0,1.10409 -1.61035,1.63553 -2.37975,0.78534 z m 12.31747,0.14463 c -0.15183,-0.15182 -0.27605,-0.59695 -0.27605,-0.98917 0,-0.87915 0.35998,-1.26522 1.17976,-1.26522 1.12949,0 1.67819,1.02855 1.11254,2.0855 -0.27297,0.51004 -1.56673,0.61843 -2.01625,0.16889 z m 12.19209,0 c -0.39084,-0.39083 -0.34235,-1.4651 0.0855,-1.89288 0.42778,-0.4278 1.50205,-0.47629 1.89288,-0.0855 0.15183,0.15182 0.27606,0.59696 0.27606,0.98917 0,0.90303 -0.36221,1.26523 -1.26523,1.26523 -0.3922,0 -0.83734,-0.12417 -0.98917,-0.27605 z m 12.27754,-0.0855 c -0.84692,-0.84692 -0.0682,-2.27128 1.16369,-2.12866 0.41044,0.0475 0.76906,0.29556 0.98433,0.68085 0.30328,0.54285 0.29748,0.66887 -0.0556,1.2077 -0.45709,0.6976 -1.5137,0.81886 -2.09245,0.24011 z m 12.21134,-0.0591 c -0.47517,-0.52506 -0.4811,-0.94392 -0.0227,-1.59849 0.69228,-0.98837 2.40237,-0.40954 2.40237,0.81315 0,1.1041 -1.61034,1.63554 -2.37975,0.78534 z m 12.31746,0.14464 c -0.15183,-0.15183 -0.27604,-0.59697 -0.27604,-0.98917 0,-0.87916 0.35999,-1.26523 1.17977,-1.26523 1.12949,0 1.67819,1.02855 1.11253,2.08549 -0.27297,0.51004 -1.56673,0.61842 -2.01626,0.16891 z m 12.19211,0 c -0.39085,-0.39084 -0.34236,-1.46511 0.0855,-1.89291 0.42778,-0.42779 1.50206,-0.47628 1.89289,-0.0855 0.15182,0.15183 0.27605,0.59695 0.27605,0.98917 0,0.90302 -0.36221,1.26523 -1.26522,1.26523 -0.39221,0 -0.83735,-0.12418 -0.98917,-0.27606 z m 12.27755,-0.0855 c -0.84693,-0.84694 -0.0682,-2.27131 1.16367,-2.12868 0.41045,0.0475 0.76906,0.29556 0.98433,0.68085 0.30329,0.54286 0.2975,0.66888 -0.0556,1.20772 -0.45708,0.6976 -1.51371,0.81885 -2.09244,0.24011 z m 12.21132,-0.0591 c -0.47517,-0.52507 -0.4811,-0.94393 -0.0225,-1.59851 0.69228,-0.98835 2.40238,-0.40953 2.40238,0.81315 0,1.1041 -1.61036,1.63553 -2.37977,0.78536 z m 12.31747,0.14463 c -0.15182,-0.15183 -0.27605,-0.59695 -0.27605,-0.98917 0,-0.87915 0.35999,-1.26521 1.17979,-1.26521 1.12949,0 1.67817,1.02854 1.11251,2.08549 -0.27296,0.51004 -1.56673,0.61842 -2.01625,0.16889 z m 12.27754,-0.0855 c -0.84692,-0.84693 -0.0682,-2.2713 1.16367,-2.12868 0.41048,0.0475 0.76908,0.29556 0.98433,0.68085 0.3033,0.54285 0.2975,0.66887 -0.0556,1.20771 -0.45708,0.69761 -1.51371,0.81887 -2.09245,0.24012 z m 12.21134,-0.0591 c -0.47517,-0.52506 -0.48108,-0.94393 -0.0225,-1.59849 0.69228,-0.98837 2.40237,-0.40955 2.40237,0.81315 0,1.1041 -1.61035,1.63553 -2.37975,0.78534 z m 12.31747,0.14463 c -0.15182,-0.15182 -0.27605,-0.59694 -0.27605,-0.98917 0,-0.87915 0.35999,-1.26522 1.17978,-1.26522 1.12949,0 1.67819,1.02855 1.11252,2.08548 -0.27297,0.51004 -1.56673,0.61843 -2.01625,0.16891 z m 12.1921,0 c -0.39083,-0.39083 -0.34235,-1.4651 0.0855,-1.8929 0.42781,-0.4278 1.50207,-0.47629 1.8929,-0.0855 0.15183,0.15183 0.27606,0.59695 0.27606,0.98917 0,0.90302 -0.36223,1.26522 -1.26523,1.26522 -0.3922,0 -0.83734,-0.12417 -0.98917,-0.27605 z m 12.27753,-0.0855 c -0.8469,-0.84691 -0.0682,-2.2713 1.16369,-2.12868 0.41046,0.0475 0.76906,0.29557 0.98433,0.68086 0.30329,0.54286 0.29749,0.66888 -0.0556,1.20772 -0.4571,0.6976 -1.51373,0.81885 -2.09247,0.2401 z m 12.21134,-0.0591 c -0.47517,-0.52506 -0.48108,-0.94392 -0.0225,-1.5985 0.69226,-0.98836 2.40237,-0.40953 2.40237,0.81315 0,1.10411 -1.61035,1.63553 -2.37977,0.78535 z m 12.31747,0.14464 c -0.15182,-0.15183 -0.27605,-0.59695 -0.27605,-0.98917 0,-0.87915 0.36001,-1.26521 1.17979,-1.26521 1.1295,0 1.67819,1.02854 1.11251,2.08548 -0.27296,0.51004 -1.56673,0.61843 -2.01625,0.1689 z m 12.1921,0 c -0.39083,-0.39083 -0.34234,-1.46509 0.0855,-1.89289 0.42782,-0.4278 1.50207,-0.47629 1.89291,-0.0855 0.15182,0.15183 0.27605,0.59695 0.27605,0.98916 0,0.90303 -0.36223,1.26523 -1.26522,1.26523 -0.39221,0 -0.83735,-0.12417 -0.98916,-0.27605 z m 12.27755,-0.0855 c -0.84692,-0.84694 -0.0682,-2.2713 1.16368,-2.12868 0.41045,0.0475 0.76905,0.29556 0.98433,0.68085 0.30328,0.54285 0.29749,0.66888 -0.0556,1.2077 -0.45708,0.69762 -1.51371,0.81887 -2.09245,0.24013 z m 12.21132,-0.0591 c -0.47516,-0.52506 -0.48108,-0.94393 -0.0225,-1.59849 0.69228,-0.98837 2.40238,-0.40955 2.40238,0.81315 0,1.10409 -1.61036,1.63553 -2.37977,0.78534 z m 12.31748,0.14463 c -0.15183,-0.15182 -0.27605,-0.59695 -0.27605,-0.98917 0,-0.87915 0.35998,-1.26522 1.17978,-1.26522 1.12949,0 1.67819,1.02855 1.11252,2.0855 -0.27297,0.51004 -1.56674,0.61841 -2.01625,0.16889 z m 12.19209,0 c -0.39083,-0.39083 -0.34234,-1.4651 0.0855,-1.8929 0.42779,-0.4278 1.50205,-0.47629 1.8929,-0.0855 0.15183,0.15183 0.27605,0.59695 0.27605,0.98917 0,0.90301 -0.36222,1.26522 -1.26522,1.26522 -0.39222,0 -0.83735,-0.12418 -0.98917,-0.27605 z m 12.27756,-0.0855 c -0.84692,-0.84693 -0.0682,-2.27132 1.16367,-2.12869 0.41046,0.0475 0.76906,0.29558 0.98433,0.68086 0.3033,0.54285 0.2975,0.66887 -0.0556,1.20771 -0.45707,0.6976 -1.5137,0.81885 -2.09245,0.24012 z m 12.21132,-0.0591 c -0.47517,-0.52506 -0.48108,-0.94392 -0.0225,-1.5985 0.69228,-0.98836 2.40239,-0.40953 2.40239,0.81315 0,1.10411 -1.61037,1.63553 -2.37977,0.78535 z m 12.31747,0.14464 c -0.39083,-0.39085 -0.34234,-1.46511 0.0855,-1.89291 0.42782,-0.42779 1.50207,-0.47628 1.89291,-0.0855 0.15182,0.15183 0.27605,0.59695 0.27605,0.98916 0,0.90303 -0.36223,1.26524 -1.26521,1.26524 -0.39222,0 -0.83736,-0.12418 -0.98918,-0.27606 z m 12.27754,-0.0855 c -0.84691,-0.84694 -0.0682,-2.27131 1.16367,-2.12868 0.41047,0.0475 0.76909,0.29556 0.98435,0.68085 0.30328,0.54286 0.29748,0.66888 -0.0556,1.20772 -0.45709,0.6976 -1.51371,0.81885 -2.09247,0.24011 z m 12.21133,-0.0593 c -0.47516,-0.52507 -0.48108,-0.94391 -0.0225,-1.59849 0.69228,-0.98837 2.40237,-0.40955 2.40237,0.81315 0,1.10409 -1.61033,1.63553 -2.37976,0.78534 z m 12.31748,0.14463 c -0.15183,-0.15183 -0.27605,-0.59695 -0.27605,-0.98917 0,-0.87915 0.35998,-1.26522 1.17978,-1.26522 1.12951,0 1.67819,1.02855 1.11252,2.0855 -0.27297,0.51004 -1.56674,0.61841 -2.01625,0.16889 z m 12.19209,0 c -0.39083,-0.39083 -0.34234,-1.4651 0.0855,-1.8929 0.42781,-0.42778 1.50207,-0.47629 1.8929,-0.0855 0.15183,0.15182 0.27605,0.59696 0.27605,0.98917 0,0.90301 -0.36222,1.26522 -1.2652,1.26522 -0.39223,0 -0.83737,-0.12418 -0.98918,-0.27605 z m 12.27754,-0.0855 c -0.8469,-0.84693 -0.0682,-2.27132 1.16369,-2.12868 0.41046,0.0475 0.76907,0.29556 0.98433,0.68085 0.30328,0.54285 0.2975,0.66887 -0.0556,1.20771 -0.45709,0.69761 -1.51372,0.81887 -2.09246,0.24012 z m 12.21134,-0.0593 c -0.47517,-0.52506 -0.48108,-0.94393 -0.0225,-1.59849 0.69228,-0.98837 2.40237,-0.40954 2.40237,0.81313 0,1.10412 -1.61033,1.63554 -2.37975,0.78536 z m 12.31747,0.14464 c -0.15182,-0.15183 -0.27605,-0.59695 -0.27605,-0.98918 0,-0.87916 0.36,-1.26522 1.17978,-1.26522 1.12951,0 1.67819,1.02854 1.11252,2.08548 -0.27297,0.51004 -1.56673,0.61843 -2.01625,0.16892 z m 12.19211,0 c -0.39084,-0.39085 -0.34236,-1.46511 0.0855,-1.89291 0.42781,-0.4278 1.50207,-0.47628 1.8929,-0.0855 0.15183,0.15183 0.27605,0.59695 0.27605,0.98917 0,0.90302 -0.36221,1.26522 -1.26522,1.26522 -0.39221,0 -0.83735,-0.12417 -0.98916,-0.27605 z m 12.27754,-0.0855 c -0.84692,-0.84692 -0.0682,-2.27131 1.16367,-2.12869 0.41046,0.0475 0.76906,0.29557 0.98433,0.68086 0.3033,0.54286 0.2975,0.66888 -0.0556,1.20772 -0.4571,0.6976 -1.51371,0.81885 -2.09247,0.24011 z m 12.21132,-0.0591 c -0.47517,-0.52505 -0.48108,-0.94391 -0.0225,-1.59849 0.69228,-0.98836 2.40237,-0.40953 2.40237,0.81315 0,1.10409 -1.61035,1.63553 -2.37977,0.78534 z m 12.31747,0.14463 c -0.15182,-0.15183 -0.27603,-0.59695 -0.27603,-0.98917 0,-0.87915 0.35999,-1.26522 1.17977,-1.26522 1.1295,0 1.67819,1.02855 1.11251,2.0855 -0.27296,0.51004 -1.56673,0.61842 -2.01625,0.16889 z m 12.19212,0 c -0.39085,-0.39083 -0.34236,-1.46511 0.0855,-1.89289 0.42781,-0.4278 1.50207,-0.47628 1.89292,-0.0855 0.15182,0.15183 0.27603,0.59697 0.27603,0.98917 0,0.90302 -0.3622,1.26523 -1.26522,1.26523 -0.3922,0 -0.83733,-0.12418 -0.98915,-0.27606 z m 12.27753,-0.0855 c -0.84692,-0.84693 -0.0682,-2.2713 1.16368,-2.12868 0.41045,0.0475 0.76907,0.29556 0.98434,0.68085 0.30329,0.54285 0.29748,0.66888 -0.0556,1.20771 -0.45707,0.69761 -1.5137,0.81887 -2.09245,0.24012 z m 12.21132,-0.0591 c -0.47516,-0.52506 -0.48108,-0.94391 -0.0225,-1.59849 0.69228,-0.98837 2.40238,-0.40954 2.40238,0.81313 0,1.10412 -1.61036,1.63554 -2.37977,0.78536 z m 12.31748,0.14464 c -0.39083,-0.39085 -0.34235,-1.46511 0.0855,-1.89291 0.42781,-0.4278 1.50207,-0.47628 1.8929,-0.0855 0.15183,0.15183 0.27606,0.59695 0.27606,0.98917 0,0.90302 -0.36223,1.26522 -1.26521,1.26522 -0.39222,0 -0.83736,-0.12417 -0.98917,-0.27605 z m 12.27753,-0.0855 c -0.8469,-0.84692 -0.0682,-2.27131 1.16369,-2.12869 0.41046,0.0475 0.76907,0.29557 0.98433,0.68086 0.30329,0.54286 0.2975,0.66888 -0.0556,1.20772 -0.4571,0.6976 -1.51371,0.81885 -2.09247,0.24011 z M 183.05938,119.23187 c -0.81686,-0.90262 -0.31299,-2.12092 0.87718,-2.12092 0.59999,0 0.88723,0.14576 1.18594,0.6016 0.35302,0.53879 0.35882,0.6649 0.0556,1.20771 -0.43133,0.77222 -1.55265,0.93713 -2.11875,0.31161 z m 12.15938,-0.10181 c -0.47143,-0.67305 -0.45235,-1.17245 0.0626,-1.63844 0.87896,-0.79547 2.3398,-0.25524 2.3398,0.86528 0,1.18583 -1.72459,1.74087 -2.40239,0.77316 z m 12.34007,0.23522 c -0.35657,-0.35658 -0.35657,-1.62176 0,-1.97834 0.44953,-0.44952 1.7433,-0.34113 2.01626,0.16891 0.34163,0.63836 0.2938,1.30684 -0.12337,1.72399 -0.42782,0.4278 -1.50207,0.47629 -1.89292,0.0855 z m 12.27755,-0.0855 c -0.4278,-0.4278 -0.47629,-1.50205 -0.0855,-1.89289 0.15182,-0.15182 0.59694,-0.27605 0.98917,-0.27605 0.9127,0 1.26522,0.36309 1.26522,1.30313 0,1.12839 -1.36249,1.67228 -2.16896,0.86581 z m 12.18871,-0.14975 c -0.47141,-0.67305 -0.45234,-1.17246 0.0627,-1.63846 0.87898,-0.79545 2.3398,-0.25522 2.3398,0.86529 0,1.18584 -1.72458,1.74086 -2.40238,0.77317 z m 12.3401,0.23522 c -0.15182,-0.15182 -0.27605,-0.59696 -0.27605,-0.98917 0,-0.9127 0.36309,-1.26522 1.30313,-1.26522 1.12839,0 1.67228,1.36249 0.86581,2.16894 -0.4278,0.4278 -1.50205,0.47628 -1.89289,0.0855 z m 12.27754,-0.0855 c -0.4278,-0.4278 -0.47629,-1.50205 -0.0855,-1.8929 0.15182,-0.15183 0.59695,-0.27605 0.98917,-0.27605 0.91268,0 1.26521,0.36308 1.26521,1.30313 0,1.12839 -1.36249,1.67227 -2.16894,0.86582 z m 12.22142,-0.0481 c -0.81684,-0.9026 -0.31297,-2.12091 0.87721,-2.12091 0.59998,0 0.8872,0.14575 1.18592,0.60161 0.35303,0.53879 0.35883,0.66489 0.0556,1.20771 -0.43133,0.7722 -1.55267,0.93711 -2.11875,0.31159 z m 12.1594,-0.1018 c -0.47143,-0.67306 -0.45234,-1.17245 0.0626,-1.63846 0.87896,-0.79546 2.33978,-0.25523 2.33978,0.86528 0,1.18584 -1.72457,1.74087 -2.40237,0.77318 z m 12.34009,0.23522 c -0.15183,-0.15183 -0.27605,-0.59695 -0.27605,-0.98917 0,-0.9127 0.36308,-1.26523 1.30313,-1.26523 1.12838,0 1.67227,1.36251 0.86581,2.16896 -0.4278,0.4278 -1.50206,0.47628 -1.89289,0.0855 z m 12.27753,-0.0855 c -0.42779,-0.4278 -0.47628,-1.50206 -0.0855,-1.89291 0.15183,-0.15182 0.59695,-0.27603 0.98917,-0.27603 0.9127,0 1.26522,0.36308 1.26522,1.30313 0,1.12837 -1.3625,1.67226 -2.16895,0.86581 z m 12.22143,-0.0481 c -0.81686,-0.90262 -0.31297,-2.12092 0.8772,-2.12092 0.59997,0 0.88721,0.14576 1.18592,0.6016 0.35304,0.53879 0.35884,0.6649 0.0556,1.20771 -0.43133,0.77221 -1.55267,0.93713 -2.11876,0.31161 z m 12.15939,-0.10181 c -0.47142,-0.67305 -0.45234,-1.17245 0.0626,-1.63844 0.87896,-0.79547 2.33979,-0.25524 2.33979,0.86528 0,1.18583 -1.72457,1.74087 -2.40237,0.77316 z m 12.34008,0.23522 c -0.15183,-0.15182 -0.27604,-0.59695 -0.27604,-0.98917 0,-0.91268 0.36309,-1.26521 1.30313,-1.26521 1.12839,0 1.67226,1.36249 0.86581,2.16894 -0.4278,0.4278 -1.50206,0.47629 -1.8929,0.0855 z m 12.27756,-0.0855 c -0.42781,-0.4278 -0.4763,-1.50205 -0.0855,-1.89289 0.15183,-0.15182 0.59695,-0.27605 0.98917,-0.27605 0.91268,0 1.26522,0.36309 1.26522,1.30313 0,1.12839 -1.3625,1.67228 -2.16894,0.86581 z m 12.22143,-0.0481 c -0.81688,-0.90261 -0.31299,-2.12091 0.87718,-2.12091 0.59999,0 0.88721,0.14575 1.18592,0.60161 0.35304,0.53878 0.35884,0.66489 0.0556,1.20771 -0.43133,0.7722 -1.55267,0.93711 -2.11876,0.31159 z m 12.15938,-0.1018 c -0.47143,-0.67305 -0.45236,-1.17245 0.0627,-1.63846 0.87896,-0.79546 2.33978,-0.25523 2.33978,0.86528 0,1.18584 -1.72457,1.74087 -2.40237,0.77318 z m 12.34008,0.23522 c -0.15182,-0.15183 -0.27605,-0.59697 -0.27605,-0.98917 0,-0.9127 0.36309,-1.26523 1.30313,-1.26523 1.12839,0 1.67228,1.36249 0.86583,2.16894 -0.4278,0.4278 -1.50206,0.47629 -1.89291,0.0855 z m 12.30687,-0.13345 c -0.81684,-0.90261 -0.31297,-2.12091 0.8772,-2.12091 0.59998,0 0.88721,0.14575 1.18592,0.60159 0.35304,0.53879 0.35884,0.66491 0.0556,1.20771 -0.43133,0.77222 -1.55267,0.93713 -2.11876,0.31161 z m 12.15939,-0.10181 c -0.47141,-0.67305 -0.45234,-1.17244 0.0626,-1.63844 0.879,-0.79547 2.3398,-0.25524 2.3398,0.86528 0,1.18583 -1.72458,1.74087 -2.40237,0.77316 z m 12.34009,0.23522 c -0.15182,-0.15182 -0.27605,-0.59695 -0.27605,-0.98917 0,-0.91268 0.3631,-1.2652 1.30313,-1.2652 1.12839,0 1.67228,1.36248 0.86582,2.16893 -0.42781,0.4278 -1.50207,0.47629 -1.8929,0.0855 z m 12.27754,-0.0855 c -0.42779,-0.4278 -0.47627,-1.50205 -0.0855,-1.89288 0.15183,-0.15183 0.59695,-0.27606 0.98917,-0.27606 0.91269,0 1.26521,0.36309 1.26521,1.30313 0,1.12839 -1.36247,1.67228 -2.16894,0.86581 z m 12.22142,-0.0479 c -0.81684,-0.90261 -0.31295,-2.12091 0.87719,-2.12091 0.6,0 0.88722,0.14575 1.18595,0.60161 0.35302,0.53878 0.35882,0.66489 0.0556,1.20771 -0.43132,0.7722 -1.55267,0.93712 -2.11876,0.31159 z m 12.1594,-0.1018 c -0.47141,-0.67305 -0.45235,-1.17245 0.0627,-1.63846 0.87899,-0.79546 2.33981,-0.25523 2.33981,0.86528 0,1.18584 -1.7246,1.74087 -2.40238,0.77318 z m 12.34008,0.23522 c -0.15182,-0.15183 -0.27605,-0.59697 -0.27605,-0.98917 0,-0.9127 0.36311,-1.26523 1.30313,-1.26523 1.12839,0 1.67228,1.36249 0.86583,2.16894 -0.42782,0.4278 -1.50207,0.47629 -1.89291,0.0855 z m 12.27754,-0.0855 c -0.42778,-0.4278 -0.47627,-1.50206 -0.0855,-1.89291 0.15182,-0.15182 0.59695,-0.27605 0.98917,-0.27605 0.91268,0 1.26522,0.36311 1.26522,1.30313 0,1.12839 -1.36249,1.67228 -2.16895,0.86583 z m 12.22144,-0.0481 c -0.81686,-0.9026 -0.31297,-2.12092 0.87719,-2.12092 0.59998,0 0.8872,0.14576 1.18593,0.60162 0.35302,0.53879 0.35882,0.6649 0.0556,1.2077 -0.43133,0.77222 -1.55269,0.93714 -2.11876,0.3116 z m 12.15938,-0.10181 c -0.47143,-0.67305 -0.45235,-1.17244 0.0626,-1.63845 0.87898,-0.79546 2.33981,-0.25523 2.33981,0.86528 0,1.18584 -1.7246,1.74087 -2.40236,0.77317 z m 12.34009,0.23522 c -0.15183,-0.15182 -0.27605,-0.59695 -0.27605,-0.98917 0,-0.91268 0.3631,-1.26522 1.30313,-1.26522 1.12838,0 1.67227,1.3625 0.86582,2.16895 -0.42781,0.4278 -1.50205,0.47629 -1.8929,0.0855 z m 12.27753,-0.0855 c -0.42778,-0.4278 -0.47627,-1.50205 -0.0855,-1.8929 0.15183,-0.15183 0.59696,-0.27604 0.98919,-0.27604 0.91268,0 1.2652,0.36309 1.2652,1.30313 0,1.12838 -1.36247,1.67227 -2.16894,0.86581 z m 12.22144,-0.0481 c -0.81685,-0.90261 -0.31297,-2.12091 0.87719,-2.12091 0.59998,0 0.88722,0.14575 1.18594,0.6016 0.35302,0.53879 0.35882,0.6649 0.0556,1.20772 -0.43133,0.7722 -1.55267,0.93712 -2.11875,0.31159 z m 12.15938,-0.1018 c -0.47142,-0.67305 -0.45234,-1.17247 0.0627,-1.63846 0.87898,-0.79547 2.3398,-0.25524 2.3398,0.86528 0,1.18583 -1.72458,1.74087 -2.40237,0.77318 z m 12.42553,0.14975 c -0.42778,-0.4278 -0.47627,-1.50206 -0.0855,-1.89289 0.15182,-0.15183 0.59695,-0.27605 0.98917,-0.27605 0.91268,0 1.2652,0.36309 1.2652,1.30313 0,1.12839 -1.36247,1.67228 -2.16893,0.86581 z m 12.22142,-0.0481 c -0.81684,-0.90262 -0.31295,-2.12092 0.87719,-2.12092 0.6,0 0.88722,0.14576 1.18595,0.60162 0.35302,0.53877 0.35882,0.66488 0.0556,1.2077 -0.43131,0.77221 -1.55267,0.93712 -2.11876,0.3116 z m 12.1594,-0.10181 c -0.47141,-0.67305 -0.45235,-1.17244 0.0627,-1.63845 0.87899,-0.79546 2.33981,-0.25523 2.33981,0.86528 0,1.18584 -1.72458,1.74087 -2.40238,0.77317 z m 12.34009,0.23522 c -0.15183,-0.15182 -0.27605,-0.59696 -0.27605,-0.98917 0,-0.9127 0.3631,-1.26522 1.30313,-1.26522 1.12838,0 1.67227,1.36249 0.86582,2.16894 -0.42781,0.4278 -1.50207,0.47629 -1.8929,0.0855 z m 12.27753,-0.0855 c -0.42778,-0.42779 -0.47627,-1.50205 -0.0855,-1.8929 0.15183,-0.15183 0.59695,-0.27605 0.98917,-0.27605 0.91268,0 1.26522,0.36309 1.26522,1.30313 0,1.12839 -1.36248,1.67228 -2.16895,0.86582 z m 12.22143,-0.0481 c -0.81684,-0.90259 -0.31296,-2.12091 0.8772,-2.12091 0.59998,0 0.88721,0.14575 1.18594,0.60161 0.35302,0.53879 0.35882,0.66489 0.0556,1.20771 -0.43131,0.77222 -1.55267,0.93712 -2.11875,0.31159 z m 12.15939,-0.1018 c -0.47141,-0.67305 -0.45234,-1.17245 0.0627,-1.63846 0.879,-0.79546 2.33982,-0.25523 2.33982,0.86528 0,1.18584 -1.7246,1.74087 -2.40237,0.77318 z m 12.34009,0.23522 c -0.15182,-0.15183 -0.27605,-0.59695 -0.27605,-0.98917 0,-0.91268 0.3631,-1.26522 1.30313,-1.26522 1.1284,0 1.67228,1.3625 0.86582,2.16895 -0.42781,0.4278 -1.50205,0.47629 -1.8929,0.0855 z m 12.27754,-0.0855 c -0.42779,-0.4278 -0.47627,-1.50206 -0.0855,-1.8929 0.15183,-0.15183 0.59697,-0.27604 0.98917,-0.27604 0.91269,0 1.26523,0.36309 1.26523,1.30313 0,1.12837 -1.36249,1.67226 -2.16896,0.86581 z m 12.22144,-0.0481 c -0.81686,-0.90262 -0.31297,-2.12092 0.87718,-2.12092 0.59999,0 0.88723,0.14576 1.18596,0.6016 0.353,0.53879 0.3588,0.66491 0.0556,1.20771 -0.43131,0.77222 -1.55267,0.93713 -2.11875,0.31161 z m 12.15938,-0.1018 c -0.47141,-0.67306 -0.45235,-1.17247 0.0626,-1.63846 0.87899,-0.79548 2.33981,-0.25525 2.33981,0.86528 0,1.18582 -1.72458,1.74087 -2.40237,0.77318 z m 12.34008,0.2352 c -0.15182,-0.15183 -0.27603,-0.59695 -0.27603,-0.98916 0,-0.9127 0.36309,-1.26522 1.30311,-1.26522 1.12839,0 1.67228,1.36249 0.86583,2.16894 -0.4278,0.4278 -1.50206,0.47629 -1.89291,0.0855 z m 12.27754,-0.0855 c -0.42778,-0.42778 -0.47627,-1.50206 -0.0855,-1.89289 0.15182,-0.15183 0.59695,-0.27605 0.98915,-0.27605 0.91268,0 1.26522,0.36309 1.26522,1.30313 0,1.12839 -1.36247,1.67228 -2.16895,0.86581 z m 12.22144,-0.0481 c -0.81686,-0.90262 -0.31297,-2.12092 0.87719,-2.12092 0.59998,0 0.88722,0.14576 1.18593,0.60162 0.35302,0.53877 0.35882,0.66488 0.0556,1.2077 -0.43131,0.77221 -1.55267,0.93712 -2.11876,0.3116 z m 12.1594,-0.10181 c -0.47143,-0.67305 -0.45237,-1.17244 0.0626,-1.63845 0.87898,-0.79546 2.3398,-0.25523 2.3398,0.86528 0,1.18584 -1.72458,1.74087 -2.40236,0.77317 z m 12.42551,0.14975 c -0.42779,-0.42779 -0.47627,-1.50205 -0.0855,-1.8929 0.15183,-0.15183 0.59695,-0.27605 0.98917,-0.27605 0.91269,0 1.26523,0.36309 1.26523,1.30313 0,1.12839 -1.36249,1.67228 -2.16896,0.86582 z m 12.22143,-0.0481 c -0.81685,-0.9026 -0.31296,-2.12091 0.87719,-2.12091 0.59999,0 0.88721,0.14575 1.18594,0.60161 0.35302,0.53879 0.35882,0.66489 0.0556,1.20771 -0.43132,0.7722 -1.55267,0.93712 -2.11875,0.31159 z M 183.17983,107.08919 c -0.29112,-0.20391 -0.51127,-0.60013 -0.51127,-0.92017 0,-0.67957 0.74742,-1.48222 1.38023,-1.48222 0.59249,0 1.38024,0.78777 1.38024,1.38024 0,0.57023 -0.77997,1.38025 -1.32905,1.38025 -0.2249,0 -0.63897,-0.16115 -0.92015,-0.3581 z m 12.14091,-0.10197 c -0.25306,-0.25304 -0.46008,-0.66712 -0.46008,-0.92016 0,-0.25304 0.20702,-0.66711 0.46008,-0.92016 0.25304,-0.25304 0.66711,-0.46008 0.92016,-0.46008 0.59247,0 1.38023,0.78777 1.38023,1.38024 0,0.25304 -0.20703,0.66712 -0.46008,0.92016 -0.25304,0.25304 -0.66711,0.46008 -0.92015,0.46008 -0.25305,0 -0.66712,-0.20704 -0.92016,-0.46008 z m 12.32355,0.0986 c -0.74363,-0.74363 -0.18253,-2.39899 0.81314,-2.39899 0.654,0 1.35579,0.70274 1.35579,1.35764 0,1.178 -1.37305,1.83724 -2.16893,1.04135 z m 12.21131,-0.0591 c -0.79389,-0.87725 -0.15949,-2.3398 1.01507,-2.3398 0.54392,0 1.13466,0.74943 1.13466,1.43944 0,1.19048 -1.36848,1.76365 -2.14973,0.90036 z m 12.27147,-0.0393 c -0.25304,-0.25304 -0.46006,-0.66711 -0.46006,-0.92016 0,-0.59247 0.78775,-1.38023 1.38022,-1.38023 0.25306,0 0.66713,0.20703 0.92016,0.46007 0.25304,0.25305 0.46009,0.66712 0.46009,0.92016 0,0.25305 -0.20705,0.66712 -0.46009,0.92016 -0.25303,0.25304 -0.6671,0.46008 -0.92016,0.46008 -0.25304,0 -0.66712,-0.20704 -0.92016,-0.46008 z m 12.32356,0.0986 c -0.74363,-0.74363 -0.18252,-2.39898 0.81315,-2.39898 0.65402,0 1.35579,0.70273 1.35579,1.35763 0,1.178 -1.37305,1.83724 -2.16894,1.04135 z m 12.21133,-0.0591 c -0.79391,-0.87725 -0.1595,-2.33978 1.01506,-2.33978 0.5439,0 1.13466,0.74941 1.13466,1.43942 0,1.19049 -1.36848,1.76365 -2.14972,0.90036 z m 12.32265,0.0627 c -0.29111,-0.20391 -0.51127,-0.60013 -0.51127,-0.92016 0,-0.67957 0.74743,-1.48221 1.38024,-1.48221 0.25304,0 0.66711,0.20703 0.92016,0.46009 0.25304,0.25303 0.46008,0.6671 0.46008,0.92014 0,0.57023 -0.77998,1.38024 -1.32905,1.38024 -0.2249,0 -0.63897,-0.16114 -0.92016,-0.3581 z m 12.1409,-0.10196 c -0.25303,-0.25304 -0.46006,-0.66711 -0.46006,-0.92016 0,-0.59248 0.78775,-1.38023 1.38024,-1.38023 0.25304,0 0.66711,0.20703 0.92015,0.46008 0.25304,0.25304 0.46008,0.66711 0.46008,0.92015 0,0.25305 -0.20704,0.66712 -0.46008,0.92016 -0.25304,0.25305 -0.66711,0.46008 -0.92015,0.46008 -0.25305,0 -0.66712,-0.20703 -0.92018,-0.46008 z m 12.32357,0.0986 c -0.74363,-0.74363 -0.18253,-2.39898 0.81314,-2.39898 0.65402,0 1.3558,0.70273 1.3558,1.35763 0,1.17801 -1.37306,1.83724 -2.16894,1.04135 z m 12.21132,-0.0591 c -0.79391,-0.87725 -0.1595,-2.33978 1.01506,-2.33978 0.54391,0 1.13467,0.74941 1.13467,1.43942 0,1.19049 -1.36848,1.76364 -2.14973,0.90036 z m 12.32265,0.0627 c -0.29111,-0.20391 -0.51125,-0.60013 -0.51125,-0.92016 0,-0.67958 0.74741,-1.48221 1.38022,-1.48221 0.59249,0 1.38025,0.78775 1.38025,1.38024 0,0.57021 -0.77998,1.38023 -1.32906,1.38023 -0.22489,0 -0.63896,-0.16114 -0.92016,-0.3581 z m 12.14092,-0.10196 c -0.25305,-0.25304 -0.46009,-0.66711 -0.46009,-0.92015 0,-0.59249 0.78777,-1.38024 1.38024,-1.38024 0.59249,0 1.38024,0.78775 1.38024,1.38024 0,0.59247 -0.78775,1.38023 -1.38024,1.38023 -0.25304,0 -0.66711,-0.20703 -0.92015,-0.46008 z m 12.32355,0.0986 c -0.74363,-0.74362 -0.18253,-2.39898 0.81315,-2.39898 0.654,0 1.35579,0.70273 1.35579,1.35762 0,1.17802 -1.37305,1.83724 -2.16894,1.04136 z m 12.21132,-0.0591 c -0.79389,-0.87724 -0.15934,-2.33979 1.01506,-2.33979 0.54392,0 1.13467,0.74942 1.13467,1.43942 0,1.1905 -1.36848,1.76365 -2.14973,0.90037 z m 12.32265,0.0627 c -0.2911,-0.2039 -0.51125,-0.60013 -0.51125,-0.92017 0,-0.67955 0.74741,-1.4822 1.38023,-1.4822 0.59249,0 1.38024,0.78775 1.38024,1.38024 0,0.57023 -0.77997,1.38023 -1.32905,1.38023 -0.2249,0 -0.63897,-0.16115 -0.92017,-0.3581 z m 12.14093,-0.10197 c -0.25306,-0.25304 -0.46008,-0.66711 -0.46008,-0.92014 0,-0.59249 0.78775,-1.38025 1.38022,-1.38025 0.59249,0 1.38025,0.78776 1.38025,1.38025 0,0.59247 -0.78776,1.38022 -1.38025,1.38022 -0.25304,0 -0.66711,-0.20702 -0.92014,-0.46008 z m 12.32354,0.0986 c -0.74363,-0.74361 -0.18252,-2.39898 0.81315,-2.39898 0.65402,0 1.35579,0.70273 1.35579,1.35763 0,1.17801 -1.37305,1.83724 -2.16894,1.04135 z m 12.34188,0.003 c -0.29111,-0.20389 -0.51127,-0.60011 -0.51127,-0.92014 0,-0.67958 0.74743,-1.48222 1.38024,-1.48222 0.59249,0 1.38025,0.78775 1.38025,1.38024 0,0.57022 -0.77999,1.38024 -1.32906,1.38024 -0.22489,0 -0.63896,-0.16116 -0.92016,-0.35812 z m 12.14092,-0.10196 c -0.25305,-0.25305 -0.46008,-0.66712 -0.46008,-0.92016 0,-0.59249 0.78776,-1.38024 1.38025,-1.38024 0.59248,0 1.38022,0.78775 1.38022,1.38024 0,0.59247 -0.78774,1.38024 -1.38022,1.38024 -0.25306,0 -0.66713,-0.20704 -0.92017,-0.46008 z m 12.32355,0.0986 c -0.74363,-0.74361 -0.18251,-2.39898 0.81313,-2.39898 0.65404,0 1.35582,0.70273 1.35582,1.35763 0,1.17801 -1.37306,1.83724 -2.16895,1.04135 z m 12.21132,-0.0591 c -0.7939,-0.87725 -0.15934,-2.3398 1.01506,-2.3398 0.54392,0 1.13467,0.74943 1.13467,1.43944 0,1.19048 -1.36846,1.76363 -2.14973,0.90036 z m 12.32265,0.0627 c -0.2911,-0.20391 -0.51125,-0.60013 -0.51125,-0.92016 0,-0.67958 0.74741,-1.48222 1.38023,-1.48222 0.59249,0 1.38024,0.78777 1.38024,1.38024 0,0.57023 -0.77997,1.38024 -1.32905,1.38024 -0.22488,0 -0.63895,-0.16116 -0.92017,-0.3581 z m 12.14093,-0.10196 c -0.25306,-0.25306 -0.46008,-0.66713 -0.46008,-0.92017 0,-0.59247 0.78775,-1.38024 1.38024,-1.38024 0.59249,0 1.38023,0.78777 1.38023,1.38024 0,0.59249 -0.78774,1.38025 -1.38023,1.38025 -0.25306,0 -0.66713,-0.20705 -0.92016,-0.46008 z m 12.32354,0.0986 c -0.74363,-0.74363 -0.18252,-2.399 0.81314,-2.399 0.65403,0 1.35582,0.70273 1.35582,1.35763 0,1.17801 -1.37307,1.83725 -2.16896,1.04137 z m 12.21133,-0.0591 c -0.79391,-0.87725 -0.1595,-2.3398 1.01504,-2.3398 0.54394,0 1.13468,0.74943 1.13468,1.43944 0,1.19047 -1.36846,1.76362 -2.14972,0.90036 z m 12.32265,0.0627 c -0.29111,-0.20391 -0.51126,-0.60013 -0.51126,-0.92017 0,-0.67957 0.74742,-1.48222 1.38023,-1.48222 0.59249,0 1.38024,0.78777 1.38024,1.38025 0,0.57022 -0.77997,1.38024 -1.32905,1.38024 -0.2249,0 -0.63897,-0.16115 -0.92016,-0.3581 z m 12.14092,-0.10197 c -0.25305,-0.25303 -0.46008,-0.6671 -0.46008,-0.92016 0,-0.59247 0.78775,-1.38024 1.38024,-1.38024 0.59249,0 1.38024,0.78777 1.38024,1.38024 0,0.59249 -0.78775,1.38024 -1.38024,1.38024 -0.25304,0 -0.66712,-0.20704 -0.92016,-0.46008 z m 12.32355,0.0986 c -0.74363,-0.74362 -0.18251,-2.39899 0.81313,-2.39899 0.65403,0 1.35581,0.70274 1.35581,1.35764 0,1.178 -1.37306,1.83724 -2.16894,1.04135 z m 12.21133,-0.0591 c -0.79392,-0.87725 -0.15949,-2.3398 1.01505,-2.3398 0.54392,0 1.13467,0.74943 1.13467,1.43944 0,1.19048 -1.36847,1.76365 -2.14972,0.90036 z m 12.32266,0.0626 c -0.29113,-0.20391 -0.51127,-0.60013 -0.51127,-0.92016 0,-0.67957 0.74741,-1.4822 1.38024,-1.4822 0.59249,0 1.38023,0.78775 1.38023,1.38022 0,0.57023 -0.77998,1.38025 -1.32906,1.38025 -0.22489,0 -0.63896,-0.16115 -0.92014,-0.35811 z m 12.1409,-0.10196 c -0.25303,-0.25304 -0.46008,-0.66711 -0.46008,-0.92016 0,-0.59247 0.78776,-1.38023 1.38025,-1.38023 0.59248,0 1.38024,0.78776 1.38024,1.38023 0,0.59249 -0.78776,1.38024 -1.38024,1.38024 -0.25304,0 -0.66711,-0.20704 -0.92017,-0.46008 z m 12.34278,0.0393 c -0.79391,-0.87725 -0.15934,-2.33978 1.01506,-2.33978 0.54392,0 1.13466,0.74941 1.13466,1.43942 0,1.19048 -1.36846,1.76364 -2.14972,0.90036 z m 12.32265,0.0626 c -0.29111,-0.20391 -0.51127,-0.60013 -0.51127,-0.92016 0,-0.67957 0.74743,-1.48221 1.38024,-1.48221 0.59249,0 1.38024,0.78776 1.38024,1.38023 0,0.57023 -0.77997,1.38024 -1.32905,1.38024 -0.22488,0 -0.63895,-0.16114 -0.92016,-0.3581 z m 12.14092,-0.10196 c -0.25304,-0.25304 -0.46008,-0.66711 -0.46008,-0.92016 0,-0.59248 0.78775,-1.38023 1.38024,-1.38023 0.59249,0 1.38023,0.78775 1.38023,1.38023 0,0.59248 -0.78774,1.38024 -1.38023,1.38024 -0.25305,0 -0.66712,-0.20703 -0.92016,-0.46008 z m 12.32355,0.0986 c -0.74363,-0.74363 -0.18251,-2.39898 0.81314,-2.39898 0.65402,0 1.35581,0.70273 1.35581,1.35763 0,1.17801 -1.37307,1.83724 -2.16895,1.04135 z m 12.21132,-0.0591 c -0.79391,-0.87725 -0.15934,-2.33979 1.01506,-2.33979 0.54392,0 1.13467,0.74942 1.13467,1.43943 0,1.19049 -1.36847,1.76364 -2.14973,0.90036 z m 12.32265,0.0626 c -0.29111,-0.2039 -0.51125,-0.60013 -0.51125,-0.92016 0,-0.67958 0.74741,-1.48221 1.38022,-1.48221 0.59249,0 1.38025,0.78775 1.38025,1.38024 0,0.57023 -0.77998,1.38023 -1.32906,1.38023 -0.22488,0 -0.63895,-0.16114 -0.92016,-0.3581 z m 12.14092,-0.10197 c -0.25305,-0.25303 -0.46008,-0.6671 -0.46008,-0.92014 0,-0.59249 0.78776,-1.38024 1.38025,-1.38024 0.59248,0 1.38024,0.78775 1.38024,1.38024 0,0.59247 -0.78776,1.38022 -1.38024,1.38022 -0.25304,0 -0.66713,-0.20702 -0.92017,-0.46008 z m 12.32355,0.0986 c -0.74363,-0.74361 -0.18251,-2.39898 0.81313,-2.39898 0.65404,0 1.35582,0.70273 1.35582,1.35763 0,1.17801 -1.37306,1.83724 -2.16895,1.04135 z m 12.21134,-0.0591 c -0.79392,-0.87723 -0.15934,-2.33978 1.01504,-2.33978 0.54392,0 1.13467,0.74941 1.13467,1.43942 0,1.1905 -1.36846,1.76365 -2.14971,0.90036 z m 12.32265,0.0627 c -0.29112,-0.20389 -0.51127,-0.60011 -0.51127,-0.92014 0,-0.67958 0.74741,-1.48222 1.38023,-1.48222 0.59248,0 1.38024,0.78775 1.38024,1.38024 0,0.57022 -0.77997,1.38022 -1.32906,1.38022 -0.22487,0 -0.63894,-0.16114 -0.92014,-0.3581 z m 12.14091,-0.10196 c -0.25304,-0.25305 -0.46008,-0.66712 -0.46008,-0.92016 0,-0.59249 0.78775,-1.38024 1.38024,-1.38024 0.59249,0 1.38024,0.78775 1.38024,1.38024 0,0.59247 -0.78775,1.38022 -1.38024,1.38022 -0.25304,0 -0.66711,-0.20702 -0.92016,-0.46006 z m 12.32354,0.0986 c -0.74363,-0.74361 -0.18251,-2.39898 0.81315,-2.39898 0.65402,0 1.35581,0.70273 1.35581,1.35763 0,1.17801 -1.37307,1.83724 -2.16896,1.04135 z m 12.21134,-0.0591 c -0.79392,-0.87725 -0.1595,-2.3398 1.01505,-2.3398 0.54392,0 1.13466,0.74941 1.13466,1.43942 0,1.1905 -1.36844,1.76365 -2.14971,0.90038 z m 12.32265,0.0625 c -0.29112,-0.2039 -0.51127,-0.60011 -0.51127,-0.92015 0,-0.67957 0.74742,-1.48222 1.38024,-1.48222 0.59249,0 1.38023,0.78775 1.38023,1.38024 0,0.57023 -0.77995,1.38025 -1.32905,1.38025 -0.22488,0 -0.63897,-0.16116 -0.92015,-0.35812 z m 12.14091,-0.10196 c -0.25304,-0.25306 -0.46008,-0.66713 -0.46008,-0.92017 0,-0.59249 0.78775,-1.38024 1.38024,-1.38024 0.59249,0 1.38024,0.78775 1.38024,1.38024 0,0.59248 -0.78775,1.38025 -1.38024,1.38025 -0.25304,0 -0.66711,-0.20705 -0.92016,-0.46008 z m 12.34277,0.0393 c -0.7939,-0.87726 -0.15934,-2.3398 1.01506,-2.3398 0.54392,0 1.13467,0.74943 1.13467,1.43942 0,1.19049 -1.36846,1.76364 -2.14973,0.90038 z m 12.32265,0.0626 c -0.2911,-0.20392 -0.51125,-0.60013 -0.51125,-0.92017 0,-0.67957 0.74741,-1.48222 1.38023,-1.48222 0.5925,0 1.38024,0.78775 1.38024,1.38024 0,0.57023 -0.77997,1.38025 -1.32906,1.38025 -0.22487,0 -0.63894,-0.16116 -0.92016,-0.3581 z M 183.12864,94.796362 c -0.86899,-0.868989 -0.32093,-2.300405 0.88075,-2.300405 0.57811,0 1.41964,0.756206 1.41964,1.275675 0,0.460192 -1.02462,1.484811 -1.48481,1.484811 -0.19552,0 -0.56254,-0.207043 -0.81558,-0.460081 z m 12.65218,0.300423 c -0.94736,-0.338572 -1.17996,-1.420868 -0.46008,-2.140747 0.61045,-0.610453 1.49518,-0.587135 1.94229,0.05114 0.48197,0.688108 0.45071,1.23644 -0.10197,1.789135 -0.46407,0.464076 -0.74888,0.526069 -1.38022,0.300424 z m 12.01323,-0.19846 c -0.67233,-0.470933 -0.7136,-1.817806 -0.0663,-2.164241 0.66339,-0.355033 1.27778,-0.289252 1.70474,0.182559 0.5434,0.600432 0.48059,1.553628 -0.13057,1.981682 -0.63989,0.448206 -0.86799,0.448206 -1.50789,0 z m 12.19211,0 c -0.98837,-0.692263 -0.40955,-2.402368 0.81315,-2.402368 1.16503,0 1.66355,1.723801 0.69475,2.402368 -0.63989,0.448206 -0.86801,0.448206 -1.5079,0 z m 12.60099,0.19846 c -0.94736,-0.338572 -1.17996,-1.420868 -0.46008,-2.140747 0.61045,-0.610453 1.4952,-0.587135 1.9423,0.05114 0.48198,0.688108 0.45072,1.23644 -0.10196,1.789135 -0.46408,0.464076 -0.74889,0.526069 -1.38024,0.300424 z m 12.01326,-0.19846 c -0.67236,-0.470933 -0.71363,-1.817806 -0.0663,-2.164241 0.6634,-0.355033 1.27778,-0.289252 1.70477,0.182559 0.54337,0.600432 0.48058,1.553628 -0.13057,1.981682 -0.63989,0.448206 -0.86802,0.448206 -1.50791,0 z m 12.1921,0 c -0.98837,-0.692263 -0.40955,-2.402368 0.81313,-2.402368 1.16505,0 1.66357,1.723801 0.69477,2.402368 -0.63989,0.448206 -0.86801,0.448206 -1.5079,0 z m 12.14091,-0.101963 c -0.86898,-0.868989 -0.32093,-2.300405 0.88076,-2.300405 0.57809,0 1.41964,0.756206 1.41964,1.275675 0,0.460192 -1.02462,1.484811 -1.48481,1.484811 -0.19552,0 -0.56254,-0.207043 -0.81559,-0.460081 z m 12.65218,0.300423 c -0.94735,-0.338572 -1.17997,-1.420868 -0.46009,-2.140747 0.61046,-0.610453 1.4952,-0.587135 1.94231,0.05114 0.48197,0.688108 0.45071,1.23644 -0.10197,1.789135 -0.46407,0.464076 -0.74888,0.526069 -1.38024,0.300424 z m 12.01324,-0.19846 c -0.67235,-0.470933 -0.7136,-1.817806 -0.0663,-2.164241 0.66341,-0.355033 1.27778,-0.289252 1.70476,0.182559 0.5434,0.600432 0.48059,1.553628 -0.13057,1.981682 -0.63989,0.448206 -0.86799,0.448206 -1.5079,0 z m 12.19211,0 c -0.98837,-0.692263 -0.40954,-2.402368 0.81315,-2.402368 1.16504,0 1.66355,1.723801 0.69476,2.402368 -0.63989,0.448206 -0.86802,0.448206 -1.50791,0 z m 12.14093,-0.101963 c -0.86899,-0.868989 -0.32093,-2.300405 0.88075,-2.300405 0.57809,0 1.41964,0.756206 1.41964,1.275675 0,0.460192 -1.02462,1.484811 -1.48482,1.484811 -0.19552,0 -0.56254,-0.207043 -0.81557,-0.460081 z m 12.65217,0.300423 c -0.94736,-0.338572 -1.17996,-1.420868 -0.46008,-2.140747 0.61046,-0.610453 1.49519,-0.587135 1.94229,0.05114 0.48198,0.688108 0.45072,1.23644 -0.10196,1.789135 -0.46408,0.464076 -0.74889,0.526069 -1.38023,0.300424 z m 12.01323,-0.19846 c -0.67233,-0.470933 -0.71359,-1.817806 -0.0663,-2.164241 0.6634,-0.355033 1.27777,-0.289252 1.70475,0.182559 0.54339,0.600432 0.48059,1.553628 -0.13057,1.981682 -0.63989,0.448206 -0.868,0.448206 -1.5079,0 z m 12.19212,0 c -0.98838,-0.692263 -0.40955,-2.402368 0.81315,-2.402368 1.16503,0 1.66355,1.723801 0.69475,2.402368 -0.63989,0.448206 -0.86801,0.448206 -1.5079,0 z m 12.1409,-0.101963 c -0.86897,-0.868989 -0.32091,-2.300405 0.88077,-2.300405 0.57811,0 1.41964,0.756206 1.41964,1.275675 0,0.460192 -1.02462,1.484811 -1.48481,1.484811 -0.19552,0 -0.56254,-0.207043 -0.8156,-0.460081 z m 12.6522,0.300423 c -0.94738,-0.338572 -1.17996,-1.420868 -0.46008,-2.140747 0.61045,-0.610453 1.49518,-0.587135 1.94228,0.05114 0.48198,0.688108 0.45072,1.23644 -0.10196,1.789135 -0.46408,0.464076 -0.74889,0.526069 -1.38023,0.300424 z m 12.01324,-0.19846 c -0.67235,-0.470933 -0.71361,-1.817806 -0.0663,-2.164241 0.6634,-0.355033 1.27778,-0.289252 1.70477,0.182559 0.54337,0.600432 0.48058,1.553628 -0.13057,1.981682 -0.6399,0.448206 -0.86802,0.448206 -1.50792,0 z m 12.14091,-0.101963 c -0.86897,-0.868989 -0.32093,-2.300405 0.88077,-2.300405 0.57809,0 1.41964,0.756206 1.41964,1.275675 0,0.460192 -1.02462,1.484811 -1.48482,1.484811 -0.19552,0 -0.56254,-0.207043 -0.81559,-0.460081 z m 12.65218,0.300423 c -0.94736,-0.338572 -1.17996,-1.420868 -0.46007,-2.140747 0.61046,-0.610453 1.49519,-0.587135 1.94229,0.05114 0.48198,0.688108 0.45072,1.23644 -0.10196,1.789135 -0.46408,0.464076 -0.74889,0.526069 -1.38025,0.300424 z m 12.01326,-0.19846 c -0.67233,-0.470933 -0.71361,-1.817806 -0.0663,-2.164241 0.66341,-0.355033 1.27778,-0.289252 1.70475,0.182559 0.54337,0.600432 0.4806,1.553628 -0.13057,1.981682 -0.63991,0.448206 -0.86802,0.448206 -1.50791,0 z m 12.1921,0 c -0.98838,-0.692263 -0.40955,-2.402368 0.81315,-2.402368 1.16503,0 1.66355,1.723801 0.69475,2.402368 -0.63991,0.448206 -0.86801,0.448206 -1.5079,0 z m 12.14092,-0.101963 c -0.86897,-0.868989 -0.32093,-2.300405 0.88075,-2.300405 0.57809,0 1.41964,0.756206 1.41964,1.275675 0,0.460192 -1.02462,1.484811 -1.4848,1.484811 -0.19553,0 -0.56255,-0.207043 -0.81559,-0.460081 z m 12.65218,0.300423 c -0.94738,-0.338572 -1.17998,-1.420868 -0.46008,-2.140747 0.61045,-0.610453 1.49518,-0.587135 1.94228,0.05114 0.482,0.688108 0.45072,1.23644 -0.10196,1.789135 -0.46408,0.464076 -0.74889,0.526069 -1.38023,0.300424 z m 12.01324,-0.19846 c -0.67233,-0.470933 -0.71361,-1.817806 -0.0663,-2.164241 0.66342,-0.355033 1.27778,-0.289252 1.70475,0.182559 0.54338,0.600432 0.4806,1.553628 -0.13057,1.981682 -0.63991,0.448206 -0.86801,0.448206 -1.5079,0 z m 12.1921,0 c -0.98837,-0.692263 -0.40955,-2.402368 0.81315,-2.402368 1.16503,0 1.66355,1.723801 0.69477,2.402368 -0.63992,0.448206 -0.86803,0.448206 -1.50792,0 z m 12.14092,-0.101963 c -0.86899,-0.868989 -0.32093,-2.300405 0.88075,-2.300405 0.57809,0 1.41964,0.756206 1.41964,1.275675 0,0.460192 -1.02462,1.484811 -1.48479,1.484811 -0.19554,0 -0.56256,-0.207043 -0.8156,-0.460081 z m 12.65218,0.300423 c -0.94738,-0.338572 -1.17996,-1.420868 -0.46008,-2.140747 0.61045,-0.610453 1.49518,-0.587135 1.94229,0.05114 0.48199,0.688108 0.45071,1.23644 -0.10197,1.789135 -0.46407,0.464076 -0.74888,0.526069 -1.38022,0.300424 z m 12.01325,-0.19846 c -0.67234,-0.470933 -0.71362,-1.817806 -0.0663,-2.164241 0.66342,-0.355033 1.27779,-0.289252 1.70475,0.182559 0.54338,0.600432 0.4806,1.553628 -0.13057,1.981682 -0.6399,0.448206 -0.86801,0.448206 -1.50792,0 z m 12.19209,0 c -0.98835,-0.692263 -0.40954,-2.402368 0.81315,-2.402368 1.16503,0 1.66355,1.723801 0.69476,2.402368 -0.63989,0.448206 -0.868,0.448206 -1.50791,0 z M 550.732,94.796362 c -0.86899,-0.868989 -0.32093,-2.300405 0.88075,-2.300405 0.57809,0 1.41964,0.756206 1.41964,1.275675 0,0.460192 -1.02462,1.484811 -1.48478,1.484811 -0.19554,0 -0.56258,-0.207043 -0.81561,-0.460081 z m 12.65217,0.300423 c -0.94737,-0.338572 -1.17996,-1.420868 -0.46008,-2.140747 0.61046,-0.610453 1.4952,-0.587135 1.94229,0.05114 0.48199,0.688108 0.45073,1.23644 -0.10196,1.789135 -0.4641,0.464076 -0.74891,0.526069 -1.38025,0.300424 z m 12.01325,-0.19846 c -0.98837,-0.692263 -0.40953,-2.402368 0.81315,-2.402368 1.16503,0 1.66355,1.723801 0.69475,2.402368 -0.63989,0.448206 -0.86799,0.448206 -1.5079,0 z m 12.14092,-0.101963 c -0.86897,-0.868989 -0.32093,-2.300405 0.88075,-2.300405 0.57809,0 1.41964,0.756206 1.41964,1.275675 0,0.460192 -1.02462,1.484811 -1.48479,1.484811 -0.19554,0 -0.56256,-0.207043 -0.8156,-0.460081 z m 12.65218,0.300423 c -0.94738,-0.338572 -1.17998,-1.420868 -0.46008,-2.140747 0.61045,-0.610453 1.49518,-0.587135 1.94229,0.05114 0.48199,0.688108 0.45071,1.23644 -0.10197,1.789135 -0.46407,0.464076 -0.74888,0.526069 -1.38022,0.300424 z m 12.01325,-0.19846 c -0.67234,-0.470933 -0.71362,-1.817806 -0.0663,-2.164241 0.66342,-0.355033 1.27779,-0.289252 1.70475,0.182559 0.54338,0.600432 0.4806,1.553628 -0.13057,1.981682 -0.6399,0.448206 -0.86801,0.448206 -1.5079,0 z m 12.19209,0 c -0.98837,-0.692263 -0.40953,-2.402368 0.81315,-2.402368 1.16503,0 1.66355,1.723801 0.69477,2.402368 -0.6399,0.448206 -0.86803,0.448206 -1.50792,0 z m 12.14093,-0.101963 c -0.86898,-0.868989 -0.32093,-2.300405 0.88075,-2.300405 0.57809,0 1.41964,0.756206 1.41964,1.275675 0,0.460192 -1.02462,1.484811 -1.4848,1.484811 -0.19554,0 -0.56256,-0.207043 -0.81559,-0.460081 z m 12.65217,0.300423 c -0.94737,-0.338572 -1.17996,-1.420868 -0.46008,-2.140747 0.61046,-0.610453 1.49519,-0.587135 1.94229,0.05114 0.48199,0.688108 0.45072,1.23644 -0.10196,1.789135 -0.46408,0.464076 -0.74889,0.526069 -1.38023,0.300424 z m 12.01325,-0.19846 c -0.67233,-0.470933 -0.71361,-1.817806 -0.0663,-2.164241 0.66341,-0.355033 1.27778,-0.289252 1.70476,0.182559 0.54336,0.600432 0.4806,1.553628 -0.13057,1.981682 -0.6399,0.448206 -0.868,0.448206 -1.5079,0 z m 12.1921,0 c -0.98836,-0.692263 -0.40955,-2.402368 0.81314,-2.402368 1.16504,0 1.66356,1.723801 0.69478,2.402368 -0.63991,0.448206 -0.86802,0.448206 -1.50792,0 z m 12.14092,-0.101963 c -0.86897,-0.868989 -0.32093,-2.300405 0.88075,-2.300405 0.57809,0 1.41964,0.756206 1.41964,1.275675 0,0.460192 -1.02462,1.484811 -1.48478,1.484811 -0.19554,0 -0.56257,-0.207043 -0.81561,-0.460081 z m 12.65218,0.300423 c -0.94738,-0.338572 -1.17996,-1.420868 -0.46008,-2.140747 0.61045,-0.610453 1.4952,-0.587135 1.94228,0.05114 0.482,0.688108 0.45073,1.23644 -0.10196,1.789135 -0.46409,0.464076 -0.7489,0.526069 -1.38024,0.300424 z m 12.01324,-0.19846 c -0.67233,-0.470933 -0.71361,-1.817806 -0.0663,-2.164241 0.66341,-0.355033 1.27778,-0.289252 1.70477,0.182559 0.54337,0.600432 0.4806,1.553628 -0.13057,1.981682 -0.6399,0.448206 -0.868,0.448206 -1.50791,0 z m 12.1921,0 c -0.98836,-0.692263 -0.40953,-2.402368 0.81315,-2.402368 1.16503,0 1.66355,1.723801 0.69477,2.402368 -0.63991,0.448206 -0.86801,0.448206 -1.50792,0 z m 12.14092,-0.101963 c -0.86897,-0.868989 -0.32093,-2.300405 0.88075,-2.300405 0.57809,0 1.41964,0.756206 1.41964,1.275675 0,0.460192 -1.02462,1.484811 -1.48478,1.484811 -0.19553,0 -0.56257,-0.207043 -0.81561,-0.460081 z m 12.65218,0.300423 c -0.94736,-0.338572 -1.17996,-1.420868 -0.46008,-2.140747 0.61045,-0.610453 1.4952,-0.587135 1.9423,0.05114 0.48198,0.688108 0.45072,1.23644 -0.10196,1.789135 -0.46409,0.464076 -0.7489,0.526069 -1.38024,0.300424 z m 12.01325,-0.19846 c -0.98838,-0.692263 -0.40953,-2.402368 0.81314,-2.402368 1.16504,0 1.66355,1.723801 0.69478,2.402368 -0.63991,0.448206 -0.86802,0.448206 -1.50792,0 z m 12.14092,-0.101963 c -0.86897,-0.868989 -0.32093,-2.300405 0.88075,-2.300405 0.57809,0 1.41964,0.756206 1.41964,1.275675 0,0.460192 -1.02462,1.484811 -1.4848,1.484811 -0.19552,0 -0.56255,-0.207043 -0.81559,-0.460081 z"
       id="path587" />
    <rect
       style="fill:#146134;fill-opacity:1;stroke:#000000;stroke-width:0;stroke-linecap:round;stroke-linejoin:round"
       id="rect2728"
       width="188.13274"
       height="7.8185258"
       x="254.96973"
       y="188.27841" />
    <rect
       style="fill:#146134;fill-opacity:1;stroke:#000000;stroke-width:0;stroke-linecap:round;stroke-linejoin:round"
       id="rect2728-6"
       width="188.13274"
       height="7.8185258"
       x="-66.282326"
       y="245.35915" />
  </g>
</svg>
